<svg width="20" height="20" viewBox="0 0 20 20" fill="none" xmlns="http://www.w3.org/2000/svg">
<path d="M10.0001 20C15.5229 20 20 15.5228 20 9.99998C20 4.47713 15.5229 0 10.0001 0C4.47723 0 0 4.47713 0 9.99998C0 15.5228 4.47723 20 10.0001 20Z" fill="#436A98"/>
<path d="M10.6248 5.8034C10.6248 4.92823 9.99256 4.21875 9.21274 4.21875C8.43292 4.21875 7.80078 4.92823 7.80078 5.8034V9.60656C7.80078 10.4817 8.43292 11.1912 9.21274 11.1912C9.99256 11.1912 10.6248 10.4817 10.6248 9.60656V5.8034Z" fill="white" stroke="white" stroke-width="0.279424"/>
<path d="M8.61226 9.53881C8.09279 10.1241 8.09279 11.07 8.61226 11.653L10.8377 14.1506C11.3572 14.7336 12.2 14.7336 12.7195 14.1506C13.241 13.5653 13.241 12.6194 12.7195 12.0364L10.4961 9.53881C9.97462 8.95581 9.13173 8.95581 8.61226 9.53881Z" fill="white" stroke="white" stroke-width="0.279424"/>
</svg>
