<svg width="20" height="25" viewBox="0 0 20 25" fill="none" xmlns="http://www.w3.org/2000/svg">
<path d="M10.0001 24C15.5229 24 20 19.5228 20 14C20 8.47713 15.5229 4 10.0001 4C4.47723 4 0 8.47713 0 14C0 19.5228 4.47723 24 10.0001 24Z" fill="#86C8DE"/>
<path d="M9.525 16.33C9.945 16.33 10.245 16.435 10.425 16.645C10.605 16.845 10.695 17.13 10.695 17.5C10.695 17.66 10.675 17.835 10.635 18.025C10.595 18.215 10.52 18.395 10.41 18.565C10.31 18.725 10.16 18.865 9.96 18.985C9.77 19.095 9.52 19.15 9.21 19.15C8.76 19.15 8.455 19.035 8.295 18.805C8.135 18.565 8.055 18.27 8.055 17.92C8.055 17.72 8.08 17.525 8.13 17.335C8.18 17.145 8.26 16.975 8.37 16.825C8.48 16.675 8.63 16.555 8.82 16.465C9.01 16.375 9.245 16.33 9.525 16.33ZM10.65 14.98C10.58 15.12 10.52 15.205 10.47 15.235C10.42 15.265 10.355 15.28 10.275 15.28H9.735C9.345 15.28 9.065 15.2 8.895 15.04C8.725 14.87 8.64 14.665 8.64 14.425C8.64 14.195 8.7 13.975 8.82 13.765C8.95 13.545 9.11 13.335 9.3 13.135C9.49 12.935 9.69 12.74 9.9 12.55C10.12 12.35 10.325 12.155 10.515 11.965C10.705 11.765 10.86 11.565 10.98 11.365C11.11 11.155 11.175 10.935 11.175 10.705C11.175 10.465 11.095 10.245 10.935 10.045C10.785 9.835 10.535 9.73 10.185 9.73C9.915 9.73 9.695 9.785 9.525 9.895C9.365 10.005 9.235 10.145 9.135 10.315C9.035 10.485 8.96 10.675 8.91 10.885C8.86 11.085 8.815 11.285 8.775 11.485C8.755 11.595 8.72 11.67 8.67 11.71C8.63 11.74 8.52 11.755 8.34 11.755C7.73 11.755 7.295 11.65 7.035 11.44C6.785 11.22 6.66 10.885 6.66 10.435C6.66 9.965 6.77 9.56 6.99 9.22C7.22 8.88 7.515 8.6 7.875 8.38C8.245 8.16 8.66 8 9.12 7.9C9.59 7.79 10.065 7.735 10.545 7.735C11.115 7.735 11.6 7.81 12 7.96C12.41 8.1 12.745 8.295 13.005 8.545C13.265 8.785 13.455 9.07 13.575 9.4C13.705 9.72 13.77 10.055 13.77 10.405C13.77 10.935 13.64 11.405 13.38 11.815C13.12 12.225 12.815 12.605 12.465 12.955C12.115 13.305 11.765 13.64 11.415 13.96C11.075 14.28 10.82 14.62 10.65 14.98Z" fill="white"/>
</svg>
