<svg width="84" height="75" viewBox="0 0 84 75" fill="none" xmlns="http://www.w3.org/2000/svg">
<g filter="url(#filter0_d_1671_1927)">
<path d="M43.9594 0.0108562C46.9631 -0.0960089 49.8442 0.601193 52.8057 1.43649C53.3102 1.57655 53.8147 1.71661 54.3344 1.86091C57.3062 2.70858 60.263 3.6327 63.2001 4.79684C63.5045 4.9136 63.8089 5.03037 64.1225 5.15068C65.7157 5.8242 66.5843 6.53366 67.6746 8.64419C68.6342 9.36944 68.6342 9.36944 69.7034 9.95911C72.3287 11.7248 74.6981 14.2744 76.5681 17.9947C76.9138 20.5332 76.9138 20.5332 77.0128 22.67C77.3063 22.67 77.5998 22.67 77.9022 22.67C79.7045 28.4182 80.4924 32.5423 79.6809 39.0334C79.3874 39.0334 79.0939 39.0334 78.7915 39.0334C78.764 39.5798 78.7365 40.1262 78.7081 40.6892C77.7451 46.6603 74.3422 50.5136 71.4047 53.4349C70.1352 54.5874 68.854 55.682 67.5634 56.7604C67.1364 57.1351 66.7093 57.5098 66.2694 57.8958C63.5376 60.1963 61.0383 61.4662 58.0294 62.1365C57.0212 62.2228 57.0212 62.2228 56.5577 63.1889C55.261 63.6401 53.9717 64.0428 52.6668 64.4064C52.2846 64.5139 51.9024 64.6213 51.5086 64.7319C48.8162 65.4444 46.232 65.6467 43.5075 65.5022C42.2326 65.4371 42.2326 65.4371 40.6883 66.3545C37.0475 68.1601 32.7794 65.7378 29.1545 64.4551C28.6742 64.2924 28.1938 64.1297 27.6989 63.9621C24.5101 62.8445 21.5011 61.7157 18.7602 58.5137C18.7602 57.9994 18.7602 57.4851 18.7602 56.9552C18.4908 57.0095 18.2214 57.0637 17.9438 57.1196C14.5873 57.4997 12.4927 55.8916 9.86668 52.28C8.18292 49.551 6.89845 47.1077 6.75394 42.9295C6.31371 42.9295 5.87348 42.9295 5.41991 42.9295C4.04662 36.8704 3.4144 31.5859 4.69731 25.2998C5.91698 20.9496 8.00683 18.8762 10.3114 16.4363C10.6524 16.0395 10.9935 15.6428 11.3449 15.234C13.6745 12.5402 13.6745 12.5402 15.2028 12.5402C15.3002 12.0671 15.3977 11.594 15.4981 11.1066C17.0715 6.64849 21.4581 5.43186 24.2075 4.26113C24.8162 4.0291 24.8162 4.0291 25.4373 3.79239C26.8293 3.22714 26.8293 3.22714 28.3173 1.98742C30.9464 0.21614 33.7095 0.406278 36.4917 0.316377C37.0322 0.289759 37.5728 0.263141 38.1297 0.235716C40.0728 0.145724 42.0165 0.112393 43.9594 0.0108562Z" fill="white"/>
</g>
<g filter="url(#filter1_d_1671_1927)">
<path d="M40.6287 3.00037C41.0577 3.0029 41.4867 3.00542 41.9288 3.00802C42.5988 3.01788 42.5988 3.01788 43.2824 3.02793C43.7344 3.03146 44.1864 3.035 44.6521 3.03864C45.7681 3.04788 46.884 3.06078 48 3.07692C48 3.3356 48 3.59428 48 3.8608C47.5023 3.89011 47.0046 3.91941 46.4918 3.9496C42.8229 4.2143 39.4269 4.69701 35.8843 6.50947C34.7335 6.99633 34.7335 6.99633 33.4951 6.96571C33.149 6.97582 32.8028 6.98592 32.4462 6.99633C32.0074 7.79663 32.0074 7.79663 31.5598 8.61309C31.2485 9.11429 30.9371 9.61548 30.6163 10.1319C29.1295 9.9359 29.1295 9.9359 27.8715 9.34798C27.8715 9.86535 27.8715 10.3827 27.8715 10.9157C26.8148 11.1744 25.758 11.4331 24.6693 11.6996C24.6126 12.1847 24.556 12.6697 24.4977 13.1694C24.2118 14.8352 24.2118 14.8352 23.2969 16.4029C22.096 16.5009 22.096 16.5009 21.0095 16.4029C21.0095 16.9203 21.0095 17.4377 21.0095 17.9707C20.5755 18.3102 20.1415 18.6497 19.6943 18.9995C18.1731 20.1601 18.1731 20.1601 17.3498 22.674C17.0479 22.674 16.746 22.674 16.4349 22.674C16.7274 23.3692 17.0199 24.0644 17.3212 24.7807C18.177 27.1359 18.5366 28.5931 18.7222 31.2967C19.5431 31.2724 19.5431 31.2724 20.3805 31.2477C22.0068 31.2428 23.5281 31.5327 25.1267 32.0806C25.1267 32.5979 25.1267 33.1153 25.1267 33.6483C24.2598 33.7123 23.3924 33.7577 22.5249 33.7953C21.8004 33.8363 21.8004 33.8363 21.0614 33.878C19.4626 33.6202 18.6173 32.9608 17.3498 31.2967C17.3498 30.7793 17.3498 30.262 17.3498 29.7289C17.0479 29.7289 16.746 29.7289 16.4349 29.7289C16.2839 29.4703 16.1329 29.2116 15.9774 28.9451C15.9491 29.5594 15.9208 30.1738 15.8916 30.8068C15.5199 32.8645 15.5199 32.8645 14.4335 33.8933C13.2326 34.4322 13.2326 34.4322 11.8602 34.4322C11.7093 34.9496 11.5583 35.467 11.4028 36C10.4394 31.667 9.8572 28.1063 10.0304 23.4579C10.585 23.4685 10.585 23.4685 11.1508 23.4793C11.8841 23.4444 11.8841 23.4444 12.6322 23.4089C13.1152 23.3998 13.5981 23.3907 14.0957 23.3813C15.8401 22.515 16.1931 21.21 17.1379 18.6625C18.4068 15.8651 20.2222 14.4039 22.0102 12.7285C22.3761 12.3682 22.7421 12.008 23.1191 11.6369C26.651 8.22916 30.1893 5.34902 34.2474 4.49771C36.4311 4.02051 38.429 2.97753 40.6287 3.00037Z" fill="white"/>
</g>
<g filter="url(#filter2_d_1671_1927)">
<path d="M12.4628 36C11.5394 36.0728 10.6289 36.19 9.70864 36.3507C9.32028 36.4135 9.32028 36.4135 8.92407 36.4775C8.28258 36.5817 7.64127 36.6912 7 36.8016C9.34609 42.1129 11.6654 45.3793 14.6707 48.6249C15.0254 49.0309 15.38 49.437 15.7455 49.8554C18.3656 52.6799 20.4854 53.3679 23.3884 52.8331C24.1648 49.8329 24.101 48.1921 23.7526 44.8174C23.2068 44.6717 23.2068 44.6717 22.6501 44.523C22.1801 44.3887 21.7102 44.2544 21.226 44.116C20.757 43.9858 20.2881 43.8556 19.8049 43.7215C19.2352 43.4704 19.2352 43.4704 18.654 43.2142C18.5338 42.6852 18.4136 42.1561 18.2898 41.611C18.0494 41.8756 17.8091 42.1401 17.5614 42.4126C17.4412 41.8836 17.321 41.3545 17.1972 40.8095C16.4795 40.0724 15.7487 39.3959 15.0121 38.7554C13.6382 37.7377 13.6382 37.7377 12.4628 36Z" fill="white"/>
</g>
<g filter="url(#filter3_d_1671_1927)">
<path d="M75 34.6934C71.97 39.8423 69.0057 42.8622 65.1058 45.9403C64.6331 46.3266 64.1604 46.7129 63.6734 47.1109C63.2138 47.4755 62.7542 47.8402 62.2806 48.2159C61.8651 48.5479 61.4496 48.8799 61.0214 49.2219C59.6124 50.0338 58.4818 50.0738 57 49.9435C57 49.4402 57 48.937 57 48.4184C59.0004 46.8693 60.8243 46.4965 63 46.1309C63 45.6277 63 45.1244 63 44.6059C64.2185 43.5994 65.4369 42.5929 66.6923 41.5559C66.6923 41.0527 66.6923 40.5494 66.6923 40.0309C66.3877 39.6535 66.0831 39.276 65.7692 38.8872C65.4646 38.5097 65.16 38.1323 64.8462 37.7434C64.8462 37.2402 64.8462 36.7369 64.8462 36.2184C68.0599 32.9809 71.4197 34.0616 75 34.6934Z" fill="white"/>
</g>
<g filter="url(#filter4_d_1671_1927)">
<path d="M70 40.1834C70.9803 40.1325 71.9607 40.0962 72.9412 40.066C73.7601 40.0333 73.7601 40.0333 74.5956 40C76.1176 40.1834 76.1176 40.1834 78 42.0611C74.2729 42.5259 74.2729 42.5259 70.4706 43C70.3153 42.0705 70.16 41.141 70 40.1834Z" fill="white"/>
</g>
<g filter="url(#filter5_d_1671_1927)">
<path d="M10.5094 38C10.5094 38.5258 10.5094 39.0516 10.5094 39.5933C9.44887 40.1192 8.3883 40.645 7.2956 41.1867C8.36359 45.678 9.2831 48.4878 11.8868 50.7468C14.5378 52.0611 17.4144 51.6126 20.1509 51.5434C20.1509 52.0692 20.1509 52.5951 20.1509 53.1368C20.454 53.1368 20.757 53.1368 21.0692 53.1368C21.2964 51.9537 21.2964 51.9537 21.5283 50.7468C21.7819 50.8108 22.0355 50.8749 22.2968 50.9409C24.8309 51.5793 27.366 52.2049 29.9019 52.8233C31.0142 53.0983 32.125 53.386 33.2358 53.6783C36.6071 54.5322 39.7362 54.7909 43.1302 54.1606C44.3754 53.9517 45.5596 53.9247 46.8086 53.9833C49.7638 54.0419 52.9458 53.5333 55.6879 51.5372C57.6963 50.2061 59.8132 50.0299 61.938 49.6016C62.3902 49.4537 62.8423 49.3058 63.3082 49.1534C63.4597 48.6276 63.6112 48.1018 63.7673 47.5601C64.2218 47.9544 64.2218 47.9544 64.6855 48.3568C64.837 47.8309 64.9886 47.3051 65.1447 46.7634C66.0495 46.0308 66.9707 45.3585 67.8994 44.7219C69.6315 43.7104 69.6315 43.7104 71.1132 41.9834C72.2773 42.0558 73.4251 42.1723 74.5853 42.3319C75.0749 42.3943 75.0749 42.3943 75.5744 42.4579C76.3831 42.5615 77.1916 42.6703 78 42.78C75.0359 48.0704 72.1385 51.2482 68.3298 54.4314C67.8827 54.8216 67.4355 55.2119 66.9749 55.6139C64.128 58.0008 61.5368 59.3433 58.397 60.031C57.3586 60.1161 57.3586 60.1161 56.8805 61.1035C55.5417 61.5648 54.2105 61.9766 52.8632 62.3483C52.4686 62.4581 52.074 62.568 51.6674 62.6811C48.8876 63.4095 46.2194 63.6164 43.4064 63.4686C42.0901 63.402 42.0901 63.402 40.4957 64.34C36.7366 66.1861 32.3299 63.7095 28.5873 62.3981C28.0913 62.2318 27.5954 62.0654 27.0844 61.894C23.792 60.7514 20.6853 59.5972 17.8553 56.3235C17.8553 55.7977 17.8553 55.2719 17.8553 54.7301C17.5772 54.7856 17.299 54.841 17.0124 54.8982C13.5464 55.2868 11.385 53.6419 8.67296 49.9501C6.76518 46.8928 5.62521 44.0414 5 39.5933C5.56816 39.3304 6.13632 39.0675 6.7217 38.7967C7.04129 38.6488 7.36088 38.5009 7.69015 38.3485C8.67296 38 8.67296 38 10.5094 38Z" fill="white"/>
</g>
<g filter="url(#filter6_d_1671_1927)">
<path d="M62 56.5262C60.7247 58.3535 60.1449 58.8415 58.375 59C57.9212 58.952 57.4675 58.904 57 58.8545C57 58.3422 57 57.83 57 57.3023C58.8909 55.8766 59.9728 55.6271 62 56.5262Z" fill="white"/>
</g>
<g filter="url(#filter7_d_1671_1927)">
<path d="M34.2857 61C35.871 61.7102 37.4338 62.5567 39 63.4C38.8586 63.928 38.7171 64.456 38.5714 65C36.7329 64.472 34.8943 63.944 33 63.4C33.4243 63.136 33.8486 62.872 34.2857 62.6C34.2857 62.072 34.2857 61.544 34.2857 61Z" fill="white"/>
</g>
<g filter="url(#filter8_d_1671_1927)">
<path d="M57 51.5461C56.6475 53.994 56.2652 56.3459 55.6552 58.6365C54.4504 59.8675 54.4504 59.8675 53.4138 60.2122C53.4138 60.4722 53.4138 60.7321 53.4138 61C50.3072 61 47.2007 61 44 61C44.1479 59.7001 44.2959 58.4002 44.4483 57.0609C44.5962 57.8408 44.7441 58.6208 44.8966 59.4244C47.4114 59.4244 49.9262 59.4244 52.5172 59.4244C52.5172 56.8245 52.5172 54.2247 52.5172 51.5461C54.1919 50.9441 55.363 50.7018 57 51.5461Z" fill="white"/>
</g>
<g filter="url(#filter9_d_1671_1927)">
<path d="M13 48C14.65 48 16.3 48 18 48C18 49.1 18 50.2 18 51.3333C17.7462 51.3333 17.4923 51.3333 17.2308 51.3333C17.2308 51.8833 17.2308 52.4333 17.2308 53C15.8346 53 14.4385 53 13 53C13 51.35 13 49.7 13 48Z" fill="white"/>
</g>
<g filter="url(#filter10_d_1671_1927)">
<path d="M17 40C18.98 40.825 18.98 40.825 21 41.6667C20.472 42.7667 19.944 43.8667 19.4 45C18.2 43.9062 18.2 43.9062 17 42.5C17 41.675 17 40.85 17 40Z" fill="white"/>
</g>
<g filter="url(#filter11_d_1671_1927)">
<path d="M43.9149 46C44.3783 46.4117 44.3783 46.4117 44.8511 46.8316C44.3877 47.2433 44.3877 47.2433 43.9149 47.6633C43.9149 47.1144 43.9149 46.5655 43.9149 46ZM42.0426 47.6633C42.6604 47.6633 43.2783 47.6633 43.9149 47.6633C43.9149 48.2122 43.9149 48.7611 43.9149 49.3266C43.606 49.601 43.297 49.8755 42.9787 50.1582C43.2895 50.259 43.6002 50.3598 43.9204 50.4636C46.0373 51.1774 48.0338 51.8545 50 53.4848C48.3314 55.4612 47.0743 55.4631 45.1418 55.5509C44.8016 55.571 44.4615 55.591 44.111 55.6117C43.3899 55.6518 42.6686 55.6879 41.9474 55.7203C40.8582 55.7711 39.7697 55.8404 38.6809 55.9115C35.0254 56.1157 31.5525 56.1055 28 54.3165C28 54.042 28 53.7676 28 53.4848C28.2713 53.4979 28.5427 53.5109 28.8222 53.5244C30.0596 53.5765 31.297 53.6088 32.5346 53.6407C32.9615 53.6616 33.3884 53.6825 33.8282 53.7041C36.236 53.7508 37.6951 53.5876 39.7021 50.9899C40.1655 50.9899 40.6289 50.9899 41.1064 50.9899C41.1064 50.441 41.1064 49.8921 41.1064 49.3266C41.4153 49.3266 41.7243 49.3266 42.0426 49.3266C42.0426 48.7777 42.0426 48.2288 42.0426 47.6633Z" fill="white"/>
</g>
<g filter="url(#filter12_d_1671_1927)">
<path d="M43.9594 0.0108562C46.9631 -0.0960089 49.8442 0.601193 52.8057 1.43649C53.3102 1.57655 53.8147 1.71661 54.3344 1.86091C57.3062 2.70858 60.263 3.6327 63.2001 4.79684C63.5045 4.9136 63.8089 5.03037 64.1225 5.15068C65.7157 5.8242 66.5843 6.53366 67.6746 8.64419C68.6342 9.36944 68.6342 9.36944 69.7034 9.95911C72.3287 11.7248 74.6981 14.2744 76.5681 17.9947C76.9138 20.5332 76.9138 20.5332 77.0128 22.67C77.3063 22.67 77.5998 22.67 77.9022 22.67C79.7045 28.4182 80.4924 32.5423 79.6809 39.0334C79.3874 39.0334 79.0939 39.0334 78.7915 39.0334C78.764 39.5798 78.7365 40.1262 78.7081 40.6892C77.7451 46.6603 74.3422 50.5136 71.4047 53.4349C70.1352 54.5874 68.854 55.682 67.5634 56.7604C67.1364 57.1351 66.7093 57.5098 66.2694 57.8958C63.5376 60.1963 61.0383 61.4662 58.0294 62.1365C57.0212 62.2228 57.0212 62.2228 56.5577 63.1889C55.261 63.6401 53.9717 64.0428 52.6668 64.4064C52.2846 64.5139 51.9024 64.6213 51.5086 64.7319C48.8162 65.4444 46.232 65.6467 43.5075 65.5022C42.2326 65.4371 42.2326 65.4371 40.6883 66.3545C37.0475 68.1601 32.7794 65.7378 29.1545 64.4551C28.6742 64.2924 28.1938 64.1297 27.6989 63.9621C24.5101 62.8445 21.5011 61.7157 18.7602 58.5137C18.7602 57.9994 18.7602 57.4851 18.7602 56.9552C18.4908 57.0095 18.2214 57.0637 17.9438 57.1196C14.5873 57.4997 12.4927 55.8916 9.86668 52.28C8.18292 49.551 6.89845 47.1077 6.75394 42.9295C6.31371 42.9295 5.87348 42.9295 5.41991 42.9295C4.04662 36.8704 3.4144 31.5859 4.69731 25.2998C5.91698 20.9496 8.00683 18.8762 10.3114 16.4363C10.6524 16.0395 10.9935 15.6428 11.3449 15.234C13.6745 12.5402 13.6745 12.5402 15.2028 12.5402C15.3002 12.0671 15.3977 11.594 15.4981 11.1066C17.0715 6.64849 21.4581 5.43186 24.2075 4.26113C24.8162 4.0291 24.8162 4.0291 25.4373 3.79239C26.8293 3.22714 26.8293 3.22714 28.3173 1.98742C30.9464 0.21614 33.7095 0.406278 36.4917 0.316377C37.0322 0.289759 37.5728 0.263141 38.1297 0.235716C40.0728 0.145724 42.0165 0.112393 43.9594 0.0108562Z" fill="white"/>
</g>
<g filter="url(#filter13_d_1671_1927)">
<path d="M40.6287 3.00037C41.0577 3.0029 41.4867 3.00542 41.9288 3.00802C42.5988 3.01788 42.5988 3.01788 43.2824 3.02793C43.7344 3.03146 44.1864 3.035 44.6521 3.03864C45.7681 3.04788 46.884 3.06078 48 3.07692C48 3.3356 48 3.59428 48 3.8608C47.5023 3.89011 47.0046 3.91941 46.4918 3.9496C42.8229 4.2143 39.4269 4.69701 35.8843 6.50947C34.7335 6.99633 34.7335 6.99633 33.4951 6.96571C33.149 6.97582 32.8028 6.98592 32.4462 6.99633C32.0074 7.79663 32.0074 7.79663 31.5598 8.61309C31.2485 9.11429 30.9371 9.61548 30.6163 10.1319C29.1295 9.9359 29.1295 9.9359 27.8715 9.34798C27.8715 9.86535 27.8715 10.3827 27.8715 10.9157C26.8148 11.1744 25.758 11.4331 24.6693 11.6996C24.6126 12.1847 24.556 12.6697 24.4977 13.1694C24.2118 14.8352 24.2118 14.8352 23.2969 16.4029C22.096 16.5009 22.096 16.5009 21.0095 16.4029C21.0095 16.9203 21.0095 17.4377 21.0095 17.9707C20.5755 18.3102 20.1415 18.6497 19.6943 18.9995C18.1731 20.1601 18.1731 20.1601 17.3498 22.674C17.0479 22.674 16.746 22.674 16.4349 22.674C16.7274 23.3692 17.0199 24.0644 17.3212 24.7807C18.177 27.1359 18.5366 28.5931 18.7222 31.2967C19.5431 31.2724 19.5431 31.2725 20.3805 31.2477C22.0068 31.2428 23.5281 31.5327 25.1267 32.0806C25.1267 32.5979 25.1267 33.1153 25.1267 33.6483C24.2598 33.7123 23.3924 33.7577 22.5249 33.7953C21.8004 33.8363 21.8004 33.8363 21.0614 33.878C19.4626 33.6202 18.6173 32.9608 17.3498 31.2967C17.3498 30.7793 17.3498 30.262 17.3498 29.7289C17.0479 29.7289 16.746 29.7289 16.4349 29.7289C16.2839 29.4703 16.1329 29.2116 15.9774 28.9451C15.9491 29.5594 15.9208 30.1738 15.8916 30.8068C15.5199 32.8645 15.5199 32.8645 14.4335 33.8933C13.2326 34.4322 13.2326 34.4322 11.8602 34.4322C11.7093 34.9496 11.5583 35.467 11.4028 36C10.4394 31.667 9.8572 28.1063 10.0304 23.4579C10.585 23.4685 10.585 23.4685 11.1508 23.4793C11.8841 23.4444 11.8841 23.4444 12.6322 23.4089C13.1152 23.3998 13.5981 23.3907 14.0957 23.3813C15.8401 22.515 16.1931 21.21 17.1379 18.6625C18.4068 15.8651 20.2222 14.4039 22.0102 12.7285C22.3761 12.3682 22.7421 12.008 23.1191 11.6369C26.651 8.22916 30.1893 5.34902 34.2474 4.49771C36.4311 4.02051 38.429 2.97753 40.6287 3.00037Z" fill="white"/>
</g>
<g filter="url(#filter14_d_1671_1927)">
<path d="M12.4628 36C11.5394 36.0728 10.6289 36.19 9.70864 36.3507C9.32028 36.4135 9.32028 36.4135 8.92407 36.4775C8.28258 36.5817 7.64127 36.6912 7 36.8016C9.34609 42.1129 11.6654 45.3793 14.6707 48.6249C15.0254 49.0309 15.38 49.437 15.7455 49.8554C18.3656 52.6799 20.4854 53.3679 23.3884 52.8331C24.1648 49.8329 24.101 48.1921 23.7526 44.8174C23.2068 44.6717 23.2068 44.6717 22.6501 44.523C22.1801 44.3887 21.7102 44.2544 21.226 44.116C20.757 43.9858 20.2881 43.8556 19.8049 43.7215C19.2352 43.4704 19.2352 43.4704 18.654 43.2142C18.5338 42.6852 18.4136 42.1561 18.2898 41.611C18.0494 41.8756 17.8091 42.1401 17.5614 42.4126C17.4412 41.8836 17.321 41.3545 17.1972 40.8095C16.4795 40.0724 15.7487 39.3959 15.0121 38.7554C13.6382 37.7377 13.6382 37.7377 12.4628 36Z" fill="white"/>
</g>
<g filter="url(#filter15_d_1671_1927)">
<path d="M75 34.6934C71.97 39.8423 69.0057 42.8622 65.1058 45.9403C64.6331 46.3266 64.1604 46.7129 63.6734 47.1109C63.2138 47.4755 62.7542 47.8402 62.2806 48.2159C61.8651 48.5479 61.4496 48.8799 61.0214 49.2219C59.6124 50.0338 58.4818 50.0738 57 49.9435C57 49.4402 57 48.937 57 48.4184C59.0004 46.8693 60.8243 46.4965 63 46.1309C63 45.6277 63 45.1244 63 44.6059C64.2185 43.5994 65.4369 42.5929 66.6923 41.5559C66.6923 41.0527 66.6923 40.5494 66.6923 40.0309C66.3877 39.6535 66.0831 39.276 65.7692 38.8872C65.4646 38.5097 65.16 38.1323 64.8462 37.7434C64.8462 37.2402 64.8462 36.7369 64.8462 36.2184C68.0599 32.9809 71.4197 34.0616 75 34.6934Z" fill="white"/>
</g>
<g filter="url(#filter16_d_1671_1927)">
<path d="M70 40.1834C70.9803 40.1325 71.9607 40.0962 72.9412 40.066C73.7601 40.0333 73.7601 40.0333 74.5956 40C76.1176 40.1834 76.1176 40.1834 78 42.0611C74.2729 42.5259 74.2729 42.5259 70.4706 43C70.3153 42.0705 70.16 41.141 70 40.1834Z" fill="white"/>
</g>
<g filter="url(#filter17_d_1671_1927)">
<path d="M10.5094 38C10.5094 38.5258 10.5094 39.0516 10.5094 39.5933C9.44887 40.1192 8.3883 40.645 7.2956 41.1867C8.36359 45.678 9.2831 48.4878 11.8868 50.7468C14.5378 52.0611 17.4144 51.6126 20.1509 51.5434C20.1509 52.0692 20.1509 52.5951 20.1509 53.1368C20.454 53.1368 20.757 53.1368 21.0692 53.1368C21.2964 51.9537 21.2964 51.9537 21.5283 50.7468C21.7819 50.8108 22.0355 50.8749 22.2968 50.9409C24.8309 51.5793 27.366 52.2049 29.9019 52.8233C31.0142 53.0983 32.125 53.386 33.2358 53.6783C36.6071 54.5322 39.7362 54.7909 43.1302 54.1606C44.3754 53.9517 45.5596 53.9247 46.8086 53.9833C49.7638 54.0419 52.9458 53.5333 55.6879 51.5372C57.6963 50.2061 59.8132 50.0299 61.938 49.6016C62.3902 49.4537 62.8423 49.3058 63.3082 49.1534C63.4597 48.6276 63.6112 48.1018 63.7673 47.5601C64.2218 47.9544 64.2218 47.9544 64.6855 48.3568C64.837 47.8309 64.9886 47.3051 65.1447 46.7634C66.0495 46.0308 66.9707 45.3585 67.8994 44.7219C69.6315 43.7104 69.6315 43.7104 71.1132 41.9834C72.2773 42.0558 73.4251 42.1723 74.5853 42.3319C75.0749 42.3943 75.0749 42.3943 75.5744 42.4579C76.3831 42.5615 77.1916 42.6703 78 42.78C75.0359 48.0704 72.1385 51.2482 68.3298 54.4314C67.8827 54.8216 67.4355 55.2119 66.9749 55.6139C64.128 58.0008 61.5368 59.3433 58.397 60.031C57.3586 60.1161 57.3586 60.1161 56.8805 61.1035C55.5417 61.5648 54.2105 61.9766 52.8632 62.3483C52.4686 62.4581 52.074 62.568 51.6674 62.6811C48.8876 63.4095 46.2194 63.6164 43.4064 63.4686C42.0901 63.402 42.0901 63.402 40.4957 64.34C36.7366 66.1861 32.3299 63.7095 28.5873 62.3981C28.0913 62.2318 27.5954 62.0654 27.0844 61.894C23.792 60.7514 20.6853 59.5972 17.8553 56.3235C17.8553 55.7977 17.8553 55.2719 17.8553 54.7301C17.5772 54.7856 17.299 54.841 17.0124 54.8982C13.5464 55.2868 11.385 53.6419 8.67296 49.9501C6.76518 46.8928 5.62521 44.0414 5 39.5933C5.56816 39.3304 6.13632 39.0675 6.7217 38.7967C7.04129 38.6488 7.36088 38.5009 7.69015 38.3485C8.67296 38 8.67296 38 10.5094 38Z" fill="white"/>
</g>
<g filter="url(#filter18_d_1671_1927)">
<path d="M62 56.5262C60.7247 58.3535 60.1449 58.8415 58.375 59C57.9212 58.952 57.4675 58.904 57 58.8545C57 58.3422 57 57.83 57 57.3023C58.8909 55.8766 59.9728 55.6271 62 56.5262Z" fill="white"/>
</g>
<g filter="url(#filter19_d_1671_1927)">
<path d="M34.2857 61C35.871 61.7102 37.4338 62.5567 39 63.4C38.8586 63.928 38.7171 64.456 38.5714 65C36.7329 64.472 34.8943 63.944 33 63.4C33.4243 63.136 33.8486 62.872 34.2857 62.6C34.2857 62.072 34.2857 61.544 34.2857 61Z" fill="white"/>
</g>
<g filter="url(#filter20_d_1671_1927)">
<path d="M57 51.5461C56.6475 53.994 56.2652 56.3459 55.6552 58.6365C54.4504 59.8675 54.4504 59.8675 53.4138 60.2122C53.4138 60.4722 53.4138 60.7321 53.4138 61C50.3072 61 47.2007 61 44 61C44.1479 59.7001 44.2959 58.4002 44.4483 57.0609C44.5962 57.8408 44.7441 58.6208 44.8966 59.4244C47.4114 59.4244 49.9262 59.4244 52.5172 59.4244C52.5172 56.8245 52.5172 54.2247 52.5172 51.5461C54.1919 50.9441 55.363 50.7018 57 51.5461Z" fill="white"/>
</g>
<g filter="url(#filter21_d_1671_1927)">
<path d="M13 48C14.65 48 16.3 48 18 48C18 49.1 18 50.2 18 51.3333C17.7462 51.3333 17.4923 51.3333 17.2308 51.3333C17.2308 51.8833 17.2308 52.4333 17.2308 53C15.8346 53 14.4385 53 13 53C13 51.35 13 49.7 13 48Z" fill="white"/>
</g>
<g filter="url(#filter22_d_1671_1927)">
<path d="M17 40C18.98 40.825 18.98 40.825 21 41.6667C20.472 42.7667 19.944 43.8667 19.4 45C18.2 43.9062 18.2 43.9062 17 42.5C17 41.675 17 40.85 17 40Z" fill="white"/>
</g>
<g filter="url(#filter23_d_1671_1927)">
<path d="M43.9149 46C44.3783 46.4117 44.3783 46.4117 44.8511 46.8316C44.3877 47.2433 44.3877 47.2433 43.9149 47.6633C43.9149 47.1144 43.9149 46.5655 43.9149 46ZM42.0426 47.6633C42.6604 47.6633 43.2783 47.6633 43.9149 47.6633C43.9149 48.2122 43.9149 48.7611 43.9149 49.3266C43.606 49.601 43.297 49.8755 42.9787 50.1582C43.2895 50.259 43.6002 50.3598 43.9204 50.4636C46.0373 51.1774 48.0338 51.8545 50 53.4848C48.3314 55.4612 47.0743 55.4631 45.1418 55.5509C44.8016 55.571 44.4615 55.591 44.111 55.6117C43.3899 55.6518 42.6686 55.6879 41.9474 55.7203C40.8582 55.7711 39.7697 55.8404 38.6809 55.9115C35.0254 56.1157 31.5525 56.1055 28 54.3165C28 54.042 28 53.7676 28 53.4848C28.2713 53.4979 28.5427 53.5109 28.8222 53.5244C30.0596 53.5765 31.297 53.6088 32.5346 53.6407C32.9615 53.6616 33.3884 53.6825 33.8282 53.7041C36.236 53.7508 37.6951 53.5876 39.7021 50.9899C40.1655 50.9899 40.6289 50.9899 41.1064 50.9899C41.1064 50.441 41.1064 49.8921 41.1064 49.3266C41.4153 49.3266 41.7243 49.3266 42.0426 49.3266C42.0426 48.7777 42.0426 48.2288 42.0426 47.6633Z" fill="white"/>
</g>
<defs>
<filter id="filter0_d_1671_1927" x="0" y="0" width="84" height="75" filterUnits="userSpaceOnUse" color-interpolation-filters="sRGB">
<feFlood flood-opacity="0" result="BackgroundImageFix"/>
<feColorMatrix in="SourceAlpha" type="matrix" values="0 0 0 0 0 0 0 0 0 0 0 0 0 0 0 0 0 0 127 0" result="hardAlpha"/>
<feOffset dy="4"/>
<feGaussianBlur stdDeviation="2"/>
<feComposite in2="hardAlpha" operator="out"/>
<feColorMatrix type="matrix" values="0 0 0 0 0 0 0 0 0 0 0 0 0 0 0 0 0 0 0.25 0"/>
<feBlend mode="normal" in2="BackgroundImageFix" result="effect1_dropShadow_1671_1927"/>
<feBlend mode="normal" in="SourceGraphic" in2="effect1_dropShadow_1671_1927" result="shape"/>
</filter>
<filter id="filter1_d_1671_1927" x="6" y="3" width="46" height="41" filterUnits="userSpaceOnUse" color-interpolation-filters="sRGB">
<feFlood flood-opacity="0" result="BackgroundImageFix"/>
<feColorMatrix in="SourceAlpha" type="matrix" values="0 0 0 0 0 0 0 0 0 0 0 0 0 0 0 0 0 0 127 0" result="hardAlpha"/>
<feOffset dy="4"/>
<feGaussianBlur stdDeviation="2"/>
<feComposite in2="hardAlpha" operator="out"/>
<feColorMatrix type="matrix" values="0 0 0 0 0 0 0 0 0 0 0 0 0 0 0 0 0 0 0.25 0"/>
<feBlend mode="normal" in2="BackgroundImageFix" result="effect1_dropShadow_1671_1927"/>
<feBlend mode="normal" in="SourceGraphic" in2="effect1_dropShadow_1671_1927" result="shape"/>
</filter>
<filter id="filter2_d_1671_1927" x="3" y="36" width="25" height="25" filterUnits="userSpaceOnUse" color-interpolation-filters="sRGB">
<feFlood flood-opacity="0" result="BackgroundImageFix"/>
<feColorMatrix in="SourceAlpha" type="matrix" values="0 0 0 0 0 0 0 0 0 0 0 0 0 0 0 0 0 0 127 0" result="hardAlpha"/>
<feOffset dy="4"/>
<feGaussianBlur stdDeviation="2"/>
<feComposite in2="hardAlpha" operator="out"/>
<feColorMatrix type="matrix" values="0 0 0 0 0 0 0 0 0 0 0 0 0 0 0 0 0 0 0.25 0"/>
<feBlend mode="normal" in2="BackgroundImageFix" result="effect1_dropShadow_1671_1927"/>
<feBlend mode="normal" in="SourceGraphic" in2="effect1_dropShadow_1671_1927" result="shape"/>
</filter>
<filter id="filter3_d_1671_1927" x="53" y="34" width="26" height="24" filterUnits="userSpaceOnUse" color-interpolation-filters="sRGB">
<feFlood flood-opacity="0" result="BackgroundImageFix"/>
<feColorMatrix in="SourceAlpha" type="matrix" values="0 0 0 0 0 0 0 0 0 0 0 0 0 0 0 0 0 0 127 0" result="hardAlpha"/>
<feOffset dy="4"/>
<feGaussianBlur stdDeviation="2"/>
<feComposite in2="hardAlpha" operator="out"/>
<feColorMatrix type="matrix" values="0 0 0 0 0 0 0 0 0 0 0 0 0 0 0 0 0 0 0.25 0"/>
<feBlend mode="normal" in2="BackgroundImageFix" result="effect1_dropShadow_1671_1927"/>
<feBlend mode="normal" in="SourceGraphic" in2="effect1_dropShadow_1671_1927" result="shape"/>
</filter>
<filter id="filter4_d_1671_1927" x="66" y="40" width="16" height="11" filterUnits="userSpaceOnUse" color-interpolation-filters="sRGB">
<feFlood flood-opacity="0" result="BackgroundImageFix"/>
<feColorMatrix in="SourceAlpha" type="matrix" values="0 0 0 0 0 0 0 0 0 0 0 0 0 0 0 0 0 0 127 0" result="hardAlpha"/>
<feOffset dy="4"/>
<feGaussianBlur stdDeviation="2"/>
<feComposite in2="hardAlpha" operator="out"/>
<feColorMatrix type="matrix" values="0 0 0 0 0 0 0 0 0 0 0 0 0 0 0 0 0 0 0.25 0"/>
<feBlend mode="normal" in2="BackgroundImageFix" result="effect1_dropShadow_1671_1927"/>
<feBlend mode="normal" in="SourceGraphic" in2="effect1_dropShadow_1671_1927" result="shape"/>
</filter>
<filter id="filter5_d_1671_1927" x="1" y="38" width="81" height="35" filterUnits="userSpaceOnUse" color-interpolation-filters="sRGB">
<feFlood flood-opacity="0" result="BackgroundImageFix"/>
<feColorMatrix in="SourceAlpha" type="matrix" values="0 0 0 0 0 0 0 0 0 0 0 0 0 0 0 0 0 0 127 0" result="hardAlpha"/>
<feOffset dy="4"/>
<feGaussianBlur stdDeviation="2"/>
<feComposite in2="hardAlpha" operator="out"/>
<feColorMatrix type="matrix" values="0 0 0 0 0 0 0 0 0 0 0 0 0 0 0 0 0 0 0.25 0"/>
<feBlend mode="normal" in2="BackgroundImageFix" result="effect1_dropShadow_1671_1927"/>
<feBlend mode="normal" in="SourceGraphic" in2="effect1_dropShadow_1671_1927" result="shape"/>
</filter>
<filter id="filter6_d_1671_1927" x="53" y="56" width="13" height="11" filterUnits="userSpaceOnUse" color-interpolation-filters="sRGB">
<feFlood flood-opacity="0" result="BackgroundImageFix"/>
<feColorMatrix in="SourceAlpha" type="matrix" values="0 0 0 0 0 0 0 0 0 0 0 0 0 0 0 0 0 0 127 0" result="hardAlpha"/>
<feOffset dy="4"/>
<feGaussianBlur stdDeviation="2"/>
<feComposite in2="hardAlpha" operator="out"/>
<feColorMatrix type="matrix" values="0 0 0 0 0 0 0 0 0 0 0 0 0 0 0 0 0 0 0.25 0"/>
<feBlend mode="normal" in2="BackgroundImageFix" result="effect1_dropShadow_1671_1927"/>
<feBlend mode="normal" in="SourceGraphic" in2="effect1_dropShadow_1671_1927" result="shape"/>
</filter>
<filter id="filter7_d_1671_1927" x="29" y="61" width="14" height="12" filterUnits="userSpaceOnUse" color-interpolation-filters="sRGB">
<feFlood flood-opacity="0" result="BackgroundImageFix"/>
<feColorMatrix in="SourceAlpha" type="matrix" values="0 0 0 0 0 0 0 0 0 0 0 0 0 0 0 0 0 0 127 0" result="hardAlpha"/>
<feOffset dy="4"/>
<feGaussianBlur stdDeviation="2"/>
<feComposite in2="hardAlpha" operator="out"/>
<feColorMatrix type="matrix" values="0 0 0 0 0 0 0 0 0 0 0 0 0 0 0 0 0 0 0.25 0"/>
<feBlend mode="normal" in2="BackgroundImageFix" result="effect1_dropShadow_1671_1927"/>
<feBlend mode="normal" in="SourceGraphic" in2="effect1_dropShadow_1671_1927" result="shape"/>
</filter>
<filter id="filter8_d_1671_1927" x="40" y="51" width="21" height="18" filterUnits="userSpaceOnUse" color-interpolation-filters="sRGB">
<feFlood flood-opacity="0" result="BackgroundImageFix"/>
<feColorMatrix in="SourceAlpha" type="matrix" values="0 0 0 0 0 0 0 0 0 0 0 0 0 0 0 0 0 0 127 0" result="hardAlpha"/>
<feOffset dy="4"/>
<feGaussianBlur stdDeviation="2"/>
<feComposite in2="hardAlpha" operator="out"/>
<feColorMatrix type="matrix" values="0 0 0 0 0 0 0 0 0 0 0 0 0 0 0 0 0 0 0.25 0"/>
<feBlend mode="normal" in2="BackgroundImageFix" result="effect1_dropShadow_1671_1927"/>
<feBlend mode="normal" in="SourceGraphic" in2="effect1_dropShadow_1671_1927" result="shape"/>
</filter>
<filter id="filter9_d_1671_1927" x="9" y="48" width="13" height="13" filterUnits="userSpaceOnUse" color-interpolation-filters="sRGB">
<feFlood flood-opacity="0" result="BackgroundImageFix"/>
<feColorMatrix in="SourceAlpha" type="matrix" values="0 0 0 0 0 0 0 0 0 0 0 0 0 0 0 0 0 0 127 0" result="hardAlpha"/>
<feOffset dy="4"/>
<feGaussianBlur stdDeviation="2"/>
<feComposite in2="hardAlpha" operator="out"/>
<feColorMatrix type="matrix" values="0 0 0 0 0 0 0 0 0 0 0 0 0 0 0 0 0 0 0.25 0"/>
<feBlend mode="normal" in2="BackgroundImageFix" result="effect1_dropShadow_1671_1927"/>
<feBlend mode="normal" in="SourceGraphic" in2="effect1_dropShadow_1671_1927" result="shape"/>
</filter>
<filter id="filter10_d_1671_1927" x="13" y="40" width="12" height="13" filterUnits="userSpaceOnUse" color-interpolation-filters="sRGB">
<feFlood flood-opacity="0" result="BackgroundImageFix"/>
<feColorMatrix in="SourceAlpha" type="matrix" values="0 0 0 0 0 0 0 0 0 0 0 0 0 0 0 0 0 0 127 0" result="hardAlpha"/>
<feOffset dy="4"/>
<feGaussianBlur stdDeviation="2"/>
<feComposite in2="hardAlpha" operator="out"/>
<feColorMatrix type="matrix" values="0 0 0 0 0 0 0 0 0 0 0 0 0 0 0 0 0 0 0.25 0"/>
<feBlend mode="normal" in2="BackgroundImageFix" result="effect1_dropShadow_1671_1927"/>
<feBlend mode="normal" in="SourceGraphic" in2="effect1_dropShadow_1671_1927" result="shape"/>
</filter>
<filter id="filter11_d_1671_1927" x="24" y="46" width="30" height="18" filterUnits="userSpaceOnUse" color-interpolation-filters="sRGB">
<feFlood flood-opacity="0" result="BackgroundImageFix"/>
<feColorMatrix in="SourceAlpha" type="matrix" values="0 0 0 0 0 0 0 0 0 0 0 0 0 0 0 0 0 0 127 0" result="hardAlpha"/>
<feOffset dy="4"/>
<feGaussianBlur stdDeviation="2"/>
<feComposite in2="hardAlpha" operator="out"/>
<feColorMatrix type="matrix" values="0 0 0 0 0 0 0 0 0 0 0 0 0 0 0 0 0 0 0.25 0"/>
<feBlend mode="normal" in2="BackgroundImageFix" result="effect1_dropShadow_1671_1927"/>
<feBlend mode="normal" in="SourceGraphic" in2="effect1_dropShadow_1671_1927" result="shape"/>
</filter>
<filter id="filter12_d_1671_1927" x="0" y="0" width="84" height="75" filterUnits="userSpaceOnUse" color-interpolation-filters="sRGB">
<feFlood flood-opacity="0" result="BackgroundImageFix"/>
<feColorMatrix in="SourceAlpha" type="matrix" values="0 0 0 0 0 0 0 0 0 0 0 0 0 0 0 0 0 0 127 0" result="hardAlpha"/>
<feOffset dy="4"/>
<feGaussianBlur stdDeviation="2"/>
<feComposite in2="hardAlpha" operator="out"/>
<feColorMatrix type="matrix" values="0 0 0 0 0 0 0 0 0 0 0 0 0 0 0 0 0 0 0.25 0"/>
<feBlend mode="normal" in2="BackgroundImageFix" result="effect1_dropShadow_1671_1927"/>
<feBlend mode="normal" in="SourceGraphic" in2="effect1_dropShadow_1671_1927" result="shape"/>
</filter>
<filter id="filter13_d_1671_1927" x="6" y="3" width="46" height="41" filterUnits="userSpaceOnUse" color-interpolation-filters="sRGB">
<feFlood flood-opacity="0" result="BackgroundImageFix"/>
<feColorMatrix in="SourceAlpha" type="matrix" values="0 0 0 0 0 0 0 0 0 0 0 0 0 0 0 0 0 0 127 0" result="hardAlpha"/>
<feOffset dy="4"/>
<feGaussianBlur stdDeviation="2"/>
<feComposite in2="hardAlpha" operator="out"/>
<feColorMatrix type="matrix" values="0 0 0 0 0 0 0 0 0 0 0 0 0 0 0 0 0 0 0.25 0"/>
<feBlend mode="normal" in2="BackgroundImageFix" result="effect1_dropShadow_1671_1927"/>
<feBlend mode="normal" in="SourceGraphic" in2="effect1_dropShadow_1671_1927" result="shape"/>
</filter>
<filter id="filter14_d_1671_1927" x="3" y="36" width="25" height="25" filterUnits="userSpaceOnUse" color-interpolation-filters="sRGB">
<feFlood flood-opacity="0" result="BackgroundImageFix"/>
<feColorMatrix in="SourceAlpha" type="matrix" values="0 0 0 0 0 0 0 0 0 0 0 0 0 0 0 0 0 0 127 0" result="hardAlpha"/>
<feOffset dy="4"/>
<feGaussianBlur stdDeviation="2"/>
<feComposite in2="hardAlpha" operator="out"/>
<feColorMatrix type="matrix" values="0 0 0 0 0 0 0 0 0 0 0 0 0 0 0 0 0 0 0.25 0"/>
<feBlend mode="normal" in2="BackgroundImageFix" result="effect1_dropShadow_1671_1927"/>
<feBlend mode="normal" in="SourceGraphic" in2="effect1_dropShadow_1671_1927" result="shape"/>
</filter>
<filter id="filter15_d_1671_1927" x="53" y="34" width="26" height="24" filterUnits="userSpaceOnUse" color-interpolation-filters="sRGB">
<feFlood flood-opacity="0" result="BackgroundImageFix"/>
<feColorMatrix in="SourceAlpha" type="matrix" values="0 0 0 0 0 0 0 0 0 0 0 0 0 0 0 0 0 0 127 0" result="hardAlpha"/>
<feOffset dy="4"/>
<feGaussianBlur stdDeviation="2"/>
<feComposite in2="hardAlpha" operator="out"/>
<feColorMatrix type="matrix" values="0 0 0 0 0 0 0 0 0 0 0 0 0 0 0 0 0 0 0.25 0"/>
<feBlend mode="normal" in2="BackgroundImageFix" result="effect1_dropShadow_1671_1927"/>
<feBlend mode="normal" in="SourceGraphic" in2="effect1_dropShadow_1671_1927" result="shape"/>
</filter>
<filter id="filter16_d_1671_1927" x="66" y="40" width="16" height="11" filterUnits="userSpaceOnUse" color-interpolation-filters="sRGB">
<feFlood flood-opacity="0" result="BackgroundImageFix"/>
<feColorMatrix in="SourceAlpha" type="matrix" values="0 0 0 0 0 0 0 0 0 0 0 0 0 0 0 0 0 0 127 0" result="hardAlpha"/>
<feOffset dy="4"/>
<feGaussianBlur stdDeviation="2"/>
<feComposite in2="hardAlpha" operator="out"/>
<feColorMatrix type="matrix" values="0 0 0 0 0 0 0 0 0 0 0 0 0 0 0 0 0 0 0.25 0"/>
<feBlend mode="normal" in2="BackgroundImageFix" result="effect1_dropShadow_1671_1927"/>
<feBlend mode="normal" in="SourceGraphic" in2="effect1_dropShadow_1671_1927" result="shape"/>
</filter>
<filter id="filter17_d_1671_1927" x="1" y="38" width="81" height="35" filterUnits="userSpaceOnUse" color-interpolation-filters="sRGB">
<feFlood flood-opacity="0" result="BackgroundImageFix"/>
<feColorMatrix in="SourceAlpha" type="matrix" values="0 0 0 0 0 0 0 0 0 0 0 0 0 0 0 0 0 0 127 0" result="hardAlpha"/>
<feOffset dy="4"/>
<feGaussianBlur stdDeviation="2"/>
<feComposite in2="hardAlpha" operator="out"/>
<feColorMatrix type="matrix" values="0 0 0 0 0 0 0 0 0 0 0 0 0 0 0 0 0 0 0.25 0"/>
<feBlend mode="normal" in2="BackgroundImageFix" result="effect1_dropShadow_1671_1927"/>
<feBlend mode="normal" in="SourceGraphic" in2="effect1_dropShadow_1671_1927" result="shape"/>
</filter>
<filter id="filter18_d_1671_1927" x="53" y="56" width="13" height="11" filterUnits="userSpaceOnUse" color-interpolation-filters="sRGB">
<feFlood flood-opacity="0" result="BackgroundImageFix"/>
<feColorMatrix in="SourceAlpha" type="matrix" values="0 0 0 0 0 0 0 0 0 0 0 0 0 0 0 0 0 0 127 0" result="hardAlpha"/>
<feOffset dy="4"/>
<feGaussianBlur stdDeviation="2"/>
<feComposite in2="hardAlpha" operator="out"/>
<feColorMatrix type="matrix" values="0 0 0 0 0 0 0 0 0 0 0 0 0 0 0 0 0 0 0.25 0"/>
<feBlend mode="normal" in2="BackgroundImageFix" result="effect1_dropShadow_1671_1927"/>
<feBlend mode="normal" in="SourceGraphic" in2="effect1_dropShadow_1671_1927" result="shape"/>
</filter>
<filter id="filter19_d_1671_1927" x="29" y="61" width="14" height="12" filterUnits="userSpaceOnUse" color-interpolation-filters="sRGB">
<feFlood flood-opacity="0" result="BackgroundImageFix"/>
<feColorMatrix in="SourceAlpha" type="matrix" values="0 0 0 0 0 0 0 0 0 0 0 0 0 0 0 0 0 0 127 0" result="hardAlpha"/>
<feOffset dy="4"/>
<feGaussianBlur stdDeviation="2"/>
<feComposite in2="hardAlpha" operator="out"/>
<feColorMatrix type="matrix" values="0 0 0 0 0 0 0 0 0 0 0 0 0 0 0 0 0 0 0.25 0"/>
<feBlend mode="normal" in2="BackgroundImageFix" result="effect1_dropShadow_1671_1927"/>
<feBlend mode="normal" in="SourceGraphic" in2="effect1_dropShadow_1671_1927" result="shape"/>
</filter>
<filter id="filter20_d_1671_1927" x="40" y="51" width="21" height="18" filterUnits="userSpaceOnUse" color-interpolation-filters="sRGB">
<feFlood flood-opacity="0" result="BackgroundImageFix"/>
<feColorMatrix in="SourceAlpha" type="matrix" values="0 0 0 0 0 0 0 0 0 0 0 0 0 0 0 0 0 0 127 0" result="hardAlpha"/>
<feOffset dy="4"/>
<feGaussianBlur stdDeviation="2"/>
<feComposite in2="hardAlpha" operator="out"/>
<feColorMatrix type="matrix" values="0 0 0 0 0 0 0 0 0 0 0 0 0 0 0 0 0 0 0.25 0"/>
<feBlend mode="normal" in2="BackgroundImageFix" result="effect1_dropShadow_1671_1927"/>
<feBlend mode="normal" in="SourceGraphic" in2="effect1_dropShadow_1671_1927" result="shape"/>
</filter>
<filter id="filter21_d_1671_1927" x="9" y="48" width="13" height="13" filterUnits="userSpaceOnUse" color-interpolation-filters="sRGB">
<feFlood flood-opacity="0" result="BackgroundImageFix"/>
<feColorMatrix in="SourceAlpha" type="matrix" values="0 0 0 0 0 0 0 0 0 0 0 0 0 0 0 0 0 0 127 0" result="hardAlpha"/>
<feOffset dy="4"/>
<feGaussianBlur stdDeviation="2"/>
<feComposite in2="hardAlpha" operator="out"/>
<feColorMatrix type="matrix" values="0 0 0 0 0 0 0 0 0 0 0 0 0 0 0 0 0 0 0.25 0"/>
<feBlend mode="normal" in2="BackgroundImageFix" result="effect1_dropShadow_1671_1927"/>
<feBlend mode="normal" in="SourceGraphic" in2="effect1_dropShadow_1671_1927" result="shape"/>
</filter>
<filter id="filter22_d_1671_1927" x="13" y="40" width="12" height="13" filterUnits="userSpaceOnUse" color-interpolation-filters="sRGB">
<feFlood flood-opacity="0" result="BackgroundImageFix"/>
<feColorMatrix in="SourceAlpha" type="matrix" values="0 0 0 0 0 0 0 0 0 0 0 0 0 0 0 0 0 0 127 0" result="hardAlpha"/>
<feOffset dy="4"/>
<feGaussianBlur stdDeviation="2"/>
<feComposite in2="hardAlpha" operator="out"/>
<feColorMatrix type="matrix" values="0 0 0 0 0 0 0 0 0 0 0 0 0 0 0 0 0 0 0.25 0"/>
<feBlend mode="normal" in2="BackgroundImageFix" result="effect1_dropShadow_1671_1927"/>
<feBlend mode="normal" in="SourceGraphic" in2="effect1_dropShadow_1671_1927" result="shape"/>
</filter>
<filter id="filter23_d_1671_1927" x="24" y="46" width="30" height="18" filterUnits="userSpaceOnUse" color-interpolation-filters="sRGB">
<feFlood flood-opacity="0" result="BackgroundImageFix"/>
<feColorMatrix in="SourceAlpha" type="matrix" values="0 0 0 0 0 0 0 0 0 0 0 0 0 0 0 0 0 0 127 0" result="hardAlpha"/>
<feOffset dy="4"/>
<feGaussianBlur stdDeviation="2"/>
<feComposite in2="hardAlpha" operator="out"/>
<feColorMatrix type="matrix" values="0 0 0 0 0 0 0 0 0 0 0 0 0 0 0 0 0 0 0.25 0"/>
<feBlend mode="normal" in2="BackgroundImageFix" result="effect1_dropShadow_1671_1927"/>
<feBlend mode="normal" in="SourceGraphic" in2="effect1_dropShadow_1671_1927" result="shape"/>
</filter>
</defs>
</svg>
