<svg width="47" height="31" viewBox="0 0 47 31" fill="none" xmlns="http://www.w3.org/2000/svg">
<path d="M41.5521 13.0009C41.1751 12.7614 40.7172 12.6074 40.2307 12.5564C39.7442 12.5054 39.2487 12.5595 38.8006 12.7125L30.4639 15.5333L25.62 8.88877C25.3885 8.57855 25.053 8.32057 24.6479 8.14109C24.2427 7.96162 23.7822 7.86707 23.3134 7.86707C22.8446 7.86707 22.3841 7.96162 21.9789 8.14109C21.5737 8.32057 21.2383 8.57855 21.0068 8.88877L16.1629 15.5333L7.82615 12.7125C7.37719 12.5597 6.88102 12.5056 6.39372 12.5561C5.90642 12.6067 5.44742 12.76 5.06862 12.9987C4.68982 13.2373 4.40632 13.5519 4.25017 13.9068C4.09402 14.2616 4.07144 14.6427 4.185 15.0068L8.36985 28.5843C8.44987 28.8471 8.59919 29.0949 8.80876 29.3126C9.01833 29.5302 9.28379 29.7132 9.58906 29.8505C10.0023 30.0388 10.4749 30.1384 10.9565 30.1389C11.1907 30.1385 11.4236 30.1132 11.6485 30.0636C19.2765 28.4589 27.3338 28.4589 34.9618 30.0636C35.6583 30.203 36.3989 30.1263 37.0212 29.8505C37.3284 29.715 37.5953 29.5325 37.8051 29.3146C38.015 29.0966 38.1632 28.848 38.2404 28.5843L42.4418 15.0068C42.554 14.6426 42.5302 14.2617 42.373 13.9072C42.2158 13.5528 41.9314 13.2388 41.5521 13.0009Z" fill="#205F94"/>
<ellipse cx="23.3125" cy="4.49507" rx="5.48538" ry="4.49507" fill="#205F94"/>
<ellipse cx="43.1969" cy="11.8016" rx="3.42836" ry="2.80942" fill="#205F94"/>
<ellipse cx="3.42836" cy="11.8016" rx="3.42836" ry="2.80942" fill="#205F94"/>
<ellipse cx="11.6561" cy="23.0368" rx="2.05702" ry="1.68565" fill="white"/>
<ellipse cx="34.9686" cy="23.0368" rx="2.05702" ry="1.68565" fill="white"/>
<path fill-rule="evenodd" clip-rule="evenodd" d="M21.3603 21.0053L19.8387 21.8944C19.7512 21.9456 19.6383 21.9159 19.5869 21.8287C19.5356 21.7415 19.5654 21.629 19.6529 21.5784L20.7016 20.9654H20.5437C20.5405 20.9673 20.5373 20.9692 20.5348 20.9711L18.9535 21.8944C18.866 21.9455 18.7532 21.9158 18.7018 21.8286C18.6505 21.7414 18.6803 21.6289 18.7678 21.5784L19.8171 20.9654H19.5102C19.5077 20.9673 19.5045 20.9692 19.5013 20.9711L17.9207 21.8943C17.8332 21.9455 17.7203 21.9158 17.669 21.8286C17.6176 21.7414 17.6468 21.6289 17.7343 21.5784L18.7836 20.9654H18.2916L17.4965 21.2997C17.4838 21.3047 17.4692 21.3047 17.4566 21.2997L16.6615 20.9654H16.4472C16.4187 20.9654 16.3952 20.942 16.3952 20.9136V20.8485C16.3863 20.839 16.3806 20.8264 16.3806 20.8125C16.3806 20.7992 16.3863 20.7866 16.3952 20.7771V20.6507C16.3952 20.6223 16.4187 20.5989 16.4472 20.5989H16.808L17.4566 20.3259C17.4693 20.3208 17.4838 20.3208 17.4965 20.3259L18.1451 20.5989H18.7037L17.7318 20.0074C17.6449 19.955 17.6176 19.8419 17.6703 19.7553C17.7235 19.6693 17.837 19.6422 17.9232 19.6946L19.4094 20.5989H19.7372L18.7646 20.0074C18.6784 19.955 18.6511 19.8419 18.7037 19.7553C18.7563 19.6693 18.8698 19.6422 18.9567 19.6946L20.4429 20.5989H20.6217L19.6497 20.0074C19.5628 19.955 19.5356 19.8419 19.5888 19.7553C19.6414 19.6693 19.7549 19.6422 19.8418 19.6946L21.328 20.5989H21.3546C21.3717 20.458 21.4085 20.3234 21.4624 20.1976L20.3928 19.5821L18.2783 18.8194C18.272 18.8169 18.2669 18.8137 18.2625 18.8099L16.5416 17.3666L15.9044 16.9994C15.8797 16.9855 15.8708 16.9533 15.8854 16.9287L16.0173 16.7012C16.0319 16.6765 16.0636 16.6677 16.0883 16.6822L16.7255 17.0487L18.84 17.8121C18.8463 17.814 18.8514 17.8172 18.8558 17.821L20.5766 19.2649L21.6463 19.8804C21.7223 19.7806 21.8105 19.6902 21.9087 19.6118L20.3858 18.7486C20.297 18.6987 20.2666 18.5862 20.3167 18.4984C20.3668 18.4105 20.479 18.3796 20.5678 18.4295L21.6139 19.0235L21.5359 18.8877L19.9432 17.9846C19.8551 17.9347 19.824 17.8229 19.8748 17.735C19.9242 17.6466 20.0371 17.6162 20.1252 17.6661L21.172 18.2595L21.0192 17.996L19.4265 17.093C19.3384 17.0431 19.3073 16.9306 19.358 16.8428C19.4081 16.7549 19.5203 16.724 19.6085 16.7745L20.6553 17.3679L20.4074 16.9395L19.7315 16.4295C19.7201 16.4213 19.7131 16.4086 19.7112 16.3947L19.6059 15.5568L19.4867 15.3514C19.4728 15.3262 19.4817 15.2946 19.5064 15.28L19.5806 15.2377C19.5844 15.232 19.5901 15.2269 19.5964 15.2232C19.6028 15.2194 19.6097 15.2175 19.6167 15.2168L19.7346 15.1492C19.7594 15.1347 19.7911 15.1429 19.8057 15.1682L19.9845 15.4759L20.557 15.9082C20.5684 15.9164 20.5754 15.929 20.5773 15.9429L20.6667 16.6538L20.9437 17.1322L20.9716 15.9865C20.9742 15.8854 21.0585 15.8051 21.16 15.8077C21.2614 15.8102 21.3419 15.8942 21.3394 15.9954L21.2963 17.7414L21.4599 18.0238L21.4884 16.8782C21.4909 16.7771 21.5753 16.6974 21.6761 16.7C21.7781 16.7025 21.858 16.7865 21.8561 16.8877L21.813 18.6337L21.9024 18.7879L21.9303 17.6422C21.9328 17.5411 22.0172 17.4608 22.1193 17.4633C22.2207 17.4659 22.3006 17.5499 22.2981 17.651L22.2556 19.397L22.2594 19.4034C22.3856 19.3503 22.5206 19.3136 22.662 19.2966V18.0649L22.267 15.8582C22.2664 15.8519 22.2664 15.8462 22.267 15.8399L22.662 13.6331V12.9001C22.662 12.871 22.6848 12.8477 22.714 12.8477H22.9771C23.0063 12.8477 23.0291 12.871 23.0291 12.9001V13.6331L23.4235 15.8399C23.4247 15.8462 23.4247 15.8519 23.4235 15.8582L23.0291 18.0649V19.2966C23.1597 19.3124 23.2859 19.3452 23.4038 19.392L23.3924 17.6479C23.3918 17.5468 23.4736 17.464 23.575 17.4634C23.6771 17.4628 23.7601 17.5443 23.7601 17.6454L23.7678 18.8233L23.8464 18.6874L23.835 16.884C23.8343 16.7829 23.9161 16.7007 24.0176 16.7001C24.119 16.6988 24.2021 16.781 24.2027 16.8821L24.2103 18.0594L24.3631 17.7958L24.3517 15.9924C24.3511 15.8913 24.4329 15.8085 24.5343 15.8079C24.6357 15.8073 24.7188 15.8888 24.7194 15.9899L24.727 17.1678L24.9788 16.733L25.0802 15.9242C25.0821 15.9102 25.0891 15.8976 25.1005 15.8894L25.7529 15.3971L25.8854 15.1684C25.8994 15.1431 25.9317 15.1349 25.9564 15.1494L26.0408 15.1974C26.0477 15.1981 26.0547 15.2006 26.061 15.2044C26.0674 15.2082 26.0731 15.2126 26.0769 15.2189L26.1847 15.2802C26.2094 15.2947 26.2183 15.3263 26.2037 15.3516L26.0389 15.636L25.9463 16.376C25.9444 16.3899 25.9368 16.4025 25.926 16.4107L25.3294 16.8606L25.0567 17.3321L26.0851 16.7728C26.1745 16.7242 26.2861 16.757 26.3349 16.8461C26.3838 16.9346 26.3508 17.0464 26.2614 17.0945L24.7036 17.9413L24.54 18.2237L25.5684 17.6645C25.6578 17.6164 25.77 17.6493 25.8182 17.7378C25.867 17.8269 25.8341 17.9381 25.7447 17.9868L24.1868 18.8329L24.0974 18.9877L25.1265 18.4285C25.2159 18.3798 25.3275 18.4127 25.3756 18.5018C25.4245 18.5903 25.3915 18.7021 25.3021 18.7501L23.7551 19.5912C23.8641 19.674 23.9618 19.772 24.0442 19.8807L25.1144 19.2652L26.8353 17.8212C26.8397 17.8174 26.8448 17.8143 26.8505 17.8124L28.9656 17.049L29.6022 16.6825C29.6275 16.6679 29.6592 16.6768 29.6738 16.7014L29.8057 16.9289C29.8196 16.9536 29.8114 16.9858 29.7867 16.9997L29.1495 17.3668L27.4286 18.8102C27.4242 18.814 27.4191 18.8171 27.4128 18.8196L25.2983 19.5824L24.2287 20.1979C24.2794 20.3179 24.3156 20.4462 24.334 20.5802L25.8525 19.693C25.94 19.6418 26.0528 19.6715 26.1042 19.7587C26.1555 19.8459 26.1257 19.9584 26.0383 20.0096L25.0289 20.5991H25.1861L26.7376 19.6929C26.8251 19.6418 26.9379 19.6715 26.9893 19.7587C27.04 19.8459 27.0109 19.9584 26.9234 20.0095L25.9133 20.5991H26.2196L27.7704 19.6929C27.8579 19.6418 27.9708 19.6715 28.0221 19.7587C28.0735 19.8459 28.0437 19.9584 27.9562 20.0095L26.9468 20.5991H27.454L28.194 20.2876C28.2073 20.2825 28.2218 20.2825 28.2345 20.2876L28.9744 20.5991H29.2439C29.2725 20.5991 29.2959 20.6225 29.2959 20.6509V20.7388C29.3048 20.7483 29.3099 20.7609 29.3099 20.7748C29.3099 20.7881 29.3048 20.8007 29.2959 20.8102V20.9138C29.2959 20.9423 29.2725 20.9656 29.2439 20.9656H28.9377L28.2345 21.2614C28.2219 21.2664 28.2073 21.2664 28.194 21.2614L27.4908 20.9656H26.9494L27.9594 21.5799C28.0463 21.6323 28.0735 21.7454 28.0209 21.8314C27.9676 21.9179 27.8542 21.9458 27.7673 21.8927L26.2437 20.9656H25.9165L26.9259 21.5799C27.0128 21.6323 27.0401 21.7454 26.9874 21.8314C26.9342 21.918 26.8213 21.9458 26.7345 21.8927L25.2102 20.9656H25.0314L26.0415 21.5799C26.1277 21.6323 26.155 21.7454 26.1023 21.8314C26.0497 21.918 25.9362 21.9458 25.8493 21.8927L24.3353 20.972C24.3182 21.1104 24.2814 21.2424 24.2288 21.3663L25.2984 21.9824L27.4128 22.7451C27.4192 22.747 27.4242 22.7502 27.4287 22.7546L29.1495 24.1979L29.7867 24.5644C29.8114 24.579 29.8197 24.6106 29.8057 24.6352C29.7912 24.6605 29.7595 24.6693 29.7341 24.6548C29.7176 24.6453 29.6992 24.6422 29.6821 24.6447L29.7284 24.6839C29.7474 24.6997 29.7518 24.7275 29.7398 24.7496C29.7271 24.7711 29.7005 24.7806 29.677 24.7724L29.62 24.7515C29.6263 24.7679 29.6384 24.7825 29.6542 24.7926C29.6796 24.8065 29.6884 24.8381 29.6739 24.8633C29.6593 24.888 29.6276 24.8962 29.6022 24.8823L28.9656 24.5152L26.8505 23.7524C26.8448 23.7505 26.8398 23.7474 26.8353 23.743L25.1145 22.2996L24.0442 21.6841C23.9643 21.7897 23.8705 21.8845 23.7652 21.9654L25.3053 22.8387C25.3934 22.8892 25.4245 23.0011 25.3744 23.0889C25.3237 23.1767 25.2121 23.2077 25.1233 23.1578L24.0962 22.5751L24.1748 22.711L25.7479 23.6027C25.836 23.6526 25.8671 23.7644 25.8163 23.8523C25.7669 23.9401 25.654 23.9711 25.5659 23.9212L24.5388 23.3391L24.6916 23.6027L26.2646 24.4943C26.3527 24.5442 26.3838 24.6561 26.3331 24.7445C26.283 24.8324 26.1708 24.8633 26.0826 24.8128L25.0555 24.2308L25.3072 24.6655L25.9596 25.1578C25.971 25.166 25.978 25.1787 25.9799 25.1926L26.0814 26.0014L26.2037 26.2131C26.2545 26.3003 26.2247 26.4128 26.1365 26.4634C26.0484 26.5139 25.9362 26.4842 25.8854 26.3964L25.7307 26.1291L25.1341 25.6792C25.1227 25.671 25.1151 25.6583 25.1138 25.6444L25.0206 24.9044L24.748 24.433L24.7195 25.6008C24.7169 25.7019 24.6326 25.7822 24.5311 25.7797C24.4297 25.7771 24.3492 25.6931 24.3517 25.5913L24.3948 23.8238L24.2312 23.5413L24.2027 24.7091C24.2002 24.8096 24.1158 24.8899 24.0144 24.888C23.9129 24.8855 23.8324 24.8014 23.835 24.6997L23.8781 22.9321L23.7893 22.7773L23.7601 23.9451C23.7576 24.0462 23.6733 24.1265 23.5718 24.124C23.4704 24.1214 23.3899 24.0374 23.3924 23.9363L23.4361 22.1681L23.4317 22.1605C23.3055 22.2142 23.1705 22.2509 23.0291 22.2679V23.4996L23.4235 25.7063C23.4247 25.712 23.4247 25.7183 23.4235 25.7246L23.0291 27.9314V28.6644C23.0291 28.7655 22.9473 28.8477 22.8452 28.8477C22.7438 28.8477 22.662 28.7655 22.662 28.6644V27.9314L22.267 25.7246C22.2663 25.7183 22.2663 25.712 22.267 25.7063L22.662 23.4996V22.2679C22.5307 22.2521 22.4052 22.2193 22.2873 22.1719L22.298 23.9394C22.2987 24.0405 22.2169 24.1233 22.1154 24.1239C22.014 24.1246 21.9309 24.0431 21.9303 23.9419L21.9227 22.7419L21.8441 22.8771L21.8561 24.7034C21.8568 24.8045 21.7743 24.8873 21.6735 24.8879C21.5721 24.8885 21.489 24.807 21.4884 24.7059L21.4808 23.5053L21.3273 23.7688L21.3394 25.595C21.34 25.6961 21.2582 25.7789 21.1568 25.7795C21.0553 25.7802 20.9723 25.6987 20.9717 25.5975L20.964 24.3969L20.7155 24.8253L20.6109 25.6633C20.609 25.6772 20.6014 25.6898 20.5906 25.6986L19.9147 26.208L19.8057 26.3963C19.7549 26.4841 19.6427 26.5138 19.5546 26.4633C19.4664 26.4127 19.436 26.3002 19.4867 26.213L19.6554 25.9223L19.7448 25.2114C19.7461 25.1975 19.7537 25.1855 19.7645 25.1767L20.3383 24.7444L20.6153 24.2661L19.6053 24.8146C19.5165 24.8632 19.4049 24.8304 19.3561 24.7413C19.3073 24.6528 19.3403 24.5416 19.4297 24.4929L20.9678 23.6569L21.1314 23.3744L20.122 23.9223C20.0333 23.9709 19.921 23.9387 19.8729 23.8496C19.824 23.7605 19.857 23.6493 19.9458 23.6006L21.4846 22.7646L21.574 22.6104L20.5646 23.1589C20.4752 23.2076 20.3636 23.1747 20.3148 23.0856C20.2666 22.9971 20.2995 22.8853 20.3889 22.8372L21.9271 22.0012L21.9411 21.9772C21.8301 21.8931 21.7306 21.7946 21.6462 21.684L20.5766 22.2995L18.8558 23.7428C18.8514 23.7472 18.8463 23.7504 18.8399 23.7523L16.7255 24.515L16.0883 24.8821C16.0008 24.9327 15.8879 24.9024 15.8372 24.8152C15.7865 24.7273 15.8163 24.6148 15.9044 24.5643L16.5416 24.1978L18.2625 22.7545C18.2669 22.75 18.272 22.7469 18.2783 22.745L20.3928 21.9822L21.4624 21.3661C21.4142 21.2524 21.3794 21.1316 21.3603 21.0053ZM29.5907 24.5719L29.093 24.2856C29.0905 24.2837 29.0879 24.2818 29.086 24.2805L27.3691 22.8391L25.2584 22.0783C25.2558 22.077 25.2527 22.0758 25.2501 22.0739L24.1361 21.4331C24.1127 21.4198 24.1032 21.3908 24.1146 21.3661C24.1805 21.2246 24.223 21.071 24.2376 20.9086C24.2401 20.8821 24.2623 20.8612 24.2896 20.8612H24.3403C24.3498 20.8612 24.3593 20.8644 24.3676 20.8694L25.9038 21.804C25.9419 21.8268 25.9907 21.8148 26.0135 21.7775C26.0363 21.7402 26.0243 21.6909 25.9869 21.6682L24.819 20.9579C24.7987 20.9459 24.7898 20.9219 24.7962 20.8998C24.8025 20.877 24.8228 20.8612 24.8462 20.8612H25.2248C25.2343 20.8612 25.2444 20.8644 25.252 20.8694L26.7889 21.804C26.8263 21.8268 26.8758 21.8148 26.8986 21.7775C26.9208 21.7402 26.9094 21.6909 26.872 21.6682L25.7041 20.9579C25.6838 20.9459 25.6749 20.9219 25.6806 20.8998C25.687 20.877 25.7079 20.8612 25.7307 20.8612H26.2582C26.2678 20.8612 26.2773 20.8644 26.2855 20.8694L27.8218 21.804C27.8592 21.8268 27.9086 21.8148 27.9315 21.7775C27.9549 21.7402 27.9422 21.6909 27.9048 21.6682L26.7369 20.9579C26.7173 20.9459 26.7078 20.9219 26.7141 20.8998C26.7205 20.877 26.7407 20.8612 26.7642 20.8612H27.5016C27.5086 20.8612 27.5155 20.8631 27.5219 20.8656L28.2149 21.1569L28.9072 20.8656C28.9129 20.8631 28.9199 20.8612 28.9269 20.8612H29.1919V20.7803V20.7746V20.7683V20.7026H28.9643C28.9573 20.7026 28.9503 20.7013 28.944 20.6988L28.2149 20.3917L27.4851 20.6988C27.4788 20.7013 27.4718 20.7026 27.4648 20.7026H26.7547C26.7312 20.7026 26.7109 20.6868 26.7046 20.664C26.6983 20.6419 26.7084 20.6179 26.7287 20.6059L27.9042 19.9196C27.9416 19.8975 27.9549 19.8489 27.9321 19.8109C27.9099 19.773 27.8611 19.7604 27.823 19.7825L26.2595 20.6956C26.2519 20.7001 26.2424 20.7026 26.2335 20.7026H25.7219C25.6984 20.7026 25.6775 20.6868 25.6718 20.664C25.6654 20.6419 25.6749 20.6179 25.6952 20.6059L26.8707 19.9196C26.9088 19.8975 26.9215 19.8489 26.8993 19.8109C26.8771 19.773 26.8282 19.7604 26.7896 19.7825L25.2267 20.6956C25.2184 20.7 25.2096 20.7026 25.2007 20.7026H24.8367C24.8133 20.7026 24.793 20.6868 24.7867 20.664C24.7803 20.6419 24.7905 20.6179 24.8108 20.6059L25.9856 19.9196C26.0237 19.8975 26.0363 19.8488 26.0142 19.8109C25.992 19.773 25.9431 19.7604 25.9051 19.7825L24.3416 20.6956C24.334 20.7 24.3245 20.7026 24.3156 20.7026H24.2896C24.2623 20.7026 24.2401 20.6823 24.2376 20.6552C24.223 20.4934 24.1805 20.3392 24.1146 20.1983C24.1032 20.1737 24.1127 20.1446 24.1361 20.1313L25.2501 19.4899C25.2527 19.4887 25.2558 19.4874 25.2584 19.4861L27.3691 18.7247L29.086 17.2839C29.0879 17.282 29.0905 17.2801 29.093 17.2788L29.689 16.9357L29.6091 16.7979L29.0138 17.1411C29.0106 17.143 29.0081 17.1442 29.0055 17.1449L26.8948 17.9063L25.1779 19.3471C25.176 19.349 25.1734 19.3509 25.1703 19.3528L24.0563 19.9936C24.0328 20.0075 24.003 20.0005 23.9871 19.979C23.8952 19.8488 23.7817 19.7357 23.6517 19.6441C23.6295 19.6283 23.6232 19.5992 23.6365 19.5759L23.6619 19.5323C23.6663 19.524 23.6733 19.5171 23.6815 19.5127L25.2527 18.6589C25.2914 18.6381 25.3053 18.5894 25.2844 18.5509C25.2635 18.5123 25.2153 18.4984 25.1766 18.5193L23.9846 19.167C23.9643 19.1784 23.939 19.1746 23.9225 19.1575C23.906 19.1411 23.9028 19.1158 23.9149 19.0956L24.1038 18.7683C24.1089 18.7601 24.1159 18.7531 24.1241 18.7487L25.6952 17.895C25.7339 17.8741 25.7479 17.8261 25.7269 17.7875C25.706 17.749 25.6572 17.7344 25.6185 17.7559L24.4272 18.403C24.4069 18.4144 24.3809 18.4106 24.365 18.3942C24.3486 18.3771 24.3454 18.3518 24.3568 18.3316L24.6206 17.8766C24.6256 17.8684 24.6326 17.8615 24.6408 17.857L26.212 17.0033C26.25 16.9825 26.2646 16.9338 26.243 16.8959C26.2228 16.8573 26.1739 16.8428 26.1353 16.8637L24.9439 17.5114C24.9236 17.5228 24.8976 17.519 24.8812 17.5019C24.8653 17.4855 24.8621 17.4602 24.8735 17.44L25.2445 16.7998C25.2483 16.7935 25.2527 16.7885 25.2584 16.784L25.8455 16.3411L25.9368 15.6125C25.9381 15.6055 25.94 15.5986 25.9438 15.5929L26.0877 15.3445L26.0085 15.299C26.0078 15.2984 26.0072 15.2984 26.0072 15.2977C26.0059 15.2977 26.0053 15.2971 26.0053 15.2971L25.9495 15.2649L25.8373 15.4583C25.8341 15.4639 25.8297 15.469 25.824 15.4734L25.1811 15.9587L25.0809 16.7562C25.0796 16.7632 25.0777 16.7695 25.0745 16.7758L24.7214 17.385C24.7093 17.4052 24.6852 17.4153 24.6631 17.4096C24.6402 17.4033 24.6244 17.3831 24.6244 17.3597L24.6155 15.9903C24.6149 15.9467 24.5787 15.9114 24.535 15.912C24.4912 15.912 24.4557 15.948 24.4557 15.9916L24.4678 17.809C24.4678 17.8184 24.4652 17.8273 24.4608 17.8349L24.2047 18.2766C24.1926 18.2974 24.1691 18.3069 24.1463 18.3012C24.1235 18.2949 24.1076 18.2747 24.1076 18.2513L24.0988 16.8826C24.0981 16.8383 24.0626 16.8029 24.0189 16.8036C23.9745 16.8036 23.939 16.8396 23.939 16.8832L23.951 18.7006C23.951 18.71 23.9485 18.7189 23.9441 18.7271L23.7621 19.0405C23.7507 19.0608 23.7266 19.0709 23.7038 19.0645C23.6809 19.0589 23.6651 19.0386 23.6651 19.0146L23.6562 17.6459C23.6562 17.6023 23.6201 17.5669 23.5757 17.5669C23.5319 17.5675 23.4964 17.6035 23.4964 17.6471L23.5085 19.4645C23.5085 19.4733 23.5059 19.4828 23.5015 19.4904L23.4983 19.4961C23.485 19.5188 23.4559 19.5283 23.4318 19.5169C23.2897 19.4512 23.135 19.4089 22.9727 19.3944C22.9455 19.3918 22.9252 19.3697 22.9252 19.3425V18.0604C22.9252 18.0572 22.9258 18.054 22.9258 18.0515L23.3195 15.8493L22.9258 13.6471C22.9258 13.6439 22.9252 13.6408 22.9252 13.6376V12.952H22.766V13.6376C22.766 13.6408 22.7654 13.6439 22.7648 13.6471L22.3717 15.8493L22.7648 18.0515C22.7654 18.054 22.766 18.0572 22.766 18.0604V19.3425C22.766 19.3697 22.7451 19.3918 22.7185 19.3944C22.5562 19.4089 22.4015 19.4512 22.2594 19.5169C22.2353 19.5283 22.2062 19.5188 22.1929 19.4961L22.158 19.4361C22.1529 19.4278 22.151 19.4184 22.151 19.4089L22.1941 17.6483C22.1954 17.6047 22.1605 17.5681 22.1161 17.5668C22.0724 17.5662 22.0356 17.6009 22.035 17.6445L22.002 18.9747C22.002 18.9981 21.9855 19.0183 21.9627 19.024C21.9405 19.0297 21.9164 19.0196 21.905 18.9994L21.7154 18.6727C21.711 18.6645 21.7085 18.655 21.7085 18.6455L21.7516 16.8849C21.7528 16.8407 21.718 16.8047 21.6742 16.8034C21.6298 16.8022 21.5937 16.8369 21.5924 16.8805L21.5601 18.2113C21.5588 18.2341 21.543 18.2543 21.5208 18.26C21.498 18.2657 21.4745 18.2556 21.4625 18.236L21.1993 17.7804C21.1943 17.7722 21.1917 17.7627 21.1924 17.7532L21.2355 15.9926C21.2361 15.949 21.2012 15.9124 21.1575 15.9117C21.1131 15.9105 21.077 15.9452 21.0757 15.9888L21.0434 17.319C21.0427 17.3424 21.0262 17.3627 21.004 17.3683C20.9812 17.374 20.9578 17.3639 20.9457 17.3437L20.571 16.6966C20.5678 16.6903 20.5653 16.684 20.5647 16.677L20.4765 15.9775L19.9129 15.5522C19.9072 15.5478 19.9027 15.5427 19.8989 15.537L19.7417 15.2647L19.6523 15.3159C19.6523 15.3165 19.651 15.3165 19.651 15.3171C19.6504 15.3171 19.6497 15.3177 19.6491 15.3177L19.6035 15.3443L19.7017 15.5136C19.7049 15.5193 19.7074 15.5263 19.7081 15.5332L19.8121 16.3598L20.4784 16.8628C20.4841 16.8672 20.4886 16.8723 20.4924 16.8786L20.8417 17.4815C20.8531 17.5017 20.85 17.527 20.8335 17.544C20.817 17.5605 20.791 17.5643 20.7707 17.5523L19.5572 16.8641C19.5185 16.8426 19.4703 16.8559 19.4481 16.8944C19.4265 16.9323 19.4399 16.981 19.4779 17.0025L21.0712 17.9055C21.0731 17.9068 21.0757 17.908 21.0776 17.9093C21.0877 17.9137 21.096 17.9207 21.1017 17.9301L21.3578 18.3731C21.3699 18.3933 21.3667 18.4193 21.3502 18.4357C21.3331 18.4521 21.3077 18.4559 21.2874 18.4445L20.0733 17.7564C20.0352 17.7342 19.9864 17.7481 19.9648 17.7861C19.9433 17.824 19.9566 17.8726 19.9946 17.8941L21.5873 18.7971C21.5899 18.7984 21.5918 18.7997 21.5943 18.8009C21.6044 18.8054 21.6127 18.8129 21.6184 18.8224L21.8004 19.1371C21.8124 19.1573 21.8092 19.1826 21.7921 19.1997C21.7756 19.2161 21.7503 19.2193 21.7294 19.2079L20.5158 18.5197C20.4778 18.4982 20.4289 18.5115 20.4074 18.5494C20.3858 18.588 20.3985 18.6366 20.4372 18.6581L22.0292 19.5605C22.0445 19.5693 22.0546 19.5851 22.0552 19.6028C22.0565 19.6205 22.0483 19.6376 22.0337 19.6477C21.9056 19.7387 21.7946 19.8512 21.7033 19.9788C21.6881 20.0003 21.6583 20.0073 21.6349 19.9934L20.5209 19.3526C20.5177 19.3507 20.5152 19.3488 20.5133 19.3469L18.7963 17.9061L16.6856 17.1447C16.6831 17.144 16.6805 17.1428 16.6774 17.1409L16.0814 16.7977L16.0021 16.9355L16.5975 17.2786C16.6006 17.2799 16.6032 17.2818 16.6051 17.2837L18.322 18.7245L20.4321 19.4859C20.4353 19.4872 20.4378 19.4885 20.441 19.4897L21.555 20.1311C21.5784 20.1444 21.5873 20.1735 21.5765 20.1981C21.5106 20.339 21.4681 20.4932 21.4535 20.655C21.451 20.6822 21.4288 20.7024 21.4015 20.7024H21.3128C21.3033 20.7024 21.2944 20.6999 21.2855 20.6948L19.7873 19.7829C19.7492 19.7602 19.7004 19.7722 19.6776 19.8095C19.6548 19.8468 19.6668 19.8961 19.7042 19.9188L20.8341 20.6063C20.8537 20.6183 20.8632 20.6424 20.8569 20.6645C20.8505 20.6872 20.8303 20.7024 20.8068 20.7024H20.4283C20.4188 20.7024 20.4093 20.6999 20.401 20.6948L18.9022 19.7829C18.8647 19.7602 18.8153 19.7722 18.7925 19.8095C18.7696 19.8468 18.7817 19.8961 18.8191 19.9188L19.9496 20.6063C19.9692 20.6183 19.9787 20.6424 19.9724 20.6645C19.9661 20.6872 19.9458 20.7024 19.9223 20.7024H19.3948C19.3853 20.7024 19.3758 20.6999 19.3682 20.6948L17.8693 19.7829C17.8319 19.7602 17.7824 19.7722 17.7596 19.8095C17.7362 19.8468 17.7482 19.8961 17.7856 19.9188L18.9161 20.6063C18.9357 20.6183 18.9453 20.6424 18.9389 20.6645C18.9326 20.6872 18.9123 20.7024 18.8888 20.7024H18.1343C18.1274 20.7024 18.121 20.7011 18.114 20.6986L17.4762 20.43L16.8384 20.6986C16.8327 20.7011 16.8257 20.7024 16.8187 20.7024H16.4991V20.8067V20.8123V20.8187V20.861H16.6722C16.6792 20.861 16.6855 20.8629 16.6925 20.8654L17.4762 21.1953L18.2605 20.8654C18.2668 20.8629 18.2738 20.861 18.2808 20.861H18.975C18.9991 20.861 19.0194 20.8774 19.0258 20.8996C19.0321 20.9223 19.0219 20.9463 19.0017 20.9583L17.7868 21.6673C17.7494 21.6895 17.7361 21.7381 17.7589 21.776C17.7811 21.8139 17.83 21.8266 17.8674 21.8045L19.4486 20.8812C19.4525 20.8787 19.4563 20.8768 19.4594 20.8736C19.4689 20.8661 19.481 20.861 19.493 20.861H20.0085C20.032 20.861 20.0523 20.8774 20.0586 20.8996C20.0649 20.9223 20.0554 20.9463 20.0351 20.9583L18.8203 21.6673C18.7823 21.6895 18.7696 21.7381 18.7918 21.776C18.814 21.8139 18.8628 21.8266 18.9008 21.8045L20.4821 20.8812C20.4859 20.8787 20.4897 20.8768 20.4929 20.8736C20.5024 20.8661 20.5138 20.861 20.5265 20.861H20.8936C20.9171 20.861 20.9374 20.8774 20.9437 20.8996C20.9494 20.9223 20.9399 20.9463 20.9196 20.9583L19.7054 21.6673C19.6674 21.6895 19.6541 21.7381 19.6769 21.776C19.6984 21.814 19.7479 21.8266 19.7859 21.8045L21.3666 20.8812C21.3685 20.88 21.3704 20.8787 21.3723 20.8781C21.3875 20.8673 21.4072 20.8654 21.4237 20.873C21.4408 20.8806 21.4522 20.897 21.4541 20.9154C21.4693 21.0746 21.5112 21.2269 21.5765 21.3659C21.5872 21.3906 21.5784 21.4196 21.5549 21.4329L20.4409 22.0737C20.4377 22.0756 20.4352 22.0768 20.432 22.0781L18.322 22.8389L16.605 24.2804C16.6031 24.2816 16.6006 24.2835 16.5974 24.2854L15.957 24.6545C15.9184 24.6759 15.9057 24.7246 15.9279 24.7631C15.9494 24.8011 15.9983 24.8137 16.0363 24.7922L16.6773 24.4232C16.6805 24.4213 16.683 24.42 16.6855 24.4188L18.7963 23.6579L20.5132 22.2165C20.5151 22.2152 20.5176 22.2133 20.5208 22.2114L21.6348 21.57C21.6583 21.5568 21.6881 21.5637 21.7033 21.5852C21.7959 21.7148 21.9093 21.8279 22.0393 21.9201C22.0615 21.9353 22.0679 21.965 22.0545 21.9884L22.0102 22.0655C22.0051 22.0737 21.9981 22.0806 21.9899 22.0851L20.4384 22.928C20.3997 22.9495 20.3858 22.9976 20.4067 23.0361C20.4276 23.0746 20.4758 23.0885 20.5145 23.0677L21.6868 22.4307C21.7071 22.4193 21.7331 22.4231 21.7489 22.4402C21.7654 22.4566 21.7686 22.4819 21.7572 22.5021L21.5676 22.8295C21.5625 22.8377 21.5556 22.844 21.5473 22.8484L19.9958 23.692C19.9572 23.7129 19.9432 23.7609 19.9641 23.7995C19.9851 23.838 20.0339 23.8525 20.0725 23.831L21.2443 23.1941C21.2652 23.1833 21.2905 23.1871 21.3064 23.2035C21.3229 23.22 21.326 23.2459 21.3146 23.2661L21.0509 23.7211C21.0464 23.7293 21.0395 23.7363 21.0306 23.7407L19.4791 24.5837C19.4411 24.6045 19.4265 24.6525 19.4474 24.6917C19.4683 24.7296 19.5171 24.7442 19.5558 24.7233L20.7275 24.0857C20.7484 24.075 20.7738 24.0788 20.7903 24.0952C20.8061 24.1122 20.8093 24.1375 20.7979 24.1577L20.4226 24.8055C20.4194 24.8112 20.4149 24.8162 20.4092 24.8206L19.8456 25.2459L19.7574 25.9455C19.7568 25.9524 19.7549 25.9587 19.7511 25.965L19.5774 26.2646C19.5552 26.3025 19.5685 26.3512 19.6065 26.3733C19.6446 26.3948 19.6934 26.3821 19.7156 26.3442L19.8297 26.147C19.8329 26.1413 19.8373 26.1357 19.843 26.1312L20.51 25.6289L20.6134 24.8017C20.6147 24.7947 20.6166 24.7878 20.6204 24.7821L20.9697 24.1792C20.9811 24.159 21.0052 24.1489 21.028 24.1546C21.0509 24.1609 21.0667 24.1817 21.0667 24.2045L21.0756 25.5966C21.0762 25.6402 21.1117 25.6756 21.1561 25.6756C21.1999 25.675 21.2354 25.6396 21.2354 25.5954L21.2233 23.7691C21.2233 23.7666 21.2233 23.7641 21.2227 23.7615C21.2221 23.7508 21.2246 23.7394 21.2297 23.7306L21.4858 23.2876C21.4979 23.2667 21.522 23.2572 21.5448 23.2629C21.5676 23.2693 21.5835 23.2895 21.5835 23.3129L21.5923 24.705C21.593 24.7486 21.6285 24.784 21.6722 24.7833C21.7166 24.7833 21.7521 24.7473 21.7515 24.7037L21.7401 22.8775C21.7401 22.8749 21.7401 22.8718 21.7394 22.8699C21.7388 22.8585 21.7407 22.8478 21.7464 22.8383L21.9284 22.5236C21.9404 22.5034 21.9639 22.4933 21.9873 22.4996C22.0095 22.5053 22.0254 22.5255 22.0254 22.5495L22.0349 23.941C22.0349 23.9846 22.071 24.02 22.1148 24.02C22.1592 24.0194 22.194 23.9833 22.194 23.9397L22.1826 22.1135C22.1826 22.111 22.182 22.1084 22.182 22.1059C22.1807 22.0952 22.1833 22.0844 22.189 22.0743L22.1928 22.068C22.2061 22.0446 22.2352 22.0358 22.2593 22.0471C22.4014 22.1122 22.5561 22.1546 22.7184 22.1691C22.745 22.1716 22.7659 22.1944 22.7659 22.2209V23.5037C22.7659 23.5069 22.7653 23.51 22.7647 23.5126L22.3716 25.7148L22.7647 27.917C22.7653 27.9202 22.7659 27.9233 22.7659 27.9265V28.6639C22.7659 28.7082 22.8014 28.7436 22.8452 28.7436C22.8896 28.7436 22.9251 28.7082 22.9251 28.6639V27.9265C22.9251 27.9233 22.9257 27.9202 22.9257 27.917L23.3194 25.7148L22.9257 23.5126C22.9257 23.51 22.9251 23.5069 22.9251 23.5037V22.2209C22.9251 22.1944 22.9454 22.1716 22.9726 22.1691C23.1349 22.1546 23.2896 22.1122 23.4317 22.0471C23.4558 22.0358 23.4849 22.0446 23.4982 22.068L23.5337 22.1287C23.5382 22.1369 23.5407 22.1464 23.5401 22.1558L23.4963 23.9386C23.4957 23.9822 23.5306 24.0188 23.5743 24.0201C23.6187 24.0207 23.6548 23.986 23.6561 23.9424L23.6891 22.59C23.6903 22.5673 23.7062 22.5471 23.7284 22.5407C23.7512 22.5357 23.7747 22.5452 23.7867 22.5654L23.9757 22.8921C23.9807 22.9003 23.9833 22.9098 23.9826 22.9199L23.9389 24.7026C23.9376 24.7462 23.9731 24.7829 24.0169 24.7835C24.0606 24.7848 24.0974 24.75 24.0987 24.7064L24.1316 23.3541C24.1323 23.3307 24.1481 23.3105 24.171 23.3048C24.1938 23.2991 24.2172 23.3092 24.2287 23.3295L24.4924 23.7844C24.4975 23.7927 24.4994 23.8021 24.4994 23.8116L24.4556 25.5943C24.4544 25.638 24.4899 25.6746 24.5336 25.6759C24.5774 25.6765 24.6141 25.6417 24.6154 25.5981L24.6484 24.2458C24.649 24.2224 24.6649 24.2022 24.6877 24.1965C24.7099 24.1908 24.734 24.201 24.7454 24.2212L25.1163 24.8613C25.1195 24.8676 25.122 24.8739 25.1226 24.8809L25.2139 25.6095L25.8017 26.0525C25.8074 26.0569 25.8118 26.062 25.8156 26.0677L25.9754 26.3444C25.9976 26.3823 26.0458 26.395 26.0845 26.3735C26.1225 26.3514 26.1358 26.3027 26.1136 26.2648L25.9856 26.0443C25.9824 26.0379 25.9799 26.0316 25.9792 26.0247L25.8791 25.2272L25.2361 24.7419C25.2304 24.7381 25.2254 24.7324 25.2222 24.7261L24.869 24.1169C24.8576 24.0967 24.8608 24.0708 24.8773 24.0543C24.8944 24.0379 24.9198 24.0341 24.9401 24.0455L26.1339 24.7223C26.172 24.7444 26.2208 24.7311 26.2424 24.6926C26.2646 24.6547 26.2512 24.606 26.2126 24.5845L24.6281 23.6859C24.6199 23.6815 24.6135 23.6745 24.6085 23.667L24.3523 23.2252C24.3409 23.205 24.3441 23.1791 24.3606 23.1627C24.3777 23.1463 24.403 23.1425 24.424 23.1538L25.6172 23.8306C25.6553 23.8527 25.7047 23.8388 25.7263 23.8009C25.7478 23.763 25.7345 23.7144 25.6958 23.6929L24.1114 22.7943C24.1031 22.7898 24.0968 22.7829 24.0924 22.7753L23.9104 22.4612C23.8984 22.441 23.9022 22.4157 23.9186 22.3987C23.9351 22.3823 23.9605 22.3791 23.9808 22.3905L25.1753 23.0673C25.2133 23.0887 25.2615 23.0755 25.2837 23.0376C25.3053 22.999 25.292 22.951 25.2539 22.9289L23.6688 22.0303C23.6612 22.0258 23.6543 22.0195 23.6492 22.0113L23.6365 21.9886C23.6232 21.9652 23.6295 21.9355 23.6517 21.9203C23.7817 21.8281 23.8952 21.7149 23.9871 21.5854C24.003 21.5639 24.0328 21.557 24.0562 21.5702L25.1702 22.2116C25.1734 22.2135 25.1759 22.2154 25.1778 22.2167L26.8948 23.6581L29.0055 24.4189C29.008 24.4202 29.0106 24.4215 29.0137 24.4234L29.5108 24.7096C29.5121 24.6932 29.5153 24.6768 29.5216 24.6603C29.5254 24.6496 29.5324 24.6414 29.5419 24.6351C29.5425 24.6243 29.5463 24.6142 29.5539 24.6054C29.5647 24.5921 29.5768 24.5807 29.5907 24.5719ZM23.504 21.7598L23.1603 21.167C23.1489 21.1468 23.1521 21.1209 23.1686 21.1045C23.1851 21.088 23.2111 21.0842 23.2314 21.0962L23.8267 21.4381C23.8394 21.4457 23.8483 21.4583 23.8515 21.4729C23.8546 21.4874 23.8515 21.5026 23.8426 21.5139C23.7684 21.6138 23.6803 21.7023 23.5801 21.7756C23.568 21.7844 23.5528 21.7876 23.5382 21.7844C23.5237 21.7819 23.511 21.7724 23.504 21.7598ZM23.5642 21.6561C23.6219 21.6087 23.6752 21.5557 23.7227 21.4988L23.348 21.2827L23.5642 21.6561ZM22.9251 21.9569V21.2726C22.9251 21.2492 22.941 21.2283 22.9638 21.2226C22.9866 21.2163 23.0107 21.2264 23.0221 21.2466L23.3664 21.84C23.3734 21.8527 23.3747 21.8678 23.3702 21.8817C23.3658 21.8956 23.3556 21.907 23.3417 21.9133C23.2295 21.962 23.109 21.9948 22.9828 22.0087C22.9682 22.01 22.9537 22.0056 22.9429 21.9955C22.9315 21.986 22.9251 21.9721 22.9251 21.9569ZM23.0291 21.8975C23.1046 21.8855 23.1768 21.8659 23.2459 21.84L23.0291 21.4659V21.8975ZM22.3247 21.84L22.669 21.2466C22.6804 21.2264 22.7045 21.2163 22.7273 21.2226C22.7501 21.2283 22.766 21.2492 22.766 21.2725V21.9569C22.766 21.9721 22.759 21.986 22.7482 21.9955C22.7375 22.0056 22.7229 22.01 22.7077 22.0087C22.5821 21.9948 22.461 21.962 22.3494 21.9133C22.3355 21.907 22.3253 21.8956 22.3209 21.8817C22.3158 21.8678 22.3177 21.8527 22.3247 21.84ZM22.4452 21.84C22.5143 21.8659 22.5866 21.8855 22.662 21.8975V21.4659L22.4452 21.84ZM21.8644 21.4381L22.4591 21.0962C22.48 21.0842 22.5054 21.088 22.5219 21.1045C22.539 21.1209 22.5422 21.1468 22.5308 21.167L22.1871 21.7598C22.1795 21.7724 22.1668 21.7819 22.1523 21.7844C22.1383 21.7876 22.1231 21.7844 22.111 21.7756C22.0109 21.7023 21.9227 21.6138 21.8485 21.5139C21.8397 21.5026 21.8365 21.4874 21.8397 21.4729C21.8428 21.4583 21.8517 21.4457 21.8644 21.4381ZM21.9684 21.4988C22.0159 21.5557 22.0692 21.6087 22.1269 21.6561L22.3431 21.2827L21.9684 21.4988ZM21.6666 20.8612H22.3532C22.3773 20.8612 22.3976 20.8776 22.404 20.8997C22.4103 20.9225 22.4002 20.9465 22.3792 20.9585L21.7845 21.301C21.7718 21.3079 21.756 21.3098 21.7427 21.3048C21.7281 21.3004 21.7167 21.2902 21.711 21.277C21.6621 21.1651 21.6285 21.0451 21.6146 20.9193C21.6133 20.9041 21.6178 20.8896 21.6279 20.8789C21.6374 20.8675 21.652 20.8612 21.6666 20.8612ZM21.7262 20.9654C21.7389 21.04 21.7579 21.112 21.7839 21.1809L22.1592 20.9654H21.7262ZM21.7845 20.2634L22.3792 20.6059C22.4002 20.6173 22.4103 20.6413 22.404 20.664C22.3976 20.6868 22.3773 20.7026 22.3532 20.7026H21.6666C21.652 20.7026 21.6374 20.6962 21.6279 20.6855C21.6178 20.6741 21.6133 20.6596 21.6146 20.6451C21.6285 20.5193 21.6621 20.3992 21.711 20.2874C21.7167 20.2741 21.7281 20.2634 21.7427 20.259C21.756 20.2545 21.7718 20.2558 21.7845 20.2634ZM21.7839 20.3828C21.7579 20.4517 21.7389 20.5244 21.7262 20.5989H22.1592L21.7839 20.3828ZM22.1871 19.8046L22.5308 20.3974C22.5422 20.4176 22.539 20.4435 22.5219 20.4599C22.5054 20.4763 22.48 20.4801 22.4591 20.4681L21.8644 20.1256C21.8517 20.1187 21.8428 20.106 21.8397 20.0915C21.8365 20.077 21.8397 20.0618 21.8485 20.0498C21.9227 19.9506 22.0109 19.8621 22.111 19.7888C22.1231 19.78 22.1383 19.7768 22.1522 19.7793C22.1668 19.7825 22.1795 19.7913 22.1871 19.8046ZM22.1269 19.9076C22.0692 19.955 22.0159 20.0081 21.9684 20.0656L22.3431 20.2811L22.1269 19.9076ZM22.766 19.6068V20.2918C22.766 20.3152 22.7501 20.3361 22.7273 20.3417C22.7045 20.3481 22.6804 20.3379 22.669 20.3177L22.3247 19.7243C22.3177 19.7117 22.3158 19.6965 22.3209 19.6826C22.3253 19.6687 22.3355 19.6574 22.3494 19.651C22.461 19.6024 22.5821 19.5695 22.7077 19.5556C22.7229 19.5537 22.7375 19.5588 22.7482 19.5683C22.759 19.5784 22.766 19.5923 22.766 19.6068ZM22.662 19.6662C22.5866 19.6788 22.5143 19.6984 22.4452 19.7243L22.662 20.0978V19.6662ZM23.3664 19.7243L23.0221 20.3177C23.0107 20.3379 22.9866 20.3481 22.9638 20.3417C22.941 20.3361 22.9251 20.3152 22.9251 20.2918V19.6068C22.9251 19.5923 22.9315 19.5784 22.9429 19.5683C22.9537 19.5588 22.9682 19.5537 22.9828 19.5556C23.109 19.5695 23.2295 19.6024 23.3417 19.651C23.3556 19.6574 23.3658 19.6687 23.3702 19.6826C23.3747 19.6965 23.3734 19.7117 23.3664 19.7243ZM23.246 19.7243C23.1768 19.6984 23.1046 19.6788 23.0291 19.6662V20.0978L23.246 19.7243ZM23.8267 20.1256L23.2314 20.4681C23.2111 20.4801 23.1851 20.4763 23.1686 20.4599C23.1521 20.4435 23.1489 20.4176 23.1603 20.3973L23.504 19.8046C23.511 19.7913 23.5236 19.7825 23.5382 19.7793C23.5528 19.7768 23.568 19.78 23.5801 19.7888C23.6803 19.8621 23.7684 19.9506 23.8426 20.0498C23.8514 20.0618 23.8546 20.077 23.8514 20.0915C23.8483 20.106 23.8394 20.1187 23.8267 20.1256ZM23.7227 20.0656C23.6752 20.0081 23.6219 19.955 23.5642 19.9076L23.348 20.2811L23.7227 20.0656ZM24.0245 20.7026H23.3372C23.3138 20.7026 23.2935 20.6868 23.2872 20.664C23.2808 20.6413 23.291 20.6173 23.3113 20.6059L23.9066 20.2634C23.9193 20.2558 23.9345 20.2545 23.9485 20.259C23.9624 20.2634 23.9745 20.2741 23.9802 20.2874C24.029 20.3992 24.0626 20.5193 24.0759 20.6451C24.0778 20.6596 24.0727 20.6741 24.0632 20.6855C24.0531 20.6962 24.0391 20.7026 24.0245 20.7026ZM23.9649 20.5989C23.9523 20.5244 23.9332 20.4517 23.9066 20.3828L23.5319 20.5989H23.9649ZM23.9066 21.301L23.3112 20.9585C23.291 20.9465 23.2808 20.9225 23.2872 20.8997C23.2935 20.8776 23.3138 20.8612 23.3372 20.8612H24.0245C24.0391 20.8612 24.0531 20.8675 24.0632 20.8789C24.0727 20.8896 24.0778 20.9041 24.0759 20.9193C24.0626 21.0451 24.029 21.1651 23.9802 21.277C23.9745 21.2902 23.9624 21.3004 23.9485 21.3048C23.9345 21.3098 23.9193 21.3079 23.9066 21.301ZM23.9066 21.1809C23.9332 21.112 23.9523 21.04 23.9649 20.9654H23.5319L23.9066 21.1809Z" fill="white"/>
</svg>
