<svg width="35" height="29" viewBox="0 0 35 29" fill="none" xmlns="http://www.w3.org/2000/svg">
<rect width="22.4537" height="21.7467" rx="5" transform="matrix(0.773471 0.633832 -0.773471 0.633832 16.8206 0)" fill="#009BD6"/>
<path d="M13.4015 20.0156V18.4929L17.4413 14.5327C17.8277 14.1425 18.1496 13.7959 18.4072 13.4929C18.6648 13.1899 18.858 12.8963 18.9868 12.6122C19.1155 12.3281 19.1799 12.0251 19.1799 11.7031C19.1799 11.3357 19.0966 11.0213 18.9299 10.7599C18.7633 10.4948 18.5341 10.2902 18.2424 10.1463C17.9508 10.0024 17.6193 9.9304 17.2481 9.9304C16.8655 9.9304 16.5303 10.0099 16.2424 10.169C15.9546 10.3243 15.7311 10.5459 15.572 10.8338C15.4167 11.1217 15.339 11.4645 15.339 11.8622H13.3333C13.3333 11.1236 13.5019 10.4815 13.839 9.93608C14.1761 9.39062 14.6402 8.96828 15.2311 8.66903C15.8258 8.36979 16.5076 8.22017 17.2765 8.22017C18.0568 8.22017 18.7424 8.366 19.3333 8.65767C19.9243 8.94934 20.3826 9.34896 20.7083 9.85653C21.0379 10.3641 21.2027 10.9437 21.2027 11.5952C21.2027 12.0308 21.1193 12.4588 20.9527 12.8793C20.786 13.2997 20.4924 13.7656 20.072 14.277C19.6553 14.7884 19.0701 15.4077 18.3163 16.1349L16.3106 18.1747V18.2543H21.3788V20.0156H13.4015Z" fill="white"/>
</svg>
