<svg width="35" height="29" viewBox="0 0 35 29" fill="none" xmlns="http://www.w3.org/2000/svg">
<rect width="22.2137" height="22.184" rx="5" transform="matrix(0.773471 0.633832 -0.773471 0.633832 17.1587 0)" fill="#00D95F"/>
<path d="M17.3919 20.2997C16.5737 20.2997 15.8464 20.1596 15.21 19.8793C14.5775 19.599 14.0775 19.2088 13.71 18.7088C13.3426 18.2088 13.1475 17.6312 13.1248 16.9759H15.2612C15.2801 17.2902 15.3843 17.5649 15.5737 17.7997C15.7631 18.0308 16.015 18.2107 16.3294 18.3395C16.6438 18.4683 16.996 18.5327 17.3862 18.5327C17.8029 18.5327 18.1722 18.4607 18.4941 18.3168C18.8161 18.169 19.068 17.9645 19.2498 17.7031C19.4316 17.4418 19.5207 17.1406 19.5169 16.7997C19.5207 16.4474 19.4297 16.1368 19.2441 15.8679C19.0585 15.599 18.7896 15.3887 18.4373 15.2372C18.0888 15.0857 17.6684 15.0099 17.176 15.0099H16.1475V13.3849H17.176C17.5813 13.3849 17.9354 13.3149 18.2385 13.1747C18.5453 13.0346 18.7858 12.8376 18.9601 12.5838C19.1343 12.3262 19.2195 12.0289 19.2157 11.6918C19.2195 11.3622 19.1457 11.0762 18.9941 10.8338C18.8464 10.5876 18.6362 10.3963 18.3635 10.2599C18.0945 10.1236 17.7782 10.0554 17.4146 10.0554C17.0585 10.0554 16.729 10.1198 16.426 10.2486C16.1229 10.3774 15.8786 10.5611 15.693 10.7997C15.5074 11.0346 15.4089 11.3149 15.3975 11.6406H13.3691C13.3843 10.9891 13.5718 10.4171 13.9316 9.92472C14.2953 9.4285 14.7801 9.04214 15.3862 8.76562C15.9922 8.48532 16.6722 8.34517 17.426 8.34517C18.2025 8.34517 18.8767 8.491 19.4487 8.78267C20.0244 9.07055 20.4695 9.45881 20.7839 9.94744C21.0983 10.4361 21.2555 10.9759 21.2555 11.5668C21.2593 12.2221 21.0661 12.7713 20.676 13.2145C20.2896 13.6577 19.782 13.9474 19.1532 14.0838V14.1747C19.9714 14.2884 20.5983 14.5914 21.0339 15.0838C21.4733 15.5724 21.6911 16.1804 21.6873 16.9077C21.6873 17.5592 21.5017 18.1425 21.1305 18.6577C20.7631 19.169 20.2555 19.5705 19.6078 19.8622C18.9638 20.1539 18.2252 20.2997 17.3919 20.2997Z" fill="white"/>
</svg>
