<svg width="77" height="95" viewBox="0 0 77 95" fill="none" xmlns="http://www.w3.org/2000/svg">
<g clip-path="url(#clip0_1108_600)">
<path d="M14.7671 0H62.2329C70.3886 0 77 6.61147 77 14.7671V80.1644C77 88.32 70.3886 94.9315 62.2329 94.9315H14.7671C6.61147 94.9315 0 88.32 0 80.1644V14.7671C0 6.61147 6.61147 0 14.7671 0Z" fill="#619F09"/>
<path d="M14.7671 0H62.2329C70.3886 0 77 6.61147 77 14.7671V75.9452C77 84.1009 70.3886 90.7123 62.2329 90.7123H14.7671C6.61147 90.7123 0 84.1009 0 75.9452V14.7671C0 6.61147 6.61147 0 14.7671 0Z" fill="#7AC70C"/>
<path fill-rule="evenodd" clip-rule="evenodd" d="M26.37 29.5342H50.6303C55.2906 29.5342 59.0686 33.3122 59.0686 37.9725C59.0686 42.6329 55.2906 46.4109 50.6303 46.4109H26.37C21.7096 46.4109 17.9316 42.6329 17.9316 37.9725C17.9316 33.3122 21.7096 29.5342 26.37 29.5342Z" fill="#E5E5E5"/>
<path fill-rule="evenodd" clip-rule="evenodd" d="M38.6634 19.9053C45.4169 19.9053 50.8916 25.3801 50.8916 32.1336V37.6184C50.8916 44.3719 45.4169 49.8467 38.6634 49.8467C31.9099 49.8467 26.4351 44.3719 26.4351 37.6184V32.1336C26.4351 25.3801 31.9099 19.9053 38.6634 19.9053Z" fill="#FFD097"/>
<path fill-rule="evenodd" clip-rule="evenodd" d="M25.9761 42.2432H51.2911V52.7911L42.5001 62.2677C40.5192 64.4031 37.1822 64.5283 35.0468 62.5474C34.9501 62.4577 34.8568 62.3644 34.7671 62.2677L25.9761 52.7911V42.2432Z" fill="#E5E5E5"/>
<path d="M34.8417 35.0432C34.8417 34.199 34.1574 33.5146 33.3132 33.5146C32.469 33.5146 31.7847 34.199 31.7847 35.0432V36.5903C31.7847 37.4344 32.469 38.1188 33.3132 38.1188C34.1574 38.1188 34.8417 37.4344 34.8417 36.5903V35.0432Z" fill="#DBAA6F"/>
<path d="M45.5419 35.0432C45.5419 34.199 44.8576 33.5146 44.0134 33.5146C43.1692 33.5146 42.4849 34.199 42.4849 35.0432V36.5903C42.4849 37.4344 43.1692 38.1188 44.0134 38.1188C44.8576 38.1188 45.5419 37.4344 45.5419 36.5903V35.0432Z" fill="#DBAA6F"/>
<path d="M49.5754 41.4575C54.3681 44.2246 56.0102 50.353 53.2431 55.1458C52.8062 55.9025 51.8386 56.1618 51.0818 55.7249L36.4662 47.2865C35.7094 46.8496 35.4501 45.882 35.887 45.1252C38.6541 40.3325 44.7826 38.6904 49.5754 41.4575ZM47.9932 44.1979C45.1855 42.5769 41.7079 43.1674 39.5775 45.4289L51.1349 52.1016C52.0282 49.1258 50.8008 45.8189 47.9932 44.1979Z" fill="white"/>
<path d="M27.4245 41.4575C32.2173 38.6904 38.3458 40.3325 41.1129 45.1252C41.5498 45.882 41.2905 46.8496 40.5337 47.2865L25.9181 55.7249C25.1613 56.1618 24.1937 55.9025 23.7568 55.1458C20.9897 50.353 22.6318 44.2246 27.4245 41.4575ZM37.4225 45.4289C35.292 43.1674 31.8144 42.5769 29.0067 44.1979C26.1991 45.8189 24.9717 49.1258 25.865 52.1016L37.4225 45.4289Z" fill="white"/>
<path fill-rule="evenodd" clip-rule="evenodd" d="M48.7845 42.8277C44.7485 40.4975 39.5876 41.8803 37.2574 45.9163L51.8731 54.3547C54.2033 50.3187 52.8205 45.1579 48.7845 42.8277Z" fill="white"/>
<path fill-rule="evenodd" clip-rule="evenodd" d="M28.2155 42.8277C32.2515 40.4975 37.4124 41.8803 39.7426 45.9163L25.1269 54.3547C22.7967 50.3187 24.1795 45.1579 28.2155 42.8277Z" fill="white"/>
<path fill-rule="evenodd" clip-rule="evenodd" d="M37.9318 30.1582H39.3951C40.2573 30.1582 40.9562 30.8572 40.9562 31.7194V41.7371C40.9562 42.5993 40.2573 43.2982 39.3951 43.2982H37.9318C37.0696 43.2982 36.3706 42.5993 36.3706 41.7371V31.7194C36.3706 30.8572 37.0696 30.1582 37.9318 30.1582Z" fill="#F3AD6D"/>
<path fill-rule="evenodd" clip-rule="evenodd" d="M37.2433 30.1582H40.4497C41.3119 30.1582 42.0109 30.8572 42.0109 31.7194V31.7614C42.0109 32.6236 41.3119 33.3226 40.4497 33.3226H37.2433C36.3811 33.3226 35.6821 32.6236 35.6821 31.7614V31.7194C35.6821 30.8572 36.3811 30.1582 37.2433 30.1582Z" fill="#F3AD6D"/>
<path d="M46.6805 31.2129H42.1103C41.0508 31.2129 40.1919 32.0718 40.1919 33.1313C40.1919 34.1908 41.0508 35.0497 42.1103 35.0497H46.6805C47.74 35.0497 48.5988 34.1908 48.5988 33.1313C48.5988 32.0718 47.74 31.2129 46.6805 31.2129Z" fill="white"/>
<path d="M35.2166 31.2129H30.6464C29.5869 31.2129 28.728 32.0718 28.728 33.1313C28.728 34.1908 29.5869 35.0497 30.6464 35.0497H35.2166C36.2761 35.0497 37.135 34.1908 37.135 33.1313C37.135 32.0718 36.2761 31.2129 35.2166 31.2129Z" fill="white"/>
<path fill-rule="evenodd" clip-rule="evenodd" d="M34.5768 6.3291H41.7415C42.5247 6.3291 43.2435 6.76305 43.6083 7.45616L53.5631 26.3702H24.0288L34.5768 6.3291Z" fill="#1899D6"/>
<path fill-rule="evenodd" clip-rule="evenodd" d="M13.1953 26.0771H63.5501C65.0123 26.0771 66.1976 27.2624 66.1976 28.7246C66.1976 30.1867 65.0123 31.372 63.5501 31.372H13.1953C11.7331 31.372 10.5479 30.1867 10.5479 28.7246C10.5479 27.2624 11.7331 26.0771 13.1953 26.0771Z" fill="#1CB0F6"/>
<path fill-rule="evenodd" clip-rule="evenodd" d="M24.2481 6.3291H37.9724V15.8223L23.5988 9.35413C22.802 8.99554 22.4467 8.05887 22.8053 7.26202C23.0608 6.69425 23.6255 6.3291 24.2481 6.3291Z" fill="#1899D6"/>
<path d="M42.3734 14.9621C42.6587 15.3216 42.3805 15.8487 41.9228 15.8161C41.8663 15.8121 41.8095 15.81 41.7525 15.81C40.4751 15.81 39.4429 16.826 39.4429 18.075C39.4429 19.324 40.4751 20.3399 41.7525 20.3399C41.8095 20.3399 41.8663 20.3379 41.9228 20.3339C42.3805 20.3012 42.6587 20.8284 42.3734 21.1878C41.4872 22.3042 40.1702 22.9654 38.7487 22.9654C36.1479 22.9654 34.0493 20.7707 34.0493 18.075C34.0493 15.3792 36.1479 13.1846 38.7487 13.1846C40.1702 13.1846 41.4872 13.8457 42.3734 14.9621ZM38.7487 14.2394C36.7412 14.2394 35.1041 15.9515 35.1041 18.075C35.1041 20.1985 36.7412 21.9106 38.7487 21.9106C39.4894 21.9106 40.1943 21.6767 40.7864 21.2558C39.4001 20.8463 38.3881 19.5784 38.3881 18.075C38.3881 16.5716 39.4001 15.3037 40.7864 14.8942C40.1943 14.4733 39.4894 14.2394 38.7487 14.2394Z" fill="#FFD900"/>
<path fill-rule="evenodd" clip-rule="evenodd" d="M41.9602 15.29C41.8916 15.2851 41.8223 15.2826 41.7524 15.2826C40.1856 15.2826 38.9155 16.5328 38.9155 18.0749C38.9155 19.6171 40.1856 20.8673 41.7524 20.8673C41.8223 20.8673 41.8916 20.8648 41.9602 20.8599C41.195 21.824 40.0403 22.4379 38.7486 22.4379C36.4445 22.4379 34.5767 20.4846 34.5767 18.0749C34.5767 15.6653 36.4445 13.7119 38.7486 13.7119C40.0403 13.7119 41.195 14.3259 41.9602 15.29Z" fill="#FFD900"/>
</g>
<defs>
<clipPath id="clip0_1108_600">
<rect width="77" height="94.9315" fill="white"/>
</clipPath>
</defs>
</svg>
