<svg width="77" height="95" viewBox="0 0 77 95" fill="none" xmlns="http://www.w3.org/2000/svg">
<g clip-path="url(#clip0_1108_636)">
<path d="M14.7671 0H62.2329C70.3886 0 77 6.61147 77 14.7671V80.1644C77 88.32 70.3886 94.9315 62.2329 94.9315H14.7671C6.61147 94.9315 0 88.32 0 80.1644V14.7671C0 6.61147 6.61147 0 14.7671 0Z" fill="#C93939"/>
<path d="M14.7671 0H62.2329C70.3886 0 77 6.61147 77 14.7671V75.9452C77 84.1009 70.3886 90.7123 62.2329 90.7123H14.7671C6.61147 90.7123 0 84.1009 0 75.9452V14.7671C0 6.61147 6.61147 0 14.7671 0Z" fill="#FC4848"/>
<path fill-rule="evenodd" clip-rule="evenodd" d="M21.6412 15.5135C23.1346 15.6892 24.2601 16.9549 24.2601 18.4586C24.2601 19.9623 23.1346 21.228 21.6412 21.4037L11.0427 22.6506C10.879 22.6698 10.7143 22.6795 10.5495 22.6795C8.21837 22.6795 6.32861 20.7897 6.32861 18.4586C6.32861 18.2938 6.33827 18.1291 6.35752 17.9654C6.6299 15.6503 8.72751 13.9942 11.0427 14.2666L21.6412 15.5135Z" fill="#FFC800"/>
<path fill-rule="evenodd" clip-rule="evenodd" d="M55.3587 15.5135L65.9572 14.2666C68.2724 13.9942 70.37 15.6503 70.6423 17.9654C70.6616 18.1291 70.6713 18.2938 70.6713 18.4586C70.6713 20.7897 68.7815 22.6795 66.4504 22.6795C66.2856 22.6795 66.1209 22.6698 65.9572 22.6506L55.3587 21.4037C53.8653 21.228 52.7397 19.9623 52.7397 18.4586C52.7397 16.9549 53.8653 15.6892 55.3587 15.5135Z" fill="#FFC800"/>
<path fill-rule="evenodd" clip-rule="evenodd" d="M53.7947 18.9863V51.685H22.1509V18.9863H53.7947Z" fill="#FEEDED"/>
<path fill-rule="evenodd" clip-rule="evenodd" d="M60.1235 12.6572V24.26H16.877V12.6572H60.1235Z" fill="white"/>
<path fill-rule="evenodd" clip-rule="evenodd" d="M14.2397 12.1302C14.2397 10.3826 15.6565 8.96582 17.4041 8.96582C19.1518 8.96582 20.5685 10.3826 20.5685 12.1302V23.7329C20.5685 25.4806 19.1518 26.8973 17.4041 26.8973C15.6565 26.8973 14.2397 25.4806 14.2397 23.7329V12.1302Z" fill="#FFD900"/>
<path fill-rule="evenodd" clip-rule="evenodd" d="M61.7057 12.1302V23.7329C61.7057 25.4806 60.289 26.8973 58.5413 26.8973C56.7937 26.8973 55.377 25.4806 55.377 23.7329V12.1302C55.377 10.3826 56.7937 8.96582 58.5413 8.96582C60.289 8.96582 61.7057 10.3826 61.7057 12.1302Z" fill="#FFD900"/>
<path fill-rule="evenodd" clip-rule="evenodd" d="M21.6412 49.2674C23.1346 49.4431 24.2601 50.7088 24.2601 52.2125C24.2601 53.7162 23.1346 54.9819 21.6412 55.1576L11.0427 56.4045C10.879 56.4237 10.7143 56.4334 10.5495 56.4334C8.21837 56.4334 6.32861 54.5436 6.32861 52.2125C6.32861 52.0477 6.33827 51.883 6.35752 51.7193C6.6299 49.4042 8.72751 47.7482 11.0427 48.0205L21.6412 49.2674Z" fill="#FFC800"/>
<path fill-rule="evenodd" clip-rule="evenodd" d="M55.3587 49.2674L65.9572 48.0205C68.2724 47.7482 70.37 49.4042 70.6423 51.7193C70.6616 51.883 70.6713 52.0477 70.6713 52.2125C70.6713 54.5436 68.7815 56.4334 66.4504 56.4334C66.2856 56.4334 66.1209 56.4237 65.9572 56.4045L55.3587 55.1576C53.8653 54.9819 52.7397 53.7162 52.7397 52.2125C52.7397 50.7088 53.8653 49.4431 55.3587 49.2674Z" fill="#FFC800"/>
<path fill-rule="evenodd" clip-rule="evenodd" d="M60.1235 46.4111V58.0139H16.877V46.4111H60.1235Z" fill="white"/>
<path fill-rule="evenodd" clip-rule="evenodd" d="M14.2397 45.8831C14.2397 44.1355 15.6565 42.7188 17.4041 42.7188C19.1518 42.7188 20.5685 44.1355 20.5685 45.8831V57.4859C20.5685 59.2335 19.1518 60.6503 17.4041 60.6503C15.6565 60.6503 14.2397 59.2335 14.2397 57.4859V45.8831Z" fill="#FFD900"/>
<path fill-rule="evenodd" clip-rule="evenodd" d="M61.7057 45.8831V57.4859C61.7057 59.2335 60.289 60.6503 58.5413 60.6503C56.7937 60.6503 55.377 59.2335 55.377 57.4859V45.8831C55.377 44.1355 56.7937 42.7188 58.5413 42.7188C60.289 42.7188 61.7057 44.1355 61.7057 45.8831Z" fill="#FFD900"/>
<path fill-rule="evenodd" clip-rule="evenodd" d="M16.8767 12.6572C18.0418 12.6572 18.9863 13.6017 18.9863 14.7668V18.986C18.9863 20.1511 18.0418 21.0956 16.8767 21.0956C15.7116 21.0956 14.7671 20.1511 14.7671 18.986V14.7668C14.7671 13.6017 15.7116 12.6572 16.8767 12.6572Z" fill="#FFF5BE"/>
<path fill-rule="evenodd" clip-rule="evenodd" d="M26.3697 33.7539H49.5752C50.1578 33.7539 50.63 34.2262 50.63 34.8087V35.8635C50.63 36.446 50.1578 36.9183 49.5752 36.9183H26.3697C25.7872 36.9183 25.3149 36.446 25.3149 35.8635V34.8087C25.3149 34.2262 25.7872 33.7539 26.3697 33.7539Z" fill="#FDCBCB"/>
<path fill-rule="evenodd" clip-rule="evenodd" d="M26.3697 28.4795H39.0273C39.6098 28.4795 40.0821 28.9517 40.0821 29.5343V30.5891C40.0821 31.1716 39.6098 31.6439 39.0273 31.6439H26.3697C25.7872 31.6439 25.3149 31.1716 25.3149 30.5891V29.5343C25.3149 28.9517 25.7872 28.4795 26.3697 28.4795Z" fill="#FDCBCB"/>
<path fill-rule="evenodd" clip-rule="evenodd" d="M26.3697 39.0273H44.3012C44.8838 39.0273 45.356 39.4996 45.356 40.0821V41.1369C45.356 41.7195 44.8838 42.1917 44.3012 42.1917H26.3697C25.7872 42.1917 25.3149 41.7195 25.3149 41.1369V40.0821C25.3149 39.4996 25.7872 39.0273 26.3697 39.0273Z" fill="#FDCBCB"/>
</g>
<defs>
<clipPath id="clip0_1108_636">
<rect width="77" height="94.9315" fill="white"/>
</clipPath>
</defs>
</svg>
