<svg width="123" height="123" viewBox="0 0 123 123" fill="none" xmlns="http://www.w3.org/2000/svg">
<path d="M117.489 62.3047H5.33984V122.83H117.489V62.3047Z" fill="#AA572A"/>
<path d="M98.7235 100.578H17.0664" stroke="#8F4720" stroke-width="4.19514"/>
<path d="M103.249 110.367H17.8008V122.829H103.249V110.367Z" fill="#FFBC00"/>
<mask id="mask0_1047_859" style="mask-type:alpha" maskUnits="userSpaceOnUse" x="17" y="110" width="87" height="13">
<path d="M103.249 110.367H17.8008V122.829H103.249V110.367Z" fill="#FFBC00"/>
</mask>
<g mask="url(#mask0_1047_859)">
<path d="M103.926 106.881L64.9049 67.8594L-13.1387 145.903L25.8826 184.924L103.926 106.881Z" fill="#FFD300"/>
</g>
<path d="M113.017 7.11719H8.03211C4.5792 7.11719 1.7793 9.91079 1.7793 13.3574V68.5219C1.7793 71.9686 4.5792 74.7622 8.03211 74.7622H113.017C116.469 74.7622 119.269 71.9686 119.269 68.5219V13.3574C119.269 9.91079 116.469 7.11719 113.017 7.11719Z" fill="#AA572A"/>
<path d="M17.8008 16.0234V19.5845H103.249V16.0234H17.8008Z" fill="#8F4720"/>
<path d="M17.8008 40.9453V44.5063H103.249V40.9453H17.8008Z" fill="#8F4720"/>
<path d="M98.7235 75.6562H17.0664" stroke="#8F4720" stroke-width="4.19514"/>
<path d="M112.649 58.7422H5.83984V81.8847H112.649V58.7422Z" fill="#FFBC00"/>
<path d="M4.19513 0C1.87815 0 0 1.87815 0 4.19513V118.635C0 120.952 1.87815 122.831 4.19513 122.831H20.7279C23.0449 122.831 24.923 120.952 24.923 118.635V4.19513C24.923 1.87815 23.0449 0 20.7279 0H4.19513Z" fill="#FFBC00"/>
<mask id="mask1_1047_859" style="mask-type:alpha" maskUnits="userSpaceOnUse" x="0" y="0" width="25" height="123">
<path d="M4.19513 0C1.87815 0 0 1.87815 0 4.19513V118.635C0 120.952 1.87815 122.831 4.19513 122.831H20.7279C23.0449 122.831 24.923 120.952 24.923 118.635V4.19513C24.923 1.87815 23.0449 0 20.7279 0H4.19513Z" fill="#FFBC00"/>
</mask>
<g mask="url(#mask1_1047_859)">
<path d="M40.0527 -4.45312L-34.582 70.1817L-9.25374 95.5099L65.381 20.8752L40.0527 -4.45312Z" fill="#FFD300"/>
</g>
<mask id="mask2_1047_859" style="mask-type:alpha" maskUnits="userSpaceOnUse" x="0" y="0" width="25" height="123">
<path d="M4.19513 0C1.87815 0 0 1.87815 0 4.19513V118.635C0 120.952 1.87815 122.831 4.19513 122.831H20.7279C23.0449 122.831 24.923 120.952 24.923 118.635V4.19513C24.923 1.87815 23.0449 0 20.7279 0H4.19513Z" fill="#FFBC00"/>
</mask>
<g mask="url(#mask2_1047_859)">
<path d="M25.8676 100.305L-24.0625 150.235L-9.25355 165.044L40.6765 115.114L25.8676 100.305Z" fill="#FFD300"/>
</g>
<path d="M102.103 0C99.7864 0 97.9082 1.87815 97.9082 4.19513V118.635C97.9082 120.952 99.7864 122.831 102.103 122.831H118.636C120.953 122.831 122.831 120.952 122.831 118.635V4.19513C122.831 1.87815 120.953 0 118.636 0H102.103Z" fill="#FFBC00"/>
<mask id="mask3_1047_859" style="mask-type:alpha" maskUnits="userSpaceOnUse" x="97" y="0" width="26" height="123">
<path d="M102.103 0C99.7864 0 97.9082 1.87815 97.9082 4.19513V118.635C97.9082 120.952 99.7864 122.831 102.103 122.831H118.636C120.953 122.831 122.831 120.952 122.831 118.635V4.19513C122.831 1.87815 120.953 0 118.636 0H102.103Z" fill="#FFBC00"/>
</mask>
<g mask="url(#mask3_1047_859)">
<path d="M125.195 13.6562L56.7734 82.0781L92.7512 118.056L161.173 49.634L125.195 13.6562Z" fill="#FFD300"/>
</g>
<path d="M48.699 51.625C46.3821 51.625 44.5039 53.5032 44.5039 55.8201V88.3734C44.5039 90.6904 46.3821 92.5685 48.699 92.5685H74.1323C76.4493 92.5685 78.3274 90.6904 78.3274 88.3734V55.8201C78.3274 53.5032 76.4493 51.625 74.1323 51.625H48.699Z" fill="#FFBC00"/>
<path d="M69.4248 67.0495C69.4248 71.6373 65.8385 75.3569 61.4145 75.3569C56.9905 75.3569 53.4043 71.6373 53.4043 67.0495C53.4043 62.4617 56.9905 58.7422 61.4145 58.7422C65.8385 58.7422 69.4248 62.4617 69.4248 67.0495Z" fill="#DA8400"/>
<path d="M68.1874 81.091C67.4641 79.0301 66.809 73.9132 65.1681 73.0818C62.6348 71.7989 59.5767 71.4031 57.1201 73.6298C56.0062 74.6387 55.4036 79.4417 54.8199 81.1057C54.3779 82.3644 55.3122 83.683 56.6466 83.683L66.3607 83.6683C67.695 83.6683 68.6294 82.3497 68.1874 81.091Z" fill="#DA8400"/>
<path d="M16.0216 70.3174C16.0216 72.7751 14.029 74.7677 11.5713 74.7677C9.11368 74.7677 7.12109 72.7751 7.12109 70.3174C7.12109 67.8598 9.11368 65.8672 11.5713 65.8672C14.029 65.8672 16.0216 67.8598 16.0216 70.3174Z" fill="#F8A201"/>
<path d="M16.0216 109.481C16.0216 111.939 14.029 113.932 11.5713 113.932C9.11368 113.932 7.12109 111.939 7.12109 109.481C7.12109 107.024 9.11368 105.031 11.5713 105.031C14.029 105.031 16.0216 107.024 16.0216 109.481Z" fill="#F8A201"/>
<path d="M115.709 109.481C115.709 111.939 113.716 113.932 111.259 113.932C108.801 113.932 106.809 111.939 106.809 109.481C106.809 107.024 108.801 105.031 111.259 105.031C113.716 105.031 115.709 107.024 115.709 109.481Z" fill="#F8A201"/>
<path d="M115.709 70.3174C115.709 72.7751 113.716 74.7677 111.259 74.7677C108.801 74.7677 106.809 72.7751 106.809 70.3174C106.809 67.8598 108.801 65.8672 111.259 65.8672C113.716 65.8672 115.709 67.8598 115.709 70.3174Z" fill="#F8A201"/>
<path d="M16.0216 31.1534C16.0216 33.611 14.029 35.6036 11.5713 35.6036C9.11368 35.6036 7.12109 33.611 7.12109 31.1534C7.12109 28.6957 9.11368 26.7031 11.5713 26.7031C14.029 26.7031 16.0216 28.6957 16.0216 31.1534Z" fill="#F8A201"/>
<path d="M115.709 31.1534C115.709 33.611 113.716 35.6036 111.259 35.6036C108.801 35.6036 106.809 33.611 106.809 31.1534C106.809 28.6957 108.801 26.7031 111.259 26.7031C113.716 26.7031 115.709 28.6957 115.709 31.1534Z" fill="#F8A201"/>
</svg>
