<svg width="32" height="32" viewBox="0 0 32 32" fill="none" xmlns="http://www.w3.org/2000/svg">
<path d="M12.814 17.4382L18.8385 13.96" stroke="#AFAFAF" stroke-width="2.08696"/>
<path d="M20.875 6.35697C20.0105 4.8597 18.096 4.3467 16.5987 5.21115C15.1015 6.0756 14.5885 7.99014 15.4529 9.4874L21.366 19.7291C22.2304 21.2264 24.1449 21.7394 25.6422 20.8749C27.1395 20.0105 27.6525 18.0959 26.788 16.5987L20.875 6.35697Z" fill="#1CB0F6"/>
<path d="M10.6343 12.2701C9.76982 10.7728 7.85527 10.2598 6.35801 11.1242C4.86075 11.9887 4.34774 13.9032 5.21219 15.4005L11.1252 25.6422C11.9897 27.1394 13.9042 27.6524 15.4015 26.788C16.8988 25.9236 17.4118 24.009 16.5473 22.5117L10.6343 12.2701Z" fill="#1CB0F6"/>
<path d="M26.4839 6.33255C25.6194 4.83529 23.7049 4.32229 22.2076 5.18674C20.7104 6.05118 20.1974 7.96573 21.0618 9.46299L24.1922 14.8851C25.0567 16.3823 26.9712 16.8953 28.4685 16.0309C29.9658 15.1664 30.4788 13.2519 29.6143 11.7546L26.4839 6.33255Z" fill="#1CB0F6"/>
<path d="M7.80809 17.1148C6.94364 15.6175 5.0291 15.1045 3.53184 15.969C2.03457 16.8334 1.52157 18.748 2.38602 20.2452L5.51645 25.6673C6.3809 27.1646 8.29544 27.6776 9.79271 26.8131C11.29 25.9487 11.803 24.0341 10.9385 22.5369L7.80809 17.1148Z" fill="#1CB0F6"/>
<path opacity="0.3" d="M5.93212 18.0907C5.64398 17.5916 5.00579 17.4206 4.50671 17.7087C4.00762 17.9969 3.83662 18.6351 4.12477 19.1341L4.82042 20.3391C5.10857 20.8381 5.74675 21.0091 6.24584 20.721C6.74492 20.4328 6.91592 19.7947 6.62778 19.2956L5.93212 18.0907Z" fill="white"/>
<path opacity="0.3" d="M25.4106 7.65512C25.1225 7.15603 24.4843 6.98503 23.9852 7.27318C23.4861 7.56133 23.3151 8.19951 23.6033 8.6986L24.2989 9.90351C24.5871 10.4026 25.2253 10.5736 25.7244 10.2854C26.2234 9.9973 26.3944 9.35912 26.1063 8.86003L25.4106 7.65512Z" fill="white"/>
<path opacity="0.3" d="M8.71484 13.2206C8.42669 12.7215 7.78851 12.5505 7.28942 12.8386C6.79033 13.1268 6.61933 13.7649 6.90748 14.264L7.95096 16.0714C8.23911 16.5705 8.87729 16.7415 9.37638 16.4533C9.87547 16.1652 10.0465 15.527 9.75832 15.0279L8.71484 13.2206Z" fill="white"/>
<path opacity="0.3" d="M19.1499 7.65512C18.8617 7.15603 18.2236 6.98503 17.7245 7.27318C17.2254 7.56133 17.0544 8.19951 17.3425 8.6986L18.386 10.506C18.6742 11.005 19.3123 11.176 19.8114 10.8879C20.3105 10.5997 20.4815 9.96157 20.1934 9.46248L19.1499 7.65512Z" fill="white"/>
<rect x="22" y="1" width="9" height="9" rx="4.5" fill="#FF4B4B" stroke="white" stroke-width="2"/>
</svg>
