<svg width="610" height="289" viewBox="0 0 610 289" fill="none" xmlns="http://www.w3.org/2000/svg">
<g clip-path="url(#clip0_1397_526)">
<rect width="610" height="289" rx="50" fill="#1C1A1A"/>
<path d="M364.5 273C351.7 273 339.7 269.9 328.5 263.7C317.3 257.5 308.2 248.6 301.2 237C294.4 225.2 291 211.3 291 195.3C291 179.3 294.4 165.5 301.2 153.9C308.2 142.1 317.3 133 328.5 126.6C339.7 120.2 351.7 117 364.5 117C377.3 117 389.2 120.2 400.2 126.6C411.4 133 420.4 142.1 427.2 153.9C434 165.5 437.4 179.3 437.4 195.3C437.4 211.3 434 225.2 427.2 237C420.4 248.6 411.4 257.5 400.2 263.7C389.2 269.9 377.3 273 364.5 273ZM364.5 249.9C372.7 249.9 380.5 247.8 387.9 243.6C395.3 239.4 401.4 233.2 406.2 225C411 216.8 413.4 206.9 413.4 195.3C413.4 183.7 411 173.8 406.2 165.6C401.6 157.4 395.5 151.1 387.9 146.7C380.5 142.3 372.7 140.1 364.5 140.1C356.3 140.1 348.4 142.3 340.8 146.7C333.2 150.9 327 157.1 322.2 165.3C317.4 173.5 315 183.5 315 195.3C315 206.9 317.4 216.8 322.2 225C327 233.2 333.2 239.4 340.8 243.6C348.4 247.8 356.3 249.9 364.5 249.9ZM572.367 118.5V313.5H548.367V148.2L554.067 150L486.567 256.5L481.467 247.5H553.167V270H465.867V247.5L548.367 118.5H572.367ZM567.567 270V247.5H599.967V270H567.567Z" fill="url(#paint0_linear_1397_526)"/>
</g>
<path d="M26.706 115.622L27.19 116.106C26.9553 116.517 26.75 116.927 26.574 117.338C26.398 117.734 26.2953 118.123 26.266 118.504L27.366 118.746V120.88H24.99V119.34C24.99 118.431 25.166 117.697 25.518 117.14C25.8847 116.568 26.2807 116.062 26.706 115.622ZM30.006 115.622L30.49 116.106C30.2553 116.517 30.05 116.927 29.874 117.338C29.698 117.734 29.5953 118.123 29.566 118.504L30.666 118.746V120.88H28.29V119.34C28.29 118.431 28.466 117.697 28.818 117.14C29.1847 116.568 29.5807 116.062 30.006 115.622ZM35.1684 116.7V129.35H43.0884V131H33.4084V116.7H35.1684ZM52.9836 127.458H54.6336C54.5163 128.177 54.2523 128.822 53.8416 129.394C53.4456 129.951 52.9176 130.399 52.2576 130.736C51.6123 131.059 50.8643 131.22 50.0136 131.22C48.987 131.22 48.063 130.978 47.2416 130.494C46.4203 129.995 45.7676 129.321 45.2836 128.47C44.8143 127.605 44.5796 126.622 44.5796 125.522C44.5796 124.422 44.807 123.439 45.2616 122.574C45.731 121.709 46.369 121.027 47.1756 120.528C47.9823 120.029 48.8916 119.78 49.9036 119.78C50.9743 119.78 51.8763 120.022 52.6096 120.506C53.3576 120.975 53.9076 121.672 54.2596 122.596C54.6263 123.505 54.773 124.627 54.6996 125.962H46.3396C46.413 126.681 46.611 127.311 46.9336 127.854C47.2563 128.397 47.6816 128.822 48.2096 129.13C48.7376 129.423 49.339 129.57 50.0136 129.57C50.7616 129.57 51.3923 129.379 51.9056 128.998C52.4336 128.602 52.793 128.089 52.9836 127.458ZM49.9696 121.43C49.0603 121.43 48.2976 121.694 47.6816 122.222C47.0656 122.75 46.655 123.469 46.4496 124.378H52.8956C52.837 123.41 52.5216 122.677 51.9496 122.178C51.3923 121.679 50.7323 121.43 49.9696 121.43ZM61.1271 131.22C60.2617 131.22 59.4624 130.978 58.7291 130.494C58.0104 129.995 57.4311 129.321 56.9911 128.47C56.5657 127.605 56.3531 126.622 56.3531 125.522C56.3531 124.422 56.5731 123.439 57.0131 122.574C57.4531 121.709 58.0471 121.027 58.7951 120.528C59.5577 120.029 60.4084 119.78 61.3471 119.78C62.3737 119.78 63.1511 120.044 63.6791 120.572C64.2217 121.085 64.5884 121.775 64.7791 122.64C64.9844 123.505 65.0871 124.466 65.0871 125.522C65.0871 126.079 65.0284 126.688 64.9111 127.348C64.7937 127.993 64.5884 128.617 64.2951 129.218C64.0164 129.805 63.6204 130.289 63.1071 130.67C62.5937 131.037 61.9337 131.22 61.1271 131.22ZM61.5671 129.548C62.3151 129.548 62.9311 129.365 63.4151 128.998C63.9137 128.631 64.2804 128.147 64.5151 127.546C64.7497 126.93 64.8671 126.255 64.8671 125.522C64.8671 124.715 64.7424 124.011 64.4931 123.41C64.2584 122.794 63.8917 122.317 63.3931 121.98C62.9091 121.628 62.3004 121.452 61.5671 121.452C60.4671 121.452 59.6164 121.841 59.0151 122.618C58.4137 123.381 58.1131 124.349 58.1131 125.522C58.1131 126.299 58.2597 126.996 58.5531 127.612C58.8611 128.213 59.2717 128.69 59.7851 129.042C60.3131 129.379 60.9071 129.548 61.5671 129.548ZM64.8671 120H66.6271V131H65.0211C65.0211 131 65.0064 130.868 64.9771 130.604C64.9624 130.34 64.9404 130.032 64.9111 129.68C64.8817 129.328 64.8671 129.035 64.8671 128.8V120ZM73.6525 131.22C72.7725 131.22 71.9658 130.978 71.2325 130.494C70.5138 129.995 69.9418 129.321 69.5165 128.47C69.0911 127.605 68.8785 126.622 68.8785 125.522C68.8785 124.422 69.0838 123.439 69.4945 122.574C69.9051 121.709 70.4698 121.027 71.1885 120.528C71.9071 120.029 72.7285 119.78 73.6525 119.78C74.4738 119.78 75.1411 119.934 75.6545 120.242C76.1825 120.535 76.5858 120.946 76.8645 121.474C77.1431 122.002 77.3338 122.611 77.4365 123.3C77.5538 123.989 77.6125 124.73 77.6125 125.522C77.6125 126.079 77.5538 126.688 77.4365 127.348C77.3191 127.993 77.1138 128.617 76.8205 129.218C76.5418 129.805 76.1458 130.289 75.6325 130.67C75.1191 131.037 74.4591 131.22 73.6525 131.22ZM74.0925 129.548C74.8405 129.548 75.4565 129.365 75.9405 128.998C76.4391 128.631 76.8058 128.147 77.0405 127.546C77.2751 126.93 77.3925 126.255 77.3925 125.522C77.3925 124.715 77.2678 124.011 77.0185 123.41C76.7838 122.794 76.4171 122.317 75.9185 121.98C75.4345 121.628 74.8258 121.452 74.0925 121.452C72.9925 121.452 72.1418 121.841 71.5405 122.618C70.9391 123.381 70.6385 124.349 70.6385 125.522C70.6385 126.299 70.7851 126.996 71.0785 127.612C71.3865 128.213 71.7971 128.69 72.3105 129.042C72.8385 129.379 73.4325 129.548 74.0925 129.548ZM77.3925 115.6H79.1525V131H77.5465C77.5171 130.677 77.4805 130.296 77.4365 129.856C77.4071 129.416 77.3925 129.064 77.3925 128.8V115.6ZM90.1301 127.458H91.7801C91.6628 128.177 91.3988 128.822 90.9881 129.394C90.5921 129.951 90.0641 130.399 89.4041 130.736C88.7588 131.059 88.0108 131.22 87.1601 131.22C86.1334 131.22 85.2094 130.978 84.3881 130.494C83.5668 129.995 82.9141 129.321 82.4301 128.47C81.9608 127.605 81.7261 126.622 81.7261 125.522C81.7261 124.422 81.9534 123.439 82.4081 122.574C82.8774 121.709 83.5154 121.027 84.3221 120.528C85.1288 120.029 86.0381 119.78 87.0501 119.78C88.1208 119.78 89.0228 120.022 89.7561 120.506C90.5041 120.975 91.0541 121.672 91.4061 122.596C91.7728 123.505 91.9194 124.627 91.8461 125.962H83.4861C83.5594 126.681 83.7574 127.311 84.0801 127.854C84.4028 128.397 84.8281 128.822 85.3561 129.13C85.8841 129.423 86.4854 129.57 87.1601 129.57C87.9081 129.57 88.5388 129.379 89.0521 128.998C89.5801 128.602 89.9394 128.089 90.1301 127.458ZM87.1161 121.43C86.2068 121.43 85.4441 121.694 84.8281 122.222C84.2121 122.75 83.8014 123.469 83.5961 124.378H90.0421C89.9834 123.41 89.6681 122.677 89.0961 122.178C88.5388 121.679 87.8788 121.43 87.1161 121.43ZM94.1155 120H95.8755V131H94.1155V120ZM99.3955 121.65C98.6475 121.65 98.0169 121.841 97.5035 122.222C97.0049 122.589 96.6089 123.043 96.3155 123.586C96.0369 124.114 95.8535 124.627 95.7655 125.126L95.7435 123.85C95.7435 123.718 95.7729 123.498 95.8315 123.19C95.8902 122.882 96.0002 122.537 96.1615 122.156C96.3229 121.76 96.5355 121.386 96.7995 121.034C97.0782 120.667 97.4302 120.367 97.8555 120.132C98.2809 119.897 98.7942 119.78 99.3955 119.78V121.65ZM107.207 131.22C106.401 131.22 105.741 131.037 105.227 130.67C104.714 130.289 104.311 129.805 104.017 129.218C103.739 128.617 103.541 127.993 103.423 127.348C103.306 126.688 103.247 126.079 103.247 125.522C103.247 124.73 103.299 123.989 103.401 123.3C103.519 122.611 103.717 122.002 103.995 121.474C104.274 120.946 104.67 120.535 105.183 120.242C105.711 119.934 106.386 119.78 107.207 119.78C108.131 119.78 108.953 120.029 109.671 120.528C110.39 121.027 110.955 121.709 111.365 122.574C111.776 123.439 111.981 124.422 111.981 125.522C111.981 126.622 111.769 127.605 111.343 128.47C110.918 129.321 110.346 129.995 109.627 130.494C108.909 130.978 108.102 131.22 107.207 131.22ZM106.767 129.548C107.442 129.548 108.036 129.379 108.549 129.042C109.063 128.69 109.466 128.213 109.759 127.612C110.067 126.996 110.221 126.299 110.221 125.522C110.221 124.349 109.921 123.381 109.319 122.618C108.718 121.841 107.867 121.452 106.767 121.452C106.034 121.452 105.418 121.628 104.919 121.98C104.435 122.317 104.069 122.794 103.819 123.41C103.585 124.011 103.467 124.715 103.467 125.522C103.467 126.255 103.585 126.93 103.819 127.546C104.069 128.147 104.435 128.631 104.919 128.998C105.403 129.365 106.019 129.548 106.767 129.548ZM103.467 115.6V128.8C103.467 129.064 103.445 129.416 103.401 129.856C103.372 130.296 103.343 130.677 103.313 131H101.707V115.6H103.467ZM118.999 131.22C118.06 131.22 117.18 130.993 116.359 130.538C115.538 130.083 114.87 129.431 114.357 128.58C113.858 127.715 113.609 126.695 113.609 125.522C113.609 124.349 113.858 123.337 114.357 122.486C114.87 121.621 115.538 120.953 116.359 120.484C117.18 120.015 118.06 119.78 118.999 119.78C119.938 119.78 120.81 120.015 121.617 120.484C122.438 120.953 123.098 121.621 123.597 122.486C124.096 123.337 124.345 124.349 124.345 125.522C124.345 126.695 124.096 127.715 123.597 128.58C123.098 129.431 122.438 130.083 121.617 130.538C120.81 130.993 119.938 131.22 118.999 131.22ZM118.999 129.57C119.615 129.57 120.194 129.416 120.737 129.108C121.28 128.8 121.72 128.345 122.057 127.744C122.409 127.128 122.585 126.387 122.585 125.522C122.585 124.657 122.409 123.923 122.057 123.322C121.72 122.706 121.28 122.237 120.737 121.914C120.194 121.591 119.615 121.43 118.999 121.43C118.383 121.43 117.796 121.591 117.239 121.914C116.696 122.222 116.249 122.684 115.897 123.3C115.545 123.901 115.369 124.642 115.369 125.522C115.369 126.387 115.538 127.128 115.875 127.744C116.227 128.345 116.682 128.8 117.239 129.108C117.796 129.416 118.383 129.57 118.999 129.57ZM130.736 131.22C129.871 131.22 129.072 130.978 128.338 130.494C127.62 129.995 127.04 129.321 126.6 128.47C126.175 127.605 125.962 126.622 125.962 125.522C125.962 124.422 126.182 123.439 126.622 122.574C127.062 121.709 127.656 121.027 128.404 120.528C129.167 120.029 130.018 119.78 130.956 119.78C131.983 119.78 132.76 120.044 133.288 120.572C133.831 121.085 134.198 121.775 134.388 122.64C134.594 123.505 134.696 124.466 134.696 125.522C134.696 126.079 134.638 126.688 134.52 127.348C134.403 127.993 134.198 128.617 133.904 129.218C133.626 129.805 133.23 130.289 132.716 130.67C132.203 131.037 131.543 131.22 130.736 131.22ZM131.176 129.548C131.924 129.548 132.54 129.365 133.024 128.998C133.523 128.631 133.89 128.147 134.124 127.546C134.359 126.93 134.476 126.255 134.476 125.522C134.476 124.715 134.352 124.011 134.102 123.41C133.868 122.794 133.501 122.317 133.002 121.98C132.518 121.628 131.91 121.452 131.176 121.452C130.076 121.452 129.226 121.841 128.624 122.618C128.023 123.381 127.722 124.349 127.722 125.522C127.722 126.299 127.869 126.996 128.162 127.612C128.47 128.213 128.881 128.69 129.394 129.042C129.922 129.379 130.516 129.548 131.176 129.548ZM134.476 120H136.236V131H134.63C134.63 131 134.616 130.868 134.586 130.604C134.572 130.34 134.55 130.032 134.52 129.68C134.491 129.328 134.476 129.035 134.476 128.8V120ZM139.104 120H140.864V131H139.104V120ZM144.384 121.65C143.636 121.65 143.005 121.841 142.492 122.222C141.993 122.589 141.597 123.043 141.304 123.586C141.025 124.114 140.842 124.627 140.754 125.126L140.732 123.85C140.732 123.718 140.761 123.498 140.82 123.19C140.878 122.882 140.988 122.537 141.15 122.156C141.311 121.76 141.524 121.386 141.788 121.034C142.066 120.667 142.418 120.367 142.844 120.132C143.269 119.897 143.782 119.78 144.384 119.78V121.65ZM150.524 131.22C149.644 131.22 148.837 130.978 148.104 130.494C147.385 129.995 146.813 129.321 146.388 128.47C145.962 127.605 145.75 126.622 145.75 125.522C145.75 124.422 145.955 123.439 146.366 122.574C146.776 121.709 147.341 121.027 148.06 120.528C148.778 120.029 149.6 119.78 150.524 119.78C151.345 119.78 152.012 119.934 152.526 120.242C153.054 120.535 153.457 120.946 153.736 121.474C154.014 122.002 154.205 122.611 154.308 123.3C154.425 123.989 154.484 124.73 154.484 125.522C154.484 126.079 154.425 126.688 154.308 127.348C154.19 127.993 153.985 128.617 153.692 129.218C153.413 129.805 153.017 130.289 152.504 130.67C151.99 131.037 151.33 131.22 150.524 131.22ZM150.964 129.548C151.712 129.548 152.328 129.365 152.812 128.998C153.31 128.631 153.677 128.147 153.912 127.546C154.146 126.93 154.264 126.255 154.264 125.522C154.264 124.715 154.139 124.011 153.89 123.41C153.655 122.794 153.288 122.317 152.79 121.98C152.306 121.628 151.697 121.452 150.964 121.452C149.864 121.452 149.013 121.841 148.412 122.618C147.81 123.381 147.51 124.349 147.51 125.522C147.51 126.299 147.656 126.996 147.95 127.612C148.258 128.213 148.668 128.69 149.182 129.042C149.71 129.379 150.304 129.548 150.964 129.548ZM154.264 115.6H156.024V131H154.418C154.388 130.677 154.352 130.296 154.308 129.856C154.278 129.416 154.264 129.064 154.264 128.8V115.6ZM158.685 127.458H160.313C160.357 128.089 160.592 128.602 161.017 128.998C161.457 129.394 162.088 129.592 162.909 129.592C163.408 129.592 163.797 129.526 164.075 129.394C164.369 129.262 164.581 129.086 164.713 128.866C164.845 128.631 164.911 128.375 164.911 128.096C164.911 127.759 164.823 127.495 164.647 127.304C164.486 127.099 164.259 126.93 163.965 126.798C163.687 126.666 163.364 126.541 162.997 126.424C162.572 126.263 162.132 126.094 161.677 125.918C161.237 125.727 160.819 125.507 160.423 125.258C160.042 124.994 159.734 124.679 159.499 124.312C159.265 123.931 159.147 123.476 159.147 122.948C159.147 122.508 159.235 122.097 159.411 121.716C159.587 121.32 159.837 120.983 160.159 120.704C160.497 120.411 160.885 120.183 161.325 120.022C161.78 119.861 162.279 119.78 162.821 119.78C163.555 119.78 164.171 119.927 164.669 120.22C165.183 120.513 165.571 120.931 165.835 121.474C166.114 122.002 166.261 122.618 166.275 123.322H164.757C164.655 122.662 164.442 122.185 164.119 121.892C163.811 121.584 163.364 121.43 162.777 121.43C162.176 121.43 161.714 121.562 161.391 121.826C161.069 122.09 160.907 122.442 160.907 122.882C160.907 123.205 161.025 123.476 161.259 123.696C161.494 123.901 161.795 124.092 162.161 124.268C162.543 124.429 162.946 124.598 163.371 124.774C163.797 124.95 164.207 125.126 164.603 125.302C164.999 125.478 165.351 125.683 165.659 125.918C165.967 126.153 166.209 126.446 166.385 126.798C166.576 127.135 166.671 127.561 166.671 128.074C166.671 128.69 166.525 129.24 166.231 129.724C165.953 130.193 165.535 130.56 164.977 130.824C164.435 131.088 163.767 131.22 162.975 131.22C162.257 131.22 161.641 131.132 161.127 130.956C160.629 130.765 160.211 130.523 159.873 130.23C159.536 129.922 159.272 129.599 159.081 129.262C158.905 128.925 158.788 128.595 158.729 128.272C158.671 127.949 158.656 127.678 158.685 127.458ZM169.122 134.124L168.66 133.64C168.895 133.229 169.1 132.819 169.276 132.408C169.452 132.012 169.547 131.623 169.562 131.242L168.484 131V128.866H170.86V130.406C170.86 131.301 170.677 132.034 170.31 132.606C169.958 133.178 169.562 133.684 169.122 134.124ZM30.93 161.22C30.1233 161.22 29.4633 161.037 28.95 160.67C28.4367 160.289 28.0333 159.805 27.74 159.218C27.4613 158.617 27.2633 157.993 27.146 157.348C27.0287 156.688 26.97 156.079 26.97 155.522C26.97 154.73 27.0213 153.989 27.124 153.3C27.2413 152.611 27.4393 152.002 27.718 151.474C27.9967 150.946 28.3927 150.535 28.906 150.242C29.434 149.934 30.1087 149.78 30.93 149.78C31.81 149.78 32.6093 150.029 33.328 150.528C34.0467 151.027 34.6187 151.709 35.044 152.574C35.484 153.439 35.704 154.422 35.704 155.522C35.704 156.622 35.484 157.605 35.044 158.47C34.604 159.321 34.0173 159.995 33.284 160.494C32.5653 160.978 31.7807 161.22 30.93 161.22ZM30.49 159.548C31.1647 159.548 31.7587 159.379 32.272 159.042C32.8 158.69 33.2107 158.213 33.504 157.612C33.7973 156.996 33.944 156.299 33.944 155.522C33.944 154.349 33.6433 153.381 33.042 152.618C32.4407 151.841 31.59 151.452 30.49 151.452C29.8447 151.452 29.2727 151.628 28.774 151.98C28.2753 152.317 27.8867 152.794 27.608 153.41C27.3293 154.011 27.19 154.715 27.19 155.522C27.19 156.255 27.3073 156.93 27.542 157.546C27.7913 158.147 28.158 158.631 28.642 158.998C29.126 159.365 29.742 159.548 30.49 159.548ZM25.43 150H27.124L27.19 152.31V165.4H25.43V150ZM37.9554 150H39.7154V161H37.9554V150ZM43.2354 151.65C42.4874 151.65 41.8567 151.841 41.3434 152.222C40.8447 152.589 40.4487 153.043 40.1554 153.586C39.8767 154.114 39.6934 154.627 39.6054 155.126L39.5834 153.85C39.5834 153.718 39.6127 153.498 39.6714 153.19C39.7301 152.882 39.8401 152.537 40.0014 152.156C40.1627 151.76 40.3754 151.386 40.6394 151.034C40.9181 150.667 41.2701 150.367 41.6954 150.132C42.1207 149.897 42.6341 149.78 43.2354 149.78V151.65ZM49.9911 161.22C49.0524 161.22 48.1724 160.993 47.3511 160.538C46.5298 160.083 45.8624 159.431 45.3491 158.58C44.8504 157.715 44.6011 156.695 44.6011 155.522C44.6011 154.349 44.8504 153.337 45.3491 152.486C45.8624 151.621 46.5298 150.953 47.3511 150.484C48.1724 150.015 49.0524 149.78 49.9911 149.78C50.9298 149.78 51.8024 150.015 52.6091 150.484C53.4304 150.953 54.0904 151.621 54.5891 152.486C55.0878 153.337 55.3371 154.349 55.3371 155.522C55.3371 156.695 55.0878 157.715 54.5891 158.58C54.0904 159.431 53.4304 160.083 52.6091 160.538C51.8024 160.993 50.9298 161.22 49.9911 161.22ZM49.9911 159.57C50.6071 159.57 51.1864 159.416 51.7291 159.108C52.2718 158.8 52.7118 158.345 53.0491 157.744C53.4011 157.128 53.5771 156.387 53.5771 155.522C53.5771 154.657 53.4011 153.923 53.0491 153.322C52.7118 152.706 52.2718 152.237 51.7291 151.914C51.1864 151.591 50.6071 151.43 49.9911 151.43C49.3751 151.43 48.7884 151.591 48.2311 151.914C47.6884 152.222 47.2411 152.684 46.8891 153.3C46.5371 153.901 46.3611 154.642 46.3611 155.522C46.3611 156.387 46.5298 157.128 46.8671 157.744C47.2191 158.345 47.6738 158.8 48.2311 159.108C48.7884 159.416 49.3751 159.57 49.9911 159.57ZM61.5086 159.262C60.7313 159.262 59.9906 159.079 59.2866 158.712C58.5973 158.331 58.0326 157.788 57.5926 157.084C57.1673 156.38 56.9546 155.537 56.9546 154.554C56.9546 153.571 57.1673 152.728 57.5926 152.024C58.018 151.305 58.5753 150.755 59.2646 150.374C59.954 149.978 60.702 149.78 61.5086 149.78C61.758 149.78 61.9926 149.802 62.2126 149.846C62.4473 149.875 62.6673 149.927 62.8726 150H67.3386V151.892C66.708 151.892 66.0773 151.775 65.4466 151.54C64.8306 151.305 64.3026 151.063 63.8626 150.814L63.7746 150.726C64.288 151.005 64.706 151.335 65.0286 151.716C65.366 152.097 65.6153 152.53 65.7766 153.014C65.9526 153.483 66.0406 153.997 66.0406 154.554C66.0406 155.537 65.828 156.38 65.4026 157.084C64.992 157.788 64.442 158.331 63.7526 158.712C63.0633 159.079 62.3153 159.262 61.5086 159.262ZM64.7426 165.4V164.916C64.7426 164.139 64.5373 163.574 64.1266 163.222C63.7306 162.87 63.1293 162.694 62.3226 162.694H60.1226C59.6386 162.694 59.2133 162.65 58.8466 162.562C58.4946 162.489 58.2013 162.371 57.9666 162.21C57.732 162.049 57.556 161.851 57.4386 161.616C57.3213 161.381 57.2626 161.117 57.2626 160.824C57.2626 160.267 57.4313 159.849 57.7686 159.57C58.106 159.277 58.524 159.093 59.0226 159.02C59.5213 158.947 59.998 158.947 60.4526 159.02L61.5086 159.262C60.7166 159.306 60.1006 159.387 59.6606 159.504C59.2353 159.621 59.0226 159.871 59.0226 160.252C59.0226 160.472 59.1033 160.655 59.2646 160.802C59.4406 160.934 59.6973 161 60.0346 161H62.3226C63.0853 161 63.782 161.103 64.4126 161.308C65.0433 161.528 65.5493 161.887 65.9306 162.386C66.312 162.899 66.5026 163.596 66.5026 164.476V165.4H64.7426ZM61.5086 157.612C61.9926 157.612 62.44 157.495 62.8506 157.26C63.276 157.025 63.6206 156.681 63.8846 156.226C64.1486 155.771 64.2806 155.214 64.2806 154.554C64.2806 153.894 64.1486 153.337 63.8846 152.882C63.6353 152.413 63.298 152.061 62.8726 151.826C62.4473 151.577 61.9926 151.452 61.5086 151.452C61.0246 151.452 60.57 151.577 60.1446 151.826C59.7193 152.061 59.3746 152.405 59.1106 152.86C58.8466 153.315 58.7146 153.879 58.7146 154.554C58.7146 155.214 58.8466 155.771 59.1106 156.226C59.3746 156.681 59.7193 157.025 60.1446 157.26C60.57 157.495 61.0246 157.612 61.5086 157.612ZM69.4085 150H71.1685V161H69.4085V150ZM74.6885 151.65C73.9405 151.65 73.3098 151.841 72.7965 152.222C72.2978 152.589 71.9018 153.043 71.6085 153.586C71.3298 154.114 71.1465 154.627 71.0585 155.126L71.0365 153.85C71.0365 153.718 71.0658 153.498 71.1245 153.19C71.1832 152.882 71.2932 152.537 71.4545 152.156C71.6158 151.76 71.8285 151.386 72.0925 151.034C72.3712 150.667 72.7232 150.367 73.1485 150.132C73.5738 149.897 74.0872 149.78 74.6885 149.78V151.65ZM84.4582 157.458H86.1082C85.9909 158.177 85.7269 158.822 85.3162 159.394C84.9202 159.951 84.3922 160.399 83.7322 160.736C83.0869 161.059 82.3389 161.22 81.4882 161.22C80.4616 161.22 79.5376 160.978 78.7162 160.494C77.8949 159.995 77.2422 159.321 76.7582 158.47C76.2889 157.605 76.0542 156.622 76.0542 155.522C76.0542 154.422 76.2816 153.439 76.7362 152.574C77.2056 151.709 77.8436 151.027 78.6502 150.528C79.4569 150.029 80.3662 149.78 81.3782 149.78C82.4489 149.78 83.3509 150.022 84.0842 150.506C84.8322 150.975 85.3822 151.672 85.7342 152.596C86.1009 153.505 86.2476 154.627 86.1742 155.962H77.8142C77.8876 156.681 78.0856 157.311 78.4082 157.854C78.7309 158.397 79.1562 158.822 79.6842 159.13C80.2122 159.423 80.8136 159.57 81.4882 159.57C82.2362 159.57 82.8669 159.379 83.3802 158.998C83.9082 158.602 84.2676 158.089 84.4582 157.458ZM81.4442 151.43C80.5349 151.43 79.7722 151.694 79.1562 152.222C78.5402 152.75 78.1296 153.469 77.9242 154.378H84.3702C84.3116 153.41 83.9962 152.677 83.4242 152.178C82.8669 151.679 82.2069 151.43 81.4442 151.43ZM87.9157 157.458H89.5437C89.5877 158.089 89.8223 158.602 90.2477 158.998C90.6877 159.394 91.3183 159.592 92.1397 159.592C92.6383 159.592 93.027 159.526 93.3057 159.394C93.599 159.262 93.8117 159.086 93.9437 158.866C94.0757 158.631 94.1417 158.375 94.1417 158.096C94.1417 157.759 94.0537 157.495 93.8777 157.304C93.7163 157.099 93.489 156.93 93.1957 156.798C92.917 156.666 92.5943 156.541 92.2277 156.424C91.8023 156.263 91.3623 156.094 90.9077 155.918C90.4677 155.727 90.0497 155.507 89.6537 155.258C89.2723 154.994 88.9643 154.679 88.7297 154.312C88.495 153.931 88.3777 153.476 88.3777 152.948C88.3777 152.508 88.4657 152.097 88.6417 151.716C88.8177 151.32 89.067 150.983 89.3897 150.704C89.727 150.411 90.1157 150.183 90.5557 150.022C91.0103 149.861 91.509 149.78 92.0517 149.78C92.785 149.78 93.401 149.927 93.8997 150.22C94.413 150.513 94.8017 150.931 95.0657 151.474C95.3443 152.002 95.491 152.618 95.5057 153.322H93.9877C93.885 152.662 93.6723 152.185 93.3497 151.892C93.0417 151.584 92.5943 151.43 92.0077 151.43C91.4063 151.43 90.9443 151.562 90.6217 151.826C90.299 152.09 90.1377 152.442 90.1377 152.882C90.1377 153.205 90.255 153.476 90.4897 153.696C90.7243 153.901 91.025 154.092 91.3917 154.268C91.773 154.429 92.1763 154.598 92.6017 154.774C93.027 154.95 93.4377 155.126 93.8337 155.302C94.2297 155.478 94.5817 155.683 94.8897 155.918C95.1977 156.153 95.4397 156.446 95.6157 156.798C95.8063 157.135 95.9017 157.561 95.9017 158.074C95.9017 158.69 95.755 159.24 95.4617 159.724C95.183 160.193 94.765 160.56 94.2077 160.824C93.665 161.088 92.9977 161.22 92.2057 161.22C91.487 161.22 90.871 161.132 90.3577 160.956C89.859 160.765 89.441 160.523 89.1037 160.23C88.7663 159.922 88.5023 159.599 88.3117 159.262C88.1357 158.925 88.0183 158.595 87.9597 158.272C87.901 157.949 87.8863 157.678 87.9157 157.458ZM97.6266 157.458H99.2546C99.2986 158.089 99.5333 158.602 99.9586 158.998C100.399 159.394 101.029 159.592 101.851 159.592C102.349 159.592 102.738 159.526 103.017 159.394C103.31 159.262 103.523 159.086 103.655 158.866C103.787 158.631 103.853 158.375 103.853 158.096C103.853 157.759 103.765 157.495 103.589 157.304C103.427 157.099 103.2 156.93 102.907 156.798C102.628 156.666 102.305 156.541 101.939 156.424C101.513 156.263 101.073 156.094 100.619 155.918C100.179 155.727 99.7606 155.507 99.3646 155.258C98.9833 154.994 98.6753 154.679 98.4406 154.312C98.2059 153.931 98.0886 153.476 98.0886 152.948C98.0886 152.508 98.1766 152.097 98.3526 151.716C98.5286 151.32 98.7779 150.983 99.1006 150.704C99.4379 150.411 99.8266 150.183 100.267 150.022C100.721 149.861 101.22 149.78 101.763 149.78C102.496 149.78 103.112 149.927 103.611 150.22C104.124 150.513 104.513 150.931 104.777 151.474C105.055 152.002 105.202 152.618 105.217 153.322H103.699C103.596 152.662 103.383 152.185 103.061 151.892C102.753 151.584 102.305 151.43 101.719 151.43C101.117 151.43 100.655 151.562 100.333 151.826C100.01 152.09 99.8486 152.442 99.8486 152.882C99.8486 153.205 99.9659 153.476 100.201 153.696C100.435 153.901 100.736 154.092 101.103 154.268C101.484 154.429 101.887 154.598 102.313 154.774C102.738 154.95 103.149 155.126 103.545 155.302C103.941 155.478 104.293 155.683 104.601 155.918C104.909 156.153 105.151 156.446 105.327 156.798C105.517 157.135 105.613 157.561 105.613 158.074C105.613 158.69 105.466 159.24 105.173 159.724C104.894 160.193 104.476 160.56 103.919 160.824C103.376 161.088 102.709 161.22 101.917 161.22C101.198 161.22 100.582 161.132 100.069 160.956C99.5699 160.765 99.1519 160.523 98.8146 160.23C98.4773 159.922 98.2133 159.599 98.0226 159.262C97.8466 158.925 97.7293 158.595 97.6706 158.272C97.6119 157.949 97.5973 157.678 97.6266 157.458ZM117.985 161.22C117.178 161.22 116.518 161.037 116.005 160.67C115.491 160.289 115.088 159.805 114.795 159.218C114.516 158.617 114.318 157.993 114.201 157.348C114.083 156.688 114.025 156.079 114.025 155.522C114.025 154.73 114.076 153.989 114.179 153.3C114.296 152.611 114.494 152.002 114.773 151.474C115.051 150.946 115.447 150.535 115.961 150.242C116.489 149.934 117.163 149.78 117.985 149.78C118.865 149.78 119.664 150.029 120.383 150.528C121.101 151.027 121.673 151.709 122.099 152.574C122.539 153.439 122.759 154.422 122.759 155.522C122.759 156.622 122.539 157.605 122.099 158.47C121.659 159.321 121.072 159.995 120.339 160.494C119.62 160.978 118.835 161.22 117.985 161.22ZM117.545 159.548C118.219 159.548 118.813 159.379 119.327 159.042C119.855 158.69 120.265 158.213 120.559 157.612C120.852 156.996 120.999 156.299 120.999 155.522C120.999 154.349 120.698 153.381 120.097 152.618C119.495 151.841 118.645 151.452 117.545 151.452C116.899 151.452 116.327 151.628 115.829 151.98C115.33 152.317 114.941 152.794 114.663 153.41C114.384 154.011 114.245 154.715 114.245 155.522C114.245 156.255 114.362 156.93 114.597 157.546C114.846 158.147 115.213 158.631 115.697 158.998C116.181 159.365 116.797 159.548 117.545 159.548ZM112.485 150H114.179L114.245 152.31V165.4H112.485V150ZM129.168 161.22C128.303 161.22 127.503 160.978 126.77 160.494C126.051 159.995 125.472 159.321 125.032 158.47C124.607 157.605 124.394 156.622 124.394 155.522C124.394 154.422 124.614 153.439 125.054 152.574C125.494 151.709 126.088 151.027 126.836 150.528C127.599 150.029 128.449 149.78 129.388 149.78C130.415 149.78 131.192 150.044 131.72 150.572C132.263 151.085 132.629 151.775 132.82 152.64C133.025 153.505 133.128 154.466 133.128 155.522C133.128 156.079 133.069 156.688 132.952 157.348C132.835 157.993 132.629 158.617 132.336 159.218C132.057 159.805 131.661 160.289 131.148 160.67C130.635 161.037 129.975 161.22 129.168 161.22ZM129.608 159.548C130.356 159.548 130.972 159.365 131.456 158.998C131.955 158.631 132.321 158.147 132.556 157.546C132.791 156.93 132.908 156.255 132.908 155.522C132.908 154.715 132.783 154.011 132.534 153.41C132.299 152.794 131.933 152.317 131.434 151.98C130.95 151.628 130.341 151.452 129.608 151.452C128.508 151.452 127.657 151.841 127.056 152.618C126.455 153.381 126.154 154.349 126.154 155.522C126.154 156.299 126.301 156.996 126.594 157.612C126.902 158.213 127.313 158.69 127.826 159.042C128.354 159.379 128.948 159.548 129.608 159.548ZM132.908 150H134.668V161H133.062C133.062 161 133.047 160.868 133.018 160.604C133.003 160.34 132.981 160.032 132.952 159.68C132.923 159.328 132.908 159.035 132.908 158.8V150ZM141.473 159.262C140.696 159.262 139.955 159.079 139.251 158.712C138.562 158.331 137.997 157.788 137.557 157.084C137.132 156.38 136.919 155.537 136.919 154.554C136.919 153.571 137.132 152.728 137.557 152.024C137.983 151.305 138.54 150.755 139.229 150.374C139.919 149.978 140.667 149.78 141.473 149.78C141.723 149.78 141.957 149.802 142.177 149.846C142.412 149.875 142.632 149.927 142.837 150H147.303V151.892C146.673 151.892 146.042 151.775 145.411 151.54C144.795 151.305 144.267 151.063 143.827 150.814L143.739 150.726C144.253 151.005 144.671 151.335 144.993 151.716C145.331 152.097 145.58 152.53 145.741 153.014C145.917 153.483 146.005 153.997 146.005 154.554C146.005 155.537 145.793 156.38 145.367 157.084C144.957 157.788 144.407 158.331 143.717 158.712C143.028 159.079 142.28 159.262 141.473 159.262ZM144.707 165.4V164.916C144.707 164.139 144.502 163.574 144.091 163.222C143.695 162.87 143.094 162.694 142.287 162.694H140.087C139.603 162.694 139.178 162.65 138.811 162.562C138.459 162.489 138.166 162.371 137.931 162.21C137.697 162.049 137.521 161.851 137.403 161.616C137.286 161.381 137.227 161.117 137.227 160.824C137.227 160.267 137.396 159.849 137.733 159.57C138.071 159.277 138.489 159.093 138.987 159.02C139.486 158.947 139.963 158.947 140.417 159.02L141.473 159.262C140.681 159.306 140.065 159.387 139.625 159.504C139.2 159.621 138.987 159.871 138.987 160.252C138.987 160.472 139.068 160.655 139.229 160.802C139.405 160.934 139.662 161 139.999 161H142.287C143.05 161 143.747 161.103 144.377 161.308C145.008 161.528 145.514 161.887 145.895 162.386C146.277 162.899 146.467 163.596 146.467 164.476V165.4H144.707ZM141.473 157.612C141.957 157.612 142.405 157.495 142.815 157.26C143.241 157.025 143.585 156.681 143.849 156.226C144.113 155.771 144.245 155.214 144.245 154.554C144.245 153.894 144.113 153.337 143.849 152.882C143.6 152.413 143.263 152.061 142.837 151.826C142.412 151.577 141.957 151.452 141.473 151.452C140.989 151.452 140.535 151.577 140.109 151.826C139.684 152.061 139.339 152.405 139.075 152.86C138.811 153.315 138.679 153.879 138.679 154.554C138.679 155.214 138.811 155.771 139.075 156.226C139.339 156.681 139.684 157.025 140.109 157.26C140.535 157.495 140.989 157.612 141.473 157.612ZM157.161 157.458H158.811C158.694 158.177 158.43 158.822 158.019 159.394C157.623 159.951 157.095 160.399 156.435 160.736C155.79 161.059 155.042 161.22 154.191 161.22C153.165 161.22 152.241 160.978 151.419 160.494C150.598 159.995 149.945 159.321 149.461 158.47C148.992 157.605 148.757 156.622 148.757 155.522C148.757 154.422 148.985 153.439 149.439 152.574C149.909 151.709 150.547 151.027 151.353 150.528C152.16 150.029 153.069 149.78 154.081 149.78C155.152 149.78 156.054 150.022 156.787 150.506C157.535 150.975 158.085 151.672 158.437 152.596C158.804 153.505 158.951 154.627 158.877 155.962H150.517C150.591 156.681 150.789 157.311 151.111 157.854C151.434 158.397 151.859 158.822 152.387 159.13C152.915 159.423 153.517 159.57 154.191 159.57C154.939 159.57 155.57 159.379 156.083 158.998C156.611 158.602 156.971 158.089 157.161 157.458ZM154.147 151.43C153.238 151.43 152.475 151.694 151.859 152.222C151.243 152.75 150.833 153.469 150.627 154.378H157.073C157.015 153.41 156.699 152.677 156.127 152.178C155.57 151.679 154.91 151.43 154.147 151.43ZM160.619 157.458H162.247C162.291 158.089 162.525 158.602 162.951 158.998C163.391 159.394 164.021 159.592 164.843 159.592C165.341 159.592 165.73 159.526 166.009 159.394C166.302 159.262 166.515 159.086 166.647 158.866C166.779 158.631 166.845 158.375 166.845 158.096C166.845 157.759 166.757 157.495 166.581 157.304C166.419 157.099 166.192 156.93 165.899 156.798C165.62 156.666 165.297 156.541 164.931 156.424C164.505 156.263 164.065 156.094 163.611 155.918C163.171 155.727 162.753 155.507 162.357 155.258C161.975 154.994 161.667 154.679 161.433 154.312C161.198 153.931 161.081 153.476 161.081 152.948C161.081 152.508 161.169 152.097 161.345 151.716C161.521 151.32 161.77 150.983 162.093 150.704C162.43 150.411 162.819 150.183 163.259 150.022C163.713 149.861 164.212 149.78 164.755 149.78C165.488 149.78 166.104 149.927 166.603 150.22C167.116 150.513 167.505 150.931 167.769 151.474C168.047 152.002 168.194 152.618 168.209 153.322H166.691C166.588 152.662 166.375 152.185 166.053 151.892C165.745 151.584 165.297 151.43 164.711 151.43C164.109 151.43 163.647 151.562 163.325 151.826C163.002 152.09 162.841 152.442 162.841 152.882C162.841 153.205 162.958 153.476 163.193 153.696C163.427 153.901 163.728 154.092 164.095 154.268C164.476 154.429 164.879 154.598 165.305 154.774C165.73 154.95 166.141 155.126 166.537 155.302C166.933 155.478 167.285 155.683 167.593 155.918C167.901 156.153 168.143 156.446 168.319 156.798C168.509 157.135 168.605 157.561 168.605 158.074C168.605 158.69 168.458 159.24 168.165 159.724C167.886 160.193 167.468 160.56 166.911 160.824C166.368 161.088 165.701 161.22 164.909 161.22C164.19 161.22 163.574 161.132 163.061 160.956C162.562 160.765 162.144 160.523 161.807 160.23C161.469 159.922 161.205 159.599 161.015 159.262C160.839 158.925 160.721 158.595 160.663 158.272C160.604 157.949 160.589 157.678 160.619 157.458ZM171.056 164.124L170.594 163.64C170.828 163.229 171.034 162.819 171.21 162.408C171.386 162.012 171.481 161.623 171.496 161.242L170.418 161V158.866H172.794V160.406C172.794 161.301 172.61 162.034 172.244 162.606C171.892 163.178 171.496 163.684 171.056 164.124ZM183.996 161.22C183.131 161.22 182.332 160.978 181.598 160.494C180.88 159.995 180.3 159.321 179.86 158.47C179.435 157.605 179.222 156.622 179.222 155.522C179.222 154.422 179.442 153.439 179.882 152.574C180.322 151.709 180.916 151.027 181.664 150.528C182.427 150.029 183.278 149.78 184.216 149.78C185.243 149.78 186.02 150.044 186.548 150.572C187.091 151.085 187.458 151.775 187.648 152.64C187.854 153.505 187.956 154.466 187.956 155.522C187.956 156.079 187.898 156.688 187.78 157.348C187.663 157.993 187.458 158.617 187.164 159.218C186.886 159.805 186.49 160.289 185.976 160.67C185.463 161.037 184.803 161.22 183.996 161.22ZM184.436 159.548C185.184 159.548 185.8 159.365 186.284 158.998C186.783 158.631 187.15 158.147 187.384 157.546C187.619 156.93 187.736 156.255 187.736 155.522C187.736 154.715 187.612 154.011 187.362 153.41C187.128 152.794 186.761 152.317 186.262 151.98C185.778 151.628 185.17 151.452 184.436 151.452C183.336 151.452 182.486 151.841 181.884 152.618C181.283 153.381 180.982 154.349 180.982 155.522C180.982 156.299 181.129 156.996 181.422 157.612C181.73 158.213 182.141 158.69 182.654 159.042C183.182 159.379 183.776 159.548 184.436 159.548ZM187.736 150H189.496V161H187.89C187.89 161 187.876 160.868 187.846 160.604C187.832 160.34 187.81 160.032 187.78 159.68C187.751 159.328 187.736 159.035 187.736 158.8V150ZM192.364 150H194.124V161H192.364V150ZM197.908 149.78C198.494 149.78 199.022 149.868 199.492 150.044C199.961 150.22 200.357 150.477 200.68 150.814C201.002 151.151 201.252 151.562 201.428 152.046C201.604 152.515 201.692 153.051 201.692 153.652V161H199.932V154.092C199.932 153.241 199.734 152.603 199.338 152.178C198.942 151.753 198.348 151.54 197.556 151.54C196.954 151.54 196.397 151.694 195.884 152.002C195.37 152.31 194.945 152.735 194.608 153.278C194.285 153.806 194.087 154.422 194.014 155.126L193.992 153.85C194.065 153.234 194.212 152.677 194.432 152.178C194.666 151.679 194.952 151.254 195.29 150.902C195.642 150.535 196.038 150.257 196.478 150.066C196.932 149.875 197.409 149.78 197.908 149.78ZM208.703 161.22C207.823 161.22 207.017 160.978 206.283 160.494C205.565 159.995 204.993 159.321 204.567 158.47C204.142 157.605 203.929 156.622 203.929 155.522C203.929 154.422 204.135 153.439 204.545 152.574C204.956 151.709 205.521 151.027 206.239 150.528C206.958 150.029 207.779 149.78 208.703 149.78C209.525 149.78 210.192 149.934 210.705 150.242C211.233 150.535 211.637 150.946 211.915 151.474C212.194 152.002 212.385 152.611 212.487 153.3C212.605 153.989 212.663 154.73 212.663 155.522C212.663 156.079 212.605 156.688 212.487 157.348C212.37 157.993 212.165 158.617 211.871 159.218C211.593 159.805 211.197 160.289 210.683 160.67C210.17 161.037 209.51 161.22 208.703 161.22ZM209.143 159.548C209.891 159.548 210.507 159.365 210.991 158.998C211.49 158.631 211.857 158.147 212.091 157.546C212.326 156.93 212.443 156.255 212.443 155.522C212.443 154.715 212.319 154.011 212.069 153.41C211.835 152.794 211.468 152.317 210.969 151.98C210.485 151.628 209.877 151.452 209.143 151.452C208.043 151.452 207.193 151.841 206.591 152.618C205.99 153.381 205.689 154.349 205.689 155.522C205.689 156.299 205.836 156.996 206.129 157.612C206.437 158.213 206.848 158.69 207.361 159.042C207.889 159.379 208.483 159.548 209.143 159.548ZM212.443 145.6H214.203V161H212.597C212.568 160.677 212.531 160.296 212.487 159.856C212.458 159.416 212.443 159.064 212.443 158.8V145.6ZM27.52 176.7V189.35H35.44V191H25.76V176.7H27.52ZM40.1549 175.6V177.734H37.8669V175.6H40.1549ZM38.1309 180H39.8909V191H38.1309V180ZM42.8968 180H44.6568V191H42.8968V180ZM48.4408 179.78C49.0275 179.78 49.5555 179.868 50.0248 180.044C50.4941 180.22 50.8901 180.477 51.2128 180.814C51.5355 181.151 51.7848 181.562 51.9608 182.046C52.1368 182.515 52.2248 183.051 52.2248 183.652V191H50.4648V184.092C50.4648 183.241 50.2668 182.603 49.8708 182.178C49.4748 181.753 48.8808 181.54 48.0888 181.54C47.4875 181.54 46.9301 181.694 46.4168 182.002C45.9035 182.31 45.4781 182.735 45.1408 183.278C44.8181 183.806 44.6201 184.422 44.5468 185.126L44.5248 183.85C44.5981 183.234 44.7448 182.677 44.9648 182.178C45.1995 181.679 45.4855 181.254 45.8228 180.902C46.1748 180.535 46.5708 180.257 47.0108 180.066C47.4655 179.875 47.9421 179.78 48.4408 179.78ZM55.3424 175.6H57.1024V191H55.3424V175.6ZM64.4504 180L58.9504 185.434L58.9944 184.29L64.8244 191H62.5804L57.1464 184.862L61.9424 180H64.4504ZM73.8235 187.458H75.4735C75.3561 188.177 75.0921 188.822 74.6815 189.394C74.2855 189.951 73.7575 190.399 73.0975 190.736C72.4521 191.059 71.7041 191.22 70.8535 191.22C69.8268 191.22 68.9028 190.978 68.0815 190.494C67.2601 189.995 66.6075 189.321 66.1235 188.47C65.6541 187.605 65.4195 186.622 65.4195 185.522C65.4195 184.422 65.6468 183.439 66.1015 182.574C66.5708 181.709 67.2088 181.027 68.0155 180.528C68.8221 180.029 69.7315 179.78 70.7435 179.78C71.8141 179.78 72.7161 180.022 73.4495 180.506C74.1975 180.975 74.7475 181.672 75.0995 182.596C75.4661 183.505 75.6128 184.627 75.5395 185.962H67.1795C67.2528 186.681 67.4508 187.311 67.7735 187.854C68.0961 188.397 68.5215 188.822 69.0495 189.13C69.5775 189.423 70.1788 189.57 70.8535 189.57C71.6015 189.57 72.2321 189.379 72.7455 188.998C73.2735 188.602 73.6328 188.089 73.8235 187.458ZM70.8095 181.43C69.9001 181.43 69.1375 181.694 68.5215 182.222C67.9055 182.75 67.4948 183.469 67.2895 184.378H73.7355C73.6768 183.41 73.3615 182.677 72.7895 182.178C72.2321 181.679 71.5721 181.43 70.8095 181.43ZM81.9669 191.22C81.0869 191.22 80.2802 190.978 79.5469 190.494C78.8282 189.995 78.2562 189.321 77.8309 188.47C77.4056 187.605 77.1929 186.622 77.1929 185.522C77.1929 184.422 77.3982 183.439 77.8089 182.574C78.2196 181.709 78.7842 181.027 79.5029 180.528C80.2216 180.029 81.0429 179.78 81.9669 179.78C82.7882 179.78 83.4556 179.934 83.9689 180.242C84.4969 180.535 84.9002 180.946 85.1789 181.474C85.4576 182.002 85.6482 182.611 85.7509 183.3C85.8682 183.989 85.9269 184.73 85.9269 185.522C85.9269 186.079 85.8682 186.688 85.7509 187.348C85.6336 187.993 85.4282 188.617 85.1349 189.218C84.8562 189.805 84.4602 190.289 83.9469 190.67C83.4336 191.037 82.7736 191.22 81.9669 191.22ZM82.4069 189.548C83.1549 189.548 83.7709 189.365 84.2549 188.998C84.7536 188.631 85.1202 188.147 85.3549 187.546C85.5896 186.93 85.7069 186.255 85.7069 185.522C85.7069 184.715 85.5822 184.011 85.3329 183.41C85.0982 182.794 84.7316 182.317 84.2329 181.98C83.7489 181.628 83.1402 181.452 82.4069 181.452C81.3069 181.452 80.4562 181.841 79.8549 182.618C79.2536 183.381 78.9529 184.349 78.9529 185.522C78.9529 186.299 79.0996 186.996 79.3929 187.612C79.7009 188.213 80.1116 188.69 80.6249 189.042C81.1529 189.379 81.7469 189.548 82.4069 189.548ZM85.7069 175.6H87.4669V191H85.8609C85.8316 190.677 85.7949 190.296 85.7509 189.856C85.7216 189.416 85.7069 189.064 85.7069 188.8V175.6ZM91.4266 176.7H93.1866V191H91.4266V176.7ZM96.8226 180H98.5826V191H96.8226V180ZM102.367 179.78C102.953 179.78 103.481 179.868 103.951 180.044C104.42 180.22 104.816 180.477 105.139 180.814C105.461 181.151 105.711 181.562 105.887 182.046C106.063 182.515 106.151 183.051 106.151 183.652V191H104.391V184.092C104.391 183.241 104.193 182.603 103.797 182.178C103.401 181.753 102.807 181.54 102.015 181.54C101.413 181.54 100.856 181.694 100.343 182.002C99.8292 182.31 99.4039 182.735 99.0666 183.278C98.7439 183.806 98.5459 184.422 98.4726 185.126L98.4506 183.85C98.5239 183.234 98.6706 182.677 98.8906 182.178C99.1252 181.679 99.4112 181.254 99.7486 180.902C100.101 180.535 100.497 180.257 100.937 180.066C101.391 179.875 101.868 179.78 102.367 179.78ZM113.095 187.458H114.723C114.767 188.089 115.002 188.602 115.427 188.998C115.867 189.394 116.498 189.592 117.319 189.592C117.818 189.592 118.207 189.526 118.485 189.394C118.779 189.262 118.991 189.086 119.123 188.866C119.255 188.631 119.321 188.375 119.321 188.096C119.321 187.759 119.233 187.495 119.057 187.304C118.896 187.099 118.669 186.93 118.375 186.798C118.097 186.666 117.774 186.541 117.407 186.424C116.982 186.263 116.542 186.094 116.087 185.918C115.647 185.727 115.229 185.507 114.833 185.258C114.452 184.994 114.144 184.679 113.909 184.312C113.675 183.931 113.557 183.476 113.557 182.948C113.557 182.508 113.645 182.097 113.821 181.716C113.997 181.32 114.247 180.983 114.569 180.704C114.907 180.411 115.295 180.183 115.735 180.022C116.19 179.861 116.689 179.78 117.231 179.78C117.965 179.78 118.581 179.927 119.079 180.22C119.593 180.513 119.981 180.931 120.245 181.474C120.524 182.002 120.671 182.618 120.685 183.322H119.167C119.065 182.662 118.852 182.185 118.529 181.892C118.221 181.584 117.774 181.43 117.187 181.43C116.586 181.43 116.124 181.562 115.801 181.826C115.479 182.09 115.317 182.442 115.317 182.882C115.317 183.205 115.435 183.476 115.669 183.696C115.904 183.901 116.205 184.092 116.571 184.268C116.953 184.429 117.356 184.598 117.781 184.774C118.207 184.95 118.617 185.126 119.013 185.302C119.409 185.478 119.761 185.683 120.069 185.918C120.377 186.153 120.619 186.446 120.795 186.798C120.986 187.135 121.081 187.561 121.081 188.074C121.081 188.69 120.935 189.24 120.641 189.724C120.363 190.193 119.945 190.56 119.387 190.824C118.845 191.088 118.177 191.22 117.385 191.22C116.667 191.22 116.051 191.132 115.537 190.956C115.039 190.765 114.621 190.523 114.283 190.23C113.946 189.922 113.682 189.599 113.491 189.262C113.315 188.925 113.198 188.595 113.139 188.272C113.081 187.949 113.066 187.678 113.095 187.458ZM131.166 191V184.092C131.166 183.52 131.078 183.051 130.902 182.684C130.726 182.303 130.462 182.017 130.11 181.826C129.758 181.635 129.318 181.54 128.79 181.54C128.189 181.54 127.632 181.694 127.118 182.002C126.605 182.31 126.18 182.735 125.842 183.278C125.52 183.806 125.322 184.422 125.248 185.126L125.226 183.85C125.3 183.234 125.446 182.677 125.666 182.178C125.901 181.679 126.187 181.254 126.524 180.902C126.876 180.535 127.272 180.257 127.712 180.066C128.167 179.875 128.644 179.78 129.142 179.78C129.729 179.78 130.257 179.868 130.726 180.044C131.196 180.22 131.592 180.477 131.914 180.814C132.237 181.151 132.486 181.562 132.662 182.046C132.838 182.515 132.926 183.051 132.926 183.652V191H131.166ZM123.598 191V175.6H125.358V191H123.598ZM139.953 191.22C139.088 191.22 138.289 190.978 137.555 190.494C136.837 189.995 136.257 189.321 135.817 188.47C135.392 187.605 135.179 186.622 135.179 185.522C135.179 184.422 135.399 183.439 135.839 182.574C136.279 181.709 136.873 181.027 137.621 180.528C138.384 180.029 139.235 179.78 140.173 179.78C141.2 179.78 141.977 180.044 142.505 180.572C143.048 181.085 143.415 181.775 143.605 182.64C143.811 183.505 143.913 184.466 143.913 185.522C143.913 186.079 143.855 186.688 143.737 187.348C143.62 187.993 143.415 188.617 143.121 189.218C142.843 189.805 142.447 190.289 141.933 190.67C141.42 191.037 140.76 191.22 139.953 191.22ZM140.393 189.548C141.141 189.548 141.757 189.365 142.241 188.998C142.74 188.631 143.107 188.147 143.341 187.546C143.576 186.93 143.693 186.255 143.693 185.522C143.693 184.715 143.569 184.011 143.319 183.41C143.085 182.794 142.718 182.317 142.219 181.98C141.735 181.628 141.127 181.452 140.393 181.452C139.293 181.452 138.443 181.841 137.841 182.618C137.24 183.381 136.939 184.349 136.939 185.522C136.939 186.299 137.086 186.996 137.379 187.612C137.687 188.213 138.098 188.69 138.611 189.042C139.139 189.379 139.733 189.548 140.393 189.548ZM143.693 180H145.453V191H143.847C143.847 191 143.833 190.868 143.803 190.604C143.789 190.34 143.767 190.032 143.737 189.68C143.708 189.328 143.693 189.035 143.693 188.8V180ZM148.321 180H150.081V191H148.321V180ZM153.601 181.65C152.853 181.65 152.222 181.841 151.709 182.222C151.21 182.589 150.814 183.043 150.521 183.586C150.242 184.114 150.059 184.627 149.971 185.126L149.949 183.85C149.949 183.718 149.978 183.498 150.037 183.19C150.095 182.882 150.205 182.537 150.367 182.156C150.528 181.76 150.741 181.386 151.005 181.034C151.283 180.667 151.635 180.367 152.061 180.132C152.486 179.897 152.999 179.78 153.601 179.78V181.65ZM157.76 175.6V177.734H155.472V175.6H157.76ZM155.736 180H157.496V191H155.736V180ZM160.502 180H162.262V191H160.502V180ZM166.046 179.78C166.633 179.78 167.161 179.868 167.63 180.044C168.1 180.22 168.496 180.477 168.818 180.814C169.141 181.151 169.39 181.562 169.566 182.046C169.742 182.515 169.83 183.051 169.83 183.652V191H168.07V184.092C168.07 183.241 167.872 182.603 167.476 182.178C167.08 181.753 166.486 181.54 165.694 181.54C165.093 181.54 164.536 181.694 164.022 182.002C163.509 182.31 163.084 182.735 162.746 183.278C162.424 183.806 162.226 184.422 162.152 185.126L162.13 183.85C162.204 183.234 162.35 182.677 162.57 182.178C162.805 181.679 163.091 181.254 163.428 180.902C163.78 180.535 164.176 180.257 164.616 180.066C165.071 179.875 165.548 179.78 166.046 179.78ZM176.622 189.262C175.845 189.262 175.104 189.079 174.4 188.712C173.711 188.331 173.146 187.788 172.706 187.084C172.281 186.38 172.068 185.537 172.068 184.554C172.068 183.571 172.281 182.728 172.706 182.024C173.131 181.305 173.689 180.755 174.378 180.374C175.067 179.978 175.815 179.78 176.622 179.78C176.871 179.78 177.106 179.802 177.326 179.846C177.561 179.875 177.781 179.927 177.986 180H182.452V181.892C181.821 181.892 181.191 181.775 180.56 181.54C179.944 181.305 179.416 181.063 178.976 180.814L178.888 180.726C179.401 181.005 179.819 181.335 180.142 181.716C180.479 182.097 180.729 182.53 180.89 183.014C181.066 183.483 181.154 183.997 181.154 184.554C181.154 185.537 180.941 186.38 180.516 187.084C180.105 187.788 179.555 188.331 178.866 188.712C178.177 189.079 177.429 189.262 176.622 189.262ZM179.856 195.4V194.916C179.856 194.139 179.651 193.574 179.24 193.222C178.844 192.87 178.243 192.694 177.436 192.694H175.236C174.752 192.694 174.327 192.65 173.96 192.562C173.608 192.489 173.315 192.371 173.08 192.21C172.845 192.049 172.669 191.851 172.552 191.616C172.435 191.381 172.376 191.117 172.376 190.824C172.376 190.267 172.545 189.849 172.882 189.57C173.219 189.277 173.637 189.093 174.136 189.02C174.635 188.947 175.111 188.947 175.566 189.02L176.622 189.262C175.83 189.306 175.214 189.387 174.774 189.504C174.349 189.621 174.136 189.871 174.136 190.252C174.136 190.472 174.217 190.655 174.378 190.802C174.554 190.934 174.811 191 175.148 191H177.436C178.199 191 178.895 191.103 179.526 191.308C180.157 191.528 180.663 191.887 181.044 192.386C181.425 192.899 181.616 193.596 181.616 194.476V195.4H179.856ZM176.622 187.612C177.106 187.612 177.553 187.495 177.964 187.26C178.389 187.025 178.734 186.681 178.998 186.226C179.262 185.771 179.394 185.214 179.394 184.554C179.394 183.894 179.262 183.337 178.998 182.882C178.749 182.413 178.411 182.061 177.986 181.826C177.561 181.577 177.106 181.452 176.622 181.452C176.138 181.452 175.683 181.577 175.258 181.826C174.833 182.061 174.488 182.405 174.224 182.86C173.96 183.315 173.828 183.879 173.828 184.554C173.828 185.214 173.96 185.771 174.224 186.226C174.488 186.681 174.833 187.025 175.258 187.26C175.683 187.495 176.138 187.612 176.622 187.612ZM189.405 175.6H191.165V191H189.405V175.6ZM198.513 180L193.013 185.434L193.057 184.29L198.887 191H196.643L191.209 184.862L196.005 180H198.513ZM207.886 187.458H209.536C209.419 188.177 209.155 188.822 208.744 189.394C208.348 189.951 207.82 190.399 207.16 190.736C206.515 191.059 205.767 191.22 204.916 191.22C203.889 191.22 202.965 190.978 202.144 190.494C201.323 189.995 200.67 189.321 200.186 188.47C199.717 187.605 199.482 186.622 199.482 185.522C199.482 184.422 199.709 183.439 200.164 182.574C200.633 181.709 201.271 181.027 202.078 180.528C202.885 180.029 203.794 179.78 204.806 179.78C205.877 179.78 206.779 180.022 207.512 180.506C208.26 180.975 208.81 181.672 209.162 182.596C209.529 183.505 209.675 184.627 209.602 185.962H201.242C201.315 186.681 201.513 187.311 201.836 187.854C202.159 188.397 202.584 188.822 203.112 189.13C203.64 189.423 204.241 189.57 204.916 189.57C205.664 189.57 206.295 189.379 206.808 188.998C207.336 188.602 207.695 188.089 207.886 187.458ZM204.872 181.43C203.963 181.43 203.2 181.694 202.584 182.222C201.968 182.75 201.557 183.469 201.352 184.378H207.798C207.739 183.41 207.424 182.677 206.852 182.178C206.295 181.679 205.635 181.43 204.872 181.43ZM219.659 187.458H221.309C221.192 188.177 220.928 188.822 220.517 189.394C220.121 189.951 219.593 190.399 218.933 190.736C218.288 191.059 217.54 191.22 216.689 191.22C215.663 191.22 214.739 190.978 213.917 190.494C213.096 189.995 212.443 189.321 211.959 188.47C211.49 187.605 211.255 186.622 211.255 185.522C211.255 184.422 211.483 183.439 211.937 182.574C212.407 181.709 213.045 181.027 213.851 180.528C214.658 180.029 215.567 179.78 216.579 179.78C217.65 179.78 218.552 180.022 219.285 180.506C220.033 180.975 220.583 181.672 220.935 182.596C221.302 183.505 221.449 184.627 221.375 185.962H213.015C213.089 186.681 213.287 187.311 213.609 187.854C213.932 188.397 214.357 188.822 214.885 189.13C215.413 189.423 216.015 189.57 216.689 189.57C217.437 189.57 218.068 189.379 218.581 188.998C219.109 188.602 219.469 188.089 219.659 187.458ZM216.645 181.43C215.736 181.43 214.973 181.694 214.357 182.222C213.741 182.75 213.331 183.469 213.125 184.378H219.571C219.513 183.41 219.197 182.677 218.625 182.178C218.068 181.679 217.408 181.43 216.645 181.43ZM229.145 191.22C228.338 191.22 227.678 191.037 227.165 190.67C226.652 190.289 226.248 189.805 225.955 189.218C225.676 188.617 225.478 187.993 225.361 187.348C225.244 186.688 225.185 186.079 225.185 185.522C225.185 184.73 225.236 183.989 225.339 183.3C225.456 182.611 225.654 182.002 225.933 181.474C226.212 180.946 226.608 180.535 227.121 180.242C227.649 179.934 228.324 179.78 229.145 179.78C230.025 179.78 230.824 180.029 231.543 180.528C232.262 181.027 232.834 181.709 233.259 182.574C233.699 183.439 233.919 184.422 233.919 185.522C233.919 186.622 233.699 187.605 233.259 188.47C232.819 189.321 232.232 189.995 231.499 190.494C230.78 190.978 229.996 191.22 229.145 191.22ZM228.705 189.548C229.38 189.548 229.974 189.379 230.487 189.042C231.015 188.69 231.426 188.213 231.719 187.612C232.012 186.996 232.159 186.299 232.159 185.522C232.159 184.349 231.858 183.381 231.257 182.618C230.656 181.841 229.805 181.452 228.705 181.452C228.06 181.452 227.488 181.628 226.989 181.98C226.49 182.317 226.102 182.794 225.823 183.41C225.544 184.011 225.405 184.715 225.405 185.522C225.405 186.255 225.522 186.93 225.757 187.546C226.006 188.147 226.373 188.631 226.857 188.998C227.341 189.365 227.957 189.548 228.705 189.548ZM223.645 180H225.339L225.405 182.31V195.4H223.645V180ZM24.44 210H26.332L30.27 220.56L28.73 221L24.44 210ZM34.67 210L28.532 225.4H26.618L29.28 219.46L32.8 210H34.67ZM40.9892 221.22C40.0505 221.22 39.1705 220.993 38.3492 220.538C37.5278 220.083 36.8605 219.431 36.3472 218.58C35.8485 217.715 35.5992 216.695 35.5992 215.522C35.5992 214.349 35.8485 213.337 36.3472 212.486C36.8605 211.621 37.5278 210.953 38.3492 210.484C39.1705 210.015 40.0505 209.78 40.9892 209.78C41.9278 209.78 42.8005 210.015 43.6072 210.484C44.4285 210.953 45.0885 211.621 45.5872 212.486C46.0858 213.337 46.3352 214.349 46.3352 215.522C46.3352 216.695 46.0858 217.715 45.5872 218.58C45.0885 219.431 44.4285 220.083 43.6072 220.538C42.8005 220.993 41.9278 221.22 40.9892 221.22ZM40.9892 219.57C41.6052 219.57 42.1845 219.416 42.7272 219.108C43.2698 218.8 43.7098 218.345 44.0472 217.744C44.3992 217.128 44.5752 216.387 44.5752 215.522C44.5752 214.657 44.3992 213.923 44.0472 213.322C43.7098 212.706 43.2698 212.237 42.7272 211.914C42.1845 211.591 41.6052 211.43 40.9892 211.43C40.3732 211.43 39.7865 211.591 39.2292 211.914C38.6865 212.222 38.2392 212.684 37.8872 213.3C37.5352 213.901 37.3592 214.642 37.3592 215.522C37.3592 216.387 37.5278 217.128 37.8652 217.744C38.2172 218.345 38.6718 218.8 39.2292 219.108C39.7865 219.416 40.3732 219.57 40.9892 219.57ZM57.8967 221H56.1367V210H57.8967V221ZM56.2467 215.874L56.2687 216.49C56.254 216.666 56.21 216.937 56.1367 217.304C56.078 217.671 55.968 218.081 55.8067 218.536C55.66 218.976 55.44 219.401 55.1467 219.812C54.868 220.223 54.5013 220.56 54.0467 220.824C53.6067 221.088 53.0567 221.22 52.3967 221.22C51.9713 221.22 51.5313 221.154 51.0767 221.022C50.6367 220.905 50.226 220.707 49.8447 220.428C49.4633 220.135 49.1553 219.731 48.9207 219.218C48.686 218.705 48.5687 218.067 48.5687 217.304V210H50.3287V216.864C50.3287 217.524 50.4313 218.045 50.6367 218.426C50.8567 218.793 51.15 219.057 51.5167 219.218C51.8833 219.379 52.294 219.46 52.7487 219.46C53.4967 219.46 54.12 219.269 54.6187 218.888C55.1173 218.507 55.4987 218.037 55.7627 217.48C56.0267 216.923 56.188 216.387 56.2467 215.874ZM73.2015 221V214.092C73.2015 213.52 73.1135 213.051 72.9375 212.684C72.7615 212.303 72.4975 212.017 72.1455 211.826C71.7935 211.635 71.3535 211.54 70.8255 211.54C70.2241 211.54 69.6668 211.694 69.1535 212.002C68.6401 212.31 68.2148 212.735 67.8775 213.278C67.5548 213.806 67.3568 214.422 67.2835 215.126L67.2615 213.85C67.3348 213.234 67.4815 212.677 67.7015 212.178C67.9361 211.679 68.2221 211.254 68.5595 210.902C68.9115 210.535 69.3075 210.257 69.7475 210.066C70.2021 209.875 70.6788 209.78 71.1775 209.78C71.7641 209.78 72.2921 209.868 72.7615 210.044C73.2308 210.22 73.6268 210.477 73.9495 210.814C74.2721 211.151 74.5215 211.562 74.6975 212.046C74.8735 212.515 74.9615 213.051 74.9615 213.652V221H73.2015ZM65.6335 221V205.6H67.3935V221H65.6335ZM82.6044 221.22C81.6657 221.22 80.7857 220.993 79.9644 220.538C79.1431 220.083 78.4757 219.431 77.9624 218.58C77.4637 217.715 77.2144 216.695 77.2144 215.522C77.2144 214.349 77.4637 213.337 77.9624 212.486C78.4757 211.621 79.1431 210.953 79.9644 210.484C80.7857 210.015 81.6657 209.78 82.6044 209.78C83.5431 209.78 84.4157 210.015 85.2224 210.484C86.0437 210.953 86.7037 211.621 87.2024 212.486C87.7011 213.337 87.9504 214.349 87.9504 215.522C87.9504 216.695 87.7011 217.715 87.2024 218.58C86.7037 219.431 86.0437 220.083 85.2224 220.538C84.4157 220.993 83.5431 221.22 82.6044 221.22ZM82.6044 219.57C83.2204 219.57 83.7997 219.416 84.3424 219.108C84.8851 218.8 85.3251 218.345 85.6624 217.744C86.0144 217.128 86.1904 216.387 86.1904 215.522C86.1904 214.657 86.0144 213.923 85.6624 213.322C85.3251 212.706 84.8851 212.237 84.3424 211.914C83.7997 211.591 83.2204 211.43 82.6044 211.43C81.9884 211.43 81.4017 211.591 80.8444 211.914C80.3017 212.222 79.8544 212.684 79.5024 213.3C79.1504 213.901 78.9744 214.642 78.9744 215.522C78.9744 216.387 79.1431 217.128 79.4804 217.744C79.8324 218.345 80.2871 218.8 80.8444 219.108C81.4017 219.416 81.9884 219.57 82.6044 219.57ZM90.1839 210H91.9439V221H90.1839V210ZM95.7279 209.78C96.3146 209.78 96.8426 209.868 97.3119 210.044C97.7812 210.22 98.1772 210.477 98.4999 210.814C98.8226 211.151 99.0719 211.562 99.2479 212.046C99.4239 212.515 99.5119 213.051 99.5119 213.652V221H97.7519V214.092C97.7519 213.241 97.5539 212.603 97.1579 212.178C96.7619 211.753 96.1679 211.54 95.3759 211.54C94.7746 211.54 94.2172 211.694 93.7039 212.002C93.1906 212.31 92.7652 212.735 92.4279 213.278C92.1052 213.806 91.9072 214.422 91.8339 215.126L91.8119 213.85C91.8852 213.234 92.0319 212.677 92.2519 212.178C92.4866 211.679 92.7726 211.254 93.1099 210.902C93.4619 210.535 93.8579 210.257 94.2979 210.066C94.7526 209.875 95.2292 209.78 95.7279 209.78ZM110.154 217.458H111.804C111.686 218.177 111.422 218.822 111.012 219.394C110.616 219.951 110.088 220.399 109.428 220.736C108.782 221.059 108.034 221.22 107.184 221.22C106.157 221.22 105.233 220.978 104.412 220.494C103.59 219.995 102.938 219.321 102.454 218.47C101.984 217.605 101.75 216.622 101.75 215.522C101.75 214.422 101.977 213.439 102.432 212.574C102.901 211.709 103.539 211.027 104.346 210.528C105.152 210.029 106.062 209.78 107.074 209.78C108.144 209.78 109.046 210.022 109.78 210.506C110.528 210.975 111.078 211.672 111.43 212.596C111.796 213.505 111.943 214.627 111.87 215.962H103.51C103.583 216.681 103.781 217.311 104.104 217.854C104.426 218.397 104.852 218.822 105.38 219.13C105.908 219.423 106.509 219.57 107.184 219.57C107.932 219.57 108.562 219.379 109.076 218.998C109.604 218.602 109.963 218.089 110.154 217.458ZM107.14 211.43C106.23 211.43 105.468 211.694 104.852 212.222C104.236 212.75 103.825 213.469 103.62 214.378H110.066C110.007 213.41 109.692 212.677 109.12 212.178C108.562 211.679 107.902 211.43 107.14 211.43ZM113.611 217.458H115.239C115.283 218.089 115.518 218.602 115.943 218.998C116.383 219.394 117.014 219.592 117.835 219.592C118.334 219.592 118.722 219.526 119.001 219.394C119.294 219.262 119.507 219.086 119.639 218.866C119.771 218.631 119.837 218.375 119.837 218.096C119.837 217.759 119.749 217.495 119.573 217.304C119.412 217.099 119.184 216.93 118.891 216.798C118.612 216.666 118.29 216.541 117.923 216.424C117.498 216.263 117.058 216.094 116.603 215.918C116.163 215.727 115.745 215.507 115.349 215.258C114.968 214.994 114.66 214.679 114.425 214.312C114.19 213.931 114.073 213.476 114.073 212.948C114.073 212.508 114.161 212.097 114.337 211.716C114.513 211.32 114.762 210.983 115.085 210.704C115.422 210.411 115.811 210.183 116.251 210.022C116.706 209.861 117.204 209.78 117.747 209.78C118.48 209.78 119.096 209.927 119.595 210.22C120.108 210.513 120.497 210.931 120.761 211.474C121.04 212.002 121.186 212.618 121.201 213.322H119.683C119.58 212.662 119.368 212.185 119.045 211.892C118.737 211.584 118.29 211.43 117.703 211.43C117.102 211.43 116.64 211.562 116.317 211.826C115.994 212.09 115.833 212.442 115.833 212.882C115.833 213.205 115.95 213.476 116.185 213.696C116.42 213.901 116.72 214.092 117.087 214.268C117.468 214.429 117.872 214.598 118.297 214.774C118.722 214.95 119.133 215.126 119.529 215.302C119.925 215.478 120.277 215.683 120.585 215.918C120.893 216.153 121.135 216.446 121.311 216.798C121.502 217.135 121.597 217.561 121.597 218.074C121.597 218.69 121.45 219.24 121.157 219.724C120.878 220.193 120.46 220.56 119.903 220.824C119.36 221.088 118.693 221.22 117.901 221.22C117.182 221.22 116.566 221.132 116.053 220.956C115.554 220.765 115.136 220.523 114.799 220.23C114.462 219.922 114.198 219.599 114.007 219.262C113.831 218.925 113.714 218.595 113.655 218.272C113.596 217.949 113.582 217.678 113.611 217.458ZM123.08 210H129.548V211.65H123.08V210ZM125.434 207.14H127.194V221H125.434V207.14ZM133.034 218.844V221H130.746V218.844H133.034ZM135.22 211.958L134.758 211.474C134.992 211.063 135.198 210.66 135.374 210.264C135.55 209.853 135.645 209.457 135.66 209.076L134.582 208.834V206.7H136.958V208.24C136.958 209.135 136.774 209.868 136.408 210.44C136.056 211.012 135.66 211.518 135.22 211.958ZM138.52 211.958L138.058 211.474C138.292 211.063 138.498 210.66 138.674 210.264C138.85 209.853 138.945 209.457 138.96 209.076L137.882 208.834V206.7H140.258V208.24C140.258 209.135 140.074 209.868 139.708 210.44C139.356 211.012 138.96 211.518 138.52 211.958Z" fill="white"/>
<path d="M245.84 57.8V55.68H251.76C252.467 55.68 253.027 55.4933 253.44 55.12C253.853 54.7333 254.06 54.2 254.06 53.52C254.06 52.8133 253.853 52.2733 253.44 51.9C253.027 51.5267 252.467 51.34 251.76 51.34H246.16V62H243.5V49.06H251.52C252.24 49.06 252.913 49.1467 253.54 49.32C254.18 49.4933 254.733 49.76 255.2 50.12C255.68 50.48 256.053 50.94 256.32 51.5C256.587 52.06 256.72 52.7333 256.72 53.52C256.72 54.2933 256.587 54.9533 256.32 55.5C256.053 56.0467 255.68 56.4933 255.2 56.84C254.733 57.1733 254.18 57.42 253.54 57.58C252.913 57.7267 252.24 57.8 251.52 57.8H245.84ZM271.104 56.28V49.06H273.764V56.56C273.764 57.4133 273.637 58.16 273.384 58.8C273.144 59.44 272.797 59.98 272.344 60.42C271.89 60.86 271.357 61.22 270.744 61.5C270.144 61.7667 269.484 61.96 268.764 62.08C268.057 62.2 267.31 62.26 266.524 62.26C265.71 62.26 264.937 62.2 264.204 62.08C263.47 61.96 262.797 61.7667 262.184 61.5C261.584 61.22 261.064 60.86 260.624 60.42C260.184 59.98 259.837 59.44 259.584 58.8C259.344 58.16 259.224 57.4133 259.224 56.56V49.06H261.884V56.28C261.884 57.2933 262.084 58.0667 262.484 58.6C262.884 59.12 263.43 59.48 264.124 59.68C264.83 59.8667 265.63 59.96 266.524 59.96C267.39 59.96 268.164 59.8667 268.844 59.68C269.537 59.48 270.084 59.12 270.484 58.6C270.897 58.0667 271.104 57.2933 271.104 56.28ZM276.841 62V49.06H284.301C286.034 49.06 287.347 49.3533 288.241 49.94C289.147 50.5133 289.601 51.3733 289.601 52.52C289.601 53.2533 289.421 53.8333 289.061 54.26C288.701 54.6733 288.187 54.98 287.521 55.18C286.867 55.38 286.094 55.5067 285.201 55.56L285.281 55.42C285.934 55.4333 286.547 55.48 287.121 55.56C287.707 55.64 288.221 55.7867 288.661 56C289.101 56.2133 289.447 56.5133 289.701 56.9C289.954 57.2733 290.081 57.7667 290.081 58.38C290.081 59.18 289.867 59.8467 289.441 60.38C289.014 60.9 288.421 61.2933 287.661 61.56C286.901 61.8267 286.021 61.9733 285.021 62H276.841ZM279.501 59.8H284.741C285.581 59.8 286.227 59.6667 286.681 59.4C287.134 59.12 287.361 58.68 287.361 58.08C287.361 57.64 287.227 57.32 286.961 57.12C286.694 56.92 286.341 56.8 285.901 56.76C285.461 56.7067 284.987 56.68 284.481 56.68H279.501V59.8ZM279.501 54.54H284.201C285.041 54.54 285.687 54.42 286.141 54.18C286.594 53.9267 286.821 53.5 286.821 52.9C286.821 52.3 286.594 51.88 286.141 51.64C285.687 51.3867 285.087 51.26 284.341 51.26H279.501V54.54ZM295.106 49.06V59.78H303.706V62H292.446V49.06H295.106ZM306.557 49.06H309.217V62H306.557V49.06ZM327.761 57.34C327.641 58.38 327.274 59.2667 326.661 60C326.048 60.7333 325.214 61.2933 324.161 61.68C323.108 62.0667 321.854 62.26 320.401 62.26C319.188 62.26 318.074 62.12 317.061 61.84C316.061 61.56 315.194 61.14 314.461 60.58C313.741 60.02 313.181 59.3267 312.781 58.5C312.381 57.66 312.181 56.68 312.181 55.56C312.181 54.44 312.381 53.46 312.781 52.62C313.181 51.78 313.741 51.08 314.461 50.52C315.194 49.9467 316.061 49.52 317.061 49.24C318.074 48.9467 319.188 48.8 320.401 48.8C321.854 48.8 323.108 49 324.161 49.4C325.228 49.8 326.068 50.3733 326.681 51.12C327.294 51.8533 327.654 52.7467 327.761 53.8H325.121C324.948 53.24 324.654 52.76 324.241 52.36C323.841 51.9467 323.321 51.6333 322.681 51.42C322.041 51.2067 321.281 51.1 320.401 51.1C319.308 51.1 318.348 51.2733 317.521 51.62C316.694 51.9533 316.054 52.4533 315.601 53.12C315.148 53.7733 314.921 54.5867 314.921 55.56C314.921 56.52 315.148 57.3267 315.601 57.98C316.054 58.6333 316.694 59.1333 317.521 59.48C318.348 59.8133 319.308 59.98 320.401 59.98C321.281 59.98 322.034 59.8733 322.661 59.66C323.301 59.4467 323.821 59.14 324.221 58.74C324.634 58.34 324.934 57.8733 325.121 57.34H327.761ZM337.201 59.18V56.96H345.761V59.18H337.201ZM333.981 62L340.061 49.06H342.941L349.081 62H346.181L340.861 50.34H342.141L336.861 62H333.981ZM365.417 57.34C365.297 58.38 364.931 59.2667 364.317 60C363.704 60.7333 362.871 61.2933 361.817 61.68C360.764 62.0667 359.511 62.26 358.057 62.26C356.844 62.26 355.731 62.12 354.717 61.84C353.717 61.56 352.851 61.14 352.117 60.58C351.397 60.02 350.837 59.3267 350.437 58.5C350.037 57.66 349.837 56.68 349.837 55.56C349.837 54.44 350.037 53.46 350.437 52.62C350.837 51.78 351.397 51.08 352.117 50.52C352.851 49.9467 353.717 49.52 354.717 49.24C355.731 48.9467 356.844 48.8 358.057 48.8C359.511 48.8 360.764 49 361.817 49.4C362.884 49.8 363.724 50.3733 364.337 51.12C364.951 51.8533 365.311 52.7467 365.417 53.8H362.777C362.604 53.24 362.311 52.76 361.897 52.36C361.497 51.9467 360.977 51.6333 360.337 51.42C359.697 51.2067 358.937 51.1 358.057 51.1C356.964 51.1 356.004 51.2733 355.177 51.62C354.351 51.9533 353.711 52.4533 353.257 53.12C352.804 53.7733 352.577 54.5867 352.577 55.56C352.577 56.52 352.804 57.3267 353.257 57.98C353.711 58.6333 354.351 59.1333 355.177 59.48C356.004 59.8133 356.964 59.98 358.057 59.98C358.937 59.98 359.691 59.8733 360.317 59.66C360.957 59.4467 361.477 59.14 361.877 58.74C362.291 58.34 362.591 57.8733 362.777 57.34H365.417ZM383.113 57.34C382.993 58.38 382.626 59.2667 382.013 60C381.399 60.7333 380.566 61.2933 379.513 61.68C378.459 62.0667 377.206 62.26 375.753 62.26C374.539 62.26 373.426 62.12 372.413 61.84C371.413 61.56 370.546 61.14 369.813 60.58C369.093 60.02 368.533 59.3267 368.133 58.5C367.733 57.66 367.533 56.68 367.533 55.56C367.533 54.44 367.733 53.46 368.133 52.62C368.533 51.78 369.093 51.08 369.813 50.52C370.546 49.9467 371.413 49.52 372.413 49.24C373.426 48.9467 374.539 48.8 375.753 48.8C377.206 48.8 378.459 49 379.513 49.4C380.579 49.8 381.419 50.3733 382.033 51.12C382.646 51.8533 383.006 52.7467 383.113 53.8H380.473C380.299 53.24 380.006 52.76 379.593 52.36C379.193 51.9467 378.673 51.6333 378.033 51.42C377.393 51.2067 376.633 51.1 375.753 51.1C374.659 51.1 373.699 51.2733 372.873 51.62C372.046 51.9533 371.406 52.4533 370.953 53.12C370.499 53.7733 370.273 54.5867 370.273 55.56C370.273 56.52 370.499 57.3267 370.953 57.98C371.406 58.6333 372.046 59.1333 372.873 59.48C373.699 59.8133 374.659 59.98 375.753 59.98C376.633 59.98 377.386 59.8733 378.013 59.66C378.653 59.4467 379.173 59.14 379.573 58.74C379.986 58.34 380.286 57.8733 380.473 57.34H383.113ZM393.408 62.26C391.688 62.26 390.215 61.9933 388.988 61.46C387.775 60.9133 386.841 60.14 386.188 59.14C385.548 58.14 385.228 56.94 385.228 55.54C385.228 54.1267 385.548 52.92 386.188 51.92C386.841 50.92 387.775 50.1533 388.988 49.62C390.215 49.0733 391.688 48.8 393.408 48.8C395.141 48.8 396.615 49.0733 397.828 49.62C399.041 50.1533 399.968 50.92 400.608 51.92C401.261 52.92 401.588 54.1267 401.588 55.54C401.588 56.94 401.261 58.14 400.608 59.14C399.968 60.14 399.041 60.9133 397.828 61.46C396.615 61.9933 395.141 62.26 393.408 62.26ZM393.408 59.96C394.475 59.96 395.408 59.8 396.208 59.48C397.021 59.16 397.655 58.6733 398.108 58.02C398.575 57.3667 398.808 56.54 398.808 55.54C398.808 54.54 398.575 53.7133 398.108 53.06C397.655 52.4067 397.021 51.92 396.208 51.6C395.408 51.2667 394.475 51.1 393.408 51.1C392.355 51.1 391.415 51.2667 390.588 51.6C389.761 51.92 389.115 52.4067 388.648 53.06C388.181 53.7133 387.948 54.54 387.948 55.54C387.948 56.54 388.181 57.3667 388.648 58.02C389.115 58.6733 389.761 59.16 390.588 59.48C391.415 59.8 392.355 59.96 393.408 59.96ZM416.065 56.28V49.06H418.725V56.56C418.725 57.4133 418.598 58.16 418.345 58.8C418.105 59.44 417.758 59.98 417.305 60.42C416.851 60.86 416.318 61.22 415.705 61.5C415.105 61.7667 414.445 61.96 413.725 62.08C413.018 62.2 412.271 62.26 411.485 62.26C410.671 62.26 409.898 62.2 409.165 62.08C408.431 61.96 407.758 61.7667 407.145 61.5C406.545 61.22 406.025 60.86 405.585 60.42C405.145 59.98 404.798 59.44 404.545 58.8C404.305 58.16 404.185 57.4133 404.185 56.56V49.06H406.845V56.28C406.845 57.2933 407.045 58.0667 407.445 58.6C407.845 59.12 408.391 59.48 409.085 59.68C409.791 59.8667 410.591 59.96 411.485 59.96C412.351 59.96 413.125 59.8667 413.805 59.68C414.498 59.48 415.045 59.12 415.445 58.6C415.858 58.0667 416.065 57.2933 416.065 56.28ZM434.922 59.36L434.082 59.7V49.06H436.742V62H434.082L423.622 51.78L424.462 51.44V62H421.802V49.06H424.462L434.922 59.36ZM438.689 49.06H452.329V51.28H438.689V49.06ZM444.189 51H446.849V62H444.189V51ZM455.462 59.18V56.96H464.022V59.18H455.462ZM452.242 62L458.322 49.06H461.202L467.342 62H464.442L459.122 50.34H460.402L455.122 62H452.242ZM469.224 62V49.06H476.684C478.417 49.06 479.73 49.3533 480.624 49.94C481.53 50.5133 481.984 51.3733 481.984 52.52C481.984 53.2533 481.804 53.8333 481.444 54.26C481.084 54.6733 480.57 54.98 479.904 55.18C479.25 55.38 478.477 55.5067 477.584 55.56L477.664 55.42C478.317 55.4333 478.93 55.48 479.504 55.56C480.09 55.64 480.604 55.7867 481.044 56C481.484 56.2133 481.83 56.5133 482.084 56.9C482.337 57.2733 482.464 57.7667 482.464 58.38C482.464 59.18 482.25 59.8467 481.824 60.38C481.397 60.9 480.804 61.2933 480.044 61.56C479.284 61.8267 478.404 61.9733 477.404 62H469.224ZM471.884 59.8H477.124C477.964 59.8 478.61 59.6667 479.064 59.4C479.517 59.12 479.744 58.68 479.744 58.08C479.744 57.64 479.61 57.32 479.344 57.12C479.077 56.92 478.724 56.8 478.284 56.76C477.844 56.7067 477.37 56.68 476.864 56.68H471.884V59.8ZM471.884 54.54H476.584C477.424 54.54 478.07 54.42 478.524 54.18C478.977 53.9267 479.204 53.5 479.204 52.9C479.204 52.3 478.977 51.88 478.524 51.64C478.07 51.3867 477.47 51.26 476.724 51.26H471.884V54.54ZM485.209 49.06H487.869V62H485.209V49.06ZM493.973 49.06V59.78H502.573V62H491.313V49.06H493.973ZM505.424 49.06H508.084V62H505.424V49.06ZM510.388 49.06H524.028V51.28H510.388V49.06ZM515.888 51H518.548V62H515.888V51ZM539.037 49.06L533.357 57.92V62H530.677V57.92L524.997 49.06H528.077L532.857 56.8H531.257L535.957 49.06H539.037Z" fill="white"/>
<defs>
<linearGradient id="paint0_linear_1397_526" x1="433" y1="120" x2="432.005" y2="297.994" gradientUnits="userSpaceOnUse">
<stop stop-color="#8ACADE"/>
<stop offset="0.783654" stop-color="#8ACADE" stop-opacity="0.1"/>
</linearGradient>
<clipPath id="clip0_1397_526">
<rect width="610" height="289" fill="white"/>
</clipPath>
</defs>
</svg>
