<svg width="610" height="289" viewBox="0 0 610 289" fill="none" xmlns="http://www.w3.org/2000/svg">
<g clip-path="url(#clip0_1397_525)">
<rect width="610" height="289" rx="50" fill="#1C1A1A"/>
<path d="M365.5 275C352.7 275 340.7 271.9 329.5 265.7C318.3 259.5 309.2 250.6 302.2 239C295.4 227.2 292 213.3 292 197.3C292 181.3 295.4 167.5 302.2 155.9C309.2 144.1 318.3 135 329.5 128.6C340.7 122.2 352.7 119 365.5 119C378.3 119 390.2 122.2 401.2 128.6C412.4 135 421.4 144.1 428.2 155.9C435 167.5 438.4 181.3 438.4 197.3C438.4 213.3 435 227.2 428.2 239C421.4 250.6 412.4 259.5 401.2 265.7C390.2 271.9 378.3 275 365.5 275ZM365.5 251.9C373.7 251.9 381.5 249.8 388.9 245.6C396.3 241.4 402.4 235.2 407.2 227C412 218.8 414.4 208.9 414.4 197.3C414.4 185.7 412 175.8 407.2 167.6C402.6 159.4 396.5 153.1 388.9 148.7C381.5 144.3 373.7 142.1 365.5 142.1C357.3 142.1 349.4 144.3 341.8 148.7C334.2 152.9 328 159.1 323.2 167.3C318.4 175.5 316 185.5 316 197.3C316 208.9 318.4 218.8 323.2 227C328 235.2 334.2 241.4 341.8 245.6C349.4 249.8 357.3 251.9 365.5 251.9ZM525.667 215L525.967 213.5C533.567 214.1 540.567 215.4 546.967 217.4C553.367 219.4 558.967 222.4 563.767 226.4C568.567 230.2 572.267 235.2 574.867 241.4C577.467 247.6 578.767 255.1 578.767 263.9C578.767 274.1 576.367 283.4 571.567 291.8C566.767 300.4 559.967 307.2 551.167 312.2C542.567 317.4 532.467 320 520.867 320C510.067 320 500.167 317.4 491.167 312.2C482.367 307.2 475.467 300.4 470.467 291.8C465.667 283.4 463.767 274.1 464.767 263.9H485.767C485.767 270.3 487.167 276 489.967 281C492.767 286.2 496.767 290.3 501.967 293.3C507.167 296.3 513.467 297.8 520.867 297.8C531.267 297.8 539.467 294.6 545.467 288.2C551.667 281.8 554.767 273.3 554.767 262.7C554.767 252.1 551.367 243.5 544.567 236.9C537.967 230.3 528.867 227 517.267 227H500.167V204.8H517.267C524.867 204.8 531.267 203.5 536.467 200.9C541.667 198.1 545.567 194.2 548.167 189.2C550.767 184.2 552.067 178.5 552.067 172.1C552.067 163.1 549.367 155.8 543.967 150.2C538.767 144.4 530.867 141.5 520.267 141.5C511.467 141.5 503.967 144.4 497.767 150.2C491.567 155.8 488.467 163.1 488.467 172.1H467.467C466.667 164.7 467.467 157.8 469.867 151.4C472.467 145 476.267 139.4 481.267 134.6C486.267 129.6 492.067 125.8 498.667 123.2C505.467 120.4 512.667 119 520.267 119C531.467 119 541.267 121.4 549.667 126.2C558.067 130.8 564.567 137.1 569.167 145.1C573.767 153.1 576.067 162.1 576.067 172.1C576.067 180.3 574.767 187.2 572.167 192.8C569.767 198.2 566.267 202.5 561.667 205.7C557.267 208.9 551.967 211.2 545.767 212.6C539.567 214 532.867 214.8 525.667 215Z" fill="url(#paint0_linear_1397_525)"/>
</g>
<path d="M41.706 128.622L42.19 129.106C41.9553 129.517 41.75 129.927 41.574 130.338C41.398 130.734 41.2953 131.123 41.266 131.504L42.366 131.746V133.88H39.99V132.34C39.99 131.431 40.166 130.697 40.518 130.14C40.8847 129.568 41.2807 129.062 41.706 128.622ZM45.006 128.622L45.49 129.106C45.2553 129.517 45.05 129.927 44.874 130.338C44.698 130.734 44.5953 131.123 44.566 131.504L45.666 131.746V133.88H43.29V132.34C43.29 131.431 43.466 130.697 43.818 130.14C44.1847 129.568 44.5807 129.062 45.006 128.622ZM56.6804 142.944H55.9764L62.4884 129.7H64.2484V144H62.4884V132.758L62.8404 132.846L57.2084 144H55.4484L49.8164 132.868L50.1684 132.78V144H48.4084V129.7H50.1684L56.6804 142.944ZM69.6139 128.6V130.734H67.3259V128.6H69.6139ZM67.5899 133H69.3499V144H67.5899V133ZM71.8278 140.458H73.4558C73.4998 141.089 73.7344 141.602 74.1598 141.998C74.5998 142.394 75.2304 142.592 76.0518 142.592C76.5504 142.592 76.9391 142.526 77.2178 142.394C77.5111 142.262 77.7238 142.086 77.8558 141.866C77.9878 141.631 78.0538 141.375 78.0538 141.096C78.0538 140.759 77.9658 140.495 77.7898 140.304C77.6284 140.099 77.4011 139.93 77.1078 139.798C76.8291 139.666 76.5064 139.541 76.1398 139.424C75.7144 139.263 75.2744 139.094 74.8198 138.918C74.3798 138.727 73.9618 138.507 73.5658 138.258C73.1844 137.994 72.8764 137.679 72.6418 137.312C72.4071 136.931 72.2898 136.476 72.2898 135.948C72.2898 135.508 72.3778 135.097 72.5538 134.716C72.7298 134.32 72.9791 133.983 73.3018 133.704C73.6391 133.411 74.0278 133.183 74.4678 133.022C74.9224 132.861 75.4211 132.78 75.9638 132.78C76.6971 132.78 77.3131 132.927 77.8118 133.22C78.3251 133.513 78.7138 133.931 78.9778 134.474C79.2564 135.002 79.4031 135.618 79.4178 136.322H77.8998C77.7971 135.662 77.5844 135.185 77.2618 134.892C76.9538 134.584 76.5064 134.43 75.9198 134.43C75.3184 134.43 74.8564 134.562 74.5338 134.826C74.2111 135.09 74.0498 135.442 74.0498 135.882C74.0498 136.205 74.1671 136.476 74.4018 136.696C74.6364 136.901 74.9371 137.092 75.3038 137.268C75.6851 137.429 76.0884 137.598 76.5138 137.774C76.9391 137.95 77.3498 138.126 77.7458 138.302C78.1418 138.478 78.4938 138.683 78.8018 138.918C79.1098 139.153 79.3518 139.446 79.5278 139.798C79.7184 140.135 79.8138 140.561 79.8138 141.074C79.8138 141.69 79.6671 142.24 79.3738 142.724C79.0951 143.193 78.6771 143.56 78.1198 143.824C77.5771 144.088 76.9098 144.22 76.1178 144.22C75.3991 144.22 74.7831 144.132 74.2698 143.956C73.7711 143.765 73.3531 143.523 73.0158 143.23C72.6784 142.922 72.4144 142.599 72.2238 142.262C72.0478 141.925 71.9304 141.595 71.8718 141.272C71.8131 140.949 71.7984 140.678 71.8278 140.458ZM81.5387 140.458H83.1667C83.2107 141.089 83.4454 141.602 83.8707 141.998C84.3107 142.394 84.9414 142.592 85.7627 142.592C86.2614 142.592 86.6501 142.526 86.9287 142.394C87.2221 142.262 87.4347 142.086 87.5667 141.866C87.6987 141.631 87.7647 141.375 87.7647 141.096C87.7647 140.759 87.6767 140.495 87.5007 140.304C87.3394 140.099 87.1121 139.93 86.8187 139.798C86.5401 139.666 86.2174 139.541 85.8507 139.424C85.4254 139.263 84.9854 139.094 84.5307 138.918C84.0907 138.727 83.6727 138.507 83.2767 138.258C82.8954 137.994 82.5874 137.679 82.3527 137.312C82.1181 136.931 82.0007 136.476 82.0007 135.948C82.0007 135.508 82.0887 135.097 82.2647 134.716C82.4407 134.32 82.6901 133.983 83.0127 133.704C83.3501 133.411 83.7387 133.183 84.1787 133.022C84.6334 132.861 85.1321 132.78 85.6747 132.78C86.4081 132.78 87.0241 132.927 87.5227 133.22C88.0361 133.513 88.4247 133.931 88.6887 134.474C88.9674 135.002 89.1141 135.618 89.1287 136.322H87.6107C87.5081 135.662 87.2954 135.185 86.9727 134.892C86.6647 134.584 86.2174 134.43 85.6307 134.43C85.0294 134.43 84.5674 134.562 84.2447 134.826C83.9221 135.09 83.7607 135.442 83.7607 135.882C83.7607 136.205 83.8781 136.476 84.1127 136.696C84.3474 136.901 84.6481 137.092 85.0147 137.268C85.3961 137.429 85.7994 137.598 86.2247 137.774C86.6501 137.95 87.0607 138.126 87.4567 138.302C87.8527 138.478 88.2047 138.683 88.5127 138.918C88.8207 139.153 89.0627 139.446 89.2387 139.798C89.4294 140.135 89.5247 140.561 89.5247 141.074C89.5247 141.69 89.3781 142.24 89.0847 142.724C88.8061 143.193 88.3881 143.56 87.8307 143.824C87.2881 144.088 86.6207 144.22 85.8287 144.22C85.1101 144.22 84.4941 144.132 83.9807 143.956C83.4821 143.765 83.0641 143.523 82.7267 143.23C82.3894 142.922 82.1254 142.599 81.9347 142.262C81.7587 141.925 81.6414 141.595 81.5827 141.272C81.5241 140.949 81.5094 140.678 81.5387 140.458ZM100.555 144.22C99.6895 144.22 98.8901 143.978 98.1568 143.494C97.4381 142.995 96.8588 142.321 96.4188 141.47C95.9935 140.605 95.7808 139.622 95.7808 138.522C95.7808 137.422 96.0008 136.439 96.4408 135.574C96.8808 134.709 97.4748 134.027 98.2228 133.528C98.9855 133.029 99.8361 132.78 100.775 132.78C101.801 132.78 102.579 133.044 103.107 133.572C103.649 134.085 104.016 134.775 104.207 135.64C104.412 136.505 104.515 137.466 104.515 138.522C104.515 139.079 104.456 139.688 104.339 140.348C104.221 140.993 104.016 141.617 103.723 142.218C103.444 142.805 103.048 143.289 102.535 143.67C102.021 144.037 101.361 144.22 100.555 144.22ZM100.995 142.548C101.743 142.548 102.359 142.365 102.843 141.998C103.341 141.631 103.708 141.147 103.943 140.546C104.177 139.93 104.295 139.255 104.295 138.522C104.295 137.715 104.17 137.011 103.921 136.41C103.686 135.794 103.319 135.317 102.821 134.98C102.337 134.628 101.728 134.452 100.995 134.452C99.8948 134.452 99.0441 134.841 98.4428 135.618C97.8415 136.381 97.5408 137.349 97.5408 138.522C97.5408 139.299 97.6875 139.996 97.9808 140.612C98.2888 141.213 98.6995 141.69 99.2128 142.042C99.7408 142.379 100.335 142.548 100.995 142.548ZM104.295 133H106.055V144H104.449C104.449 144 104.434 143.868 104.405 143.604C104.39 143.34 104.368 143.032 104.339 142.68C104.309 142.328 104.295 142.035 104.295 141.8V133ZM117.699 144.22C116.819 144.22 116.013 143.978 115.279 143.494C114.561 142.995 113.989 142.321 113.563 141.47C113.138 140.605 112.925 139.622 112.925 138.522C112.925 137.422 113.131 136.439 113.541 135.574C113.952 134.709 114.517 134.027 115.235 133.528C115.954 133.029 116.775 132.78 117.699 132.78C118.521 132.78 119.188 132.934 119.701 133.242C120.229 133.535 120.633 133.946 120.911 134.474C121.19 135.002 121.381 135.611 121.483 136.3C121.601 136.989 121.659 137.73 121.659 138.522C121.659 139.079 121.601 139.688 121.483 140.348C121.366 140.993 121.161 141.617 120.867 142.218C120.589 142.805 120.193 143.289 119.679 143.67C119.166 144.037 118.506 144.22 117.699 144.22ZM118.139 142.548C118.887 142.548 119.503 142.365 119.987 141.998C120.486 141.631 120.853 141.147 121.087 140.546C121.322 139.93 121.439 139.255 121.439 138.522C121.439 137.715 121.315 137.011 121.065 136.41C120.831 135.794 120.464 135.317 119.965 134.98C119.481 134.628 118.873 134.452 118.139 134.452C117.039 134.452 116.189 134.841 115.587 135.618C114.986 136.381 114.685 137.349 114.685 138.522C114.685 139.299 114.832 139.996 115.125 140.612C115.433 141.213 115.844 141.69 116.357 142.042C116.885 142.379 117.479 142.548 118.139 142.548ZM121.439 128.6H123.199V144H121.593C121.564 143.677 121.527 143.296 121.483 142.856C121.454 142.416 121.439 142.064 121.439 141.8V128.6ZM130.547 144.22C129.682 144.22 128.882 143.978 128.149 143.494C127.43 142.995 126.851 142.321 126.411 141.47C125.986 140.605 125.773 139.622 125.773 138.522C125.773 137.422 125.993 136.439 126.433 135.574C126.873 134.709 127.467 134.027 128.215 133.528C128.978 133.029 129.828 132.78 130.767 132.78C131.794 132.78 132.571 133.044 133.099 133.572C133.642 134.085 134.008 134.775 134.199 135.64C134.404 136.505 134.507 137.466 134.507 138.522C134.507 139.079 134.448 139.688 134.331 140.348C134.214 140.993 134.008 141.617 133.715 142.218C133.436 142.805 133.04 143.289 132.527 143.67C132.014 144.037 131.354 144.22 130.547 144.22ZM130.987 142.548C131.735 142.548 132.351 142.365 132.835 141.998C133.334 141.631 133.7 141.147 133.935 140.546C134.17 139.93 134.287 139.255 134.287 138.522C134.287 137.715 134.162 137.011 133.913 136.41C133.678 135.794 133.312 135.317 132.813 134.98C132.329 134.628 131.72 134.452 130.987 134.452C129.887 134.452 129.036 134.841 128.435 135.618C127.834 136.381 127.533 137.349 127.533 138.522C127.533 139.299 127.68 139.996 127.973 140.612C128.281 141.213 128.692 141.69 129.205 142.042C129.733 142.379 130.327 142.548 130.987 142.548ZM134.287 133H136.047V144H134.441C134.441 144 134.426 143.868 134.397 143.604C134.382 143.34 134.36 143.032 134.331 142.68C134.302 142.328 134.287 142.035 134.287 141.8V133ZM137.924 133H139.816L143.754 143.56L142.214 144L137.924 133ZM148.154 133L142.016 148.4H140.102L142.764 142.46L146.284 133H148.154ZM148.458 147.124L147.996 146.64C148.231 146.229 148.436 145.819 148.612 145.408C148.788 145.012 148.883 144.623 148.898 144.242L147.82 144V141.866H150.196V143.406C150.196 144.301 150.013 145.034 149.646 145.606C149.294 146.178 148.898 146.684 148.458 147.124ZM156.471 133H162.939V134.65H156.471V133ZM158.825 130.14H160.585V144H158.825V130.14ZM172.85 144V137.092C172.85 136.52 172.762 136.051 172.586 135.684C172.41 135.303 172.146 135.017 171.794 134.826C171.442 134.635 171.002 134.54 170.474 134.54C169.873 134.54 169.315 134.694 168.802 135.002C168.289 135.31 167.863 135.735 167.526 136.278C167.203 136.806 167.005 137.422 166.932 138.126L166.91 136.85C166.983 136.234 167.13 135.677 167.35 135.178C167.585 134.679 167.871 134.254 168.208 133.902C168.56 133.535 168.956 133.257 169.396 133.066C169.851 132.875 170.327 132.78 170.826 132.78C171.413 132.78 171.941 132.868 172.41 133.044C172.879 133.22 173.275 133.477 173.598 133.814C173.921 134.151 174.17 134.562 174.346 135.046C174.522 135.515 174.61 136.051 174.61 136.652V144H172.85ZM165.282 144V128.6H167.042V144H165.282ZM185.267 140.458H186.917C186.799 141.177 186.535 141.822 186.125 142.394C185.729 142.951 185.201 143.399 184.541 143.736C183.895 144.059 183.147 144.22 182.297 144.22C181.27 144.22 180.346 143.978 179.525 143.494C178.703 142.995 178.051 142.321 177.567 141.47C177.097 140.605 176.863 139.622 176.863 138.522C176.863 137.422 177.09 136.439 177.545 135.574C178.014 134.709 178.652 134.027 179.459 133.528C180.265 133.029 181.175 132.78 182.187 132.78C183.257 132.78 184.159 133.022 184.893 133.506C185.641 133.975 186.191 134.672 186.543 135.596C186.909 136.505 187.056 137.627 186.983 138.962H178.623C178.696 139.681 178.894 140.311 179.217 140.854C179.539 141.397 179.965 141.822 180.493 142.13C181.021 142.423 181.622 142.57 182.297 142.57C183.045 142.57 183.675 142.379 184.189 141.998C184.717 141.602 185.076 141.089 185.267 140.458ZM182.253 134.43C181.343 134.43 180.581 134.694 179.965 135.222C179.349 135.75 178.938 136.469 178.733 137.378H185.179C185.12 136.41 184.805 135.677 184.233 135.178C183.675 134.679 183.015 134.43 182.253 134.43ZM193.343 140.458H194.971C195.015 141.089 195.25 141.602 195.675 141.998C196.115 142.394 196.746 142.592 197.567 142.592C198.066 142.592 198.455 142.526 198.733 142.394C199.027 142.262 199.239 142.086 199.371 141.866C199.503 141.631 199.569 141.375 199.569 141.096C199.569 140.759 199.481 140.495 199.305 140.304C199.144 140.099 198.917 139.93 198.623 139.798C198.345 139.666 198.022 139.541 197.655 139.424C197.23 139.263 196.79 139.094 196.335 138.918C195.895 138.727 195.477 138.507 195.081 138.258C194.7 137.994 194.392 137.679 194.157 137.312C193.923 136.931 193.805 136.476 193.805 135.948C193.805 135.508 193.893 135.097 194.069 134.716C194.245 134.32 194.495 133.983 194.817 133.704C195.155 133.411 195.543 133.183 195.983 133.022C196.438 132.861 196.937 132.78 197.479 132.78C198.213 132.78 198.829 132.927 199.327 133.22C199.841 133.513 200.229 133.931 200.493 134.474C200.772 135.002 200.919 135.618 200.933 136.322H199.415C199.313 135.662 199.1 135.185 198.777 134.892C198.469 134.584 198.022 134.43 197.435 134.43C196.834 134.43 196.372 134.562 196.049 134.826C195.727 135.09 195.565 135.442 195.565 135.882C195.565 136.205 195.683 136.476 195.917 136.696C196.152 136.901 196.453 137.092 196.819 137.268C197.201 137.429 197.604 137.598 198.029 137.774C198.455 137.95 198.865 138.126 199.261 138.302C199.657 138.478 200.009 138.683 200.317 138.918C200.625 139.153 200.867 139.446 201.043 139.798C201.234 140.135 201.329 140.561 201.329 141.074C201.329 141.69 201.183 142.24 200.889 142.724C200.611 143.193 200.193 143.56 199.635 143.824C199.093 144.088 198.425 144.22 197.633 144.22C196.915 144.22 196.299 144.132 195.785 143.956C195.287 143.765 194.869 143.523 194.531 143.23C194.194 142.922 193.93 142.599 193.739 142.262C193.563 141.925 193.446 141.595 193.387 141.272C193.329 140.949 193.314 140.678 193.343 140.458ZM202.812 133H209.28V134.65H202.812V133ZM205.166 130.14H206.926V144H205.166V130.14ZM211.36 133H213.12V144H211.36V133ZM216.64 134.65C215.892 134.65 215.261 134.841 214.748 135.222C214.249 135.589 213.853 136.043 213.56 136.586C213.281 137.114 213.098 137.627 213.01 138.126L212.988 136.85C212.988 136.718 213.017 136.498 213.076 136.19C213.134 135.882 213.244 135.537 213.406 135.156C213.567 134.76 213.78 134.386 214.044 134.034C214.322 133.667 214.674 133.367 215.1 133.132C215.525 132.897 216.038 132.78 216.64 132.78V134.65ZM226.409 140.458H228.059C227.942 141.177 227.678 141.822 227.267 142.394C226.871 142.951 226.343 143.399 225.683 143.736C225.038 144.059 224.29 144.22 223.439 144.22C222.413 144.22 221.489 143.978 220.667 143.494C219.846 142.995 219.193 142.321 218.709 141.47C218.24 140.605 218.005 139.622 218.005 138.522C218.005 137.422 218.233 136.439 218.687 135.574C219.157 134.709 219.795 134.027 220.601 133.528C221.408 133.029 222.317 132.78 223.329 132.78C224.4 132.78 225.302 133.022 226.035 133.506C226.783 133.975 227.333 134.672 227.685 135.596C228.052 136.505 228.199 137.627 228.125 138.962H219.765C219.839 139.681 220.037 140.311 220.359 140.854C220.682 141.397 221.107 141.822 221.635 142.13C222.163 142.423 222.765 142.57 223.439 142.57C224.187 142.57 224.818 142.379 225.331 141.998C225.859 141.602 226.219 141.089 226.409 140.458ZM223.395 134.43C222.486 134.43 221.723 134.694 221.107 135.222C220.491 135.75 220.081 136.469 219.875 137.378H226.321C226.263 136.41 225.947 135.677 225.375 135.178C224.818 134.679 224.158 134.43 223.395 134.43ZM234.553 144.22C233.688 144.22 232.888 143.978 232.155 143.494C231.436 142.995 230.857 142.321 230.417 141.47C229.992 140.605 229.779 139.622 229.779 138.522C229.779 137.422 229.999 136.439 230.439 135.574C230.879 134.709 231.473 134.027 232.221 133.528C232.984 133.029 233.834 132.78 234.773 132.78C235.8 132.78 236.577 133.044 237.105 133.572C237.648 134.085 238.014 134.775 238.205 135.64C238.41 136.505 238.513 137.466 238.513 138.522C238.513 139.079 238.454 139.688 238.337 140.348C238.22 140.993 238.014 141.617 237.721 142.218C237.442 142.805 237.046 143.289 236.533 143.67C236.02 144.037 235.36 144.22 234.553 144.22ZM234.993 142.548C235.741 142.548 236.357 142.365 236.841 141.998C237.34 141.631 237.706 141.147 237.941 140.546C238.176 139.93 238.293 139.255 238.293 138.522C238.293 137.715 238.168 137.011 237.919 136.41C237.684 135.794 237.318 135.317 236.819 134.98C236.335 134.628 235.726 134.452 234.993 134.452C233.893 134.452 233.042 134.841 232.441 135.618C231.84 136.381 231.539 137.349 231.539 138.522C231.539 139.299 231.686 139.996 231.979 140.612C232.287 141.213 232.698 141.69 233.211 142.042C233.739 142.379 234.333 142.548 234.993 142.548ZM238.293 133H240.053V144H238.447C238.447 144 238.432 143.868 238.403 143.604C238.388 143.34 238.366 143.032 238.337 142.68C238.308 142.328 238.293 142.035 238.293 141.8V133ZM243.184 128.6H244.944V144H243.184V128.6ZM252.292 133L246.792 138.434L246.836 137.29L252.666 144H250.422L244.988 137.862L249.784 133H252.292ZM46.26 174.22C45.4533 174.22 44.7933 174.037 44.28 173.67C43.7667 173.289 43.3633 172.805 43.07 172.218C42.7913 171.617 42.5933 170.993 42.476 170.348C42.3587 169.688 42.3 169.079 42.3 168.522C42.3 167.73 42.3513 166.989 42.454 166.3C42.5713 165.611 42.7693 165.002 43.048 164.474C43.3267 163.946 43.7227 163.535 44.236 163.242C44.764 162.934 45.4387 162.78 46.26 162.78C47.184 162.78 48.0053 163.029 48.724 163.528C49.4427 164.027 50.0073 164.709 50.418 165.574C50.8287 166.439 51.034 167.422 51.034 168.522C51.034 169.622 50.8213 170.605 50.396 171.47C49.9707 172.321 49.3987 172.995 48.68 173.494C47.9613 173.978 47.1547 174.22 46.26 174.22ZM45.82 172.548C46.4947 172.548 47.0887 172.379 47.602 172.042C48.1153 171.69 48.5187 171.213 48.812 170.612C49.12 169.996 49.274 169.299 49.274 168.522C49.274 167.349 48.9733 166.381 48.372 165.618C47.7707 164.841 46.92 164.452 45.82 164.452C45.0867 164.452 44.4707 164.628 43.972 164.98C43.488 165.317 43.1213 165.794 42.872 166.41C42.6373 167.011 42.52 167.715 42.52 168.522C42.52 169.255 42.6373 169.93 42.872 170.546C43.1213 171.147 43.488 171.631 43.972 171.998C44.456 172.365 45.072 172.548 45.82 172.548ZM42.52 158.6V171.8C42.52 172.064 42.498 172.416 42.454 172.856C42.4247 173.296 42.3953 173.677 42.366 174H40.76V158.6H42.52ZM53.2777 163H55.0377V174H53.2777V163ZM58.5577 164.65C57.8097 164.65 57.179 164.841 56.6657 165.222C56.167 165.589 55.771 166.043 55.4777 166.586C55.199 167.114 55.0157 167.627 54.9277 168.126L54.9057 166.85C54.9057 166.718 54.935 166.498 54.9937 166.19C55.0523 165.882 55.1623 165.537 55.3237 165.156C55.485 164.76 55.6977 164.386 55.9617 164.034C56.2403 163.667 56.5923 163.367 57.0177 163.132C57.443 162.897 57.9563 162.78 58.5577 162.78V164.65ZM68.3274 170.458H69.9774C69.86 171.177 69.596 171.822 69.1854 172.394C68.7894 172.951 68.2614 173.399 67.6014 173.736C66.956 174.059 66.208 174.22 65.3574 174.22C64.3307 174.22 63.4067 173.978 62.5854 173.494C61.764 172.995 61.1114 172.321 60.6274 171.47C60.158 170.605 59.9234 169.622 59.9234 168.522C59.9234 167.422 60.1507 166.439 60.6054 165.574C61.0747 164.709 61.7127 164.027 62.5194 163.528C63.326 163.029 64.2354 162.78 65.2474 162.78C66.318 162.78 67.22 163.022 67.9534 163.506C68.7014 163.975 69.2514 164.672 69.6034 165.596C69.97 166.505 70.1167 167.627 70.0434 168.962H61.6834C61.7567 169.681 61.9547 170.311 62.2774 170.854C62.6 171.397 63.0254 171.822 63.5534 172.13C64.0814 172.423 64.6827 172.57 65.3574 172.57C66.1054 172.57 66.736 172.379 67.2494 171.998C67.7774 171.602 68.1367 171.089 68.3274 170.458ZM65.3134 164.43C64.404 164.43 63.6414 164.694 63.0254 165.222C62.4094 165.75 61.9987 166.469 61.7934 167.378H68.2394C68.1807 166.41 67.8654 165.677 67.2934 165.178C66.736 164.679 66.076 164.43 65.3134 164.43ZM76.4708 174.22C75.6055 174.22 74.8061 173.978 74.0728 173.494C73.3541 172.995 72.7748 172.321 72.3348 171.47C71.9095 170.605 71.6968 169.622 71.6968 168.522C71.6968 167.422 71.9168 166.439 72.3568 165.574C72.7968 164.709 73.3908 164.027 74.1388 163.528C74.9015 163.029 75.7521 162.78 76.6908 162.78C77.7175 162.78 78.4948 163.044 79.0228 163.572C79.5655 164.085 79.9321 164.775 80.1228 165.64C80.3281 166.505 80.4308 167.466 80.4308 168.522C80.4308 169.079 80.3721 169.688 80.2548 170.348C80.1375 170.993 79.9321 171.617 79.6388 172.218C79.3601 172.805 78.9641 173.289 78.4508 173.67C77.9375 174.037 77.2775 174.22 76.4708 174.22ZM76.9108 172.548C77.6588 172.548 78.2748 172.365 78.7588 171.998C79.2575 171.631 79.6241 171.147 79.8588 170.546C80.0935 169.93 80.2108 169.255 80.2108 168.522C80.2108 167.715 80.0861 167.011 79.8368 166.41C79.6021 165.794 79.2355 165.317 78.7368 164.98C78.2528 164.628 77.6441 164.452 76.9108 164.452C75.8108 164.452 74.9601 164.841 74.3588 165.618C73.7575 166.381 73.4568 167.349 73.4568 168.522C73.4568 169.299 73.6035 169.996 73.8968 170.612C74.2048 171.213 74.6155 171.69 75.1288 172.042C75.6568 172.379 76.2508 172.548 76.9108 172.548ZM80.2108 163H81.9708V174H80.3648C80.3648 174 80.3501 173.868 80.3208 173.604C80.3061 173.34 80.2841 173.032 80.2548 172.68C80.2255 172.328 80.2108 172.035 80.2108 171.8V163ZM85.1022 158.6H86.8622V174H85.1022V158.6ZM94.2102 163L88.7102 168.434L88.7542 167.29L94.5842 174H92.3402L86.9062 167.862L91.7022 163H94.2102ZM95.6969 170.458H97.3249C97.3689 171.089 97.6036 171.602 98.0289 171.998C98.4689 172.394 99.0996 172.592 99.9209 172.592C100.42 172.592 100.808 172.526 101.087 172.394C101.38 172.262 101.593 172.086 101.725 171.866C101.857 171.631 101.923 171.375 101.923 171.096C101.923 170.759 101.835 170.495 101.659 170.304C101.498 170.099 101.27 169.93 100.977 169.798C100.698 169.666 100.376 169.541 100.009 169.424C99.5836 169.263 99.1436 169.094 98.6889 168.918C98.2489 168.727 97.8309 168.507 97.4349 168.258C97.0536 167.994 96.7456 167.679 96.5109 167.312C96.2763 166.931 96.1589 166.476 96.1589 165.948C96.1589 165.508 96.2469 165.097 96.4229 164.716C96.5989 164.32 96.8483 163.983 97.1709 163.704C97.5083 163.411 97.8969 163.183 98.3369 163.022C98.7916 162.861 99.2903 162.78 99.8329 162.78C100.566 162.78 101.182 162.927 101.681 163.22C102.194 163.513 102.583 163.931 102.847 164.474C103.126 165.002 103.272 165.618 103.287 166.322H101.769C101.666 165.662 101.454 165.185 101.131 164.892C100.823 164.584 100.376 164.43 99.7889 164.43C99.1876 164.43 98.7256 164.562 98.4029 164.826C98.0803 165.09 97.9189 165.442 97.9189 165.882C97.9189 166.205 98.0363 166.476 98.2709 166.696C98.5056 166.901 98.8063 167.092 99.1729 167.268C99.5543 167.429 99.9576 167.598 100.383 167.774C100.808 167.95 101.219 168.126 101.615 168.302C102.011 168.478 102.363 168.683 102.671 168.918C102.979 169.153 103.221 169.446 103.397 169.798C103.588 170.135 103.683 170.561 103.683 171.074C103.683 171.69 103.536 172.24 103.243 172.724C102.964 173.193 102.546 173.56 101.989 173.824C101.446 174.088 100.779 174.22 99.9869 174.22C99.2683 174.22 98.6523 174.132 98.1389 173.956C97.6403 173.765 97.2223 173.523 96.8849 173.23C96.5476 172.922 96.2836 172.599 96.0929 172.262C95.9169 171.925 95.7996 171.595 95.7409 171.272C95.6823 170.949 95.6676 170.678 95.6969 170.458ZM108.224 171.844V174H105.936V171.844H108.224ZM115.073 169.358H116.657C116.701 169.974 116.885 170.524 117.207 171.008C117.53 171.492 117.97 171.873 118.527 172.152C119.099 172.431 119.767 172.57 120.529 172.57C121.189 172.57 121.739 172.475 122.179 172.284C122.634 172.079 122.971 171.8 123.191 171.448C123.426 171.096 123.543 170.685 123.543 170.216C123.543 169.732 123.426 169.343 123.191 169.05C122.957 168.757 122.619 168.507 122.179 168.302C121.739 168.097 121.219 167.899 120.617 167.708C120.045 167.532 119.466 167.327 118.879 167.092C118.293 166.857 117.743 166.571 117.229 166.234C116.731 165.897 116.327 165.493 116.019 165.024C115.711 164.54 115.557 163.961 115.557 163.286C115.557 162.626 115.733 162.01 116.085 161.438C116.452 160.851 116.98 160.382 117.669 160.03C118.373 159.663 119.217 159.48 120.199 159.48C121.739 159.48 122.891 159.898 123.653 160.734C124.416 161.57 124.783 162.677 124.753 164.056H123.169C123.14 163.015 122.847 162.267 122.289 161.812C121.732 161.357 121.006 161.13 120.111 161.13C119.363 161.13 118.711 161.306 118.153 161.658C117.596 161.995 117.317 162.531 117.317 163.264C117.317 163.587 117.376 163.873 117.493 164.122C117.625 164.357 117.831 164.577 118.109 164.782C118.403 164.987 118.791 165.193 119.275 165.398C119.774 165.589 120.383 165.801 121.101 166.036C121.571 166.183 122.047 166.359 122.531 166.564C123.03 166.769 123.485 167.026 123.895 167.334C124.321 167.642 124.658 168.038 124.907 168.522C125.171 168.991 125.303 169.585 125.303 170.304C125.303 170.993 125.135 171.639 124.797 172.24C124.475 172.827 123.961 173.303 123.257 173.67C122.568 174.037 121.673 174.22 120.573 174.22C119.635 174.22 118.828 174.095 118.153 173.846C117.493 173.582 116.951 173.245 116.525 172.834C116.1 172.423 115.77 171.998 115.535 171.558C115.315 171.103 115.169 170.678 115.095 170.282C115.022 169.886 115.015 169.578 115.073 169.358ZM135.446 174V167.092C135.446 166.52 135.358 166.051 135.182 165.684C135.006 165.303 134.742 165.017 134.39 164.826C134.038 164.635 133.598 164.54 133.07 164.54C132.468 164.54 131.911 164.694 131.398 165.002C130.884 165.31 130.459 165.735 130.122 166.278C129.799 166.806 129.601 167.422 129.528 168.126L129.506 166.85C129.579 166.234 129.726 165.677 129.946 165.178C130.18 164.679 130.466 164.254 130.804 163.902C131.156 163.535 131.552 163.257 131.992 163.066C132.446 162.875 132.923 162.78 133.422 162.78C134.008 162.78 134.536 162.868 135.006 163.044C135.475 163.22 135.871 163.477 136.194 163.814C136.516 164.151 136.766 164.562 136.942 165.046C137.118 165.515 137.206 166.051 137.206 166.652V174H135.446ZM127.878 174V158.6H129.638V174H127.878ZM144.849 174.22C143.91 174.22 143.03 173.993 142.209 173.538C141.387 173.083 140.72 172.431 140.207 171.58C139.708 170.715 139.459 169.695 139.459 168.522C139.459 167.349 139.708 166.337 140.207 165.486C140.72 164.621 141.387 163.953 142.209 163.484C143.03 163.015 143.91 162.78 144.849 162.78C145.787 162.78 146.66 163.015 147.467 163.484C148.288 163.953 148.948 164.621 149.447 165.486C149.945 166.337 150.195 167.349 150.195 168.522C150.195 169.695 149.945 170.715 149.447 171.58C148.948 172.431 148.288 173.083 147.467 173.538C146.66 173.993 145.787 174.22 144.849 174.22ZM144.849 172.57C145.465 172.57 146.044 172.416 146.587 172.108C147.129 171.8 147.569 171.345 147.907 170.744C148.259 170.128 148.435 169.387 148.435 168.522C148.435 167.657 148.259 166.923 147.907 166.322C147.569 165.706 147.129 165.237 146.587 164.914C146.044 164.591 145.465 164.43 144.849 164.43C144.233 164.43 143.646 164.591 143.089 164.914C142.546 165.222 142.099 165.684 141.747 166.3C141.395 166.901 141.219 167.642 141.219 168.522C141.219 169.387 141.387 170.128 141.725 170.744C142.077 171.345 142.531 171.8 143.089 172.108C143.646 172.416 144.233 172.57 144.849 172.57ZM163.15 172.394L162.71 172.372L165.284 163H167.198L163.832 174H162.182L158.926 164.364H159.366L156.11 174H154.46L151.116 163H153.03L155.56 172.372L155.12 172.394L158.09 163H160.224L163.15 172.394ZM183.026 174H181.266V163H183.026V174ZM181.376 168.874L181.398 169.49C181.383 169.666 181.339 169.937 181.266 170.304C181.207 170.671 181.097 171.081 180.936 171.536C180.789 171.976 180.569 172.401 180.276 172.812C179.997 173.223 179.63 173.56 179.176 173.824C178.736 174.088 178.186 174.22 177.526 174.22C177.1 174.22 176.66 174.154 176.206 174.022C175.766 173.905 175.355 173.707 174.974 173.428C174.592 173.135 174.284 172.731 174.05 172.218C173.815 171.705 173.698 171.067 173.698 170.304V163H175.458V169.864C175.458 170.524 175.56 171.045 175.766 171.426C175.986 171.793 176.279 172.057 176.646 172.218C177.012 172.379 177.423 172.46 177.878 172.46C178.626 172.46 179.249 172.269 179.748 171.888C180.246 171.507 180.628 171.037 180.892 170.48C181.156 169.923 181.317 169.387 181.376 168.874ZM191.379 174.22C190.573 174.22 189.913 174.037 189.399 173.67C188.886 173.289 188.483 172.805 188.189 172.218C187.911 171.617 187.713 170.993 187.595 170.348C187.478 169.688 187.419 169.079 187.419 168.522C187.419 167.73 187.471 166.989 187.573 166.3C187.691 165.611 187.889 165.002 188.167 164.474C188.446 163.946 188.842 163.535 189.355 163.242C189.883 162.934 190.558 162.78 191.379 162.78C192.259 162.78 193.059 163.029 193.777 163.528C194.496 164.027 195.068 164.709 195.493 165.574C195.933 166.439 196.153 167.422 196.153 168.522C196.153 169.622 195.933 170.605 195.493 171.47C195.053 172.321 194.467 172.995 193.733 173.494C193.015 173.978 192.23 174.22 191.379 174.22ZM190.939 172.548C191.614 172.548 192.208 172.379 192.721 172.042C193.249 171.69 193.66 171.213 193.953 170.612C194.247 169.996 194.393 169.299 194.393 168.522C194.393 167.349 194.093 166.381 193.491 165.618C192.89 164.841 192.039 164.452 190.939 164.452C190.294 164.452 189.722 164.628 189.223 164.98C188.725 165.317 188.336 165.794 188.057 166.41C187.779 167.011 187.639 167.715 187.639 168.522C187.639 169.255 187.757 169.93 187.991 170.546C188.241 171.147 188.607 171.631 189.091 171.998C189.575 172.365 190.191 172.548 190.939 172.548ZM185.879 163H187.573L187.639 165.31V178.4H185.879V163ZM207.182 174.22C206.302 174.22 205.495 173.978 204.762 173.494C204.043 172.995 203.471 172.321 203.046 171.47C202.62 170.605 202.408 169.622 202.408 168.522C202.408 167.422 202.613 166.439 203.024 165.574C203.434 164.709 203.999 164.027 204.718 163.528C205.436 163.029 206.258 162.78 207.182 162.78C208.003 162.78 208.67 162.934 209.184 163.242C209.712 163.535 210.115 163.946 210.394 164.474C210.672 165.002 210.863 165.611 210.966 166.3C211.083 166.989 211.142 167.73 211.142 168.522C211.142 169.079 211.083 169.688 210.966 170.348C210.848 170.993 210.643 171.617 210.35 172.218C210.071 172.805 209.675 173.289 209.162 173.67C208.648 174.037 207.988 174.22 207.182 174.22ZM207.622 172.548C208.37 172.548 208.986 172.365 209.47 171.998C209.968 171.631 210.335 171.147 210.57 170.546C210.804 169.93 210.922 169.255 210.922 168.522C210.922 167.715 210.797 167.011 210.548 166.41C210.313 165.794 209.946 165.317 209.448 164.98C208.964 164.628 208.355 164.452 207.622 164.452C206.522 164.452 205.671 164.841 205.07 165.618C204.468 166.381 204.168 167.349 204.168 168.522C204.168 169.299 204.314 169.996 204.608 170.612C204.916 171.213 205.326 171.69 205.84 172.042C206.368 172.379 206.962 172.548 207.622 172.548ZM210.922 158.6H212.682V174H211.076C211.046 173.677 211.01 173.296 210.966 172.856C210.936 172.416 210.922 172.064 210.922 171.8V158.6ZM220.029 174.22C219.164 174.22 218.365 173.978 217.631 173.494C216.913 172.995 216.333 172.321 215.893 171.47C215.468 170.605 215.255 169.622 215.255 168.522C215.255 167.422 215.475 166.439 215.915 165.574C216.355 164.709 216.949 164.027 217.697 163.528C218.46 163.029 219.311 162.78 220.249 162.78C221.276 162.78 222.053 163.044 222.581 163.572C223.124 164.085 223.491 164.775 223.681 165.64C223.887 166.505 223.989 167.466 223.989 168.522C223.989 169.079 223.931 169.688 223.813 170.348C223.696 170.993 223.491 171.617 223.197 172.218C222.919 172.805 222.523 173.289 222.009 173.67C221.496 174.037 220.836 174.22 220.029 174.22ZM220.469 172.548C221.217 172.548 221.833 172.365 222.317 171.998C222.816 171.631 223.183 171.147 223.417 170.546C223.652 169.93 223.769 169.255 223.769 168.522C223.769 167.715 223.645 167.011 223.395 166.41C223.161 165.794 222.794 165.317 222.295 164.98C221.811 164.628 221.203 164.452 220.469 164.452C219.369 164.452 218.519 164.841 217.917 165.618C217.316 166.381 217.015 167.349 217.015 168.522C217.015 169.299 217.162 169.996 217.455 170.612C217.763 171.213 218.174 171.69 218.687 172.042C219.215 172.379 219.809 172.548 220.469 172.548ZM223.769 163H225.529V174H223.923C223.923 174 223.909 173.868 223.879 173.604C223.865 173.34 223.843 173.032 223.813 172.68C223.784 172.328 223.769 172.035 223.769 171.8V163ZM230.575 158.6V160.734H228.287V158.6H230.575ZM228.551 163H230.311V174H228.551V163ZM233.537 158.6H235.297V174H233.537V158.6ZM237.397 163H239.289L243.227 173.56L241.687 174L237.397 163ZM247.627 163L241.489 178.4H239.575L242.237 172.46L245.757 163H247.627ZM45.204 204.22C44.2653 204.22 43.3853 203.993 42.564 203.538C41.7427 203.083 41.0753 202.431 40.562 201.58C40.0633 200.715 39.814 199.695 39.814 198.522C39.814 197.349 40.0633 196.337 40.562 195.486C41.0753 194.621 41.7427 193.953 42.564 193.484C43.3853 193.015 44.2653 192.78 45.204 192.78C46.1427 192.78 47.0153 193.015 47.822 193.484C48.6433 193.953 49.3033 194.621 49.802 195.486C50.3007 196.337 50.55 197.349 50.55 198.522C50.55 199.695 50.3007 200.715 49.802 201.58C49.3033 202.431 48.6433 203.083 47.822 203.538C47.0153 203.993 46.1427 204.22 45.204 204.22ZM45.204 202.57C45.82 202.57 46.3993 202.416 46.942 202.108C47.4847 201.8 47.9247 201.345 48.262 200.744C48.614 200.128 48.79 199.387 48.79 198.522C48.79 197.657 48.614 196.923 48.262 196.322C47.9247 195.706 47.4847 195.237 46.942 194.914C46.3993 194.591 45.82 194.43 45.204 194.43C44.588 194.43 44.0013 194.591 43.444 194.914C42.9013 195.222 42.454 195.684 42.102 196.3C41.75 196.901 41.574 197.642 41.574 198.522C41.574 199.387 41.7427 200.128 42.08 200.744C42.432 201.345 42.8867 201.8 43.444 202.108C44.0013 202.416 44.588 202.57 45.204 202.57ZM52.7835 193H54.5435V204H52.7835V193ZM58.0635 194.65C57.3155 194.65 56.6848 194.841 56.1715 195.222C55.6728 195.589 55.2768 196.043 54.9835 196.586C54.7048 197.114 54.5215 197.627 54.4335 198.126L54.4115 196.85C54.4115 196.718 54.4408 196.498 54.4995 196.19C54.5582 195.882 54.6682 195.537 54.8295 195.156C54.9908 194.76 55.2035 194.386 55.4675 194.034C55.7462 193.667 56.0982 193.367 56.5235 193.132C56.9488 192.897 57.4622 192.78 58.0635 192.78V194.65ZM63.8944 193H70.3624V194.65H63.8944V193ZM69.5924 188.6H70.6044V190.36H69.5924C69.2257 190.345 68.8884 190.397 68.5804 190.514C68.287 190.631 68.0524 190.837 67.8764 191.13C67.7004 191.409 67.6124 191.812 67.6124 192.34V204H65.8524V192.34C65.8524 191.46 66.0064 190.749 66.3144 190.206C66.637 189.649 67.077 189.245 67.6344 188.996C68.2064 188.732 68.859 188.6 69.5924 188.6ZM76.2345 204.22C75.3692 204.22 74.5698 203.978 73.8365 203.494C73.1178 202.995 72.5385 202.321 72.0985 201.47C71.6732 200.605 71.4605 199.622 71.4605 198.522C71.4605 197.422 71.6805 196.439 72.1205 195.574C72.5605 194.709 73.1545 194.027 73.9025 193.528C74.6652 193.029 75.5158 192.78 76.4545 192.78C77.4812 192.78 78.2585 193.044 78.7865 193.572C79.3292 194.085 79.6958 194.775 79.8865 195.64C80.0918 196.505 80.1945 197.466 80.1945 198.522C80.1945 199.079 80.1358 199.688 80.0185 200.348C79.9012 200.993 79.6958 201.617 79.4025 202.218C79.1238 202.805 78.7278 203.289 78.2145 203.67C77.7012 204.037 77.0412 204.22 76.2345 204.22ZM76.6745 202.548C77.4225 202.548 78.0385 202.365 78.5225 201.998C79.0212 201.631 79.3878 201.147 79.6225 200.546C79.8572 199.93 79.9745 199.255 79.9745 198.522C79.9745 197.715 79.8498 197.011 79.6005 196.41C79.3658 195.794 78.9992 195.317 78.5005 194.98C78.0165 194.628 77.4078 194.452 76.6745 194.452C75.5745 194.452 74.7238 194.841 74.1225 195.618C73.5212 196.381 73.2205 197.349 73.2205 198.522C73.2205 199.299 73.3672 199.996 73.6605 200.612C73.9685 201.213 74.3792 201.69 74.8925 202.042C75.4205 202.379 76.0145 202.548 76.6745 202.548ZM79.9745 193H81.7345V204H80.1285C80.1285 204 80.1138 203.868 80.0845 203.604C80.0698 203.34 80.0478 203.032 80.0185 202.68C79.9892 202.328 79.9745 202.035 79.9745 201.8V193ZM84.8219 188.6H86.5819V204H84.8219V188.6ZM89.8922 188.6H91.6522V204H89.8922V188.6ZM105.192 204.22C104.385 204.22 103.725 204.037 103.212 203.67C102.698 203.289 102.295 202.805 102.002 202.218C101.723 201.617 101.525 200.993 101.408 200.348C101.29 199.688 101.232 199.079 101.232 198.522C101.232 197.73 101.283 196.989 101.386 196.3C101.503 195.611 101.701 195.002 101.98 194.474C102.258 193.946 102.654 193.535 103.168 193.242C103.696 192.934 104.37 192.78 105.192 192.78C106.116 192.78 106.937 193.029 107.656 193.528C108.374 194.027 108.939 194.709 109.35 195.574C109.76 196.439 109.966 197.422 109.966 198.522C109.966 199.622 109.753 200.605 109.328 201.47C108.902 202.321 108.33 202.995 107.612 203.494C106.893 203.978 106.086 204.22 105.192 204.22ZM104.752 202.548C105.426 202.548 106.02 202.379 106.534 202.042C107.047 201.69 107.45 201.213 107.744 200.612C108.052 199.996 108.206 199.299 108.206 198.522C108.206 197.349 107.905 196.381 107.304 195.618C106.702 194.841 105.852 194.452 104.752 194.452C104.018 194.452 103.402 194.628 102.904 194.98C102.42 195.317 102.053 195.794 101.804 196.41C101.569 197.011 101.452 197.715 101.452 198.522C101.452 199.255 101.569 199.93 101.804 200.546C102.053 201.147 102.42 201.631 102.904 201.998C103.388 202.365 104.004 202.548 104.752 202.548ZM101.452 188.6V201.8C101.452 202.064 101.43 202.416 101.386 202.856C101.356 203.296 101.327 203.677 101.298 204H99.6916V188.6H101.452ZM119.997 200.458H121.647C121.53 201.177 121.266 201.822 120.855 202.394C120.459 202.951 119.931 203.399 119.271 203.736C118.626 204.059 117.878 204.22 117.027 204.22C116.001 204.22 115.077 203.978 114.255 203.494C113.434 202.995 112.781 202.321 112.297 201.47C111.828 200.605 111.593 199.622 111.593 198.522C111.593 197.422 111.821 196.439 112.275 195.574C112.745 194.709 113.383 194.027 114.189 193.528C114.996 193.029 115.905 192.78 116.917 192.78C117.988 192.78 118.89 193.022 119.623 193.506C120.371 193.975 120.921 194.672 121.273 195.596C121.64 196.505 121.787 197.627 121.713 198.962H113.353C113.427 199.681 113.625 200.311 113.947 200.854C114.27 201.397 114.695 201.822 115.223 202.13C115.751 202.423 116.353 202.57 117.027 202.57C117.775 202.57 118.406 202.379 118.919 201.998C119.447 201.602 119.807 201.089 119.997 200.458ZM116.983 194.43C116.074 194.43 115.311 194.694 114.695 195.222C114.079 195.75 113.669 196.469 113.463 197.378H119.909C119.851 196.41 119.535 195.677 118.963 195.178C118.406 194.679 117.746 194.43 116.983 194.43ZM131.815 204V197.092C131.815 196.52 131.727 196.051 131.551 195.684C131.375 195.303 131.111 195.017 130.759 194.826C130.407 194.635 129.967 194.54 129.439 194.54C128.837 194.54 128.28 194.694 127.767 195.002C127.253 195.31 126.828 195.735 126.491 196.278C126.168 196.806 125.97 197.422 125.897 198.126L125.875 196.85C125.948 196.234 126.095 195.677 126.315 195.178C126.549 194.679 126.835 194.254 127.173 193.902C127.525 193.535 127.921 193.257 128.361 193.066C128.815 192.875 129.292 192.78 129.791 192.78C130.377 192.78 130.905 192.868 131.375 193.044C131.844 193.22 132.24 193.477 132.563 193.814C132.885 194.151 133.135 194.562 133.311 195.046C133.487 195.515 133.575 196.051 133.575 196.652V204H131.815ZM124.247 204V188.6H126.007V204H124.247ZM138.622 188.6V190.734H136.334V188.6H138.622ZM136.598 193H138.358V204H136.598V193ZM141.364 193H143.124V204H141.364V193ZM146.908 192.78C147.494 192.78 148.022 192.868 148.492 193.044C148.961 193.22 149.357 193.477 149.68 193.814C150.002 194.151 150.252 194.562 150.428 195.046C150.604 195.515 150.692 196.051 150.692 196.652V204H148.932V197.092C148.932 196.241 148.734 195.603 148.338 195.178C147.942 194.753 147.348 194.54 146.556 194.54C145.954 194.54 145.397 194.694 144.884 195.002C144.37 195.31 143.945 195.735 143.608 196.278C143.285 196.806 143.087 197.422 143.014 198.126L142.992 196.85C143.065 196.234 143.212 195.677 143.432 195.178C143.666 194.679 143.952 194.254 144.29 193.902C144.642 193.535 145.038 193.257 145.478 193.066C145.932 192.875 146.409 192.78 146.908 192.78ZM157.703 204.22C156.823 204.22 156.017 203.978 155.283 203.494C154.565 202.995 153.993 202.321 153.567 201.47C153.142 200.605 152.929 199.622 152.929 198.522C152.929 197.422 153.135 196.439 153.545 195.574C153.956 194.709 154.521 194.027 155.239 193.528C155.958 193.029 156.779 192.78 157.703 192.78C158.525 192.78 159.192 192.934 159.705 193.242C160.233 193.535 160.637 193.946 160.915 194.474C161.194 195.002 161.385 195.611 161.487 196.3C161.605 196.989 161.663 197.73 161.663 198.522C161.663 199.079 161.605 199.688 161.487 200.348C161.37 200.993 161.165 201.617 160.871 202.218C160.593 202.805 160.197 203.289 159.683 203.67C159.17 204.037 158.51 204.22 157.703 204.22ZM158.143 202.548C158.891 202.548 159.507 202.365 159.991 201.998C160.49 201.631 160.857 201.147 161.091 200.546C161.326 199.93 161.443 199.255 161.443 198.522C161.443 197.715 161.319 197.011 161.069 196.41C160.835 195.794 160.468 195.317 159.969 194.98C159.485 194.628 158.877 194.452 158.143 194.452C157.043 194.452 156.193 194.841 155.591 195.618C154.99 196.381 154.689 197.349 154.689 198.522C154.689 199.299 154.836 199.996 155.129 200.612C155.437 201.213 155.848 201.69 156.361 202.042C156.889 202.379 157.483 202.548 158.143 202.548ZM161.443 188.6H163.203V204H161.597C161.568 203.677 161.531 203.296 161.487 202.856C161.458 202.416 161.443 202.064 161.443 201.8V188.6ZM168.681 201.844V204H166.393V201.844H168.681ZM170.866 194.958L170.404 194.474C170.639 194.063 170.844 193.66 171.02 193.264C171.196 192.853 171.292 192.457 171.306 192.076L170.228 191.834V189.7H172.604V191.24C172.604 192.135 172.421 192.868 172.054 193.44C171.702 194.012 171.306 194.518 170.866 194.958ZM174.166 194.958L173.704 194.474C173.939 194.063 174.144 193.66 174.32 193.264C174.496 192.853 174.592 192.457 174.606 192.076L173.528 191.834V189.7H175.904V191.24C175.904 192.135 175.721 192.868 175.354 193.44C175.002 194.012 174.606 194.518 174.166 194.958Z" fill="white"/>
<path d="M247.68 57.64H250.38C250.433 58.0933 250.64 58.5067 251 58.88C251.373 59.24 251.86 59.5267 252.46 59.74C253.06 59.94 253.733 60.04 254.48 60.04C255.16 60.04 255.72 59.9667 256.16 59.82C256.6 59.6733 256.927 59.4667 257.14 59.2C257.353 58.9333 257.46 58.6133 257.46 58.24C257.46 57.88 257.327 57.6067 257.06 57.42C256.793 57.22 256.373 57.06 255.8 56.94C255.227 56.8067 254.473 56.6733 253.54 56.54C252.807 56.4333 252.113 56.2867 251.46 56.1C250.807 55.9 250.227 55.6467 249.72 55.34C249.227 55.0333 248.833 54.66 248.54 54.22C248.26 53.7667 248.12 53.2333 248.12 52.62C248.12 51.86 248.333 51.1933 248.76 50.62C249.2 50.0467 249.847 49.6 250.7 49.28C251.553 48.96 252.6 48.8 253.84 48.8C255.707 48.8 257.14 49.2 258.14 50C259.153 50.7867 259.647 51.8733 259.62 53.26H257.02C256.967 52.4733 256.633 51.9067 256.02 51.56C255.42 51.2133 254.66 51.04 253.74 51.04C252.887 51.04 252.18 51.1667 251.62 51.42C251.073 51.6733 250.8 52.1067 250.8 52.72C250.8 52.96 250.867 53.1733 251 53.36C251.133 53.5333 251.36 53.6867 251.68 53.82C252 53.9533 252.433 54.08 252.98 54.2C253.527 54.32 254.207 54.44 255.02 54.56C255.78 54.6667 256.467 54.8133 257.08 55C257.707 55.1733 258.24 55.4067 258.68 55.7C259.133 55.98 259.48 56.34 259.72 56.78C259.96 57.22 260.08 57.76 260.08 58.4C260.08 59.1867 259.873 59.8733 259.46 60.46C259.06 61.0333 258.433 61.48 257.58 61.8C256.74 62.12 255.647 62.28 254.3 62.28C253.34 62.28 252.493 62.18 251.76 61.98C251.027 61.7667 250.393 61.4867 249.86 61.14C249.327 60.7933 248.893 60.4133 248.56 60C248.227 59.5867 247.987 59.1733 247.84 58.76C247.707 58.3467 247.653 57.9733 247.68 57.64ZM261.287 49.06H274.927V51.28H261.287V49.06ZM266.787 51H269.447V62H266.787V51ZM276.86 62V49.06H285.64C286.64 49.06 287.507 49.2 288.24 49.48C288.987 49.7467 289.567 50.1733 289.98 50.76C290.394 51.3333 290.6 52.0733 290.6 52.98C290.6 53.5933 290.494 54.1133 290.28 54.54C290.067 54.9667 289.767 55.3133 289.38 55.58C289.007 55.8467 288.574 56.0533 288.08 56.2C287.587 56.3333 287.06 56.42 286.5 56.46L286.22 56.3C287.154 56.3133 287.92 56.3933 288.52 56.54C289.12 56.6733 289.567 56.9267 289.86 57.3C290.167 57.66 290.32 58.2 290.32 58.92V62H287.66V59.1C287.66 58.6067 287.574 58.2267 287.4 57.96C287.227 57.68 286.914 57.4867 286.46 57.38C286.02 57.2733 285.38 57.22 284.54 57.22H279.52V62H276.86ZM279.52 55.14H285.64C286.387 55.14 286.954 54.96 287.34 54.6C287.74 54.24 287.94 53.7533 287.94 53.14C287.94 52.5533 287.74 52.1067 287.34 51.8C286.954 51.4933 286.387 51.34 285.64 51.34H279.52V55.14ZM296.044 56.6V59.78H306.024V62H293.384V49.06H306.004V51.28H296.044V54.5H304.204V56.6H296.044ZM310.775 59.18V56.96H319.335V59.18H310.775ZM307.555 62L313.635 49.06H316.515L322.655 62H319.755L314.435 50.34H315.715L310.435 62H307.555ZM330.076 55.7L330.056 54.58L338.776 62H334.936L327.176 55.2L334.076 49.06H337.856L330.076 55.7ZM324.536 49.06H327.196V62H324.536V49.06ZM339.323 55.6H346.003V57.56H339.323V55.6ZM356.545 49.06C357.999 49.06 359.212 49.2333 360.185 49.58C361.159 49.9267 361.932 50.4 362.505 51C363.092 51.5867 363.505 52.2667 363.745 53.04C363.999 53.8133 364.125 54.6267 364.125 55.48C364.125 56.3333 363.985 57.1533 363.705 57.94C363.439 58.7267 363.005 59.4267 362.405 60.04C361.819 60.64 361.039 61.12 360.065 61.48C359.105 61.8267 357.932 62 356.545 62H349.145V49.06H356.545ZM351.805 59.72H356.485C357.445 59.72 358.239 59.6067 358.865 59.38C359.505 59.14 360.012 58.82 360.385 58.42C360.759 58.02 361.025 57.5667 361.185 57.06C361.345 56.5533 361.425 56.0267 361.425 55.48C361.425 54.9333 361.345 54.4133 361.185 53.92C361.025 53.4267 360.759 52.9867 360.385 52.6C360.012 52.2133 359.505 51.9067 358.865 51.68C358.239 51.4533 357.445 51.34 356.485 51.34H351.805V59.72ZM366.724 62V49.06H375.504C376.504 49.06 377.37 49.2 378.104 49.48C378.85 49.7467 379.43 50.1733 379.844 50.76C380.257 51.3333 380.464 52.0733 380.464 52.98C380.464 53.5933 380.357 54.1133 380.144 54.54C379.93 54.9667 379.63 55.3133 379.244 55.58C378.87 55.8467 378.437 56.0533 377.944 56.2C377.45 56.3333 376.924 56.42 376.364 56.46L376.084 56.3C377.017 56.3133 377.784 56.3933 378.384 56.54C378.984 56.6733 379.43 56.9267 379.724 57.3C380.03 57.66 380.184 58.2 380.184 58.92V62H377.524V59.1C377.524 58.6067 377.437 58.2267 377.264 57.96C377.09 57.68 376.777 57.4867 376.324 57.38C375.884 57.2733 375.244 57.22 374.404 57.22H369.384V62H366.724ZM369.384 55.14H375.504C376.25 55.14 376.817 54.96 377.204 54.6C377.604 54.24 377.804 53.7533 377.804 53.14C377.804 52.5533 377.604 52.1067 377.204 51.8C376.817 51.4933 376.25 51.34 375.504 51.34H369.384V55.14ZM383.627 49.06H386.287V62H383.627V49.06ZM394.311 62L388.591 49.06H391.531L396.431 60.74H395.511L400.391 49.06H403.291L397.631 62H394.311ZM407.899 56.6V59.78H417.879V62H405.239V49.06H417.859V51.28H407.899V54.5H416.059V56.6H407.899ZM433.73 59.36L432.89 59.7V49.06H435.55V62H432.89L422.43 51.78L423.27 51.44V62H420.61V49.06H423.27L433.73 59.36ZM450.902 62.26C449.702 62.26 448.615 62.12 447.642 61.84C446.682 61.56 445.849 61.14 445.142 60.58C444.449 60.02 443.915 59.3267 443.542 58.5C443.169 57.6733 442.982 56.72 442.982 55.64C442.982 54.5467 443.175 53.58 443.562 52.74C443.962 51.8867 444.522 51.1667 445.242 50.58C445.975 49.9933 446.842 49.5533 447.842 49.26C448.855 48.9533 449.975 48.8 451.202 48.8C452.655 48.8 453.909 49.0067 454.962 49.42C456.015 49.82 456.842 50.3867 457.442 51.12C458.055 51.8533 458.402 52.7267 458.482 53.74H455.922C455.749 53.2067 455.462 52.7467 455.062 52.36C454.675 51.96 454.162 51.6533 453.522 51.44C452.882 51.2133 452.109 51.1 451.202 51.1C450.042 51.1 449.049 51.2867 448.222 51.66C447.409 52.0333 446.789 52.56 446.362 53.24C445.935 53.92 445.722 54.72 445.722 55.64C445.722 56.5333 445.909 57.3067 446.282 57.96C446.655 58.6 447.229 59.0933 448.002 59.44C448.789 59.7867 449.789 59.96 451.002 59.96C451.935 59.96 452.755 59.84 453.462 59.6C454.182 59.3467 454.782 59.0133 455.262 58.6C455.742 58.1733 456.082 57.7 456.282 57.18L457.322 56.8C457.149 58.52 456.495 59.86 455.362 60.82C454.242 61.78 452.755 62.26 450.902 62.26ZM456.642 62C456.642 61.5867 456.669 61.1133 456.722 60.58C456.775 60.0333 456.842 59.4867 456.922 58.94C457.002 58.38 457.075 57.8667 457.142 57.4H451.222V55.7H458.942V62H456.642ZM461.743 62V49.06H470.523C471.523 49.06 472.39 49.2 473.123 49.48C473.87 49.7467 474.45 50.1733 474.863 50.76C475.276 51.3333 475.483 52.0733 475.483 52.98C475.483 53.5933 475.376 54.1133 475.163 54.54C474.95 54.9667 474.65 55.3133 474.263 55.58C473.89 55.8467 473.456 56.0533 472.963 56.2C472.47 56.3333 471.943 56.42 471.383 56.46L471.103 56.3C472.036 56.3133 472.803 56.3933 473.403 56.54C474.003 56.6733 474.45 56.9267 474.743 57.3C475.05 57.66 475.203 58.2 475.203 58.92V62H472.543V59.1C472.543 58.6067 472.456 58.2267 472.283 57.96C472.11 57.68 471.796 57.4867 471.343 57.38C470.903 57.2733 470.263 57.22 469.423 57.22H464.403V62H461.743ZM464.403 55.14H470.523C471.27 55.14 471.836 54.96 472.223 54.6C472.623 54.24 472.823 53.7533 472.823 53.14C472.823 52.5533 472.623 52.1067 472.223 51.8C471.836 51.4933 471.27 51.34 470.523 51.34H464.403V55.14ZM485.967 62.26C484.247 62.26 482.773 61.9933 481.547 61.46C480.333 60.9133 479.4 60.14 478.747 59.14C478.107 58.14 477.787 56.94 477.787 55.54C477.787 54.1267 478.107 52.92 478.747 51.92C479.4 50.92 480.333 50.1533 481.547 49.62C482.773 49.0733 484.247 48.8 485.967 48.8C487.7 48.8 489.173 49.0733 490.387 49.62C491.6 50.1533 492.527 50.92 493.167 51.92C493.82 52.92 494.147 54.1267 494.147 55.54C494.147 56.94 493.82 58.14 493.167 59.14C492.527 60.14 491.6 60.9133 490.387 61.46C489.173 61.9933 487.7 62.26 485.967 62.26ZM485.967 59.96C487.033 59.96 487.967 59.8 488.767 59.48C489.58 59.16 490.213 58.6733 490.667 58.02C491.133 57.3667 491.367 56.54 491.367 55.54C491.367 54.54 491.133 53.7133 490.667 53.06C490.213 52.4067 489.58 51.92 488.767 51.6C487.967 51.2667 487.033 51.1 485.967 51.1C484.913 51.1 483.973 51.2667 483.147 51.6C482.32 51.92 481.673 52.4067 481.207 53.06C480.74 53.7133 480.507 54.54 480.507 55.54C480.507 56.54 480.74 57.3667 481.207 58.02C481.673 58.6733 482.32 59.16 483.147 59.48C483.973 59.8 484.913 59.96 485.967 59.96ZM500.282 62L494.822 49.06H497.762L502.382 60.52L501.522 60.54L505.922 49.06H508.982L513.382 60.54L512.522 60.52L517.142 49.06H520.022L514.622 62H511.362L507.042 50.78H507.882L503.542 62H500.282ZM520.818 49.06H534.458V51.28H520.818V49.06ZM526.318 51H528.978V62H526.318V51ZM538.732 54.4H548.992V56.62H538.732V54.4ZM548.552 49.06H551.212V62H548.552V49.06ZM536.392 49.06H539.052V62H536.392V49.06Z" fill="white"/>
<defs>
<linearGradient id="paint0_linear_1397_525" x1="423" y1="122" x2="412.1" y2="305.828" gradientUnits="userSpaceOnUse">
<stop stop-color="#8ACADE"/>
<stop offset="0.836538" stop-color="#8ACADE" stop-opacity="0.1"/>
</linearGradient>
<clipPath id="clip0_1397_525">
<rect width="610" height="289" fill="white"/>
</clipPath>
</defs>
</svg>
