<svg width="610" height="289" viewBox="0 0 610 289" fill="none" xmlns="http://www.w3.org/2000/svg">
<g clip-path="url(#clip0_1397_523)">
<rect width="610" height="289" rx="50" fill="#1C1A1A"/>
<path d="M90.5 303C77.7 303 65.7 299.9 54.5 293.7C43.3 287.5 34.2 278.6 27.2 267C20.4 255.2 17 241.3 17 225.3C17 209.3 20.4 195.5 27.2 183.9C34.2 172.1 43.3 163 54.5 156.6C65.7 150.2 77.7 147 90.5 147C103.3 147 115.2 150.2 126.2 156.6C137.4 163 146.4 172.1 153.2 183.9C160 195.5 163.4 209.3 163.4 225.3C163.4 241.3 160 255.2 153.2 267C146.4 278.6 137.4 287.5 126.2 293.7C115.2 299.9 103.3 303 90.5 303ZM90.5 279.9C98.7 279.9 106.5 277.8 113.9 273.6C121.3 269.4 127.4 263.2 132.2 255C137 246.8 139.4 236.9 139.4 225.3C139.4 213.7 137 203.8 132.2 195.6C127.6 187.4 121.5 181.1 113.9 176.7C106.5 172.3 98.7 170.1 90.5 170.1C82.3 170.1 74.4 172.3 66.8 176.7C59.2 180.9 53 187.1 48.2 195.3C43.4 203.5 41 213.5 41 225.3C41 236.9 43.4 246.8 48.2 255C53 263.2 59.2 269.4 66.8 273.6C74.4 277.8 82.3 279.9 90.5 279.9ZM185.867 172.5V150H244.967V300H220.967V172.5H185.867Z" fill="url(#paint0_linear_1397_523)"/>
<path d="M352.706 127.622L353.19 128.106C352.955 128.517 352.75 128.927 352.574 129.338C352.398 129.734 352.295 130.123 352.266 130.504L353.366 130.746V132.88H350.99V131.34C350.99 130.431 351.166 129.697 351.518 129.14C351.885 128.568 352.281 128.062 352.706 127.622ZM356.006 127.622L356.49 128.106C356.255 128.517 356.05 128.927 355.874 129.338C355.698 129.734 355.595 130.123 355.566 130.504L356.666 130.746V132.88H354.29V131.34C354.29 130.431 354.466 129.697 354.818 129.14C355.185 128.568 355.581 128.062 356.006 127.622ZM363.902 143L358.754 128.7H360.646L365.068 141.108H364.54L368.786 128.7H370.678L374.924 141.108H374.396L378.818 128.7H380.666L375.562 143H373.714L369.49 130.152H369.974L365.75 143H363.902ZM384.717 127.6V129.734H382.429V127.6H384.717ZM382.693 132H384.453V143H382.693V132ZM387.459 132H389.219V143H387.459V132ZM393.003 131.78C393.59 131.78 394.118 131.868 394.587 132.044C395.057 132.22 395.453 132.477 395.775 132.814C396.098 133.151 396.347 133.562 396.523 134.046C396.699 134.515 396.787 135.051 396.787 135.652V143H395.027V136.092C395.027 135.241 394.829 134.603 394.433 134.178C394.037 133.753 393.443 133.54 392.651 133.54C392.05 133.54 391.493 133.694 390.979 134.002C390.466 134.31 390.041 134.735 389.703 135.278C389.381 135.806 389.183 136.422 389.109 137.126L389.087 135.85C389.161 135.234 389.307 134.677 389.527 134.178C389.762 133.679 390.048 133.254 390.385 132.902C390.737 132.535 391.133 132.257 391.573 132.066C392.028 131.875 392.505 131.78 393.003 131.78ZM398.871 132H405.339V133.65H398.871V132ZM401.225 129.14H402.985V143H401.225V129.14ZM414.991 139.458H416.641C416.524 140.177 416.26 140.822 415.849 141.394C415.453 141.951 414.925 142.399 414.265 142.736C413.62 143.059 412.872 143.22 412.021 143.22C410.995 143.22 410.071 142.978 409.249 142.494C408.428 141.995 407.775 141.321 407.291 140.47C406.822 139.605 406.587 138.622 406.587 137.522C406.587 136.422 406.815 135.439 407.269 134.574C407.739 133.709 408.377 133.027 409.183 132.528C409.99 132.029 410.899 131.78 411.911 131.78C412.982 131.78 413.884 132.022 414.617 132.506C415.365 132.975 415.915 133.672 416.267 134.596C416.634 135.505 416.781 136.627 416.707 137.962H408.347C408.421 138.681 408.619 139.311 408.941 139.854C409.264 140.397 409.689 140.822 410.217 141.13C410.745 141.423 411.347 141.57 412.021 141.57C412.769 141.57 413.4 141.379 413.913 140.998C414.441 140.602 414.801 140.089 414.991 139.458ZM411.977 133.43C411.068 133.43 410.305 133.694 409.689 134.222C409.073 134.75 408.663 135.469 408.457 136.378H414.903C414.845 135.41 414.529 134.677 413.957 134.178C413.4 133.679 412.74 133.43 411.977 133.43ZM418.977 132H420.737V143H418.977V132ZM424.257 133.65C423.509 133.65 422.878 133.841 422.365 134.222C421.866 134.589 421.47 135.043 421.177 135.586C420.898 136.114 420.715 136.627 420.627 137.126L420.605 135.85C420.605 135.718 420.634 135.498 420.693 135.19C420.752 134.882 420.862 134.537 421.023 134.156C421.184 133.76 421.397 133.386 421.661 133.034C421.94 132.667 422.292 132.367 422.717 132.132C423.142 131.897 423.656 131.78 424.257 131.78V133.65ZM432.772 139.26V137.61H439.636V139.26H432.772ZM429.868 143L435.302 128.7H437.15L442.628 143H440.736L435.962 130.064H436.49L431.716 143H429.868ZM444.5 132H446.26V143H444.5V132ZM449.78 133.65C449.032 133.65 448.402 133.841 447.888 134.222C447.39 134.589 446.994 135.043 446.7 135.586C446.422 136.114 446.238 136.627 446.15 137.126L446.128 135.85C446.128 135.718 446.158 135.498 446.216 135.19C446.275 134.882 446.385 134.537 446.546 134.156C446.708 133.76 446.92 133.386 447.184 133.034C447.463 132.667 447.815 132.367 448.24 132.132C448.666 131.897 449.179 131.78 449.78 131.78V133.65ZM461.53 138.864C461.427 139.773 461.134 140.558 460.65 141.218C460.181 141.863 459.587 142.362 458.868 142.714C458.149 143.051 457.372 143.22 456.536 143.22C455.597 143.22 454.717 142.993 453.896 142.538C453.075 142.083 452.407 141.431 451.894 140.58C451.395 139.715 451.146 138.695 451.146 137.522C451.146 136.349 451.395 135.337 451.894 134.486C452.407 133.621 453.075 132.953 453.896 132.484C454.717 132.015 455.597 131.78 456.536 131.78C457.372 131.78 458.142 131.956 458.846 132.308C459.565 132.66 460.159 133.159 460.628 133.804C461.112 134.449 461.413 135.219 461.53 136.114H459.924C459.675 135.278 459.242 134.625 458.626 134.156C458.01 133.672 457.313 133.43 456.536 133.43C455.905 133.43 455.311 133.591 454.754 133.914C454.197 134.237 453.749 134.706 453.412 135.322C453.075 135.923 452.906 136.657 452.906 137.522C452.906 138.373 453.075 139.106 453.412 139.722C453.749 140.323 454.189 140.785 454.732 141.108C455.289 141.416 455.891 141.57 456.536 141.57C457.431 141.57 458.157 141.335 458.714 140.866C459.286 140.382 459.697 139.715 459.946 138.864H461.53ZM468.391 132H470.151V143H468.391V132ZM473.671 133.65C472.923 133.65 472.292 133.841 471.779 134.222C471.28 134.589 470.884 135.043 470.591 135.586C470.312 136.114 470.129 136.627 470.041 137.126L470.019 135.85C470.019 135.718 470.048 135.498 470.107 135.19C470.166 134.882 470.276 134.537 470.437 134.156C470.598 133.76 470.811 133.386 471.075 133.034C471.354 132.667 471.706 132.367 472.131 132.132C472.556 131.897 473.07 131.78 473.671 131.78V133.65ZM483.441 139.458H485.091C484.973 140.177 484.709 140.822 484.299 141.394C483.903 141.951 483.375 142.399 482.715 142.736C482.069 143.059 481.321 143.22 480.471 143.22C479.444 143.22 478.52 142.978 477.699 142.494C476.877 141.995 476.225 141.321 475.741 140.47C475.271 139.605 475.037 138.622 475.037 137.522C475.037 136.422 475.264 135.439 475.719 134.574C476.188 133.709 476.826 133.027 477.633 132.528C478.439 132.029 479.349 131.78 480.361 131.78C481.431 131.78 482.333 132.022 483.067 132.506C483.815 132.975 484.365 133.672 484.717 134.596C485.083 135.505 485.23 136.627 485.157 137.962H476.797C476.87 138.681 477.068 139.311 477.391 139.854C477.713 140.397 478.139 140.822 478.667 141.13C479.195 141.423 479.796 141.57 480.471 141.57C481.219 141.57 481.849 141.379 482.363 140.998C482.891 140.602 483.25 140.089 483.441 139.458ZM480.427 133.43C479.517 133.43 478.755 133.694 478.139 134.222C477.523 134.75 477.112 135.469 476.907 136.378H483.353C483.294 135.41 482.979 134.677 482.407 134.178C481.849 133.679 481.189 133.43 480.427 133.43ZM492.926 143.22C492.119 143.22 491.459 143.037 490.946 142.67C490.433 142.289 490.029 141.805 489.736 141.218C489.457 140.617 489.259 139.993 489.142 139.348C489.025 138.688 488.966 138.079 488.966 137.522C488.966 136.73 489.017 135.989 489.12 135.3C489.237 134.611 489.435 134.002 489.714 133.474C489.993 132.946 490.389 132.535 490.902 132.242C491.43 131.934 492.105 131.78 492.926 131.78C493.806 131.78 494.605 132.029 495.324 132.528C496.043 133.027 496.615 133.709 497.04 134.574C497.48 135.439 497.7 136.422 497.7 137.522C497.7 138.622 497.48 139.605 497.04 140.47C496.6 141.321 496.013 141.995 495.28 142.494C494.561 142.978 493.777 143.22 492.926 143.22ZM492.486 141.548C493.161 141.548 493.755 141.379 494.268 141.042C494.796 140.69 495.207 140.213 495.5 139.612C495.793 138.996 495.94 138.299 495.94 137.522C495.94 136.349 495.639 135.381 495.038 134.618C494.437 133.841 493.586 133.452 492.486 133.452C491.841 133.452 491.269 133.628 490.77 133.98C490.271 134.317 489.883 134.794 489.604 135.41C489.325 136.011 489.186 136.715 489.186 137.522C489.186 138.255 489.303 138.93 489.538 139.546C489.787 140.147 490.154 140.631 490.638 140.998C491.122 141.365 491.738 141.548 492.486 141.548ZM487.426 132H489.12L489.186 134.31V147.4H487.426V132ZM500.171 127.6H501.931V143H500.171V127.6ZM509.18 143.22C508.314 143.22 507.515 142.978 506.782 142.494C506.063 141.995 505.484 141.321 505.044 140.47C504.618 139.605 504.406 138.622 504.406 137.522C504.406 136.422 504.626 135.439 505.066 134.574C505.506 133.709 506.1 133.027 506.848 132.528C507.61 132.029 508.461 131.78 509.4 131.78C510.426 131.78 511.204 132.044 511.732 132.572C512.274 133.085 512.641 133.775 512.832 134.64C513.037 135.505 513.14 136.466 513.14 137.522C513.14 138.079 513.081 138.688 512.964 139.348C512.846 139.993 512.641 140.617 512.348 141.218C512.069 141.805 511.673 142.289 511.16 142.67C510.646 143.037 509.986 143.22 509.18 143.22ZM509.62 141.548C510.368 141.548 510.984 141.365 511.468 140.998C511.966 140.631 512.333 140.147 512.568 139.546C512.802 138.93 512.92 138.255 512.92 137.522C512.92 136.715 512.795 136.011 512.546 135.41C512.311 134.794 511.944 134.317 511.446 133.98C510.962 133.628 510.353 133.452 509.62 133.452C508.52 133.452 507.669 133.841 507.068 134.618C506.466 135.381 506.166 136.349 506.166 137.522C506.166 138.299 506.312 138.996 506.606 139.612C506.914 140.213 507.324 140.69 507.838 141.042C508.366 141.379 508.96 141.548 509.62 141.548ZM512.92 132H514.68V143H513.074C513.074 143 513.059 142.868 513.03 142.604C513.015 142.34 512.993 142.032 512.964 141.68C512.934 141.328 512.92 141.035 512.92 140.8V132ZM527.315 138.864C527.213 139.773 526.919 140.558 526.435 141.218C525.966 141.863 525.372 142.362 524.653 142.714C523.935 143.051 523.157 143.22 522.321 143.22C521.383 143.22 520.503 142.993 519.681 142.538C518.86 142.083 518.193 141.431 517.679 140.58C517.181 139.715 516.931 138.695 516.931 137.522C516.931 136.349 517.181 135.337 517.679 134.486C518.193 133.621 518.86 132.953 519.681 132.484C520.503 132.015 521.383 131.78 522.321 131.78C523.157 131.78 523.927 131.956 524.631 132.308C525.35 132.66 525.944 133.159 526.413 133.804C526.897 134.449 527.198 135.219 527.315 136.114H525.709C525.46 135.278 525.027 134.625 524.411 134.156C523.795 133.672 523.099 133.43 522.321 133.43C521.691 133.43 521.097 133.591 520.539 133.914C519.982 134.237 519.535 134.706 519.197 135.322C518.86 135.923 518.691 136.657 518.691 137.522C518.691 138.373 518.86 139.106 519.197 139.722C519.535 140.323 519.975 140.785 520.517 141.108C521.075 141.416 521.676 141.57 522.321 141.57C523.216 141.57 523.942 141.335 524.499 140.866C525.071 140.382 525.482 139.715 525.731 138.864H527.315ZM537.345 139.458H538.995C538.878 140.177 538.614 140.822 538.203 141.394C537.807 141.951 537.279 142.399 536.619 142.736C535.974 143.059 535.226 143.22 534.375 143.22C533.348 143.22 532.424 142.978 531.603 142.494C530.782 141.995 530.129 141.321 529.645 140.47C529.176 139.605 528.941 138.622 528.941 137.522C528.941 136.422 529.168 135.439 529.623 134.574C530.092 133.709 530.73 133.027 531.537 132.528C532.344 132.029 533.253 131.78 534.265 131.78C535.336 131.78 536.238 132.022 536.971 132.506C537.719 132.975 538.269 133.672 538.621 134.596C538.988 135.505 539.134 136.627 539.061 137.962H530.701C530.774 138.681 530.972 139.311 531.295 139.854C531.618 140.397 532.043 140.822 532.571 141.13C533.099 141.423 533.7 141.57 534.375 141.57C535.123 141.57 535.754 141.379 536.267 140.998C536.795 140.602 537.154 140.089 537.345 139.458ZM534.331 133.43C533.422 133.43 532.659 133.694 532.043 134.222C531.427 134.75 531.016 135.469 530.811 136.378H537.257C537.198 135.41 536.883 134.677 536.311 134.178C535.754 133.679 535.094 133.43 534.331 133.43ZM540.802 139.458H542.43C542.474 140.089 542.709 140.602 543.134 140.998C543.574 141.394 544.205 141.592 545.026 141.592C545.525 141.592 545.914 141.526 546.192 141.394C546.486 141.262 546.698 141.086 546.83 140.866C546.962 140.631 547.028 140.375 547.028 140.096C547.028 139.759 546.94 139.495 546.764 139.304C546.603 139.099 546.376 138.93 546.082 138.798C545.804 138.666 545.481 138.541 545.114 138.424C544.689 138.263 544.249 138.094 543.794 137.918C543.354 137.727 542.936 137.507 542.54 137.258C542.159 136.994 541.851 136.679 541.616 136.312C541.382 135.931 541.264 135.476 541.264 134.948C541.264 134.508 541.352 134.097 541.528 133.716C541.704 133.32 541.954 132.983 542.276 132.704C542.614 132.411 543.002 132.183 543.442 132.022C543.897 131.861 544.396 131.78 544.938 131.78C545.672 131.78 546.288 131.927 546.786 132.22C547.3 132.513 547.688 132.931 547.952 133.474C548.231 134.002 548.378 134.618 548.392 135.322H546.874C546.772 134.662 546.559 134.185 546.236 133.892C545.928 133.584 545.481 133.43 544.894 133.43C544.293 133.43 543.831 133.562 543.508 133.826C543.186 134.09 543.024 134.442 543.024 134.882C543.024 135.205 543.142 135.476 543.376 135.696C543.611 135.901 543.912 136.092 544.278 136.268C544.66 136.429 545.063 136.598 545.488 136.774C545.914 136.95 546.324 137.126 546.72 137.302C547.116 137.478 547.468 137.683 547.776 137.918C548.084 138.153 548.326 138.446 548.502 138.798C548.693 139.135 548.788 139.561 548.788 140.074C548.788 140.69 548.642 141.24 548.348 141.724C548.07 142.193 547.652 142.56 547.094 142.824C546.552 143.088 545.884 143.22 545.092 143.22C544.374 143.22 543.758 143.132 543.244 142.956C542.746 142.765 542.328 142.523 541.99 142.23C541.653 141.922 541.389 141.599 541.198 141.262C541.022 140.925 540.905 140.595 540.846 140.272C540.788 139.949 540.773 139.678 540.802 139.458ZM351.43 162H353.19V173H351.43V162ZM356.974 161.78C357.561 161.78 358.089 161.868 358.558 162.044C359.027 162.22 359.423 162.477 359.746 162.814C360.069 163.151 360.318 163.562 360.494 164.046C360.67 164.515 360.758 165.051 360.758 165.652V173H358.998V166.092C358.998 165.241 358.8 164.603 358.404 164.178C358.008 163.753 357.414 163.54 356.622 163.54C356.021 163.54 355.463 163.694 354.95 164.002C354.437 164.31 354.011 164.735 353.674 165.278C353.351 165.806 353.153 166.422 353.08 167.126L353.058 165.85C353.131 165.234 353.278 164.677 353.498 164.178C353.733 163.679 354.019 163.254 354.356 162.902C354.708 162.535 355.104 162.257 355.544 162.066C355.999 161.875 356.475 161.78 356.974 161.78ZM364.366 161.78C364.953 161.78 365.481 161.868 365.95 162.044C366.419 162.22 366.815 162.477 367.138 162.814C367.461 163.151 367.71 163.562 367.886 164.046C368.062 164.515 368.15 165.051 368.15 165.652V173H366.39V166.092C366.39 165.241 366.192 164.603 365.796 164.178C365.4 163.753 364.806 163.54 364.014 163.54C363.413 163.54 362.855 163.694 362.342 164.002C361.829 164.31 361.403 164.735 361.066 165.278C360.743 165.806 360.545 166.422 360.472 167.126L360.45 165.85C360.523 165.234 360.67 164.677 360.89 164.178C361.125 163.679 361.411 163.254 361.748 162.902C362.1 162.535 362.496 162.257 362.936 162.066C363.391 161.875 363.867 161.78 364.366 161.78ZM375.776 173.22C374.838 173.22 373.958 172.993 373.136 172.538C372.315 172.083 371.648 171.431 371.134 170.58C370.636 169.715 370.386 168.695 370.386 167.522C370.386 166.349 370.636 165.337 371.134 164.486C371.648 163.621 372.315 162.953 373.136 162.484C373.958 162.015 374.838 161.78 375.776 161.78C376.715 161.78 377.588 162.015 378.394 162.484C379.216 162.953 379.876 163.621 380.374 164.486C380.873 165.337 381.122 166.349 381.122 167.522C381.122 168.695 380.873 169.715 380.374 170.58C379.876 171.431 379.216 172.083 378.394 172.538C377.588 172.993 376.715 173.22 375.776 173.22ZM375.776 171.57C376.392 171.57 376.972 171.416 377.514 171.108C378.057 170.8 378.497 170.345 378.834 169.744C379.186 169.128 379.362 168.387 379.362 167.522C379.362 166.657 379.186 165.923 378.834 165.322C378.497 164.706 378.057 164.237 377.514 163.914C376.972 163.591 376.392 163.43 375.776 163.43C375.16 163.43 374.574 163.591 374.016 163.914C373.474 164.222 373.026 164.684 372.674 165.3C372.322 165.901 372.146 166.642 372.146 167.522C372.146 168.387 372.315 169.128 372.652 169.744C373.004 170.345 373.459 170.8 374.016 171.108C374.574 171.416 375.16 171.57 375.776 171.57ZM382.371 162H388.839V163.65H382.371V162ZM384.725 159.14H386.485V173H384.725V159.14ZM393.096 157.6V159.734H390.808V157.6H393.096ZM391.072 162H392.832V173H391.072V162ZM400.084 171.482H399.556L402.922 162H404.836L400.656 173H399.006L394.848 162H396.762L400.084 171.482ZM410.545 173.22C409.68 173.22 408.88 172.978 408.147 172.494C407.428 171.995 406.849 171.321 406.409 170.47C405.984 169.605 405.771 168.622 405.771 167.522C405.771 166.422 405.991 165.439 406.431 164.574C406.871 163.709 407.465 163.027 408.213 162.528C408.976 162.029 409.826 161.78 410.765 161.78C411.792 161.78 412.569 162.044 413.097 162.572C413.64 163.085 414.006 163.775 414.197 164.64C414.402 165.505 414.505 166.466 414.505 167.522C414.505 168.079 414.446 168.688 414.329 169.348C414.212 169.993 414.006 170.617 413.713 171.218C413.434 171.805 413.038 172.289 412.525 172.67C412.012 173.037 411.352 173.22 410.545 173.22ZM410.985 171.548C411.733 171.548 412.349 171.365 412.833 170.998C413.332 170.631 413.698 170.147 413.933 169.546C414.168 168.93 414.285 168.255 414.285 167.522C414.285 166.715 414.16 166.011 413.911 165.41C413.676 164.794 413.31 164.317 412.811 163.98C412.327 163.628 411.718 163.452 410.985 163.452C409.885 163.452 409.034 163.841 408.433 164.618C407.832 165.381 407.531 166.349 407.531 167.522C407.531 168.299 407.678 168.996 407.971 169.612C408.279 170.213 408.69 170.69 409.203 171.042C409.731 171.379 410.325 171.548 410.985 171.548ZM414.285 162H416.045V173H414.439C414.439 173 414.424 172.868 414.395 172.604C414.38 172.34 414.358 172.032 414.329 171.68C414.3 171.328 414.285 171.035 414.285 170.8V162ZM418.142 162H424.61V163.65H418.142V162ZM420.496 159.14H422.256V173H420.496V159.14ZM428.868 157.6V159.734H426.58V157.6H428.868ZM426.844 162H428.604V173H426.844V162ZM436.384 173.22C435.445 173.22 434.565 172.993 433.744 172.538C432.922 172.083 432.255 171.431 431.742 170.58C431.243 169.715 430.994 168.695 430.994 167.522C430.994 166.349 431.243 165.337 431.742 164.486C432.255 163.621 432.922 162.953 433.744 162.484C434.565 162.015 435.445 161.78 436.384 161.78C437.322 161.78 438.195 162.015 439.002 162.484C439.823 162.953 440.483 163.621 440.982 164.486C441.48 165.337 441.73 166.349 441.73 167.522C441.73 168.695 441.48 169.715 440.982 170.58C440.483 171.431 439.823 172.083 439.002 172.538C438.195 172.993 437.322 173.22 436.384 173.22ZM436.384 171.57C437 171.57 437.579 171.416 438.122 171.108C438.664 170.8 439.104 170.345 439.442 169.744C439.794 169.128 439.97 168.387 439.97 167.522C439.97 166.657 439.794 165.923 439.442 165.322C439.104 164.706 438.664 164.237 438.122 163.914C437.579 163.591 437 163.43 436.384 163.43C435.768 163.43 435.181 163.591 434.624 163.914C434.081 164.222 433.634 164.684 433.282 165.3C432.93 165.901 432.754 166.642 432.754 167.522C432.754 168.387 432.922 169.128 433.26 169.744C433.612 170.345 434.066 170.8 434.624 171.108C435.181 171.416 435.768 171.57 436.384 171.57ZM443.963 162H445.723V173H443.963V162ZM449.507 161.78C450.094 161.78 450.622 161.868 451.091 162.044C451.561 162.22 451.957 162.477 452.279 162.814C452.602 163.151 452.851 163.562 453.027 164.046C453.203 164.515 453.291 165.051 453.291 165.652V173H451.531V166.092C451.531 165.241 451.333 164.603 450.937 164.178C450.541 163.753 449.947 163.54 449.155 163.54C448.554 163.54 447.997 163.694 447.483 164.002C446.97 164.31 446.545 164.735 446.207 165.278C445.885 165.806 445.687 166.422 445.613 167.126L445.591 165.85C445.665 165.234 445.811 164.677 446.031 164.178C446.266 163.679 446.552 163.254 446.889 162.902C447.241 162.535 447.637 162.257 448.077 162.066C448.532 161.875 449.009 161.78 449.507 161.78ZM471.808 171.394L471.368 171.372L473.942 162H475.856L472.49 173H470.84L467.584 163.364H468.024L464.768 173H463.118L459.774 162H461.688L464.218 171.372L463.778 171.394L466.748 162H468.882L471.808 171.394ZM479.915 157.6V159.734H477.627V157.6H479.915ZM477.891 162H479.651V173H477.891V162ZM481.887 162H488.355V163.65H481.887V162ZM484.241 159.14H486.001V173H484.241V159.14ZM498.266 173V166.092C498.266 165.52 498.178 165.051 498.002 164.684C497.826 164.303 497.562 164.017 497.21 163.826C496.858 163.635 496.418 163.54 495.89 163.54C495.289 163.54 494.731 163.694 494.218 164.002C493.705 164.31 493.279 164.735 492.942 165.278C492.619 165.806 492.421 166.422 492.348 167.126L492.326 165.85C492.399 165.234 492.546 164.677 492.766 164.178C493.001 163.679 493.287 163.254 493.624 162.902C493.976 162.535 494.372 162.257 494.812 162.066C495.267 161.875 495.743 161.78 496.242 161.78C496.829 161.78 497.357 161.868 497.826 162.044C498.295 162.22 498.691 162.477 499.014 162.814C499.337 163.151 499.586 163.562 499.762 164.046C499.938 164.515 500.026 165.051 500.026 165.652V173H498.266ZM490.698 173V157.6H492.458V173H490.698ZM511.672 173.22C510.807 173.22 510.007 172.978 509.274 172.494C508.555 171.995 507.976 171.321 507.536 170.47C507.111 169.605 506.898 168.622 506.898 167.522C506.898 166.422 507.118 165.439 507.558 164.574C507.998 163.709 508.592 163.027 509.34 162.528C510.103 162.029 510.953 161.78 511.892 161.78C512.919 161.78 513.696 162.044 514.224 162.572C514.767 163.085 515.133 163.775 515.324 164.64C515.529 165.505 515.632 166.466 515.632 167.522C515.632 168.079 515.573 168.688 515.456 169.348C515.339 169.993 515.133 170.617 514.84 171.218C514.561 171.805 514.165 172.289 513.652 172.67C513.139 173.037 512.479 173.22 511.672 173.22ZM512.112 171.548C512.86 171.548 513.476 171.365 513.96 170.998C514.459 170.631 514.825 170.147 515.06 169.546C515.295 168.93 515.412 168.255 515.412 167.522C515.412 166.715 515.287 166.011 515.038 165.41C514.803 164.794 514.437 164.317 513.938 163.98C513.454 163.628 512.845 163.452 512.112 163.452C511.012 163.452 510.161 163.841 509.56 164.618C508.959 165.381 508.658 166.349 508.658 167.522C508.658 168.299 508.805 168.996 509.098 169.612C509.406 170.213 509.817 170.69 510.33 171.042C510.858 171.379 511.452 171.548 512.112 171.548ZM515.412 162H517.172V173H515.566C515.566 173 515.551 172.868 515.522 172.604C515.507 172.34 515.485 172.032 515.456 171.68C515.427 171.328 515.412 171.035 515.412 170.8V162ZM528.817 173.22C527.937 173.22 527.13 172.978 526.397 172.494C525.678 171.995 525.106 171.321 524.681 170.47C524.255 169.605 524.043 168.622 524.043 167.522C524.043 166.422 524.248 165.439 524.659 164.574C525.069 163.709 525.634 163.027 526.353 162.528C527.071 162.029 527.893 161.78 528.817 161.78C529.638 161.78 530.305 161.934 530.819 162.242C531.347 162.535 531.75 162.946 532.029 163.474C532.307 164.002 532.498 164.611 532.601 165.3C532.718 165.989 532.777 166.73 532.777 167.522C532.777 168.079 532.718 168.688 532.601 169.348C532.483 169.993 532.278 170.617 531.985 171.218C531.706 171.805 531.31 172.289 530.797 172.67C530.283 173.037 529.623 173.22 528.817 173.22ZM529.257 171.548C530.005 171.548 530.621 171.365 531.105 170.998C531.603 170.631 531.97 170.147 532.205 169.546C532.439 168.93 532.557 168.255 532.557 167.522C532.557 166.715 532.432 166.011 532.183 165.41C531.948 164.794 531.581 164.317 531.083 163.98C530.599 163.628 529.99 163.452 529.257 163.452C528.157 163.452 527.306 163.841 526.705 164.618C526.103 165.381 525.803 166.349 525.803 167.522C525.803 168.299 525.949 168.996 526.243 169.612C526.551 170.213 526.961 170.69 527.475 171.042C528.003 171.379 528.597 171.548 529.257 171.548ZM532.557 157.6H534.317V173H532.711C532.681 172.677 532.645 172.296 532.601 171.856C532.571 171.416 532.557 171.064 532.557 170.8V157.6ZM541.664 173.22C540.799 173.22 540 172.978 539.266 172.494C538.548 171.995 537.968 171.321 537.528 170.47C537.103 169.605 536.89 168.622 536.89 167.522C536.89 166.422 537.11 165.439 537.55 164.574C537.99 163.709 538.584 163.027 539.332 162.528C540.095 162.029 540.946 161.78 541.884 161.78C542.911 161.78 543.688 162.044 544.216 162.572C544.759 163.085 545.126 163.775 545.316 164.64C545.522 165.505 545.624 166.466 545.624 167.522C545.624 168.079 545.566 168.688 545.448 169.348C545.331 169.993 545.126 170.617 544.832 171.218C544.554 171.805 544.158 172.289 543.644 172.67C543.131 173.037 542.471 173.22 541.664 173.22ZM542.104 171.548C542.852 171.548 543.468 171.365 543.952 170.998C544.451 170.631 544.818 170.147 545.052 169.546C545.287 168.93 545.404 168.255 545.404 167.522C545.404 166.715 545.28 166.011 545.03 165.41C544.796 164.794 544.429 164.317 543.93 163.98C543.446 163.628 542.838 163.452 542.104 163.452C541.004 163.452 540.154 163.841 539.552 164.618C538.951 165.381 538.65 166.349 538.65 167.522C538.65 168.299 538.797 168.996 539.09 169.612C539.398 170.213 539.809 170.69 540.322 171.042C540.85 171.379 541.444 171.548 542.104 171.548ZM545.404 162H547.164V173H545.558C545.558 173 545.544 172.868 545.514 172.604C545.5 172.34 545.478 172.032 545.448 171.68C545.419 171.328 545.404 171.035 545.404 170.8V162ZM552.21 157.6V159.734H549.922V157.6H552.21ZM550.186 162H551.946V173H550.186V162ZM555.171 157.6H556.931V173H555.171V157.6ZM559.032 162H560.924L564.862 172.56L563.322 173L559.032 162ZM569.262 162L563.124 177.4H561.21L563.872 171.46L567.392 162H569.262ZM350.902 199.458H352.53C352.574 200.089 352.809 200.602 353.234 200.998C353.674 201.394 354.305 201.592 355.126 201.592C355.625 201.592 356.013 201.526 356.292 201.394C356.585 201.262 356.798 201.086 356.93 200.866C357.062 200.631 357.128 200.375 357.128 200.096C357.128 199.759 357.04 199.495 356.864 199.304C356.703 199.099 356.475 198.93 356.182 198.798C355.903 198.666 355.581 198.541 355.214 198.424C354.789 198.263 354.349 198.094 353.894 197.918C353.454 197.727 353.036 197.507 352.64 197.258C352.259 196.994 351.951 196.679 351.716 196.312C351.481 195.931 351.364 195.476 351.364 194.948C351.364 194.508 351.452 194.097 351.628 193.716C351.804 193.32 352.053 192.983 352.376 192.704C352.713 192.411 353.102 192.183 353.542 192.022C353.997 191.861 354.495 191.78 355.038 191.78C355.771 191.78 356.387 191.927 356.886 192.22C357.399 192.513 357.788 192.931 358.052 193.474C358.331 194.002 358.477 194.618 358.492 195.322H356.974C356.871 194.662 356.659 194.185 356.336 193.892C356.028 193.584 355.581 193.43 354.994 193.43C354.393 193.43 353.931 193.562 353.608 193.826C353.285 194.09 353.124 194.442 353.124 194.882C353.124 195.205 353.241 195.476 353.476 195.696C353.711 195.901 354.011 196.092 354.378 196.268C354.759 196.429 355.163 196.598 355.588 196.774C356.013 196.95 356.424 197.126 356.82 197.302C357.216 197.478 357.568 197.683 357.876 197.918C358.184 198.153 358.426 198.446 358.602 198.798C358.793 199.135 358.888 199.561 358.888 200.074C358.888 200.69 358.741 201.24 358.448 201.724C358.169 202.193 357.751 202.56 357.194 202.824C356.651 203.088 355.984 203.22 355.192 203.22C354.473 203.22 353.857 203.132 353.344 202.956C352.845 202.765 352.427 202.523 352.09 202.23C351.753 201.922 351.489 201.599 351.298 201.262C351.122 200.925 351.005 200.595 350.946 200.272C350.887 199.949 350.873 199.678 350.902 199.458ZM359.936 192H361.828L365.766 202.56L364.226 203L359.936 192ZM370.166 192L364.028 207.4H362.114L364.776 201.46L368.296 192H370.166ZM371.291 199.458H372.919C372.963 200.089 373.197 200.602 373.623 200.998C374.063 201.394 374.693 201.592 375.515 201.592C376.013 201.592 376.402 201.526 376.681 201.394C376.974 201.262 377.187 201.086 377.319 200.866C377.451 200.631 377.517 200.375 377.517 200.096C377.517 199.759 377.429 199.495 377.253 199.304C377.091 199.099 376.864 198.93 376.571 198.798C376.292 198.666 375.969 198.541 375.603 198.424C375.177 198.263 374.737 198.094 374.283 197.918C373.843 197.727 373.425 197.507 373.029 197.258C372.647 196.994 372.339 196.679 372.105 196.312C371.87 195.931 371.753 195.476 371.753 194.948C371.753 194.508 371.841 194.097 372.017 193.716C372.193 193.32 372.442 192.983 372.765 192.704C373.102 192.411 373.491 192.183 373.931 192.022C374.385 191.861 374.884 191.78 375.427 191.78C376.16 191.78 376.776 191.927 377.275 192.22C377.788 192.513 378.177 192.931 378.441 193.474C378.719 194.002 378.866 194.618 378.881 195.322H377.363C377.26 194.662 377.047 194.185 376.725 193.892C376.417 193.584 375.969 193.43 375.383 193.43C374.781 193.43 374.319 193.562 373.997 193.826C373.674 194.09 373.513 194.442 373.513 194.882C373.513 195.205 373.63 195.476 373.865 195.696C374.099 195.901 374.4 196.092 374.767 196.268C375.148 196.429 375.551 196.598 375.977 196.774C376.402 196.95 376.813 197.126 377.209 197.302C377.605 197.478 377.957 197.683 378.265 197.918C378.573 198.153 378.815 198.446 378.991 198.798C379.181 199.135 379.277 199.561 379.277 200.074C379.277 200.69 379.13 201.24 378.837 201.724C378.558 202.193 378.14 202.56 377.583 202.824C377.04 203.088 376.373 203.22 375.581 203.22C374.862 203.22 374.246 203.132 373.733 202.956C373.234 202.765 372.816 202.523 372.479 202.23C372.141 201.922 371.877 201.599 371.687 201.262C371.511 200.925 371.393 200.595 371.335 200.272C371.276 199.949 371.261 199.678 371.291 199.458ZM380.76 192H387.228V193.65H380.76V192ZM383.114 189.14H384.874V203H383.114V189.14ZM396.88 199.458H398.53C398.413 200.177 398.149 200.822 397.738 201.394C397.342 201.951 396.814 202.399 396.154 202.736C395.509 203.059 394.761 203.22 393.91 203.22C392.883 203.22 391.959 202.978 391.138 202.494C390.317 201.995 389.664 201.321 389.18 200.47C388.711 199.605 388.476 198.622 388.476 197.522C388.476 196.422 388.703 195.439 389.158 194.574C389.627 193.709 390.265 193.027 391.072 192.528C391.879 192.029 392.788 191.78 393.8 191.78C394.871 191.78 395.773 192.022 396.506 192.506C397.254 192.975 397.804 193.672 398.156 194.596C398.523 195.505 398.669 196.627 398.596 197.962H390.236C390.309 198.681 390.507 199.311 390.83 199.854C391.153 200.397 391.578 200.822 392.106 201.13C392.634 201.423 393.235 201.57 393.91 201.57C394.658 201.57 395.289 201.379 395.802 200.998C396.33 200.602 396.689 200.089 396.88 199.458ZM393.866 193.43C392.957 193.43 392.194 193.694 391.578 194.222C390.962 194.75 390.551 195.469 390.346 196.378H396.792C396.733 195.41 396.418 194.677 395.846 194.178C395.289 193.679 394.629 193.43 393.866 193.43ZM400.866 192H402.626V203H400.866V192ZM406.41 191.78C406.996 191.78 407.524 191.868 407.994 192.044C408.463 192.22 408.859 192.477 409.182 192.814C409.504 193.151 409.754 193.562 409.93 194.046C410.106 194.515 410.194 195.051 410.194 195.652V203H408.434V196.092C408.434 195.241 408.236 194.603 407.84 194.178C407.444 193.753 406.85 193.54 406.058 193.54C405.456 193.54 404.899 193.694 404.386 194.002C403.872 194.31 403.447 194.735 403.11 195.278C402.787 195.806 402.589 196.422 402.516 197.126L402.494 195.85C402.567 195.234 402.714 194.677 402.934 194.178C403.168 193.679 403.454 193.254 403.792 192.902C404.144 192.535 404.54 192.257 404.98 192.066C405.434 191.875 405.911 191.78 406.41 191.78ZM413.802 191.78C414.388 191.78 414.916 191.868 415.386 192.044C415.855 192.22 416.251 192.477 416.574 192.814C416.896 193.151 417.146 193.562 417.322 194.046C417.498 194.515 417.586 195.051 417.586 195.652V203H415.826V196.092C415.826 195.241 415.628 194.603 415.232 194.178C414.836 193.753 414.242 193.54 413.45 193.54C412.848 193.54 412.291 193.694 411.778 194.002C411.264 194.31 410.839 194.735 410.502 195.278C410.179 195.806 409.981 196.422 409.908 197.126L409.886 195.85C409.959 195.234 410.106 194.677 410.326 194.178C410.56 193.679 410.846 193.254 411.184 192.902C411.536 192.535 411.932 192.257 412.372 192.066C412.826 191.875 413.303 191.78 413.802 191.78ZM424.287 192H430.755V193.65H424.287V192ZM426.641 189.14H428.401V203H426.641V189.14ZM440.666 203V196.092C440.666 195.52 440.578 195.051 440.402 194.684C440.226 194.303 439.962 194.017 439.61 193.826C439.258 193.635 438.818 193.54 438.29 193.54C437.689 193.54 437.132 193.694 436.618 194.002C436.105 194.31 435.68 194.735 435.342 195.278C435.02 195.806 434.822 196.422 434.748 197.126L434.726 195.85C434.8 195.234 434.946 194.677 435.166 194.178C435.401 193.679 435.687 193.254 436.024 192.902C436.376 192.535 436.772 192.257 437.212 192.066C437.667 191.875 438.144 191.78 438.642 191.78C439.229 191.78 439.757 191.868 440.226 192.044C440.696 192.22 441.092 192.477 441.414 192.814C441.737 193.151 441.986 193.562 442.162 194.046C442.338 194.515 442.426 195.051 442.426 195.652V203H440.666ZM433.098 203V187.6H434.858V203H433.098ZM449.453 203.22C448.588 203.22 447.789 202.978 447.055 202.494C446.337 201.995 445.757 201.321 445.317 200.47C444.892 199.605 444.679 198.622 444.679 197.522C444.679 196.422 444.899 195.439 445.339 194.574C445.779 193.709 446.373 193.027 447.121 192.528C447.884 192.029 448.735 191.78 449.673 191.78C450.7 191.78 451.477 192.044 452.005 192.572C452.548 193.085 452.915 193.775 453.105 194.64C453.311 195.505 453.413 196.466 453.413 197.522C453.413 198.079 453.355 198.688 453.237 199.348C453.12 199.993 452.915 200.617 452.621 201.218C452.343 201.805 451.947 202.289 451.433 202.67C450.92 203.037 450.26 203.22 449.453 203.22ZM449.893 201.548C450.641 201.548 451.257 201.365 451.741 200.998C452.24 200.631 452.607 200.147 452.841 199.546C453.076 198.93 453.193 198.255 453.193 197.522C453.193 196.715 453.069 196.011 452.819 195.41C452.585 194.794 452.218 194.317 451.719 193.98C451.235 193.628 450.627 193.452 449.893 193.452C448.793 193.452 447.943 193.841 447.341 194.618C446.74 195.381 446.439 196.349 446.439 197.522C446.439 198.299 446.586 198.996 446.879 199.612C447.187 200.213 447.598 200.69 448.111 201.042C448.639 201.379 449.233 201.548 449.893 201.548ZM453.193 192H454.953V203H453.347C453.347 203 453.333 202.868 453.303 202.604C453.289 202.34 453.267 202.032 453.237 201.68C453.208 201.328 453.193 201.035 453.193 200.8V192ZM457.051 192H463.519V193.65H457.051V192ZM459.405 189.14H461.165V203H459.405V189.14ZM469.447 192H475.915V193.65H469.447V192ZM475.145 187.6H476.157V189.36H475.145C474.778 189.345 474.441 189.397 474.133 189.514C473.84 189.631 473.605 189.837 473.429 190.13C473.253 190.409 473.165 190.812 473.165 191.34V203H471.405V191.34C471.405 190.46 471.559 189.749 471.867 189.206C472.19 188.649 472.63 188.245 473.187 187.996C473.759 187.732 474.412 187.6 475.145 187.6ZM482.403 203.22C481.465 203.22 480.585 202.993 479.763 202.538C478.942 202.083 478.275 201.431 477.761 200.58C477.263 199.715 477.013 198.695 477.013 197.522C477.013 196.349 477.263 195.337 477.761 194.486C478.275 193.621 478.942 192.953 479.763 192.484C480.585 192.015 481.465 191.78 482.403 191.78C483.342 191.78 484.215 192.015 485.021 192.484C485.843 192.953 486.503 193.621 487.001 194.486C487.5 195.337 487.749 196.349 487.749 197.522C487.749 198.695 487.5 199.715 487.001 200.58C486.503 201.431 485.843 202.083 485.021 202.538C484.215 202.993 483.342 203.22 482.403 203.22ZM482.403 201.57C483.019 201.57 483.599 201.416 484.141 201.108C484.684 200.8 485.124 200.345 485.461 199.744C485.813 199.128 485.989 198.387 485.989 197.522C485.989 196.657 485.813 195.923 485.461 195.322C485.124 194.706 484.684 194.237 484.141 193.914C483.599 193.591 483.019 193.43 482.403 193.43C481.787 193.43 481.201 193.591 480.643 193.914C480.101 194.222 479.653 194.684 479.301 195.3C478.949 195.901 478.773 196.642 478.773 197.522C478.773 198.387 478.942 199.128 479.279 199.744C479.631 200.345 480.086 200.8 480.643 201.108C481.201 201.416 481.787 201.57 482.403 201.57ZM489.983 192H491.743V203H489.983V192ZM495.263 193.65C494.515 193.65 493.884 193.841 493.371 194.222C492.872 194.589 492.476 195.043 492.183 195.586C491.904 196.114 491.721 196.627 491.633 197.126L491.611 195.85C491.611 195.718 491.64 195.498 491.699 195.19C491.757 194.882 491.867 194.537 492.029 194.156C492.19 193.76 492.403 193.386 492.667 193.034C492.945 192.667 493.297 192.367 493.723 192.132C494.148 191.897 494.661 191.78 495.263 191.78V193.65ZM507.012 198.864C506.91 199.773 506.616 200.558 506.132 201.218C505.663 201.863 505.069 202.362 504.35 202.714C503.632 203.051 502.854 203.22 502.018 203.22C501.08 203.22 500.2 202.993 499.378 202.538C498.557 202.083 497.89 201.431 497.376 200.58C496.878 199.715 496.628 198.695 496.628 197.522C496.628 196.349 496.878 195.337 497.376 194.486C497.89 193.621 498.557 192.953 499.378 192.484C500.2 192.015 501.08 191.78 502.018 191.78C502.854 191.78 503.624 191.956 504.328 192.308C505.047 192.66 505.641 193.159 506.11 193.804C506.594 194.449 506.895 195.219 507.012 196.114H505.406C505.157 195.278 504.724 194.625 504.108 194.156C503.492 193.672 502.796 193.43 502.018 193.43C501.388 193.43 500.794 193.591 500.236 193.914C499.679 194.237 499.232 194.706 498.894 195.322C498.557 195.923 498.388 196.657 498.388 197.522C498.388 198.373 498.557 199.106 498.894 199.722C499.232 200.323 499.672 200.785 500.214 201.108C500.772 201.416 501.373 201.57 502.018 201.57C502.913 201.57 503.639 201.335 504.196 200.866C504.768 200.382 505.179 199.715 505.428 198.864H507.012ZM517.042 199.458H518.692C518.575 200.177 518.311 200.822 517.9 201.394C517.504 201.951 516.976 202.399 516.316 202.736C515.671 203.059 514.923 203.22 514.072 203.22C513.046 203.22 512.122 202.978 511.3 202.494C510.479 201.995 509.826 201.321 509.342 200.47C508.873 199.605 508.638 198.622 508.638 197.522C508.638 196.422 508.866 195.439 509.32 194.574C509.79 193.709 510.428 193.027 511.234 192.528C512.041 192.029 512.95 191.78 513.962 191.78C515.033 191.78 515.935 192.022 516.668 192.506C517.416 192.975 517.966 193.672 518.318 194.596C518.685 195.505 518.832 196.627 518.758 197.962H510.398C510.472 198.681 510.67 199.311 510.992 199.854C511.315 200.397 511.74 200.822 512.268 201.13C512.796 201.423 513.398 201.57 514.072 201.57C514.82 201.57 515.451 201.379 515.964 200.998C516.492 200.602 516.852 200.089 517.042 199.458ZM514.028 193.43C513.119 193.43 512.356 193.694 511.74 194.222C511.124 194.75 510.714 195.469 510.508 196.378H516.954C516.896 195.41 516.58 194.677 516.008 194.178C515.451 193.679 514.791 193.43 514.028 193.43ZM520.5 199.458H522.128C522.172 200.089 522.406 200.602 522.832 200.998C523.272 201.394 523.902 201.592 524.724 201.592C525.222 201.592 525.611 201.526 525.89 201.394C526.183 201.262 526.396 201.086 526.528 200.866C526.66 200.631 526.726 200.375 526.726 200.096C526.726 199.759 526.638 199.495 526.462 199.304C526.3 199.099 526.073 198.93 525.78 198.798C525.501 198.666 525.178 198.541 524.812 198.424C524.386 198.263 523.946 198.094 523.492 197.918C523.052 197.727 522.634 197.507 522.238 197.258C521.856 196.994 521.548 196.679 521.314 196.312C521.079 195.931 520.962 195.476 520.962 194.948C520.962 194.508 521.05 194.097 521.226 193.716C521.402 193.32 521.651 192.983 521.974 192.704C522.311 192.411 522.7 192.183 523.14 192.022C523.594 191.861 524.093 191.78 524.636 191.78C525.369 191.78 525.985 191.927 526.484 192.22C526.997 192.513 527.386 192.931 527.65 193.474C527.928 194.002 528.075 194.618 528.09 195.322H526.572C526.469 194.662 526.256 194.185 525.934 193.892C525.626 193.584 525.178 193.43 524.592 193.43C523.99 193.43 523.528 193.562 523.206 193.826C522.883 194.09 522.722 194.442 522.722 194.882C522.722 195.205 522.839 195.476 523.074 195.696C523.308 195.901 523.609 196.092 523.976 196.268C524.357 196.429 524.76 196.598 525.186 196.774C525.611 196.95 526.022 197.126 526.418 197.302C526.814 197.478 527.166 197.683 527.474 197.918C527.782 198.153 528.024 198.446 528.2 198.798C528.39 199.135 528.486 199.561 528.486 200.074C528.486 200.69 528.339 201.24 528.046 201.724C527.767 202.193 527.349 202.56 526.792 202.824C526.249 203.088 525.582 203.22 524.79 203.22C524.071 203.22 523.455 203.132 522.942 202.956C522.443 202.765 522.025 202.523 521.688 202.23C521.35 201.922 521.086 201.599 520.896 201.262C520.72 200.925 520.602 200.595 520.544 200.272C520.485 199.949 520.47 199.678 520.5 199.458ZM361.198 228.864C361.095 229.773 360.802 230.558 360.318 231.218C359.849 231.863 359.255 232.362 358.536 232.714C357.817 233.051 357.04 233.22 356.204 233.22C355.265 233.22 354.385 232.993 353.564 232.538C352.743 232.083 352.075 231.431 351.562 230.58C351.063 229.715 350.814 228.695 350.814 227.522C350.814 226.349 351.063 225.337 351.562 224.486C352.075 223.621 352.743 222.953 353.564 222.484C354.385 222.015 355.265 221.78 356.204 221.78C357.04 221.78 357.81 221.956 358.514 222.308C359.233 222.66 359.827 223.159 360.296 223.804C360.78 224.449 361.081 225.219 361.198 226.114H359.592C359.343 225.278 358.91 224.625 358.294 224.156C357.678 223.672 356.981 223.43 356.204 223.43C355.573 223.43 354.979 223.591 354.422 223.914C353.865 224.237 353.417 224.706 353.08 225.322C352.743 225.923 352.574 226.657 352.574 227.522C352.574 228.373 352.743 229.106 353.08 229.722C353.417 230.323 353.857 230.785 354.4 231.108C354.957 231.416 355.559 231.57 356.204 231.57C357.099 231.57 357.825 231.335 358.382 230.866C358.954 230.382 359.365 229.715 359.614 228.864H361.198ZM368.214 233.22C367.275 233.22 366.395 232.993 365.574 232.538C364.752 232.083 364.085 231.431 363.572 230.58C363.073 229.715 362.824 228.695 362.824 227.522C362.824 226.349 363.073 225.337 363.572 224.486C364.085 223.621 364.752 222.953 365.574 222.484C366.395 222.015 367.275 221.78 368.214 221.78C369.152 221.78 370.025 222.015 370.832 222.484C371.653 222.953 372.313 223.621 372.812 224.486C373.31 225.337 373.56 226.349 373.56 227.522C373.56 228.695 373.31 229.715 372.812 230.58C372.313 231.431 371.653 232.083 370.832 232.538C370.025 232.993 369.152 233.22 368.214 233.22ZM368.214 231.57C368.83 231.57 369.409 231.416 369.952 231.108C370.494 230.8 370.934 230.345 371.272 229.744C371.624 229.128 371.8 228.387 371.8 227.522C371.8 226.657 371.624 225.923 371.272 225.322C370.934 224.706 370.494 224.237 369.952 223.914C369.409 223.591 368.83 223.43 368.214 223.43C367.598 223.43 367.011 223.591 366.454 223.914C365.911 224.222 365.464 224.684 365.112 225.3C364.76 225.901 364.584 226.642 364.584 227.522C364.584 228.387 364.752 229.128 365.09 229.744C365.442 230.345 365.896 230.8 366.454 231.108C367.011 231.416 367.598 231.57 368.214 231.57ZM375.793 222H377.553V233H375.793V222ZM381.337 221.78C381.924 221.78 382.452 221.868 382.921 222.044C383.391 222.22 383.787 222.477 384.109 222.814C384.432 223.151 384.681 223.562 384.857 224.046C385.033 224.515 385.121 225.051 385.121 225.652V233H383.361V226.092C383.361 225.241 383.163 224.603 382.767 224.178C382.371 223.753 381.777 223.54 380.985 223.54C380.384 223.54 379.827 223.694 379.313 224.002C378.8 224.31 378.375 224.735 378.037 225.278C377.715 225.806 377.517 226.422 377.443 227.126L377.421 225.85C377.495 225.234 377.641 224.677 377.861 224.178C378.096 223.679 378.382 223.254 378.719 222.902C379.071 222.535 379.467 222.257 379.907 222.066C380.362 221.875 380.839 221.78 381.337 221.78ZM387.447 229.458H389.075C389.119 230.089 389.354 230.602 389.779 230.998C390.219 231.394 390.85 231.592 391.671 231.592C392.17 231.592 392.558 231.526 392.837 231.394C393.13 231.262 393.343 231.086 393.475 230.866C393.607 230.631 393.673 230.375 393.673 230.096C393.673 229.759 393.585 229.495 393.409 229.304C393.248 229.099 393.02 228.93 392.727 228.798C392.448 228.666 392.126 228.541 391.759 228.424C391.334 228.263 390.894 228.094 390.439 227.918C389.999 227.727 389.581 227.507 389.185 227.258C388.804 226.994 388.496 226.679 388.261 226.312C388.026 225.931 387.909 225.476 387.909 224.948C387.909 224.508 387.997 224.097 388.173 223.716C388.349 223.32 388.598 222.983 388.921 222.704C389.258 222.411 389.647 222.183 390.087 222.022C390.542 221.861 391.04 221.78 391.583 221.78C392.316 221.78 392.932 221.927 393.431 222.22C393.944 222.513 394.333 222.931 394.597 223.474C394.876 224.002 395.022 224.618 395.037 225.322H393.519C393.416 224.662 393.204 224.185 392.881 223.892C392.573 223.584 392.126 223.43 391.539 223.43C390.938 223.43 390.476 223.562 390.153 223.826C389.83 224.09 389.669 224.442 389.669 224.882C389.669 225.205 389.786 225.476 390.021 225.696C390.256 225.901 390.556 226.092 390.923 226.268C391.304 226.429 391.708 226.598 392.133 226.774C392.558 226.95 392.969 227.126 393.365 227.302C393.761 227.478 394.113 227.683 394.421 227.918C394.729 228.153 394.971 228.446 395.147 228.798C395.338 229.135 395.433 229.561 395.433 230.074C395.433 230.69 395.286 231.24 394.993 231.724C394.714 232.193 394.296 232.56 393.739 232.824C393.196 233.088 392.529 233.22 391.737 233.22C391.018 233.22 390.402 233.132 389.889 232.956C389.39 232.765 388.972 232.523 388.635 232.23C388.298 231.922 388.034 231.599 387.843 231.262C387.667 230.925 387.55 230.595 387.491 230.272C387.432 229.949 387.418 229.678 387.447 229.458ZM399.864 217.6V219.734H397.576V217.6H399.864ZM397.84 222H399.6V233H397.84V222ZM402.078 229.458H403.706C403.75 230.089 403.984 230.602 404.41 230.998C404.85 231.394 405.48 231.592 406.302 231.592C406.8 231.592 407.189 231.526 407.468 231.394C407.761 231.262 407.974 231.086 408.106 230.866C408.238 230.631 408.304 230.375 408.304 230.096C408.304 229.759 408.216 229.495 408.04 229.304C407.878 229.099 407.651 228.93 407.358 228.798C407.079 228.666 406.756 228.541 406.39 228.424C405.964 228.263 405.524 228.094 405.07 227.918C404.63 227.727 404.212 227.507 403.816 227.258C403.434 226.994 403.126 226.679 402.892 226.312C402.657 225.931 402.54 225.476 402.54 224.948C402.54 224.508 402.628 224.097 402.804 223.716C402.98 223.32 403.229 222.983 403.552 222.704C403.889 222.411 404.278 222.183 404.718 222.022C405.172 221.861 405.671 221.78 406.214 221.78C406.947 221.78 407.563 221.927 408.062 222.22C408.575 222.513 408.964 222.931 409.228 223.474C409.506 224.002 409.653 224.618 409.668 225.322H408.15C408.047 224.662 407.834 224.185 407.512 223.892C407.204 223.584 406.756 223.43 406.17 223.43C405.568 223.43 405.106 223.562 404.784 223.826C404.461 224.09 404.3 224.442 404.3 224.882C404.3 225.205 404.417 225.476 404.652 225.696C404.886 225.901 405.187 226.092 405.554 226.268C405.935 226.429 406.338 226.598 406.764 226.774C407.189 226.95 407.6 227.126 407.996 227.302C408.392 227.478 408.744 227.683 409.052 227.918C409.36 228.153 409.602 228.446 409.778 228.798C409.968 229.135 410.064 229.561 410.064 230.074C410.064 230.69 409.917 231.24 409.624 231.724C409.345 232.193 408.927 232.56 408.37 232.824C407.827 233.088 407.16 233.22 406.368 233.22C405.649 233.22 405.033 233.132 404.52 232.956C404.021 232.765 403.603 232.523 403.266 232.23C402.928 231.922 402.664 231.599 402.474 231.262C402.298 230.925 402.18 230.595 402.122 230.272C402.063 229.949 402.048 229.678 402.078 229.458ZM411.547 222H418.015V223.65H411.547V222ZM413.901 219.14H415.661V233H413.901V219.14ZM427.667 229.458H429.317C429.2 230.177 428.936 230.822 428.525 231.394C428.129 231.951 427.601 232.399 426.941 232.736C426.296 233.059 425.548 233.22 424.697 233.22C423.671 233.22 422.747 232.978 421.925 232.494C421.104 231.995 420.451 231.321 419.967 230.47C419.498 229.605 419.263 228.622 419.263 227.522C419.263 226.422 419.491 225.439 419.945 224.574C420.415 223.709 421.053 223.027 421.859 222.528C422.666 222.029 423.575 221.78 424.587 221.78C425.658 221.78 426.56 222.022 427.293 222.506C428.041 222.975 428.591 223.672 428.943 224.596C429.31 225.505 429.457 226.627 429.383 227.962H421.023C421.097 228.681 421.295 229.311 421.617 229.854C421.94 230.397 422.365 230.822 422.893 231.13C423.421 231.423 424.023 231.57 424.697 231.57C425.445 231.57 426.076 231.379 426.589 230.998C427.117 230.602 427.477 230.089 427.667 229.458ZM424.653 223.43C423.744 223.43 422.981 223.694 422.365 224.222C421.749 224.75 421.339 225.469 421.133 226.378H427.579C427.521 225.41 427.205 224.677 426.633 224.178C426.076 223.679 425.416 223.43 424.653 223.43ZM431.653 222H433.413V233H431.653V222ZM437.197 221.78C437.783 221.78 438.311 221.868 438.781 222.044C439.25 222.22 439.646 222.477 439.969 222.814C440.291 223.151 440.541 223.562 440.717 224.046C440.893 224.515 440.981 225.051 440.981 225.652V233H439.221V226.092C439.221 225.241 439.023 224.603 438.627 224.178C438.231 223.753 437.637 223.54 436.845 223.54C436.243 223.54 435.686 223.694 435.173 224.002C434.659 224.31 434.234 224.735 433.897 225.278C433.574 225.806 433.376 226.422 433.303 227.126L433.281 225.85C433.354 225.234 433.501 224.677 433.721 224.178C433.955 223.679 434.241 223.254 434.579 222.902C434.931 222.535 435.327 222.257 435.767 222.066C436.221 221.875 436.698 221.78 437.197 221.78ZM453.602 228.864C453.5 229.773 453.206 230.558 452.722 231.218C452.253 231.863 451.659 232.362 450.94 232.714C450.222 233.051 449.444 233.22 448.608 233.22C447.67 233.22 446.79 232.993 445.968 232.538C445.147 232.083 444.48 231.431 443.966 230.58C443.468 229.715 443.218 228.695 443.218 227.522C443.218 226.349 443.468 225.337 443.966 224.486C444.48 223.621 445.147 222.953 445.968 222.484C446.79 222.015 447.67 221.78 448.608 221.78C449.444 221.78 450.214 221.956 450.918 222.308C451.637 222.66 452.231 223.159 452.7 223.804C453.184 224.449 453.485 225.219 453.602 226.114H451.996C451.747 225.278 451.314 224.625 450.698 224.156C450.082 223.672 449.386 223.43 448.608 223.43C447.978 223.43 447.384 223.591 446.826 223.914C446.269 224.237 445.822 224.706 445.484 225.322C445.147 225.923 444.978 226.657 444.978 227.522C444.978 228.373 445.147 229.106 445.484 229.722C445.822 230.323 446.262 230.785 446.804 231.108C447.362 231.416 447.963 231.57 448.608 231.57C449.503 231.57 450.229 231.335 450.786 230.866C451.358 230.382 451.769 229.715 452.018 228.864H453.602ZM454.854 222H456.746L460.684 232.56L459.144 233L454.854 222ZM465.084 222L458.946 237.4H457.032L459.694 231.46L463.214 222H465.084ZM467.478 230.844V233H465.19V230.844H467.478ZM469.663 223.958L469.201 223.474C469.436 223.063 469.641 222.66 469.817 222.264C469.993 221.853 470.088 221.457 470.103 221.076L469.025 220.834V218.7H471.401V220.24C471.401 221.135 471.218 221.868 470.851 222.44C470.499 223.012 470.103 223.518 469.663 223.958ZM472.963 223.958L472.501 223.474C472.736 223.063 472.941 222.66 473.117 222.264C473.293 221.853 473.388 221.457 473.403 221.076L472.325 220.834V218.7H474.701V220.24C474.701 221.135 474.518 221.868 474.151 222.44C473.799 223.012 473.403 223.518 472.963 223.958Z" fill="white"/>
</g>
<path d="M68.94 49.06C70.3933 49.06 71.6067 49.2333 72.58 49.58C73.5533 49.9267 74.3267 50.4 74.9 51C75.4867 51.5867 75.9 52.2667 76.14 53.04C76.3933 53.8133 76.52 54.6267 76.52 55.48C76.52 56.3333 76.38 57.1533 76.1 57.94C75.8333 58.7267 75.4 59.4267 74.8 60.04C74.2133 60.64 73.4333 61.12 72.46 61.48C71.5 61.8267 70.3267 62 68.94 62H61.54V49.06H68.94ZM64.2 59.72H68.88C69.84 59.72 70.6333 59.6067 71.26 59.38C71.9 59.14 72.4067 58.82 72.78 58.42C73.1533 58.02 73.42 57.5667 73.58 57.06C73.74 56.5533 73.82 56.0267 73.82 55.48C73.82 54.9333 73.74 54.4133 73.58 53.92C73.42 53.4267 73.1533 52.9867 72.78 52.6C72.4067 52.2133 71.9 51.9067 71.26 51.68C70.6333 51.4533 69.84 51.34 68.88 51.34H64.2V59.72ZM79.4981 49.06H82.1581V62H79.4981V49.06ZM84.7425 57.64H87.4425C87.4958 58.0933 87.7025 58.5067 88.0625 58.88C88.4358 59.24 88.9225 59.5267 89.5225 59.74C90.1225 59.94 90.7958 60.04 91.5425 60.04C92.2225 60.04 92.7825 59.9667 93.2225 59.82C93.6625 59.6733 93.9892 59.4667 94.2025 59.2C94.4158 58.9333 94.5225 58.6133 94.5225 58.24C94.5225 57.88 94.3892 57.6067 94.1225 57.42C93.8558 57.22 93.4358 57.06 92.8625 56.94C92.2892 56.8067 91.5358 56.6733 90.6025 56.54C89.8692 56.4333 89.1758 56.2867 88.5225 56.1C87.8692 55.9 87.2892 55.6467 86.7825 55.34C86.2892 55.0333 85.8958 54.66 85.6025 54.22C85.3225 53.7667 85.1825 53.2333 85.1825 52.62C85.1825 51.86 85.3958 51.1933 85.8225 50.62C86.2625 50.0467 86.9092 49.6 87.7625 49.28C88.6158 48.96 89.6625 48.8 90.9025 48.8C92.7692 48.8 94.2025 49.2 95.2025 50C96.2158 50.7867 96.7092 51.8733 96.6825 53.26H94.0825C94.0292 52.4733 93.6958 51.9067 93.0825 51.56C92.4825 51.2133 91.7225 51.04 90.8025 51.04C89.9492 51.04 89.2425 51.1667 88.6825 51.42C88.1358 51.6733 87.8625 52.1067 87.8625 52.72C87.8625 52.96 87.9292 53.1733 88.0625 53.36C88.1958 53.5333 88.4225 53.6867 88.7425 53.82C89.0625 53.9533 89.4958 54.08 90.0425 54.2C90.5892 54.32 91.2692 54.44 92.0825 54.56C92.8425 54.6667 93.5292 54.8133 94.1425 55C94.7692 55.1733 95.3025 55.4067 95.7425 55.7C96.1958 55.98 96.5425 56.34 96.7825 56.78C97.0225 57.22 97.1425 57.76 97.1425 58.4C97.1425 59.1867 96.9358 59.8733 96.5225 60.46C96.1225 61.0333 95.4958 61.48 94.6425 61.8C93.8025 62.12 92.7092 62.28 91.3625 62.28C90.4025 62.28 89.5558 62.18 88.8225 61.98C88.0892 61.7667 87.4558 61.4867 86.9225 61.14C86.3892 60.7933 85.9558 60.4133 85.6225 60C85.2892 59.5867 85.0492 59.1733 84.9025 58.76C84.7692 58.3467 84.7158 57.9733 84.7425 57.64ZM114.589 57.34C114.469 58.38 114.103 59.2667 113.489 60C112.876 60.7333 112.043 61.2933 110.989 61.68C109.936 62.0667 108.683 62.26 107.229 62.26C106.016 62.26 104.903 62.12 103.889 61.84C102.889 61.56 102.023 61.14 101.289 60.58C100.569 60.02 100.009 59.3267 99.6092 58.5C99.2092 57.66 99.0092 56.68 99.0092 55.56C99.0092 54.44 99.2092 53.46 99.6092 52.62C100.009 51.78 100.569 51.08 101.289 50.52C102.023 49.9467 102.889 49.52 103.889 49.24C104.903 48.9467 106.016 48.8 107.229 48.8C108.683 48.8 109.936 49 110.989 49.4C112.056 49.8 112.896 50.3733 113.509 51.12C114.123 51.8533 114.483 52.7467 114.589 53.8H111.949C111.776 53.24 111.483 52.76 111.069 52.36C110.669 51.9467 110.149 51.6333 109.509 51.42C108.869 51.2067 108.109 51.1 107.229 51.1C106.136 51.1 105.176 51.2733 104.349 51.62C103.523 51.9533 102.883 52.4533 102.429 53.12C101.976 53.7733 101.749 54.5867 101.749 55.56C101.749 56.52 101.976 57.3267 102.429 57.98C102.883 58.6333 103.523 59.1333 104.349 59.48C105.176 59.8133 106.136 59.98 107.229 59.98C108.109 59.98 108.863 59.8733 109.489 59.66C110.129 59.4467 110.649 59.14 111.049 58.74C111.463 58.34 111.763 57.8733 111.949 57.34H114.589ZM117.565 49.06H120.225V62H117.565V49.06ZM125.969 57.8V55.68H131.889C132.596 55.68 133.156 55.4933 133.569 55.12C133.982 54.7333 134.189 54.2 134.189 53.52C134.189 52.8133 133.982 52.2733 133.569 51.9C133.156 51.5267 132.596 51.34 131.889 51.34H126.289V62H123.629V49.06H131.649C132.369 49.06 133.042 49.1467 133.669 49.32C134.309 49.4933 134.862 49.76 135.329 50.12C135.809 50.48 136.182 50.94 136.449 51.5C136.716 52.06 136.849 52.7333 136.849 53.52C136.849 54.2933 136.716 54.9533 136.449 55.5C136.182 56.0467 135.809 56.4933 135.329 56.84C134.862 57.1733 134.309 57.42 133.669 57.58C133.042 57.7267 132.369 57.8 131.649 57.8H125.969ZM142.013 49.06V59.78H150.613V62H139.353V49.06H142.013ZM153.463 49.06H156.123V62H153.463V49.06ZM172.687 59.36L171.847 59.7V49.06H174.507V62H171.847L161.387 51.78L162.227 51.44V62H159.567V49.06H162.227L172.687 59.36ZM180.255 56.6V59.78H190.235V62H177.595V49.06H190.215V51.28H180.255V54.5H188.415V56.6H180.255ZM205.49 62.26C203.77 62.26 202.297 61.9933 201.07 61.46C199.857 60.9133 198.923 60.14 198.27 59.14C197.63 58.14 197.31 56.94 197.31 55.54C197.31 54.1267 197.63 52.92 198.27 51.92C198.923 50.92 199.857 50.1533 201.07 49.62C202.297 49.0733 203.77 48.8 205.49 48.8C207.223 48.8 208.697 49.0733 209.91 49.62C211.123 50.1533 212.05 50.92 212.69 51.92C213.343 52.92 213.67 54.1267 213.67 55.54C213.67 56.94 213.343 58.14 212.69 59.14C212.05 60.14 211.123 60.9133 209.91 61.46C208.697 61.9933 207.223 62.26 205.49 62.26ZM205.49 59.96C206.557 59.96 207.49 59.8 208.29 59.48C209.103 59.16 209.737 58.6733 210.19 58.02C210.657 57.3667 210.89 56.54 210.89 55.54C210.89 54.54 210.657 53.7133 210.19 53.06C209.737 52.4067 209.103 51.92 208.29 51.6C207.49 51.2667 206.557 51.1 205.49 51.1C204.437 51.1 203.497 51.2667 202.67 51.6C201.843 51.92 201.197 52.4067 200.73 53.06C200.263 53.7133 200.03 54.54 200.03 55.54C200.03 56.54 200.263 57.3667 200.73 58.02C201.197 58.6733 201.843 59.16 202.67 59.48C203.497 59.8 204.437 59.96 205.49 59.96ZM220.065 62L214.345 49.06H217.285L222.185 60.74H221.265L226.145 49.06H229.045L223.385 62H220.065ZM233.653 56.6V59.78H243.633V62H230.993V49.06H243.613V51.28H233.653V54.5H241.813V56.6H233.653ZM246.364 62V49.06H255.144C256.144 49.06 257.011 49.2 257.744 49.48C258.491 49.7467 259.071 50.1733 259.484 50.76C259.898 51.3333 260.104 52.0733 260.104 52.98C260.104 53.5933 259.998 54.1133 259.784 54.54C259.571 54.9667 259.271 55.3133 258.884 55.58C258.511 55.8467 258.078 56.0533 257.584 56.2C257.091 56.3333 256.564 56.42 256.004 56.46L255.724 56.3C256.658 56.3133 257.424 56.3933 258.024 56.54C258.624 56.6733 259.071 56.9267 259.364 57.3C259.671 57.66 259.824 58.2 259.824 58.92V62H257.164V59.1C257.164 58.6067 257.078 58.2267 256.904 57.96C256.731 57.68 256.418 57.4867 255.964 57.38C255.524 57.2733 254.884 57.22 254.044 57.22H249.024V62H246.364ZM249.024 55.14H255.144C255.891 55.14 256.458 54.96 256.844 54.6C257.244 54.24 257.444 53.7533 257.444 53.14C257.444 52.5533 257.244 52.1067 256.844 51.8C256.458 51.4933 255.891 51.34 255.144 51.34H249.024V55.14ZM277.772 60.68H276.512L283.952 49.06H286.612V62H283.952V52.6L284.592 52.78L278.652 62H275.672L269.732 52.82L270.372 52.64V62H267.712V49.06H270.372L277.772 60.68ZM297.385 62.26C295.665 62.26 294.191 61.9933 292.965 61.46C291.751 60.9133 290.818 60.14 290.165 59.14C289.525 58.14 289.205 56.94 289.205 55.54C289.205 54.1267 289.525 52.92 290.165 51.92C290.818 50.92 291.751 50.1533 292.965 49.62C294.191 49.0733 295.665 48.8 297.385 48.8C299.118 48.8 300.591 49.0733 301.805 49.62C303.018 50.1533 303.945 50.92 304.585 51.92C305.238 52.92 305.565 54.1267 305.565 55.54C305.565 56.94 305.238 58.14 304.585 59.14C303.945 60.14 303.018 60.9133 301.805 61.46C300.591 61.9933 299.118 62.26 297.385 62.26ZM297.385 59.96C298.451 59.96 299.385 59.8 300.185 59.48C300.998 59.16 301.631 58.6733 302.085 58.02C302.551 57.3667 302.785 56.54 302.785 55.54C302.785 54.54 302.551 53.7133 302.085 53.06C301.631 52.4067 300.998 51.92 300.185 51.6C299.385 51.2667 298.451 51.1 297.385 51.1C296.331 51.1 295.391 51.2667 294.565 51.6C293.738 51.92 293.091 52.4067 292.625 53.06C292.158 53.7133 291.925 54.54 291.925 55.54C291.925 56.54 292.158 57.3667 292.625 58.02C293.091 58.6733 293.738 59.16 294.565 59.48C295.391 59.8 296.331 59.96 297.385 59.96ZM306.63 49.06H320.27V51.28H306.63V49.06ZM312.13 51H314.79V62H312.13V51ZM322.584 49.06H325.244V62H322.584V49.06ZM333.268 62L327.548 49.06H330.488L335.388 60.74H334.468L339.348 49.06H342.248L336.588 62H333.268ZM344.615 59.18V56.96H353.175V59.18H344.615ZM341.395 62L347.475 49.06H350.355L356.495 62H353.595L348.275 50.34H349.555L344.275 62H341.395ZM355.595 49.06H369.235V51.28H355.595V49.06ZM361.095 51H363.755V62H361.095V51ZM371.549 49.06H374.209V62H371.549V49.06ZM385.353 62.26C383.633 62.26 382.16 61.9933 380.933 61.46C379.72 60.9133 378.787 60.14 378.133 59.14C377.493 58.14 377.173 56.94 377.173 55.54C377.173 54.1267 377.493 52.92 378.133 51.92C378.787 50.92 379.72 50.1533 380.933 49.62C382.16 49.0733 383.633 48.8 385.353 48.8C387.087 48.8 388.56 49.0733 389.773 49.62C390.987 50.1533 391.913 50.92 392.553 51.92C393.207 52.92 393.533 54.1267 393.533 55.54C393.533 56.94 393.207 58.14 392.553 59.14C391.913 60.14 390.987 60.9133 389.773 61.46C388.56 61.9933 387.087 62.26 385.353 62.26ZM385.353 59.96C386.42 59.96 387.353 59.8 388.153 59.48C388.967 59.16 389.6 58.6733 390.053 58.02C390.52 57.3667 390.753 56.54 390.753 55.54C390.753 54.54 390.52 53.7133 390.053 53.06C389.6 52.4067 388.967 51.92 388.153 51.6C387.353 51.2667 386.42 51.1 385.353 51.1C384.3 51.1 383.36 51.2667 382.533 51.6C381.707 51.92 381.06 52.4067 380.593 53.06C380.127 53.7133 379.893 54.54 379.893 55.54C379.893 56.54 380.127 57.3667 380.593 58.02C381.06 58.6733 381.707 59.16 382.533 59.48C383.36 59.8 384.3 59.96 385.353 59.96ZM409.25 59.36L408.41 59.7V49.06H411.07V62H408.41L397.95 51.78L398.79 51.44V62H396.13V49.06H398.79L409.25 59.36Z" fill="white"/>
<defs>
<linearGradient id="paint0_linear_1397_523" x1="124" y1="147" x2="112.087" y2="322.599" gradientUnits="userSpaceOnUse">
<stop stop-color="#8ACADE"/>
<stop offset="0.788462" stop-color="#8ACADE" stop-opacity="0.1"/>
</linearGradient>
<clipPath id="clip0_1397_523">
<rect width="610" height="289" fill="white"/>
</clipPath>
</defs>
</svg>
