<svg width="610" height="289" viewBox="0 0 610 289" fill="none" xmlns="http://www.w3.org/2000/svg">
<g clip-path="url(#clip0_1397_527)">
<rect width="610" height="289" rx="50" fill="#1C1A1A"/>
<path d="M83.5 301C70.7 301 58.7 297.9 47.5 291.7C36.3 285.5 27.2 276.6 20.2 265C13.4 253.2 10 239.3 10 223.3C10 207.3 13.4 193.5 20.2 181.9C27.2 170.1 36.3 161 47.5 154.6C58.7 148.2 70.7 145 83.5 145C96.3 145 108.2 148.2 119.2 154.6C130.4 161 139.4 170.1 146.2 181.9C153 193.5 156.4 207.3 156.4 223.3C156.4 239.3 153 253.2 146.2 265C139.4 276.6 130.4 285.5 119.2 291.7C108.2 297.9 96.3 301 83.5 301ZM83.5 277.9C91.7 277.9 99.5 275.8 106.9 271.6C114.3 267.4 120.4 261.2 125.2 253C130 244.8 132.4 234.9 132.4 223.3C132.4 211.7 130 201.8 125.2 193.6C120.6 185.4 114.5 179.1 106.9 174.7C99.5 170.3 91.7 168.1 83.5 168.1C75.3 168.1 67.4 170.3 59.8 174.7C52.2 178.9 46 185.1 41.2 193.3C36.4 201.5 34 211.5 34 223.3C34 234.9 36.4 244.8 41.2 253C46 261.2 52.2 267.4 59.8 271.6C67.4 275.8 75.3 277.9 83.5 277.9ZM249.367 252.7L209.167 281.8L207.067 275.5H295.267V298H184.267V275.5C197.267 265.7 208.767 257.4 218.767 250.6C228.967 243.8 237.567 237.7 244.567 232.3C251.567 226.9 256.867 221.4 260.467 215.8C264.267 210.2 266.167 203.7 266.167 196.3C266.167 190.7 265.067 185.8 262.867 181.6C260.667 177.2 257.267 173.8 252.667 171.4C248.267 168.8 242.467 167.5 235.267 167.5C226.467 167.5 218.867 170.3 212.467 175.9C206.067 181.5 202.867 188.8 202.867 197.8H181.867C180.867 187.8 182.667 178.9 187.267 171.1C192.067 163.1 198.667 156.8 207.067 152.2C215.667 147.4 225.067 145 235.267 145C244.067 145 251.867 146.4 258.667 149.2C265.467 151.8 271.167 155.4 275.767 160C280.567 164.6 284.167 169.9 286.567 175.9C288.967 181.9 290.167 188.2 290.167 194.8C290.167 200.8 289.167 206.3 287.167 211.3C285.367 216.3 282.667 221.1 279.067 225.7C275.667 230.3 271.467 234.8 266.467 239.2C261.467 243.6 255.767 248.1 249.367 252.7Z" fill="url(#paint0_linear_1397_527)"/>
</g>
<path d="M48.94 49.06C50.3933 49.06 51.6067 49.2333 52.58 49.58C53.5533 49.9267 54.3267 50.4 54.9 51C55.4867 51.5867 55.9 52.2667 56.14 53.04C56.3933 53.8133 56.52 54.6267 56.52 55.48C56.52 56.3333 56.38 57.1533 56.1 57.94C55.8333 58.7267 55.4 59.4267 54.8 60.04C54.2133 60.64 53.4333 61.12 52.46 61.48C51.5 61.8267 50.3267 62 48.94 62H41.54V49.06H48.94ZM44.2 59.72H48.88C49.84 59.72 50.6333 59.6067 51.26 59.38C51.9 59.14 52.4067 58.82 52.78 58.42C53.1533 58.02 53.42 57.5667 53.58 57.06C53.74 56.5533 53.82 56.0267 53.82 55.48C53.82 54.9333 53.74 54.4133 53.58 53.92C53.42 53.4267 53.1533 52.9867 52.78 52.6C52.4067 52.2133 51.9 51.9067 51.26 51.68C50.6333 51.4533 49.84 51.34 48.88 51.34H44.2V59.72ZM59.4981 49.06H62.1581V62H59.4981V49.06ZM64.7425 57.64H67.4425C67.4958 58.0933 67.7025 58.5067 68.0625 58.88C68.4358 59.24 68.9225 59.5267 69.5225 59.74C70.1225 59.94 70.7958 60.04 71.5425 60.04C72.2225 60.04 72.7825 59.9667 73.2225 59.82C73.6625 59.6733 73.9892 59.4667 74.2025 59.2C74.4158 58.9333 74.5225 58.6133 74.5225 58.24C74.5225 57.88 74.3892 57.6067 74.1225 57.42C73.8558 57.22 73.4358 57.06 72.8625 56.94C72.2892 56.8067 71.5358 56.6733 70.6025 56.54C69.8692 56.4333 69.1758 56.2867 68.5225 56.1C67.8692 55.9 67.2892 55.6467 66.7825 55.34C66.2892 55.0333 65.8958 54.66 65.6025 54.22C65.3225 53.7667 65.1825 53.2333 65.1825 52.62C65.1825 51.86 65.3958 51.1933 65.8225 50.62C66.2625 50.0467 66.9092 49.6 67.7625 49.28C68.6158 48.96 69.6625 48.8 70.9025 48.8C72.7692 48.8 74.2025 49.2 75.2025 50C76.2158 50.7867 76.7092 51.8733 76.6825 53.26H74.0825C74.0292 52.4733 73.6958 51.9067 73.0825 51.56C72.4825 51.2133 71.7225 51.04 70.8025 51.04C69.9492 51.04 69.2425 51.1667 68.6825 51.42C68.1358 51.6733 67.8625 52.1067 67.8625 52.72C67.8625 52.96 67.9292 53.1733 68.0625 53.36C68.1958 53.5333 68.4225 53.6867 68.7425 53.82C69.0625 53.9533 69.4958 54.08 70.0425 54.2C70.5892 54.32 71.2692 54.44 72.0825 54.56C72.8425 54.6667 73.5292 54.8133 74.1425 55C74.7692 55.1733 75.3025 55.4067 75.7425 55.7C76.1958 55.98 76.5425 56.34 76.7825 56.78C77.0225 57.22 77.1425 57.76 77.1425 58.4C77.1425 59.1867 76.9358 59.8733 76.5225 60.46C76.1225 61.0333 75.4958 61.48 74.6425 61.8C73.8025 62.12 72.7092 62.28 71.3625 62.28C70.4025 62.28 69.5558 62.18 68.8225 61.98C68.0892 61.7667 67.4558 61.4867 66.9225 61.14C66.3892 60.7933 65.9558 60.4133 65.6225 60C65.2892 59.5867 65.0492 59.1733 64.9025 58.76C64.7692 58.3467 64.7158 57.9733 64.7425 57.64ZM94.5892 57.34C94.4692 58.38 94.1026 59.2667 93.4892 60C92.8759 60.7333 92.0426 61.2933 90.9892 61.68C89.9359 62.0667 88.6826 62.26 87.2292 62.26C86.0159 62.26 84.9026 62.12 83.8892 61.84C82.8892 61.56 82.0226 61.14 81.2892 60.58C80.5692 60.02 80.0092 59.3267 79.6092 58.5C79.2092 57.66 79.0092 56.68 79.0092 55.56C79.0092 54.44 79.2092 53.46 79.6092 52.62C80.0092 51.78 80.5692 51.08 81.2892 50.52C82.0226 49.9467 82.8892 49.52 83.8892 49.24C84.9026 48.9467 86.0159 48.8 87.2292 48.8C88.6826 48.8 89.9359 49 90.9892 49.4C92.0559 49.8 92.8959 50.3733 93.5092 51.12C94.1226 51.8533 94.4826 52.7467 94.5892 53.8H91.9492C91.7759 53.24 91.4826 52.76 91.0692 52.36C90.6692 51.9467 90.1492 51.6333 89.5092 51.42C88.8692 51.2067 88.1092 51.1 87.2292 51.1C86.1359 51.1 85.1759 51.2733 84.3492 51.62C83.5226 51.9533 82.8826 52.4533 82.4292 53.12C81.9759 53.7733 81.7492 54.5867 81.7492 55.56C81.7492 56.52 81.9759 57.3267 82.4292 57.98C82.8826 58.6333 83.5226 59.1333 84.3492 59.48C85.1759 59.8133 86.1359 59.98 87.2292 59.98C88.1092 59.98 88.8626 59.8733 89.4892 59.66C90.1292 59.4467 90.6492 59.14 91.0492 58.74C91.4626 58.34 91.7626 57.8733 91.9492 57.34H94.5892ZM97.5645 49.06H100.225V62H97.5645V49.06ZM105.969 57.8V55.68H111.889C112.596 55.68 113.156 55.4933 113.569 55.12C113.982 54.7333 114.189 54.2 114.189 53.52C114.189 52.8133 113.982 52.2733 113.569 51.9C113.156 51.5267 112.596 51.34 111.889 51.34H106.289V62H103.629V49.06H111.649C112.369 49.06 113.042 49.1467 113.669 49.32C114.309 49.4933 114.862 49.76 115.329 50.12C115.809 50.48 116.182 50.94 116.449 51.5C116.716 52.06 116.849 52.7333 116.849 53.52C116.849 54.2933 116.716 54.9533 116.449 55.5C116.182 56.0467 115.809 56.4933 115.329 56.84C114.862 57.1733 114.309 57.42 113.669 57.58C113.042 57.7267 112.369 57.8 111.649 57.8H105.969ZM122.013 49.06V59.78H130.613V62H119.353V49.06H122.013ZM133.463 49.06H136.123V62H133.463V49.06ZM152.687 59.36L151.847 59.7V49.06H154.507V62H151.847L141.387 51.78L142.227 51.44V62H139.567V49.06H142.227L152.687 59.36ZM160.255 56.6V59.78H170.235V62H157.595V49.06H170.215V51.28H160.255V54.5H168.415V56.6H160.255ZM185.49 62.26C183.77 62.26 182.297 61.9933 181.07 61.46C179.857 60.9133 178.923 60.14 178.27 59.14C177.63 58.14 177.31 56.94 177.31 55.54C177.31 54.1267 177.63 52.92 178.27 51.92C178.923 50.92 179.857 50.1533 181.07 49.62C182.297 49.0733 183.77 48.8 185.49 48.8C187.223 48.8 188.697 49.0733 189.91 49.62C191.123 50.1533 192.05 50.92 192.69 51.92C193.343 52.92 193.67 54.1267 193.67 55.54C193.67 56.94 193.343 58.14 192.69 59.14C192.05 60.14 191.123 60.9133 189.91 61.46C188.697 61.9933 187.223 62.26 185.49 62.26ZM185.49 59.96C186.557 59.96 187.49 59.8 188.29 59.48C189.103 59.16 189.737 58.6733 190.19 58.02C190.657 57.3667 190.89 56.54 190.89 55.54C190.89 54.54 190.657 53.7133 190.19 53.06C189.737 52.4067 189.103 51.92 188.29 51.6C187.49 51.2667 186.557 51.1 185.49 51.1C184.437 51.1 183.497 51.2667 182.67 51.6C181.843 51.92 181.197 52.4067 180.73 53.06C180.263 53.7133 180.03 54.54 180.03 55.54C180.03 56.54 180.263 57.3667 180.73 58.02C181.197 58.6733 181.843 59.16 182.67 59.48C183.497 59.8 184.437 59.96 185.49 59.96ZM200.065 62L194.345 49.06H197.285L202.185 60.74H201.265L206.145 49.06H209.045L203.385 62H200.065ZM213.653 56.6V59.78H223.633V62H210.993V49.06H223.613V51.28H213.653V54.5H221.813V56.6H213.653ZM226.364 62V49.06H235.144C236.144 49.06 237.011 49.2 237.744 49.48C238.491 49.7467 239.071 50.1733 239.484 50.76C239.898 51.3333 240.104 52.0733 240.104 52.98C240.104 53.5933 239.998 54.1133 239.784 54.54C239.571 54.9667 239.271 55.3133 238.884 55.58C238.511 55.8467 238.078 56.0533 237.584 56.2C237.091 56.3333 236.564 56.42 236.004 56.46L235.724 56.3C236.658 56.3133 237.424 56.3933 238.024 56.54C238.624 56.6733 239.071 56.9267 239.364 57.3C239.671 57.66 239.824 58.2 239.824 58.92V62H237.164V59.1C237.164 58.6067 237.078 58.2267 236.904 57.96C236.731 57.68 236.418 57.4867 235.964 57.38C235.524 57.2733 234.884 57.22 234.044 57.22H229.024V62H226.364ZM229.024 55.14H235.144C235.891 55.14 236.458 54.96 236.844 54.6C237.244 54.24 237.444 53.7533 237.444 53.14C237.444 52.5533 237.244 52.1067 236.844 51.8C236.458 51.4933 235.891 51.34 235.144 51.34H229.024V55.14ZM257.772 60.68H256.512L263.952 49.06H266.612V62H263.952V52.6L264.592 52.78L258.652 62H255.672L249.732 52.82L250.372 52.64V62H247.712V49.06H250.372L257.772 60.68ZM277.385 62.26C275.665 62.26 274.191 61.9933 272.965 61.46C271.751 60.9133 270.818 60.14 270.165 59.14C269.525 58.14 269.205 56.94 269.205 55.54C269.205 54.1267 269.525 52.92 270.165 51.92C270.818 50.92 271.751 50.1533 272.965 49.62C274.191 49.0733 275.665 48.8 277.385 48.8C279.118 48.8 280.591 49.0733 281.805 49.62C283.018 50.1533 283.945 50.92 284.585 51.92C285.238 52.92 285.565 54.1267 285.565 55.54C285.565 56.94 285.238 58.14 284.585 59.14C283.945 60.14 283.018 60.9133 281.805 61.46C280.591 61.9933 279.118 62.26 277.385 62.26ZM277.385 59.96C278.451 59.96 279.385 59.8 280.185 59.48C280.998 59.16 281.631 58.6733 282.085 58.02C282.551 57.3667 282.785 56.54 282.785 55.54C282.785 54.54 282.551 53.7133 282.085 53.06C281.631 52.4067 280.998 51.92 280.185 51.6C279.385 51.2667 278.451 51.1 277.385 51.1C276.331 51.1 275.391 51.2667 274.565 51.6C273.738 51.92 273.091 52.4067 272.625 53.06C272.158 53.7133 271.925 54.54 271.925 55.54C271.925 56.54 272.158 57.3667 272.625 58.02C273.091 58.6733 273.738 59.16 274.565 59.48C275.391 59.8 276.331 59.96 277.385 59.96ZM286.63 49.06H300.27V51.28H286.63V49.06ZM292.13 51H294.79V62H292.13V51ZM302.584 49.06H305.244V62H302.584V49.06ZM313.268 62L307.548 49.06H310.488L315.388 60.74H314.468L319.348 49.06H322.248L316.588 62H313.268ZM324.615 59.18V56.96H333.175V59.18H324.615ZM321.395 62L327.475 49.06H330.355L336.495 62H333.595L328.275 50.34H329.555L324.275 62H321.395ZM335.595 49.06H349.235V51.28H335.595V49.06ZM341.095 51H343.755V62H341.095V51ZM351.549 49.06H354.209V62H351.549V49.06ZM365.353 62.26C363.633 62.26 362.16 61.9933 360.933 61.46C359.72 60.9133 358.787 60.14 358.133 59.14C357.493 58.14 357.173 56.94 357.173 55.54C357.173 54.1267 357.493 52.92 358.133 51.92C358.787 50.92 359.72 50.1533 360.933 49.62C362.16 49.0733 363.633 48.8 365.353 48.8C367.087 48.8 368.56 49.0733 369.773 49.62C370.987 50.1533 371.913 50.92 372.553 51.92C373.207 52.92 373.533 54.1267 373.533 55.54C373.533 56.94 373.207 58.14 372.553 59.14C371.913 60.14 370.987 60.9133 369.773 61.46C368.56 61.9933 367.087 62.26 365.353 62.26ZM365.353 59.96C366.42 59.96 367.353 59.8 368.153 59.48C368.967 59.16 369.6 58.6733 370.053 58.02C370.52 57.3667 370.753 56.54 370.753 55.54C370.753 54.54 370.52 53.7133 370.053 53.06C369.6 52.4067 368.967 51.92 368.153 51.6C367.353 51.2667 366.42 51.1 365.353 51.1C364.3 51.1 363.36 51.2667 362.533 51.6C361.707 51.92 361.06 52.4067 360.593 53.06C360.127 53.7133 359.893 54.54 359.893 55.54C359.893 56.54 360.127 57.3667 360.593 58.02C361.06 58.6733 361.707 59.16 362.533 59.48C363.36 59.8 364.3 59.96 365.353 59.96ZM389.25 59.36L388.41 59.7V49.06H391.07V62H388.41L377.95 51.78L378.79 51.44V62H376.13V49.06H378.79L389.25 59.36Z" fill="white"/>
<path d="M324.706 132.622L325.19 133.106C324.955 133.517 324.75 133.927 324.574 134.338C324.398 134.734 324.295 135.123 324.266 135.504L325.366 135.746V137.88H322.99V136.34C322.99 135.431 323.166 134.697 323.518 134.14C323.885 133.568 324.281 133.062 324.706 132.622ZM328.006 132.622L328.49 133.106C328.255 133.517 328.05 133.927 327.874 134.338C327.698 134.734 327.595 135.123 327.566 135.504L328.666 135.746V137.88H326.29V136.34C326.29 135.431 326.466 134.697 326.818 134.14C327.185 133.568 327.581 133.062 328.006 132.622ZM342.078 133.7L337.018 143.094V148H335.258V143.094L330.198 133.7H332.178L336.534 141.95H335.83L340.098 133.7H342.078ZM346.852 148.22C345.914 148.22 345.034 147.993 344.212 147.538C343.391 147.083 342.724 146.431 342.21 145.58C341.712 144.715 341.462 143.695 341.462 142.522C341.462 141.349 341.712 140.337 342.21 139.486C342.724 138.621 343.391 137.953 344.212 137.484C345.034 137.015 345.914 136.78 346.852 136.78C347.791 136.78 348.664 137.015 349.47 137.484C350.292 137.953 350.952 138.621 351.45 139.486C351.949 140.337 352.198 141.349 352.198 142.522C352.198 143.695 351.949 144.715 351.45 145.58C350.952 146.431 350.292 147.083 349.47 147.538C348.664 147.993 347.791 148.22 346.852 148.22ZM346.852 146.57C347.468 146.57 348.048 146.416 348.59 146.108C349.133 145.8 349.573 145.345 349.91 144.744C350.262 144.128 350.438 143.387 350.438 142.522C350.438 141.657 350.262 140.923 349.91 140.322C349.573 139.706 349.133 139.237 348.59 138.914C348.048 138.591 347.468 138.43 346.852 138.43C346.236 138.43 345.65 138.591 345.092 138.914C344.55 139.222 344.102 139.684 343.75 140.3C343.398 140.901 343.222 141.642 343.222 142.522C343.222 143.387 343.391 144.128 343.728 144.744C344.08 145.345 344.535 145.8 345.092 146.108C345.65 146.416 346.236 146.57 346.852 146.57ZM363.76 148H362V137H363.76V148ZM362.11 142.874L362.132 143.49C362.117 143.666 362.073 143.937 362 144.304C361.941 144.671 361.831 145.081 361.67 145.536C361.523 145.976 361.303 146.401 361.01 146.812C360.731 147.223 360.365 147.56 359.91 147.824C359.47 148.088 358.92 148.22 358.26 148.22C357.835 148.22 357.395 148.154 356.94 148.022C356.5 147.905 356.089 147.707 355.708 147.428C355.327 147.135 355.019 146.731 354.784 146.218C354.549 145.705 354.432 145.067 354.432 144.304V137H356.192V143.864C356.192 144.524 356.295 145.045 356.5 145.426C356.72 145.793 357.013 146.057 357.38 146.218C357.747 146.379 358.157 146.46 358.612 146.46C359.36 146.46 359.983 146.269 360.482 145.888C360.981 145.507 361.362 145.037 361.626 144.48C361.89 143.923 362.051 143.387 362.11 142.874ZM375.391 148.22C374.511 148.22 373.704 147.978 372.971 147.494C372.252 146.995 371.68 146.321 371.255 145.47C370.829 144.605 370.617 143.622 370.617 142.522C370.617 141.422 370.822 140.439 371.233 139.574C371.643 138.709 372.208 138.027 372.927 137.528C373.645 137.029 374.467 136.78 375.391 136.78C376.212 136.78 376.879 136.934 377.393 137.242C377.921 137.535 378.324 137.946 378.603 138.474C378.881 139.002 379.072 139.611 379.175 140.3C379.292 140.989 379.351 141.73 379.351 142.522C379.351 143.079 379.292 143.688 379.175 144.348C379.057 144.993 378.852 145.617 378.559 146.218C378.28 146.805 377.884 147.289 377.371 147.67C376.857 148.037 376.197 148.22 375.391 148.22ZM375.831 146.548C376.579 146.548 377.195 146.365 377.679 145.998C378.177 145.631 378.544 145.147 378.779 144.546C379.013 143.93 379.131 143.255 379.131 142.522C379.131 141.715 379.006 141.011 378.757 140.41C378.522 139.794 378.155 139.317 377.657 138.98C377.173 138.628 376.564 138.452 375.831 138.452C374.731 138.452 373.88 138.841 373.279 139.618C372.677 140.381 372.377 141.349 372.377 142.522C372.377 143.299 372.523 143.996 372.817 144.612C373.125 145.213 373.535 145.69 374.049 146.042C374.577 146.379 375.171 146.548 375.831 146.548ZM379.131 132.6H380.891V148H379.285C379.255 147.677 379.219 147.296 379.175 146.856C379.145 146.416 379.131 146.064 379.131 145.8V132.6ZM388.854 148.22C387.916 148.22 387.036 147.993 386.214 147.538C385.393 147.083 384.726 146.431 384.212 145.58C383.714 144.715 383.464 143.695 383.464 142.522C383.464 141.349 383.714 140.337 384.212 139.486C384.726 138.621 385.393 137.953 386.214 137.484C387.036 137.015 387.916 136.78 388.854 136.78C389.793 136.78 390.666 137.015 391.472 137.484C392.294 137.953 392.954 138.621 393.452 139.486C393.951 140.337 394.2 141.349 394.2 142.522C394.2 143.695 393.951 144.715 393.452 145.58C392.954 146.431 392.294 147.083 391.472 147.538C390.666 147.993 389.793 148.22 388.854 148.22ZM388.854 146.57C389.47 146.57 390.05 146.416 390.592 146.108C391.135 145.8 391.575 145.345 391.912 144.744C392.264 144.128 392.44 143.387 392.44 142.522C392.44 141.657 392.264 140.923 391.912 140.322C391.575 139.706 391.135 139.237 390.592 138.914C390.05 138.591 389.47 138.43 388.854 138.43C388.238 138.43 387.652 138.591 387.094 138.914C386.552 139.222 386.104 139.684 385.752 140.3C385.4 140.901 385.224 141.642 385.224 142.522C385.224 143.387 385.393 144.128 385.73 144.744C386.082 145.345 386.537 145.8 387.094 146.108C387.652 146.416 388.238 146.57 388.854 146.57ZM396.434 137H398.194V148H396.434V137ZM401.978 136.78C402.565 136.78 403.093 136.868 403.562 137.044C404.031 137.22 404.427 137.477 404.75 137.814C405.073 138.151 405.322 138.562 405.498 139.046C405.674 139.515 405.762 140.051 405.762 140.652V148H404.002V141.092C404.002 140.241 403.804 139.603 403.408 139.178C403.012 138.753 402.418 138.54 401.626 138.54C401.025 138.54 400.467 138.694 399.954 139.002C399.441 139.31 399.015 139.735 398.678 140.278C398.355 140.806 398.157 141.422 398.084 142.126L398.062 140.85C398.135 140.234 398.282 139.677 398.502 139.178C398.737 138.679 399.023 138.254 399.36 137.902C399.712 137.535 400.108 137.257 400.548 137.066C401.003 136.875 401.479 136.78 401.978 136.78ZM408.599 138.958L408.137 138.474C408.371 138.063 408.577 137.66 408.753 137.264C408.929 136.853 409.024 136.457 409.039 136.076L407.961 135.834V133.7H410.337V135.24C410.337 136.135 410.153 136.868 409.787 137.44C409.435 138.012 409.039 138.518 408.599 138.958ZM411.992 137H418.46V138.65H411.992V137ZM414.346 134.14H416.106V148H414.346V134.14ZM425.335 137H427.095V152.4H425.335V137ZM427.337 132.6V134.734H425.049V132.6H427.337ZM439.406 148H437.646V137H439.406V148ZM437.756 142.874L437.778 143.49C437.764 143.666 437.72 143.937 437.646 144.304C437.588 144.671 437.478 145.081 437.316 145.536C437.17 145.976 436.95 146.401 436.656 146.812C436.378 147.223 436.011 147.56 435.556 147.824C435.116 148.088 434.566 148.22 433.906 148.22C433.481 148.22 433.041 148.154 432.586 148.022C432.146 147.905 431.736 147.707 431.354 147.428C430.973 147.135 430.665 146.731 430.43 146.218C430.196 145.705 430.078 145.067 430.078 144.304V137H431.838V143.864C431.838 144.524 431.941 145.045 432.146 145.426C432.366 145.793 432.66 146.057 433.026 146.218C433.393 146.379 433.804 146.46 434.258 146.46C435.006 146.46 435.63 146.269 436.128 145.888C436.627 145.507 437.008 145.037 437.272 144.48C437.536 143.923 437.698 143.387 437.756 142.874ZM441.732 144.458H443.36C443.404 145.089 443.639 145.602 444.064 145.998C444.504 146.394 445.135 146.592 445.956 146.592C446.455 146.592 446.843 146.526 447.122 146.394C447.415 146.262 447.628 146.086 447.76 145.866C447.892 145.631 447.958 145.375 447.958 145.096C447.958 144.759 447.87 144.495 447.694 144.304C447.533 144.099 447.305 143.93 447.012 143.798C446.733 143.666 446.411 143.541 446.044 143.424C445.619 143.263 445.179 143.094 444.724 142.918C444.284 142.727 443.866 142.507 443.47 142.258C443.089 141.994 442.781 141.679 442.546 141.312C442.311 140.931 442.194 140.476 442.194 139.948C442.194 139.508 442.282 139.097 442.458 138.716C442.634 138.32 442.883 137.983 443.206 137.704C443.543 137.411 443.932 137.183 444.372 137.022C444.827 136.861 445.325 136.78 445.868 136.78C446.601 136.78 447.217 136.927 447.716 137.22C448.229 137.513 448.618 137.931 448.882 138.474C449.161 139.002 449.307 139.618 449.322 140.322H447.804C447.701 139.662 447.489 139.185 447.166 138.892C446.858 138.584 446.411 138.43 445.824 138.43C445.223 138.43 444.761 138.562 444.438 138.826C444.115 139.09 443.954 139.442 443.954 139.882C443.954 140.205 444.071 140.476 444.306 140.696C444.541 140.901 444.841 141.092 445.208 141.268C445.589 141.429 445.993 141.598 446.418 141.774C446.843 141.95 447.254 142.126 447.65 142.302C448.046 142.478 448.398 142.683 448.706 142.918C449.014 143.153 449.256 143.446 449.432 143.798C449.623 144.135 449.718 144.561 449.718 145.074C449.718 145.69 449.571 146.24 449.278 146.724C448.999 147.193 448.581 147.56 448.024 147.824C447.481 148.088 446.814 148.22 446.022 148.22C445.303 148.22 444.687 148.132 444.174 147.956C443.675 147.765 443.257 147.523 442.92 147.23C442.583 146.922 442.319 146.599 442.128 146.262C441.952 145.925 441.835 145.595 441.776 145.272C441.717 144.949 441.703 144.678 441.732 144.458ZM451.201 137H457.669V138.65H451.201V137ZM453.555 134.14H455.315V148H453.555V134.14ZM468.526 148.22C467.66 148.22 466.861 147.978 466.128 147.494C465.409 146.995 464.83 146.321 464.389 145.47C463.964 144.605 463.752 143.622 463.752 142.522C463.752 141.422 463.972 140.439 464.412 139.574C464.852 138.709 465.446 138.027 466.194 137.528C466.956 137.029 467.807 136.78 468.745 136.78C469.772 136.78 470.55 137.044 471.078 137.572C471.62 138.085 471.987 138.775 472.178 139.64C472.383 140.505 472.486 141.466 472.486 142.522C472.486 143.079 472.427 143.688 472.31 144.348C472.192 144.993 471.987 145.617 471.694 146.218C471.415 146.805 471.019 147.289 470.506 147.67C469.992 148.037 469.332 148.22 468.526 148.22ZM468.966 146.548C469.714 146.548 470.33 146.365 470.814 145.998C471.312 145.631 471.679 145.147 471.914 144.546C472.148 143.93 472.266 143.255 472.266 142.522C472.266 141.715 472.141 141.011 471.892 140.41C471.657 139.794 471.29 139.317 470.792 138.98C470.308 138.628 469.699 138.452 468.966 138.452C467.866 138.452 467.015 138.841 466.414 139.618C465.812 140.381 465.512 141.349 465.512 142.522C465.512 143.299 465.658 143.996 465.952 144.612C466.26 145.213 466.67 145.69 467.184 146.042C467.712 146.379 468.306 146.548 468.966 146.548ZM472.266 137H474.026V148H472.42C472.42 148 472.405 147.868 472.376 147.604C472.361 147.34 472.339 147.032 472.31 146.68C472.28 146.328 472.266 146.035 472.266 145.8V137ZM476.123 137H482.591V138.65H476.123V137ZM478.477 134.14H480.237V148H478.477V134.14ZM483.9 137H490.368V138.65H483.9V137ZM486.254 134.14H488.014V148H486.254V134.14ZM500.021 144.458H501.671C501.553 145.177 501.289 145.822 500.879 146.394C500.483 146.951 499.955 147.399 499.295 147.736C498.649 148.059 497.901 148.22 497.051 148.22C496.024 148.22 495.1 147.978 494.279 147.494C493.457 146.995 492.805 146.321 492.321 145.47C491.851 144.605 491.617 143.622 491.617 142.522C491.617 141.422 491.844 140.439 492.299 139.574C492.768 138.709 493.406 138.027 494.213 137.528C495.019 137.029 495.929 136.78 496.941 136.78C498.011 136.78 498.913 137.022 499.647 137.506C500.395 137.975 500.945 138.672 501.297 139.596C501.663 140.505 501.81 141.627 501.737 142.962H493.377C493.45 143.681 493.648 144.311 493.971 144.854C494.293 145.397 494.719 145.822 495.247 146.13C495.775 146.423 496.376 146.57 497.051 146.57C497.799 146.57 498.429 146.379 498.943 145.998C499.471 145.602 499.83 145.089 500.021 144.458ZM497.007 138.43C496.097 138.43 495.335 138.694 494.719 139.222C494.103 139.75 493.692 140.469 493.487 141.378H499.933C499.874 140.41 499.559 139.677 498.987 139.178C498.429 138.679 497.769 138.43 497.007 138.43ZM504.006 137H505.766V148H504.006V137ZM509.55 136.78C510.137 136.78 510.665 136.868 511.134 137.044C511.604 137.22 512 137.477 512.322 137.814C512.645 138.151 512.894 138.562 513.07 139.046C513.246 139.515 513.334 140.051 513.334 140.652V148H511.574V141.092C511.574 140.241 511.376 139.603 510.98 139.178C510.584 138.753 509.99 138.54 509.198 138.54C508.597 138.54 508.04 138.694 507.526 139.002C507.013 139.31 506.588 139.735 506.25 140.278C505.928 140.806 505.73 141.422 505.656 142.126L505.634 140.85C505.708 140.234 505.854 139.677 506.074 139.178C506.309 138.679 506.595 138.254 506.932 137.902C507.284 137.535 507.68 137.257 508.12 137.066C508.575 136.875 509.052 136.78 509.55 136.78ZM520.346 148.22C519.466 148.22 518.659 147.978 517.926 147.494C517.207 146.995 516.635 146.321 516.21 145.47C515.784 144.605 515.572 143.622 515.572 142.522C515.572 141.422 515.777 140.439 516.188 139.574C516.598 138.709 517.163 138.027 517.882 137.528C518.6 137.029 519.422 136.78 520.346 136.78C521.167 136.78 521.834 136.934 522.348 137.242C522.876 137.535 523.279 137.946 523.558 138.474C523.836 139.002 524.027 139.611 524.13 140.3C524.247 140.989 524.306 141.73 524.306 142.522C524.306 143.079 524.247 143.688 524.13 144.348C524.012 144.993 523.807 145.617 523.514 146.218C523.235 146.805 522.839 147.289 522.326 147.67C521.812 148.037 521.152 148.22 520.346 148.22ZM520.786 146.548C521.534 146.548 522.15 146.365 522.634 145.998C523.132 145.631 523.499 145.147 523.734 144.546C523.968 143.93 524.086 143.255 524.086 142.522C524.086 141.715 523.961 141.011 523.712 140.41C523.477 139.794 523.11 139.317 522.612 138.98C522.128 138.628 521.519 138.452 520.786 138.452C519.686 138.452 518.835 138.841 518.234 139.618C517.632 140.381 517.332 141.349 517.332 142.522C517.332 143.299 517.478 143.996 517.772 144.612C518.08 145.213 518.49 145.69 519.004 146.042C519.532 146.379 520.126 146.548 520.786 146.548ZM524.086 132.6H525.846V148H524.24C524.21 147.677 524.174 147.296 524.13 146.856C524.1 146.416 524.086 146.064 524.086 145.8V132.6ZM531.323 145.844V148H529.035V145.844H531.323ZM334.43 163.7L329.37 173.094V178H327.61V173.094L322.55 163.7H324.53L328.886 171.95H328.182L332.45 163.7H334.43ZM339.204 178.22C338.265 178.22 337.385 177.993 336.564 177.538C335.743 177.083 335.075 176.431 334.562 175.58C334.063 174.715 333.814 173.695 333.814 172.522C333.814 171.349 334.063 170.337 334.562 169.486C335.075 168.621 335.743 167.953 336.564 167.484C337.385 167.015 338.265 166.78 339.204 166.78C340.143 166.78 341.015 167.015 341.822 167.484C342.643 167.953 343.303 168.621 343.802 169.486C344.301 170.337 344.55 171.349 344.55 172.522C344.55 173.695 344.301 174.715 343.802 175.58C343.303 176.431 342.643 177.083 341.822 177.538C341.015 177.993 340.143 178.22 339.204 178.22ZM339.204 176.57C339.82 176.57 340.399 176.416 340.942 176.108C341.485 175.8 341.925 175.345 342.262 174.744C342.614 174.128 342.79 173.387 342.79 172.522C342.79 171.657 342.614 170.923 342.262 170.322C341.925 169.706 341.485 169.237 340.942 168.914C340.399 168.591 339.82 168.43 339.204 168.43C338.588 168.43 338.001 168.591 337.444 168.914C336.901 169.222 336.454 169.684 336.102 170.3C335.75 170.901 335.574 171.642 335.574 172.522C335.574 173.387 335.743 174.128 336.08 174.744C336.432 175.345 336.887 175.8 337.444 176.108C338.001 176.416 338.588 176.57 339.204 176.57ZM356.112 178H354.352V167H356.112V178ZM354.462 172.874L354.484 173.49C354.469 173.666 354.425 173.937 354.352 174.304C354.293 174.671 354.183 175.081 354.022 175.536C353.875 175.976 353.655 176.401 353.362 176.812C353.083 177.223 352.716 177.56 352.262 177.824C351.822 178.088 351.272 178.22 350.612 178.22C350.186 178.22 349.746 178.154 349.292 178.022C348.852 177.905 348.441 177.707 348.06 177.428C347.678 177.135 347.37 176.731 347.136 176.218C346.901 175.705 346.784 175.067 346.784 174.304V167H348.544V173.864C348.544 174.524 348.646 175.045 348.852 175.426C349.072 175.793 349.365 176.057 349.732 176.218C350.098 176.379 350.509 176.46 350.964 176.46C351.712 176.46 352.335 176.269 352.834 175.888C353.332 175.507 353.714 175.037 353.978 174.48C354.242 173.923 354.403 173.387 354.462 172.874ZM368.402 169.09V167.44H372.868V169.09H368.402ZM371.372 167.44H373.132V178H371.372V167.44ZM364.772 178V166.34H366.532V178H364.772ZM368.512 162.6H373.132V164.36H368.512C368.146 164.345 367.808 164.397 367.5 164.514C367.207 164.631 366.972 164.837 366.796 165.13C366.62 165.409 366.532 165.812 366.532 166.34H364.772C364.772 165.46 364.926 164.749 365.234 164.206C365.557 163.649 365.997 163.245 366.554 162.996C367.126 162.732 367.779 162.6 368.512 162.6ZM362.814 167.44H369.282V169.09H362.814V167.44ZM375.873 167H377.633V178H375.873V167ZM381.417 166.78C382.004 166.78 382.532 166.868 383.001 167.044C383.471 167.22 383.867 167.477 384.189 167.814C384.512 168.151 384.761 168.562 384.937 169.046C385.113 169.515 385.201 170.051 385.201 170.652V178H383.441V171.092C383.441 170.241 383.243 169.603 382.847 169.178C382.451 168.753 381.857 168.54 381.065 168.54C380.464 168.54 379.907 168.694 379.393 169.002C378.88 169.31 378.455 169.735 378.117 170.278C377.795 170.806 377.597 171.422 377.523 172.126L377.501 170.85C377.575 170.234 377.721 169.677 377.941 169.178C378.176 168.679 378.462 168.254 378.799 167.902C379.151 167.535 379.547 167.257 379.987 167.066C380.442 166.875 380.919 166.78 381.417 166.78ZM390.233 162.6V164.734H387.945V162.6H390.233ZM388.209 167H389.969V178H388.209V167ZM392.447 174.458H394.075C394.119 175.089 394.354 175.602 394.779 175.998C395.219 176.394 395.85 176.592 396.671 176.592C397.17 176.592 397.558 176.526 397.837 176.394C398.13 176.262 398.343 176.086 398.475 175.866C398.607 175.631 398.673 175.375 398.673 175.096C398.673 174.759 398.585 174.495 398.409 174.304C398.248 174.099 398.02 173.93 397.727 173.798C397.448 173.666 397.126 173.541 396.759 173.424C396.334 173.263 395.894 173.094 395.439 172.918C394.999 172.727 394.581 172.507 394.185 172.258C393.804 171.994 393.496 171.679 393.261 171.312C393.026 170.931 392.909 170.476 392.909 169.948C392.909 169.508 392.997 169.097 393.173 168.716C393.349 168.32 393.598 167.983 393.921 167.704C394.258 167.411 394.647 167.183 395.087 167.022C395.542 166.861 396.04 166.78 396.583 166.78C397.316 166.78 397.932 166.927 398.431 167.22C398.944 167.513 399.333 167.931 399.597 168.474C399.876 169.002 400.022 169.618 400.037 170.322H398.519C398.416 169.662 398.204 169.185 397.881 168.892C397.573 168.584 397.126 168.43 396.539 168.43C395.938 168.43 395.476 168.562 395.153 168.826C394.83 169.09 394.669 169.442 394.669 169.882C394.669 170.205 394.786 170.476 395.021 170.696C395.256 170.901 395.556 171.092 395.923 171.268C396.304 171.429 396.708 171.598 397.133 171.774C397.558 171.95 397.969 172.126 398.365 172.302C398.761 172.478 399.113 172.683 399.421 172.918C399.729 173.153 399.971 173.446 400.147 173.798C400.338 174.135 400.433 174.561 400.433 175.074C400.433 175.69 400.286 176.24 399.993 176.724C399.714 177.193 399.296 177.56 398.739 177.824C398.196 178.088 397.529 178.22 396.737 178.22C396.018 178.22 395.402 178.132 394.889 177.956C394.39 177.765 393.972 177.523 393.635 177.23C393.298 176.922 393.034 176.599 392.843 176.262C392.667 175.925 392.55 175.595 392.491 175.272C392.432 174.949 392.418 174.678 392.447 174.458ZM410.518 178V171.092C410.518 170.52 410.43 170.051 410.254 169.684C410.078 169.303 409.814 169.017 409.462 168.826C409.11 168.635 408.67 168.54 408.142 168.54C407.541 168.54 406.983 168.694 406.47 169.002C405.957 169.31 405.531 169.735 405.194 170.278C404.871 170.806 404.673 171.422 404.6 172.126L404.578 170.85C404.651 170.234 404.798 169.677 405.018 169.178C405.253 168.679 405.539 168.254 405.876 167.902C406.228 167.535 406.624 167.257 407.064 167.066C407.519 166.875 407.995 166.78 408.494 166.78C409.081 166.78 409.609 166.868 410.078 167.044C410.547 167.22 410.943 167.477 411.266 167.814C411.589 168.151 411.838 168.562 412.014 169.046C412.19 169.515 412.278 170.051 412.278 170.652V178H410.518ZM402.95 178V162.6H404.71V178H402.95ZM418.996 167H425.464V168.65H418.996V167ZM421.35 164.14H423.11V178H421.35V164.14ZM431.486 178.22C430.621 178.22 429.822 177.978 429.088 177.494C428.37 176.995 427.79 176.321 427.35 175.47C426.925 174.605 426.712 173.622 426.712 172.522C426.712 171.422 426.932 170.439 427.372 169.574C427.812 168.709 428.406 168.027 429.154 167.528C429.917 167.029 430.768 166.78 431.706 166.78C432.733 166.78 433.51 167.044 434.038 167.572C434.581 168.085 434.948 168.775 435.138 169.64C435.344 170.505 435.446 171.466 435.446 172.522C435.446 173.079 435.388 173.688 435.27 174.348C435.153 174.993 434.948 175.617 434.654 176.218C434.376 176.805 433.98 177.289 433.466 177.67C432.953 178.037 432.293 178.22 431.486 178.22ZM431.926 176.548C432.674 176.548 433.29 176.365 433.774 175.998C434.273 175.631 434.64 175.147 434.874 174.546C435.109 173.93 435.226 173.255 435.226 172.522C435.226 171.715 435.102 171.011 434.852 170.41C434.618 169.794 434.251 169.317 433.752 168.98C433.268 168.628 432.66 168.452 431.926 168.452C430.826 168.452 429.976 168.841 429.374 169.618C428.773 170.381 428.472 171.349 428.472 172.522C428.472 173.299 428.619 173.996 428.912 174.612C429.22 175.213 429.631 175.69 430.144 176.042C430.672 176.379 431.266 176.548 431.926 176.548ZM435.226 167H436.986V178H435.38C435.38 178 435.366 177.868 435.336 177.604C435.322 177.34 435.3 177.032 435.27 176.68C435.241 176.328 435.226 176.035 435.226 175.8V167ZM439.326 174.458H440.954C440.998 175.089 441.232 175.602 441.658 175.998C442.098 176.394 442.728 176.592 443.55 176.592C444.048 176.592 444.437 176.526 444.716 176.394C445.009 176.262 445.222 176.086 445.354 175.866C445.486 175.631 445.552 175.375 445.552 175.096C445.552 174.759 445.464 174.495 445.288 174.304C445.126 174.099 444.899 173.93 444.606 173.798C444.327 173.666 444.004 173.541 443.638 173.424C443.212 173.263 442.772 173.094 442.318 172.918C441.878 172.727 441.46 172.507 441.064 172.258C440.682 171.994 440.374 171.679 440.14 171.312C439.905 170.931 439.788 170.476 439.788 169.948C439.788 169.508 439.876 169.097 440.052 168.716C440.228 168.32 440.477 167.983 440.8 167.704C441.137 167.411 441.526 167.183 441.966 167.022C442.42 166.861 442.919 166.78 443.462 166.78C444.195 166.78 444.811 166.927 445.31 167.22C445.823 167.513 446.212 167.931 446.476 168.474C446.754 169.002 446.901 169.618 446.916 170.322H445.398C445.295 169.662 445.082 169.185 444.76 168.892C444.452 168.584 444.004 168.43 443.418 168.43C442.816 168.43 442.354 168.562 442.032 168.826C441.709 169.09 441.548 169.442 441.548 169.882C441.548 170.205 441.665 170.476 441.9 170.696C442.134 170.901 442.435 171.092 442.802 171.268C443.183 171.429 443.586 171.598 444.012 171.774C444.437 171.95 444.848 172.126 445.244 172.302C445.64 172.478 445.992 172.683 446.3 172.918C446.608 173.153 446.85 173.446 447.026 173.798C447.216 174.135 447.312 174.561 447.312 175.074C447.312 175.69 447.165 176.24 446.872 176.724C446.593 177.193 446.175 177.56 445.618 177.824C445.075 178.088 444.408 178.22 443.616 178.22C442.897 178.22 442.281 178.132 441.768 177.956C441.269 177.765 440.851 177.523 440.514 177.23C440.176 176.922 439.912 176.599 439.722 176.262C439.546 175.925 439.428 175.595 439.37 175.272C439.311 174.949 439.296 174.678 439.326 174.458ZM449.829 162.6H451.589V178H449.829V162.6ZM458.937 167L453.437 172.434L453.481 171.29L459.311 178H457.067L451.633 171.862L456.429 167H458.937ZM460.423 174.458H462.051C462.095 175.089 462.33 175.602 462.755 175.998C463.195 176.394 463.826 176.592 464.647 176.592C465.146 176.592 465.535 176.526 465.813 176.394C466.107 176.262 466.319 176.086 466.451 175.866C466.583 175.631 466.649 175.375 466.649 175.096C466.649 174.759 466.561 174.495 466.385 174.304C466.224 174.099 465.997 173.93 465.703 173.798C465.425 173.666 465.102 173.541 464.735 173.424C464.31 173.263 463.87 173.094 463.415 172.918C462.975 172.727 462.557 172.507 462.161 172.258C461.78 171.994 461.472 171.679 461.237 171.312C461.003 170.931 460.885 170.476 460.885 169.948C460.885 169.508 460.973 169.097 461.149 168.716C461.325 168.32 461.575 167.983 461.897 167.704C462.235 167.411 462.623 167.183 463.063 167.022C463.518 166.861 464.017 166.78 464.559 166.78C465.293 166.78 465.909 166.927 466.407 167.22C466.921 167.513 467.309 167.931 467.573 168.474C467.852 169.002 467.999 169.618 468.013 170.322H466.495C466.393 169.662 466.18 169.185 465.857 168.892C465.549 168.584 465.102 168.43 464.515 168.43C463.914 168.43 463.452 168.562 463.129 168.826C462.807 169.09 462.645 169.442 462.645 169.882C462.645 170.205 462.763 170.476 462.997 170.696C463.232 170.901 463.533 171.092 463.899 171.268C464.281 171.429 464.684 171.598 465.109 171.774C465.535 171.95 465.945 172.126 466.341 172.302C466.737 172.478 467.089 172.683 467.397 172.918C467.705 173.153 467.947 173.446 468.123 173.798C468.314 174.135 468.409 174.561 468.409 175.074C468.409 175.69 468.263 176.24 467.969 176.724C467.691 177.193 467.273 177.56 466.715 177.824C466.173 178.088 465.505 178.22 464.713 178.22C463.995 178.22 463.379 178.132 462.865 177.956C462.367 177.765 461.949 177.523 461.611 177.23C461.274 176.922 461.01 176.599 460.819 176.262C460.643 175.925 460.526 175.595 460.467 175.272C460.409 174.949 460.394 174.678 460.423 174.458ZM472.95 175.844V178H470.662V175.844H472.95ZM491.438 163.7L486.378 173.094V178H484.618V173.094L479.558 163.7H481.538L485.894 171.95H485.19L489.458 163.7H491.438ZM496.212 178.22C495.273 178.22 494.393 177.993 493.572 177.538C492.75 177.083 492.083 176.431 491.57 175.58C491.071 174.715 490.822 173.695 490.822 172.522C490.822 171.349 491.071 170.337 491.57 169.486C492.083 168.621 492.75 167.953 493.572 167.484C494.393 167.015 495.273 166.78 496.212 166.78C497.15 166.78 498.023 167.015 498.83 167.484C499.651 167.953 500.311 168.621 500.81 169.486C501.308 170.337 501.558 171.349 501.558 172.522C501.558 173.695 501.308 174.715 500.81 175.58C500.311 176.431 499.651 177.083 498.83 177.538C498.023 177.993 497.15 178.22 496.212 178.22ZM496.212 176.57C496.828 176.57 497.407 176.416 497.95 176.108C498.492 175.8 498.932 175.345 499.27 174.744C499.622 174.128 499.798 173.387 499.798 172.522C499.798 171.657 499.622 170.923 499.27 170.322C498.932 169.706 498.492 169.237 497.95 168.914C497.407 168.591 496.828 168.43 496.212 168.43C495.596 168.43 495.009 168.591 494.452 168.914C493.909 169.222 493.462 169.684 493.11 170.3C492.758 170.901 492.582 171.642 492.582 172.522C492.582 173.387 492.75 174.128 493.088 174.744C493.44 175.345 493.894 175.8 494.452 176.108C495.009 176.416 495.596 176.57 496.212 176.57ZM513.119 178H511.359V167H513.119V178ZM511.469 172.874L511.491 173.49C511.477 173.666 511.433 173.937 511.359 174.304C511.301 174.671 511.191 175.081 511.029 175.536C510.883 175.976 510.663 176.401 510.369 176.812C510.091 177.223 509.724 177.56 509.269 177.824C508.829 178.088 508.279 178.22 507.619 178.22C507.194 178.22 506.754 178.154 506.299 178.022C505.859 177.905 505.449 177.707 505.067 177.428C504.686 177.135 504.378 176.731 504.143 176.218C503.909 175.705 503.791 175.067 503.791 174.304V167H505.551V173.864C505.551 174.524 505.654 175.045 505.859 175.426C506.079 175.793 506.373 176.057 506.739 176.218C507.106 176.379 507.517 176.46 507.971 176.46C508.719 176.46 509.343 176.269 509.841 175.888C510.34 175.507 510.721 175.037 510.985 174.48C511.249 173.923 511.411 173.387 511.469 172.874ZM515.973 167H517.733V178H515.973V167ZM521.253 168.65C520.505 168.65 519.874 168.841 519.361 169.222C518.862 169.589 518.466 170.043 518.173 170.586C517.894 171.114 517.711 171.627 517.623 172.126L517.601 170.85C517.601 170.718 517.63 170.498 517.689 170.19C517.748 169.882 517.858 169.537 518.019 169.156C518.18 168.76 518.393 168.386 518.657 168.034C518.936 167.667 519.288 167.367 519.713 167.132C520.138 166.897 520.652 166.78 521.253 166.78V168.65ZM328.93 208.22C328.123 208.22 327.463 208.037 326.95 207.67C326.437 207.289 326.033 206.805 325.74 206.218C325.461 205.617 325.263 204.993 325.146 204.348C325.029 203.688 324.97 203.079 324.97 202.522C324.97 201.73 325.021 200.989 325.124 200.3C325.241 199.611 325.439 199.002 325.718 198.474C325.997 197.946 326.393 197.535 326.906 197.242C327.434 196.934 328.109 196.78 328.93 196.78C329.81 196.78 330.609 197.029 331.328 197.528C332.047 198.027 332.619 198.709 333.044 199.574C333.484 200.439 333.704 201.422 333.704 202.522C333.704 203.622 333.484 204.605 333.044 205.47C332.604 206.321 332.017 206.995 331.284 207.494C330.565 207.978 329.781 208.22 328.93 208.22ZM328.49 206.548C329.165 206.548 329.759 206.379 330.272 206.042C330.8 205.69 331.211 205.213 331.504 204.612C331.797 203.996 331.944 203.299 331.944 202.522C331.944 201.349 331.643 200.381 331.042 199.618C330.441 198.841 329.59 198.452 328.49 198.452C327.845 198.452 327.273 198.628 326.774 198.98C326.275 199.317 325.887 199.794 325.608 200.41C325.329 201.011 325.19 201.715 325.19 202.522C325.19 203.255 325.307 203.93 325.542 204.546C325.791 205.147 326.158 205.631 326.642 205.998C327.126 206.365 327.742 206.548 328.49 206.548ZM323.43 197H325.124L325.19 199.31V212.4H323.43V197ZM335.955 197H337.715V208H335.955V197ZM341.235 198.65C340.487 198.65 339.857 198.841 339.343 199.222C338.845 199.589 338.449 200.043 338.155 200.586C337.877 201.114 337.693 201.627 337.605 202.126L337.583 200.85C337.583 200.718 337.613 200.498 337.671 200.19C337.73 199.882 337.84 199.537 338.001 199.156C338.163 198.76 338.375 198.386 338.639 198.034C338.918 197.667 339.27 197.367 339.695 197.132C340.121 196.897 340.634 196.78 341.235 196.78V198.65ZM347.991 208.22C347.052 208.22 346.172 207.993 345.351 207.538C344.53 207.083 343.862 206.431 343.349 205.58C342.85 204.715 342.601 203.695 342.601 202.522C342.601 201.349 342.85 200.337 343.349 199.486C343.862 198.621 344.53 197.953 345.351 197.484C346.172 197.015 347.052 196.78 347.991 196.78C348.93 196.78 349.802 197.015 350.609 197.484C351.43 197.953 352.09 198.621 352.589 199.486C353.088 200.337 353.337 201.349 353.337 202.522C353.337 203.695 353.088 204.715 352.589 205.58C352.09 206.431 351.43 207.083 350.609 207.538C349.802 207.993 348.93 208.22 347.991 208.22ZM347.991 206.57C348.607 206.57 349.186 206.416 349.729 206.108C350.272 205.8 350.712 205.345 351.049 204.744C351.401 204.128 351.577 203.387 351.577 202.522C351.577 201.657 351.401 200.923 351.049 200.322C350.712 199.706 350.272 199.237 349.729 198.914C349.186 198.591 348.607 198.43 347.991 198.43C347.375 198.43 346.788 198.591 346.231 198.914C345.688 199.222 345.241 199.684 344.889 200.3C344.537 200.901 344.361 201.642 344.361 202.522C344.361 203.387 344.53 204.128 344.867 204.744C345.219 205.345 345.674 205.8 346.231 206.108C346.788 206.416 347.375 206.57 347.991 206.57ZM360.174 199.09V197.44H364.64V199.09H360.174ZM363.144 197.44H364.904V208H363.144V197.44ZM356.544 208V196.34H358.304V208H356.544ZM360.284 192.6H364.904V194.36H360.284C359.917 194.345 359.58 194.397 359.272 194.514C358.978 194.631 358.744 194.837 358.568 195.13C358.392 195.409 358.304 195.812 358.304 196.34H356.544C356.544 195.46 356.698 194.749 357.006 194.206C357.328 193.649 357.768 193.245 358.326 192.996C358.898 192.732 359.55 192.6 360.284 192.6ZM354.586 197.44H361.054V199.09H354.586V197.44ZM367.865 192.6H369.625V208H367.865V192.6ZM380.503 204.458H382.153C382.036 205.177 381.772 205.822 381.361 206.394C380.965 206.951 380.437 207.399 379.777 207.736C379.132 208.059 378.384 208.22 377.533 208.22C376.506 208.22 375.582 207.978 374.761 207.494C373.94 206.995 373.287 206.321 372.803 205.47C372.334 204.605 372.099 203.622 372.099 202.522C372.099 201.422 372.326 200.439 372.781 199.574C373.25 198.709 373.888 198.027 374.695 197.528C375.502 197.029 376.411 196.78 377.423 196.78C378.494 196.78 379.396 197.022 380.129 197.506C380.877 197.975 381.427 198.672 381.779 199.596C382.146 200.505 382.292 201.627 382.219 202.962H373.859C373.932 203.681 374.13 204.311 374.453 204.854C374.776 205.397 375.201 205.822 375.729 206.13C376.257 206.423 376.858 206.57 377.533 206.57C378.281 206.57 378.912 206.379 379.425 205.998C379.953 205.602 380.312 205.089 380.503 204.458ZM377.489 198.43C376.58 198.43 375.817 198.694 375.201 199.222C374.585 199.75 374.174 200.469 373.969 201.378H380.415C380.356 200.41 380.041 199.677 379.469 199.178C378.912 198.679 378.252 198.43 377.489 198.43ZM388.58 204.458H390.208C390.252 205.089 390.486 205.602 390.912 205.998C391.352 206.394 391.982 206.592 392.804 206.592C393.302 206.592 393.691 206.526 393.97 206.394C394.263 206.262 394.476 206.086 394.608 205.866C394.74 205.631 394.806 205.375 394.806 205.096C394.806 204.759 394.718 204.495 394.542 204.304C394.38 204.099 394.153 203.93 393.86 203.798C393.581 203.666 393.258 203.541 392.892 203.424C392.466 203.263 392.026 203.094 391.572 202.918C391.132 202.727 390.714 202.507 390.318 202.258C389.936 201.994 389.628 201.679 389.394 201.312C389.159 200.931 389.042 200.476 389.042 199.948C389.042 199.508 389.13 199.097 389.306 198.716C389.482 198.32 389.731 197.983 390.054 197.704C390.391 197.411 390.78 197.183 391.22 197.022C391.674 196.861 392.173 196.78 392.716 196.78C393.449 196.78 394.065 196.927 394.564 197.22C395.077 197.513 395.466 197.931 395.73 198.474C396.008 199.002 396.155 199.618 396.17 200.322H394.652C394.549 199.662 394.336 199.185 394.014 198.892C393.706 198.584 393.258 198.43 392.672 198.43C392.07 198.43 391.608 198.562 391.286 198.826C390.963 199.09 390.802 199.442 390.802 199.882C390.802 200.205 390.919 200.476 391.154 200.696C391.388 200.901 391.689 201.092 392.056 201.268C392.437 201.429 392.84 201.598 393.266 201.774C393.691 201.95 394.102 202.126 394.498 202.302C394.894 202.478 395.246 202.683 395.554 202.918C395.862 203.153 396.104 203.446 396.28 203.798C396.47 204.135 396.566 204.561 396.566 205.074C396.566 205.69 396.419 206.24 396.126 206.724C395.847 207.193 395.429 207.56 394.872 207.824C394.329 208.088 393.662 208.22 392.87 208.22C392.151 208.22 391.535 208.132 391.022 207.956C390.523 207.765 390.105 207.523 389.768 207.23C389.43 206.922 389.166 206.599 388.976 206.262C388.8 205.925 388.682 205.595 388.624 205.272C388.565 204.949 388.55 204.678 388.58 204.458ZM406.651 208V201.092C406.651 200.52 406.563 200.051 406.387 199.684C406.211 199.303 405.947 199.017 405.595 198.826C405.243 198.635 404.803 198.54 404.275 198.54C403.673 198.54 403.116 198.694 402.603 199.002C402.089 199.31 401.664 199.735 401.327 200.278C401.004 200.806 400.806 201.422 400.733 202.126L400.711 200.85C400.784 200.234 400.931 199.677 401.151 199.178C401.385 198.679 401.671 198.254 402.009 197.902C402.361 197.535 402.757 197.257 403.197 197.066C403.651 196.875 404.128 196.78 404.627 196.78C405.213 196.78 405.741 196.868 406.211 197.044C406.68 197.22 407.076 197.477 407.399 197.814C407.721 198.151 407.971 198.562 408.147 199.046C408.323 199.515 408.411 200.051 408.411 200.652V208H406.651ZM399.083 208V192.6H400.843V208H399.083ZM416.054 208.22C415.115 208.22 414.235 207.993 413.414 207.538C412.592 207.083 411.925 206.431 411.412 205.58C410.913 204.715 410.664 203.695 410.664 202.522C410.664 201.349 410.913 200.337 411.412 199.486C411.925 198.621 412.592 197.953 413.414 197.484C414.235 197.015 415.115 196.78 416.054 196.78C416.992 196.78 417.865 197.015 418.672 197.484C419.493 197.953 420.153 198.621 420.652 199.486C421.15 200.337 421.4 201.349 421.4 202.522C421.4 203.695 421.15 204.715 420.652 205.58C420.153 206.431 419.493 207.083 418.672 207.538C417.865 207.993 416.992 208.22 416.054 208.22ZM416.054 206.57C416.67 206.57 417.249 206.416 417.792 206.108C418.334 205.8 418.774 205.345 419.112 204.744C419.464 204.128 419.64 203.387 419.64 202.522C419.64 201.657 419.464 200.923 419.112 200.322C418.774 199.706 418.334 199.237 417.792 198.914C417.249 198.591 416.67 198.43 416.054 198.43C415.438 198.43 414.851 198.591 414.294 198.914C413.751 199.222 413.304 199.684 412.952 200.3C412.6 200.901 412.424 201.642 412.424 202.522C412.424 203.387 412.592 204.128 412.93 204.744C413.282 205.345 413.736 205.8 414.294 206.108C414.851 206.416 415.438 206.57 416.054 206.57ZM434.355 206.394L433.915 206.372L436.489 197H438.403L435.037 208H433.387L430.131 198.364H430.571L427.315 208H425.665L422.321 197H424.235L426.765 206.372L426.325 206.394L429.295 197H431.429L434.355 206.394ZM439.541 204.458H441.169C441.213 205.089 441.447 205.602 441.873 205.998C442.313 206.394 442.943 206.592 443.765 206.592C444.263 206.592 444.652 206.526 444.931 206.394C445.224 206.262 445.437 206.086 445.569 205.866C445.701 205.631 445.767 205.375 445.767 205.096C445.767 204.759 445.679 204.495 445.503 204.304C445.341 204.099 445.114 203.93 444.821 203.798C444.542 203.666 444.219 203.541 443.853 203.424C443.427 203.263 442.987 203.094 442.533 202.918C442.093 202.727 441.675 202.507 441.279 202.258C440.897 201.994 440.589 201.679 440.355 201.312C440.12 200.931 440.003 200.476 440.003 199.948C440.003 199.508 440.091 199.097 440.267 198.716C440.443 198.32 440.692 197.983 441.015 197.704C441.352 197.411 441.741 197.183 442.181 197.022C442.635 196.861 443.134 196.78 443.677 196.78C444.41 196.78 445.026 196.927 445.525 197.22C446.038 197.513 446.427 197.931 446.691 198.474C446.969 199.002 447.116 199.618 447.131 200.322H445.613C445.51 199.662 445.297 199.185 444.975 198.892C444.667 198.584 444.219 198.43 443.633 198.43C443.031 198.43 442.569 198.562 442.247 198.826C441.924 199.09 441.763 199.442 441.763 199.882C441.763 200.205 441.88 200.476 442.115 200.696C442.349 200.901 442.65 201.092 443.017 201.268C443.398 201.429 443.801 201.598 444.227 201.774C444.652 201.95 445.063 202.126 445.459 202.302C445.855 202.478 446.207 202.683 446.515 202.918C446.823 203.153 447.065 203.446 447.241 203.798C447.431 204.135 447.527 204.561 447.527 205.074C447.527 205.69 447.38 206.24 447.087 206.724C446.808 207.193 446.39 207.56 445.833 207.824C445.29 208.088 444.623 208.22 443.831 208.22C443.112 208.22 442.496 208.132 441.983 207.956C441.484 207.765 441.066 207.523 440.729 207.23C440.391 206.922 440.127 206.599 439.937 206.262C439.761 205.925 439.643 205.595 439.585 205.272C439.526 204.949 439.511 204.678 439.541 204.458ZM456.577 192.6V194.734H454.289V192.6H456.577ZM454.553 197H456.313V208H454.553V197ZM458.549 197H465.017V198.65H458.549V197ZM460.903 194.14H462.663V208H460.903V194.14ZM468.503 205.844V208H466.215V205.844H468.503ZM470.689 198.958L470.227 198.474C470.461 198.063 470.667 197.66 470.843 197.264C471.019 196.853 471.114 196.457 471.129 196.076L470.051 195.834V193.7H472.427V195.24C472.427 196.135 472.243 196.868 471.877 197.44C471.525 198.012 471.129 198.518 470.689 198.958ZM473.989 198.958L473.527 198.474C473.761 198.063 473.967 197.66 474.143 197.264C474.319 196.853 474.414 196.457 474.429 196.076L473.351 195.834V193.7H475.727V195.24C475.727 196.135 475.543 196.868 475.177 197.44C474.825 198.012 474.429 198.518 473.989 198.958Z" fill="white"/>
<defs>
<linearGradient id="paint0_linear_1397_527" x1="151" y1="143" x2="135.29" y2="314.752" gradientUnits="userSpaceOnUse">
<stop stop-color="#8ACADE"/>
<stop offset="0.860577" stop-color="#8ACADE" stop-opacity="0.1"/>
</linearGradient>
<clipPath id="clip0_1397_527">
<rect width="610" height="289" fill="white"/>
</clipPath>
</defs>
</svg>
