<svg width="514" height="641" viewBox="0 0 514 641" fill="none" xmlns="http://www.w3.org/2000/svg">
<g clip-path="url(#clip0_1608_1833)">
<path d="M59.7028 554.522C59.1914 554.547 58.6851 554.406 58.2525 554.119C57.8199 553.832 57.482 553.413 57.2844 552.918C57.0869 552.423 57.0394 551.876 57.1483 551.352C57.2571 550.827 57.5172 550.351 57.8931 549.986C57.9561 549.724 58.0013 549.536 58.0642 549.274C58.0417 549.216 58.019 549.159 57.9962 549.102C55.6974 543.357 47.9063 543.397 45.627 549.151C43.6039 554.257 41.0282 559.372 40.394 564.772C40.1147 567.158 40.2325 569.578 40.7423 571.922C35.9907 561.059 33.5233 549.252 33.5074 537.302C33.5064 534.303 33.6654 531.307 33.9836 528.327C34.2465 525.884 34.6114 523.458 35.0781 521.05C37.6248 507.983 43.0928 495.735 51.033 485.313C54.8761 483.115 57.984 479.736 59.938 475.63C60.6459 474.154 61.1462 472.579 61.4233 470.952C60.9898 471.012 60.5492 471.049 60.1157 471.079C59.9807 471.086 59.8385 471.094 59.7035 471.101L59.6525 471.104C59.1761 471.126 58.7036 471.004 58.292 470.751C57.8804 470.499 57.5472 470.127 57.3325 469.681C57.1178 469.234 57.0308 468.732 57.0819 468.236C57.133 467.739 57.3201 467.268 57.6207 466.88C57.8079 466.638 57.9952 466.397 58.1826 466.156C58.4669 465.783 58.7583 465.418 59.0425 465.046C59.0753 465.011 59.1062 464.973 59.1349 464.934C59.4619 464.51 59.7887 464.092 60.1157 463.668C59.519 462.697 58.7163 461.884 57.7704 461.292C54.4941 459.281 49.9741 460.674 47.6075 463.78C45.2338 466.886 44.7861 471.243 45.6104 475.123C46.3141 478.445 47.8491 481.492 49.5761 484.389C49.3984 484.628 49.2136 484.858 49.036 485.097C45.7881 489.474 42.9573 494.174 40.5843 499.13C41.2557 493.633 40.2644 487.012 38.5746 482.743C36.651 477.88 33.0456 473.784 29.8705 469.579C26.0567 464.529 18.2363 466.733 17.5644 473.135C17.5579 473.197 17.5515 473.259 17.5453 473.321C18.0169 473.6 18.4786 473.896 18.9302 474.209C19.4977 474.606 19.9373 475.174 20.1917 475.838C20.446 476.501 20.5031 477.23 20.3554 477.928C20.2078 478.627 19.8624 479.262 19.3644 479.751C18.8664 480.24 18.2391 480.56 17.5646 480.669L17.4956 480.68C17.6636 482.461 17.9605 484.227 18.3839 485.961C19.6107 490.802 21.7785 495.325 24.7515 499.247C27.7245 503.169 31.4385 506.406 35.6608 508.753C35.938 508.902 36.2081 509.051 36.4852 509.192C34.101 516.273 32.6055 523.649 32.0363 531.135C31.714 535.551 31.7331 539.987 32.0932 544.4C32.086 544.348 32.0789 544.296 32.0718 544.244C31.1621 539.337 28.6643 534.909 25.0004 531.708C19.5586 527.023 11.8703 525.298 5.99959 521.532C3.17358 519.72 -0.447757 522.062 0.0454602 525.496C0.053339 525.551 0.06134 525.606 0.0694683 525.66C0.944623 526.034 1.79672 526.464 2.62082 526.949C3.09242 527.228 3.55406 527.524 4.00574 527.837C4.57317 528.234 5.01284 528.802 5.26715 529.466C5.52146 530.129 5.57855 530.858 5.43094 531.556C5.28333 532.255 4.9379 532.89 4.43991 533.379C3.94193 533.868 3.31461 534.188 2.64015 534.297L2.57103 534.308C2.5213 534.315 2.47864 534.323 2.42897 534.33C3.92429 538.072 6.02302 541.516 8.63324 544.512C11.8578 548.138 15.755 551.036 20.086 553.028C24.4171 555.019 29.0906 556.063 33.8201 556.094H33.8272C35.1111 561.941 36.9713 567.633 39.3778 573.077H59.206C59.2771 572.846 59.341 572.607 59.405 572.376C57.5697 572.497 55.7271 572.382 53.9184 572.034C55.3896 570.142 56.8607 568.235 58.3318 566.343C58.3647 566.308 58.3955 566.271 58.4242 566.232C59.1704 565.263 59.9238 564.302 60.67 563.334L60.6704 563.333C60.7102 560.365 60.3852 557.404 59.7035 554.523L59.7028 554.522Z" fill="#F2F2F2"/>
<path d="M295.531 573.866L0.568663 573.993C0.444262 573.993 0.324957 573.941 0.236992 573.849C0.149027 573.757 0.0996094 573.632 0.0996094 573.501C0.0996094 573.371 0.149027 573.246 0.236992 573.154C0.324957 573.061 0.444262 573.01 0.568663 573.01L295.531 572.883C295.656 572.883 295.775 572.935 295.863 573.027C295.951 573.119 296 573.244 296 573.374C296 573.505 295.951 573.63 295.863 573.722C295.775 573.814 295.656 573.866 295.531 573.866Z" fill="#CACACA"/>
<path d="M250.077 573.555C236.647 574.15 229.053 573.717 219.262 564.81C212.596 564.625 207.298 559.572 207.45 553.548C207.603 547.524 213.151 542.775 219.816 542.96L244.019 544.163C250.685 544.349 263.081 543.919 262.928 549.943C262.853 552.901 262.852 556.736 262.59 560.754C262.375 564.128 260.979 567.3 258.67 569.663C256.361 572.025 253.301 573.411 250.077 573.555Z" fill="#2F2E41"/>
<path d="M206.939 629.944L200.004 631.132L192.334 603.665L202.569 601.912L206.939 629.944Z" fill="#FFB6B6"/>
<path d="M204.183 572.671C217.112 576.003 226.659 572.251 234.522 572.737C238.992 564.833 253.26 554.792 245.475 550.566C241.14 548.213 197.068 542.787 191.282 549.049C176.405 565.151 194.876 616.001 194.876 616.001L205.15 615.863L208.432 610.952L205.788 605.601L208.289 601.226L205.427 596.719L204.183 572.671Z" fill="#2F2E41"/>
<path d="M211.708 635.433L207.165 636.708L205.205 632.44L204.277 637.518L192.228 640.9C191.65 641.062 191.038 641.026 190.481 640.798C189.924 640.57 189.452 640.161 189.132 639.631C188.813 639.102 188.663 638.479 188.705 637.854C188.747 637.229 188.979 636.634 189.366 636.157L197.209 626.492L196.048 621.947L206.331 619.74L211.708 635.433Z" fill="#2F2E41"/>
<path d="M263.766 620.993L258.705 626.101L237.496 608.075L244.966 600.535L263.766 620.993Z" fill="#FFB6B6"/>
<path d="M222.969 564.198C234.821 568.982 245.186 563.661 255.427 557.494C254.816 548.328 254.475 535.111 245.778 536.273C240.935 536.92 200.904 543.852 199.541 552.451C196.036 574.562 246.279 616.708 246.279 616.708L254.655 610.473L254.692 604.478L249.614 601.651L249.299 596.561L244.499 594.559L222.969 564.198Z" fill="#2F2E41"/>
<path d="M270.667 622.666L267.621 626.421L263.694 624.078L265.685 628.808L257.606 638.769C257.219 639.247 256.696 639.582 256.114 639.726C255.532 639.87 254.922 639.816 254.372 639.57C253.821 639.325 253.36 638.902 253.056 638.362C252.752 637.823 252.62 637.196 252.68 636.572L253.889 623.948L250.469 620.901L257.731 612.959L270.667 622.666Z" fill="#2F2E41"/>
<path d="M216.72 545.962C215.885 545.962 215.411 545.79 215.227 545.422C214.958 544.882 213.238 544.177 213.779 543.36C214.157 542.79 215.068 542.028 214.717 541.589C213.365 539.897 209.991 491.383 209.196 484.764C209.001 482.716 209.266 480.648 209.97 478.726C212.197 472.112 215.238 470.079 221.295 466.03C221.786 465.701 222.298 465.358 222.83 465C223.519 464.536 223.481 465.619 223.44 463.991C223.395 462.181 223.348 460.31 224.194 459.14L224.249 459.064L224.338 459.042C226.384 458.546 233.266 457.626 237.341 459.049L237.397 459.069L237.439 459.113C238.407 460.127 238.496 462.093 238.581 463.993C238.651 465.553 238.717 464.406 239.265 465.046C241.358 467.491 244.513 468.905 247.144 469.706C248.793 470.203 250.237 471.262 251.247 472.716C252.257 474.169 252.776 475.935 252.721 477.732C252.435 486.787 252.66 501.104 251.185 511.193C248.731 527.985 271.137 552.235 258.303 552.733C258.336 552.786 258.354 552.847 258.356 552.91C258.358 552.973 258.343 553.035 258.314 553.09C257.398 554.883 219.867 545.962 216.72 545.962Z" fill="#E6E6E6"/>
<path d="M229.709 457.694C238.157 457.694 245.006 450.516 245.006 441.661C245.006 432.807 238.157 425.629 229.709 425.629C221.26 425.629 214.411 432.807 214.411 441.661C214.411 450.516 221.26 457.694 229.709 457.694Z" fill="#2F2E41"/>
<path d="M230.94 459.016C237.009 458.836 241.79 453.534 241.618 447.173C241.446 440.812 236.386 435.802 230.317 435.982C224.248 436.162 219.468 441.465 219.639 447.826C219.811 454.186 224.871 459.197 230.94 459.016Z" fill="#FFB6B6"/>
<path d="M230.734 429.928L226.278 430.06C223.47 430.146 220.808 431.396 218.878 433.536C216.948 435.676 215.907 438.531 215.983 441.475L215.986 441.578L216.067 441.631C218.49 443.311 221.349 444.164 224.252 444.072L224.503 444.065L226.965 443.948C227.379 442.83 227.518 441.621 227.368 440.432C227.739 441.559 228.03 442.713 228.236 443.886L239.285 443.359C239.927 443.325 240.532 443.03 240.97 442.536C241.408 442.042 241.645 441.387 241.629 440.713C241.546 437.77 240.353 434.981 238.31 432.959C236.268 430.937 233.543 429.847 230.734 429.928Z" fill="#2F2E41"/>
<path d="M221.854 427.037C220.848 428.337 219.233 428.878 217.782 429.583C215.221 430.852 212.995 432.756 211.295 435.131C209.596 437.506 208.475 440.279 208.029 443.21C207.687 445.598 207.807 448.055 207.228 450.389C206.653 452.723 205.135 455.042 202.88 455.511C201.354 455.831 199.8 455.256 198.34 454.686C197.538 454.376 196.736 454.064 195.933 453.75C196.702 451.55 197.469 449.349 198.235 447.148C196.965 449.241 195.474 451.178 193.791 452.922C190.915 451.805 188.037 450.688 185.156 449.571C192.164 449.391 190.776 442.297 192.15 435.098C192.906 431.141 200.171 428.262 201.509 424.48C202.232 422.428 203.5 420.637 205.164 419.317C206.827 417.997 208.817 417.205 210.897 417.033C212.977 416.862 215.061 417.318 216.901 418.349C218.741 419.38 220.261 420.942 221.281 422.849C222.736 423.407 222.841 425.753 221.854 427.037Z" fill="#2F2E41"/>
<path d="M222.555 431.805C225.701 431.805 228.251 429.132 228.251 425.835C228.251 422.538 225.701 419.865 222.555 419.865C219.409 419.865 216.858 422.538 216.858 425.835C216.858 429.132 219.409 431.805 222.555 431.805Z" fill="#2F2E41"/>
<path d="M242.789 517.946H216.491C215.591 517.945 214.727 517.57 214.091 516.902C213.454 516.235 213.096 515.33 213.095 514.386V484.761C213.096 483.817 213.454 482.912 214.091 482.245C214.727 481.578 215.591 481.202 216.491 481.201H242.789C243.69 481.202 244.553 481.578 245.19 482.245C245.827 482.912 246.185 483.817 246.186 484.761V514.386C246.185 515.33 245.826 516.235 245.19 516.902C244.553 517.57 243.69 517.945 242.789 517.946Z" fill="#3F3D56"/>
<path d="M217.231 487.599C218.319 487.599 219.201 486.675 219.201 485.535C219.201 484.395 218.319 483.471 217.231 483.471C216.144 483.471 215.262 484.395 215.262 485.535C215.262 486.675 216.144 487.599 217.231 487.599Z" fill="#E6E6E6"/>
<path d="M217.231 486.774C217.883 486.774 218.412 486.22 218.412 485.535C218.412 484.851 217.883 484.297 217.231 484.297C216.578 484.297 216.049 484.851 216.049 485.535C216.049 486.22 216.578 486.774 217.231 486.774Z" fill="#3F3D56"/>
<path d="M225.491 516.508L207.428 511.707L204.62 521.448C204.62 521.448 224.053 522.956 224.78 522.963C225.323 523.768 226.087 524.382 226.97 524.723C227.853 525.064 228.814 525.116 229.726 524.872C230.638 524.628 231.458 524.099 232.077 523.356C232.696 522.613 233.086 521.69 233.194 520.71C233.302 519.731 233.123 518.739 232.682 517.868C232.241 516.997 231.558 516.286 230.723 515.831C229.888 515.375 228.941 515.196 228.007 515.317C227.072 515.438 226.195 515.853 225.491 516.508Z" fill="#FFB6B6"/>
<path d="M213.436 472.336C200.557 479.549 194.913 495.629 187.011 509.76C186.848 511.304 186.994 512.866 187.44 514.348C187.886 515.829 188.621 517.197 189.6 518.363C190.579 519.53 191.78 520.469 193.125 521.122C194.47 521.774 195.93 522.126 197.412 522.153L212.87 522.526L210.933 512.53L205.762 509.451L211.874 493.956L213.436 472.336Z" fill="#E6E6E6"/>
<path d="M232.528 487.952L244.856 503.631L239.765 512.086C239.765 512.086 227.369 491.775 227.089 491.073C226.173 490.849 225.343 490.338 224.709 489.609C224.075 488.88 223.667 487.966 223.54 486.989C223.412 486.011 223.571 485.016 223.995 484.135C224.418 483.255 225.087 482.529 225.913 482.056C226.739 481.582 227.682 481.382 228.618 481.482C229.555 481.583 230.44 481.979 231.157 482.618C231.874 483.257 232.389 484.109 232.634 485.062C232.878 486.014 232.842 487.022 232.528 487.952Z" fill="#FFB6B6"/>
<path d="M251.11 472.737C254.831 470.581 265.685 503.818 254.264 522.721C252.961 523.461 251.524 523.908 250.047 524.032C248.57 524.157 247.084 523.957 245.684 523.446C244.284 522.935 243.002 522.123 241.919 521.063C240.836 520.002 239.976 518.717 239.394 517.288L233.481 502.123L242.954 498.958L247.478 504.399L246.849 493.574L252.233 478.19L251.11 472.737Z" fill="#E6E6E6"/>
<path d="M127.796 456.195C137.579 456.195 145.51 447.883 145.51 437.63C145.51 427.376 137.579 419.064 127.796 419.064C118.013 419.064 110.082 427.376 110.082 437.63C110.082 447.883 118.013 456.195 127.796 456.195Z" fill="#8ACADE"/>
<path d="M137.343 437H121.506C120.842 437 120.204 437.277 119.734 437.769C119.264 438.262 119 438.93 119 439.627V456.224C119 456.921 119.264 457.589 119.734 458.081C120.204 458.574 120.842 458.851 121.506 458.851H137.343C138.008 458.851 138.645 458.574 139.115 458.081C139.585 457.589 139.849 456.921 139.849 456.224V439.627C139.849 438.93 139.585 438.262 139.115 437.769C138.645 437.277 138.008 437 137.343 437ZM129.425 453.752C128.325 453.752 127.25 453.411 126.336 452.77C125.421 452.13 124.709 451.22 124.288 450.155C123.867 449.091 123.757 447.919 123.972 446.789C124.186 445.658 124.716 444.62 125.493 443.805C126.271 442.99 127.261 442.435 128.34 442.21C129.418 441.986 130.536 442.101 131.552 442.542C132.568 442.983 133.436 443.73 134.047 444.688C134.658 445.646 134.984 446.773 134.984 447.925C134.984 449.471 134.399 450.953 133.356 452.046C132.313 453.138 130.899 453.752 129.425 453.752ZM135.679 442.099C135.404 442.099 135.136 442.013 134.907 441.853C134.679 441.693 134.5 441.465 134.395 441.199C134.29 440.933 134.262 440.64 134.316 440.358C134.37 440.075 134.502 439.815 134.697 439.612C134.891 439.408 135.139 439.269 135.408 439.213C135.678 439.157 135.957 439.186 136.211 439.296C136.465 439.406 136.682 439.593 136.835 439.832C136.988 440.072 137.069 440.354 137.069 440.642C137.069 441.028 136.923 441.399 136.662 441.672C136.402 441.945 136.048 442.099 135.679 442.099Z" fill="white"/>
<path d="M133.335 562.527C143.119 562.527 151.049 554.215 151.049 543.962C151.049 533.708 143.119 525.396 133.335 525.396C123.552 525.396 115.621 533.708 115.621 543.962C115.621 554.215 123.552 562.527 133.335 562.527Z" fill="#8ACADE"/>
<path d="M128.777 562.526C125.865 562.528 123.014 561.643 120.573 559.978L119.345 559.141L120.801 559.31C121.182 559.355 121.593 559.381 122.022 559.387C123.985 559.389 125.906 558.797 127.556 557.683C126.576 557.46 125.668 556.973 124.922 556.27C124.176 555.566 123.619 554.671 123.304 553.673L123.122 553.084L123.702 553.203C123.965 553.257 124.232 553.289 124.501 553.297C123.582 552.802 122.811 552.051 122.272 551.128C121.733 550.204 121.446 549.143 121.444 548.06V547.436L121.962 547.676C122.269 547.857 122.595 548.003 122.933 548.109C122.134 547.169 121.638 545.99 121.515 544.738C121.392 543.486 121.648 542.226 122.248 541.136L122.501 540.678L122.819 541.089C125.132 544.089 128.447 546.055 132.092 546.59C132.192 546.605 132.294 546.597 132.391 546.567C132.488 546.537 132.577 546.485 132.653 546.415C132.73 546.344 132.792 546.257 132.835 546.159C132.877 546.061 132.899 545.955 132.899 545.847C132.891 544.683 133.213 543.542 133.826 542.571C134.438 541.599 135.312 540.841 136.338 540.392C137.363 539.944 138.492 539.825 139.582 540.052C140.671 540.279 141.672 540.84 142.456 541.665C143.529 541.42 144.557 540.996 145.503 540.411L146.3 539.916L146.01 540.839C145.74 541.694 145.288 542.475 144.688 543.12C145.221 542.975 145.741 542.785 146.245 542.553L147.326 542.056L146.675 543.088C145.985 544.183 145.123 545.147 144.126 545.941V546.467C144.126 554.361 138.396 562.526 128.808 562.526H128.777Z" fill="white"/>
<path d="M91.9447 509.361C101.728 509.361 109.659 501.049 109.659 490.796C109.659 480.542 101.728 472.23 91.9447 472.23C82.1614 472.23 74.2305 480.542 74.2305 490.796C74.2305 501.049 82.1614 509.361 91.9447 509.361Z" fill="#8ACADE"/>
<path d="M99.8634 487.51H84.0268C83.3621 487.51 82.7246 487.786 82.2546 488.279C81.7846 488.772 81.5205 489.44 81.5205 490.136V506.734C81.5205 507.431 81.7846 508.099 82.2546 508.591C82.7246 509.084 83.3621 509.361 84.0268 509.361H99.8634C100.528 509.361 101.166 509.084 101.636 508.591C102.106 508.099 102.37 507.431 102.37 506.734V490.136C102.37 489.44 102.106 488.772 101.636 488.279C101.166 487.786 100.528 487.51 99.8634 487.51ZM96.8898 493.113H95.0737C93.8337 493.113 93.5923 493.729 93.5923 494.637V496.563H96.5495L96.1655 499.588H93.5868V507.475C92.4842 507.692 91.3525 507.689 90.2509 507.467V499.588H87.8861V496.563H90.2948V494.327C90.2948 491.653 92.067 490.192 94.3494 490.192C95.4467 490.192 96.6209 490.278 96.8898 490.319L96.8898 493.113Z" fill="white"/>
</g>
<path d="M509.988 331.5C508.078 329.374 506.125 317.516 503.687 316.313C505.509 320.987 504.186 322.224 504.176 327.354C504.199 330.267 503.906 333.172 503.304 336H462V298.594C462 295.233 462.57 291.905 463.679 288.799C464.787 285.694 466.412 282.873 468.46 280.496C470.508 278.119 472.939 276.234 475.615 274.948C478.291 273.662 481.159 273 484.055 273C485.161 273.025 486.259 273.212 487.324 273.555C490.874 274.668 494.11 276.844 496.707 279.865C499.304 282.887 501.17 286.648 502.119 290.771C505.267 304.126 510.275 326.358 509.988 331.5Z" fill="#2F2E41"/>
<path d="M464.978 376.625L465 348L449.248 349.504L454.807 367.557L452.205 412.935C450.943 413.238 449.791 413.926 448.889 414.916C447.987 415.906 447.374 417.154 447.125 418.51C446.876 419.866 447.001 421.269 447.486 422.55C447.971 423.831 448.794 424.933 449.855 425.723C450.917 426.512 452.17 426.955 453.463 426.997C454.755 427.039 456.031 426.678 457.135 425.958C458.24 425.239 459.124 424.192 459.68 422.945C460.237 421.698 460.442 420.304 460.27 418.935L464.978 376.625Z" fill="#FFB6B6"/>
<path d="M493.002 581L499.099 580.999L502 555H493L493.002 581Z" fill="#FFB6B6"/>
<path d="M500.907 577.645L492.241 577V581.631L484.002 588.727C483.595 589.078 483.288 589.581 483.127 590.164C482.966 590.747 482.958 591.379 483.105 591.968C483.252 592.557 483.547 593.072 483.945 593.437C484.343 593.803 484.825 594 485.319 594H495.637L497.415 589.42L498.11 594H502L500.907 577.645Z" fill="#2F2E41"/>
<path d="M458.001 581L464.1 580.999L467 555H458L458.001 581Z" fill="#FFB6B6"/>
<path d="M465.735 577.645L455.7 577V581.631L446.16 588.727C445.688 589.078 445.334 589.581 445.147 590.164C444.96 590.747 444.951 591.379 445.122 591.968C445.292 592.557 445.633 593.072 446.094 593.437C446.555 593.803 447.113 594 447.686 594H459.632L461.692 589.42L462.496 594H467L465.735 577.645Z" fill="#2F2E41"/>
<path d="M487.865 316L475.234 316.28L466.318 326.915L459.17 328.1C455.936 328.636 452.964 330.41 450.749 333.125C448.533 335.841 447.21 339.333 447 343.019L448.238 350.706H455.668L459.966 379.226C458.295 384.038 458.182 387.837 461.612 389.329L472.262 412L503.715 396.047C505.31 392.948 505.821 389.835 504.191 386.808L506.439 343.149H514C514 334.983 511.556 328.099 504.375 327.19C501.524 326.842 498.658 326.657 495.79 326.636L487.865 316Z" fill="#E6E6E6"/>
<path d="M504.027 394.695C504.027 394.695 473.869 400.832 462.681 388C462.681 388 461.545 390.212 459.834 393.88C459.341 394.935 458.391 395.649 457.817 396.927C457.295 398.088 455.953 399.516 455.385 400.833C454.927 401.892 455.661 403.277 455.185 404.422C449.456 418.205 442.762 437.649 444.197 450.488C445.122 458.767 447.034 478.033 449.047 498.726C449.204 500.342 447.93 502.419 448.088 504.049C448.237 505.585 449.818 506.674 449.967 508.215C450.066 509.237 448.962 510.28 449.061 511.302C449.169 512.422 450.481 513.521 450.588 514.637C453.346 543.209 455.871 569.884 455.871 569.884H469.977L472.639 508.961L470.464 486.753L475.571 441.84L482.624 484.521L483.532 508.543L490.986 571H504.027V510.537L505 507.396L504.027 503.368L505 499.027L504.027 494.3V394.695Z" fill="#2F2E41"/>
<path d="M492.187 307.623C490.274 310.527 487.552 312.601 484.47 313.501C481.387 314.402 478.129 314.076 475.23 312.578C472.332 311.079 469.966 308.497 468.523 305.257C467.08 302.017 466.646 298.312 467.292 294.752C467.937 291.192 469.625 287.99 472.076 285.672C474.527 283.355 477.596 282.06 480.777 282.002C483.958 281.944 487.062 283.125 489.577 285.352C492.092 287.579 493.868 290.718 494.613 294.252C494.654 294.444 494.687 294.635 494.72 294.833C495.114 297.048 495.092 299.334 494.655 301.538C494.218 303.743 493.377 305.817 492.187 307.623Z" fill="#FFB6B6"/>
<path d="M488.784 299.535C488.472 297.737 487.684 296.093 486.527 294.831C486.641 296.554 486.433 298.286 485.917 299.909C482.054 300.302 478.173 299.418 474.732 297.361C472.14 295.339 468.842 295.515 465 297.361C465 295.212 465.368 293.085 466.083 291.1C466.798 289.115 467.846 287.311 469.167 285.791C470.489 284.272 472.057 283.067 473.784 282.245C475.51 281.423 477.361 281 479.23 281H481.77C485.544 281.001 489.163 282.725 491.832 285.793C494.5 288.861 495.999 293.022 496 297.361C493.655 298.328 491.24 299.056 488.784 299.535Z" fill="#2F2E41"/>
<path d="M381.5 497C402.763 497 420 477.077 420 452.5C420 427.923 402.763 408 381.5 408C360.237 408 343 427.923 343 452.5C343 477.077 360.237 497 381.5 497Z" fill="#F0F0F0"/>
<path d="M483.483 439H380.518C379.056 438.996 377.655 438.339 376.621 437.174C375.587 436.008 375.004 434.429 375 432.78V376.221C375.004 374.572 375.586 372.993 376.62 371.827C377.654 370.661 379.055 370.004 380.517 370H483.482C484.944 370.004 486.345 370.661 487.379 371.826C488.413 372.992 488.996 374.572 489 376.22V432.779C488.996 434.428 488.414 436.007 487.38 437.173C486.346 438.339 484.945 438.996 483.483 439Z" fill="white"/>
<path d="M483.483 439H380.518C379.056 438.996 377.655 438.339 376.621 437.174C375.587 436.008 375.004 434.429 375 432.78V376.221C375.004 374.572 375.586 372.993 376.62 371.827C377.654 370.661 379.055 370.004 380.517 370H483.482C484.944 370.004 486.345 370.661 487.379 371.826C488.413 372.992 488.996 374.572 489 376.22V432.779C488.996 434.428 488.414 436.007 487.38 437.173C486.346 438.339 484.945 438.996 483.483 439ZM380.518 371.735C379.464 371.739 378.453 372.213 377.708 373.053C376.962 373.894 376.542 375.033 376.539 376.222V432.779C376.542 433.968 376.963 435.107 377.708 435.947C378.454 436.788 379.464 437.262 380.519 437.265H483.481C484.536 437.261 485.546 436.788 486.292 435.947C487.038 435.106 487.458 433.967 487.461 432.778V376.221C487.458 375.032 487.037 373.893 486.292 373.053C485.546 372.212 484.536 371.739 483.481 371.735L380.518 371.735Z" fill="#3F3D56"/>
<path d="M437.546 431C417.139 431 395.86 430.778 387.921 430.634C386.876 430.61 385.881 430.122 385.149 429.274C384.416 428.426 384.004 427.286 384 426.097V378.608C384 378.183 384.149 377.774 384.413 377.473C384.677 377.172 385.036 377.002 385.41 377H478.587C478.961 377 479.32 377.17 479.584 377.47C479.849 377.771 479.999 378.178 480 378.604V410.825C479.983 416.084 478.154 421.126 474.907 424.87C471.66 428.613 467.253 430.759 462.632 430.848C455.232 430.957 446.47 431 437.546 431Z" fill="#8ACADE"/>
<path d="M473.916 408H389.051C388.341 407.998 387.648 407.751 387.067 407.293C386.487 406.836 386.046 406.189 385.805 405.441L376.2 375.313C376.015 374.732 375.957 374.11 376.032 373.499C376.106 372.888 376.311 372.306 376.628 371.801C376.946 371.297 377.367 370.885 377.857 370.6C378.346 370.316 378.889 370.166 379.441 370.165L485.52 370C486.024 369.999 486.522 370.122 486.979 370.361C487.436 370.599 487.841 370.946 488.165 371.378C488.489 371.81 488.725 372.316 488.855 372.861C488.985 373.405 489.006 373.975 488.918 374.53L489 374.569L488.695 375.364L488.692 375.372L477.081 405.664C476.816 406.358 476.375 406.949 475.812 407.364C475.249 407.78 474.59 408.001 473.916 408ZM485.525 371.743L379.444 371.908C379.142 371.909 378.844 371.991 378.576 372.146C378.308 372.302 378.077 372.528 377.903 372.804C377.729 373.081 377.617 373.399 377.576 373.734C377.535 374.069 377.567 374.41 377.668 374.728L387.273 404.855C387.405 405.265 387.647 405.619 387.965 405.87C388.284 406.12 388.663 406.256 389.053 406.257H473.916C474.285 406.257 474.645 406.136 474.953 405.909C475.261 405.681 475.503 405.358 475.647 404.978L487.26 374.685C487.383 374.364 487.433 374.014 487.405 373.666C487.377 373.318 487.272 372.983 487.101 372.692C486.929 372.4 486.695 372.161 486.42 371.995C486.144 371.83 485.837 371.743 485.525 371.743Z" fill="#3F3D56"/>
<path d="M431.5 415C435.09 415 438 411.642 438 407.5C438 403.358 435.09 400 431.5 400C427.91 400 425 403.358 425 407.5C425 411.642 427.91 415 431.5 415Z" fill="white"/>
<path d="M513.98 369.064L514 341L499.389 342.474L504.546 360.174L485.828 392.211C484.658 392.507 483.589 393.182 482.752 394.152C481.915 395.123 481.347 396.347 481.116 397.676C480.885 399.005 481.001 400.382 481.451 401.637C481.901 402.893 482.664 403.974 483.648 404.748C484.633 405.522 485.795 405.956 486.994 405.997C488.193 406.038 489.377 405.684 490.401 404.979C491.425 404.273 492.245 403.247 492.761 402.024C493.278 400.801 493.468 399.436 493.308 398.093L513.98 369.064Z" fill="#FFB6B6"/>
<path d="M216.824 313.506C243.124 313.506 264.445 290.687 264.445 262.538C264.445 234.389 243.124 211.57 216.824 211.57C190.524 211.57 169.203 234.389 169.203 262.538C169.203 290.687 190.524 313.506 216.824 313.506Z" fill="#F0F0F0"/>
<path d="M196.402 252.666L175.141 230.2C174.106 229.098 172.878 228.225 171.527 227.632C170.176 227.038 168.73 226.736 167.269 226.742H167.195C165.724 226.747 164.268 227.064 162.912 227.674C161.556 228.285 160.327 229.177 159.295 230.3C154.541 235.449 151.837 242.371 151.752 249.609C151.667 256.848 154.207 263.84 158.838 269.116C159.062 269.375 159.295 269.625 159.529 269.875C160.822 271.251 162.249 272.474 163.787 273.523C167.99 276.429 172.891 277.967 177.895 277.95H178.054C181.489 277.937 184.887 277.196 188.053 275.769C191.218 274.342 194.088 272.257 196.496 269.635C198.582 267.37 199.744 264.311 199.726 261.13C199.709 257.949 198.513 254.905 196.402 252.666ZM195.17 268.226C191.222 272.482 186.025 275.152 180.453 275.786C174.881 276.419 169.275 274.978 164.58 271.704C163.237 270.753 161.983 269.665 160.836 268.456C156.255 263.613 153.658 257.021 153.618 250.13C153.578 243.239 156.097 236.613 160.621 231.709C161.481 230.771 162.507 230.026 163.639 229.516C164.77 229.007 165.986 228.743 167.213 228.741H167.269C168.485 228.736 169.69 228.988 170.814 229.482C171.939 229.976 172.962 230.702 173.824 231.619L195.086 254.095C196.846 255.958 197.843 258.493 197.859 261.142C197.875 263.791 196.907 266.339 195.17 268.226Z" fill="#3F3D56"/>
<path d="M126.643 178.934L105.381 156.458C103.289 154.236 100.458 152.992 97.5099 153H97.4446C95.9715 153.006 94.5141 153.325 93.1567 153.937C91.7993 154.55 90.5686 155.444 89.5357 156.568C85.6056 160.84 83.0573 166.347 82.2642 172.282C81.471 178.216 82.4748 184.267 85.1285 189.547L85.1378 189.557C86.2325 191.717 87.5923 193.71 89.1809 195.483C89.3583 195.703 89.5637 195.923 89.7692 196.143C94.6517 201.33 101.256 204.234 108.136 204.218H108.304C111.739 204.202 115.138 203.459 118.303 202.03C121.468 200.601 124.338 198.515 126.745 195.893C127.779 194.772 128.597 193.445 129.151 191.986C129.705 190.527 129.986 188.965 129.976 187.391C129.967 185.816 129.667 184.258 129.095 182.807C128.523 181.356 127.69 180.04 126.643 178.934ZM125.41 194.494C123.175 196.927 120.512 198.863 117.574 200.189C114.637 201.515 111.483 202.205 108.295 202.219H108.136C103.348 202.217 98.6675 200.7 94.6831 197.858C90.6986 195.017 87.5882 190.978 85.743 186.249C83.8977 181.521 83.4 176.314 84.3124 171.283C85.2249 166.253 87.5067 161.623 90.871 157.977C92.6118 156.093 94.9798 155.026 97.4552 155.009C99.9306 154.992 102.311 156.027 104.074 157.887L125.336 180.353C127.094 182.219 128.09 184.756 128.104 187.407C128.118 190.058 127.149 192.606 125.41 194.494Z" fill="#3F3D56"/>
<path d="M197.761 259.733L174.321 234.955C172.784 233.334 170.709 232.431 168.551 232.445C166.393 232.46 164.328 233.39 162.81 235.031C160.911 237.085 159.409 239.519 158.389 242.194C157.369 244.869 156.852 247.733 156.868 250.623C156.883 253.512 157.43 256.37 158.478 259.032C159.526 261.695 161.054 264.111 162.974 266.141C164.895 268.171 167.171 269.777 169.672 270.865C172.172 271.953 174.849 272.504 177.548 272.484C180.248 272.464 182.917 271.876 185.404 270.751C187.891 269.627 190.146 267.989 192.041 265.931L197.761 259.733Z" fill="#8ACADE"/>
<path d="M128.007 185.99L104.567 161.213C103.03 159.591 100.955 158.689 98.7968 158.703C96.6388 158.718 94.5743 159.648 93.0562 161.289C91.157 163.342 89.6547 165.776 88.635 168.452C87.6154 171.127 87.0984 173.991 87.1136 176.88C87.1289 179.77 87.676 182.627 88.7239 185.29C89.7717 187.953 91.2997 190.369 93.2204 192.399C95.1412 194.429 97.4169 196.034 99.9177 197.123C102.418 198.211 105.095 198.761 107.795 198.742C110.494 198.722 113.164 198.133 115.65 197.009C118.137 195.885 120.392 194.246 122.287 192.188L128.007 185.99Z" fill="#8ACADE"/>
<path d="M172.004 275.16L171.444 276.739C168.81 275.67 166.258 274.597 163.787 273.521C120.013 254.403 99.1157 232.027 85.1375 189.554L85.1282 189.544C84.4652 187.545 83.8209 185.5 83.1953 183.408L84.6706 182.898C85.1639 184.91 85.8852 186.85 86.8182 188.675C87.5839 191.003 88.3714 193.272 89.1806 195.481C102.318 231.328 121.694 251.815 158.838 269.114C160.705 269.984 162.62 270.846 164.581 271.703C166.857 273.29 169.366 274.459 172.004 275.16Z" fill="#3F3D56"/>
<path d="M104.992 202.398L103.68 203.82L152.177 255.086L153.489 253.663L104.992 202.398Z" fill="#3F3D56"/>
<path d="M364.621 101.936C390.921 101.936 412.242 79.1167 412.242 50.9679C412.242 22.8191 390.921 0 364.621 0C338.321 0 317 22.8191 317 50.9679C317 79.1167 338.321 101.936 364.621 101.936Z" fill="#F0F0F0"/>
<path d="M454.408 56.1307V171.869C454.409 174.273 453.464 176.58 451.779 178.289C450.095 179.998 447.807 180.971 445.412 180.996C445.379 180.999 445.345 181.001 445.312 181H431.893C421.156 181 410.858 176.718 403.266 169.097C395.674 161.476 391.408 151.139 391.408 140.361V56.1307C391.408 53.7091 392.367 51.3866 394.072 49.6743C395.778 47.962 398.092 47 400.504 47H405.942C403.423 54.3765 437.612 57.4821 439.489 47H445.312C447.725 47 450.038 47.962 451.744 49.6743C453.45 51.3867 454.408 53.7091 454.408 56.1307Z" fill="#8ACADE"/>
<path d="M413.229 38.7652C413.229 38.4484 413.347 38.1447 413.556 37.9207C413.765 37.6967 414.049 37.5707 414.345 37.5703H421.937C422.232 37.5712 422.515 37.6975 422.724 37.9215C422.933 38.1455 423.05 38.4489 423.05 38.7652C423.05 39.0815 422.933 39.3849 422.724 39.6089C422.515 39.8329 422.232 39.9592 421.937 39.9601H414.345C414.049 39.9597 413.765 39.8337 413.556 39.6097C413.347 39.3857 413.229 39.082 413.229 38.7652Z" fill="#3F3D56"/>
<path d="M449.39 196H397.693C393.682 195.996 389.837 194.411 387.001 191.594C384.165 188.778 382.57 184.959 382.565 180.975V100.248C382.281 100.046 382.05 99.7792 381.891 99.4703C381.731 99.1614 381.648 98.8193 381.649 98.4722V90.3533C381.648 90.0063 381.731 89.6642 381.891 89.3553C382.05 89.0465 382.281 88.7798 382.565 88.5775V86.3984C382.281 86.1961 382.05 85.9294 381.891 85.6206C381.731 85.3118 381.648 84.9697 381.649 84.6226V76.5033C381.648 76.1563 381.731 75.8141 381.891 75.5053C382.05 75.1965 382.281 74.9298 382.565 74.7275V70.7892C382.214 70.6023 381.922 70.3242 381.718 69.9848C381.514 69.6454 381.407 69.2574 381.408 68.8622V60.7434C381.407 60.3482 381.514 59.9601 381.718 59.6206C381.922 59.2811 382.214 59.003 382.565 58.8159V48.0246C382.57 44.0411 384.165 40.2222 387.001 37.4055C389.837 34.5888 393.682 33.0045 397.693 33H449.39C453.4 33.0045 457.246 34.5889 460.082 37.4056C462.918 40.2223 464.513 44.0412 464.518 48.0246V71.5474C464.79 71.7167 465.015 71.9519 465.171 72.2311C465.326 72.5102 465.408 72.8241 465.408 73.1433V88.6243C465.408 88.9435 465.326 89.2575 465.171 89.5367C465.015 89.8159 464.79 90.0513 464.518 90.2206V180.975C464.513 184.959 462.918 188.778 460.082 191.594C457.246 194.411 453.4 195.996 449.39 196ZM397.693 34.9972C394.216 35.001 390.881 36.3748 388.422 38.8171C385.963 41.2593 384.58 44.5707 384.576 48.0246V60.5147L383.609 60.5518C383.558 60.5536 383.511 60.5744 383.475 60.6101C383.44 60.6457 383.42 60.6935 383.419 60.7434V68.8622C383.42 68.9121 383.44 68.9598 383.476 68.9954C383.511 69.031 383.558 69.0519 383.609 69.0538L384.576 69.0904V76.1297L383.811 76.317C383.768 76.3271 383.731 76.3509 383.703 76.3846C383.676 76.4183 383.661 76.46 383.66 76.5033V84.6226C383.661 84.6659 383.676 84.7076 383.703 84.7413C383.731 84.775 383.768 84.7987 383.811 84.8089L384.576 84.9961V89.9797L383.811 90.167C383.768 90.1771 383.731 90.2009 383.703 90.2346C383.676 90.2683 383.661 90.31 383.66 90.3533V98.4721C383.661 98.5155 383.676 98.5573 383.703 98.591C383.731 98.6248 383.768 98.6487 383.811 98.6589L384.576 98.8461V180.975C384.58 184.429 385.963 187.741 388.422 190.183C390.881 192.625 394.216 193.999 397.693 194.003H449.39C452.867 193.999 456.201 192.625 458.66 190.183C461.119 187.741 462.503 184.429 462.507 180.975V88.5107H463.397V73.2574H462.507V48.0246C462.503 44.5707 461.119 41.2594 458.66 38.8171C456.201 36.3749 452.867 35.0011 449.39 34.9971L397.693 34.9972Z" fill="#3F3D56"/>
<path d="M426.179 39.9601C426.796 39.9601 427.295 39.4251 427.295 38.7652C427.295 38.1053 426.796 37.5703 426.179 37.5703C425.562 37.5703 425.062 38.1053 425.062 38.7652C425.062 39.4251 425.562 39.9601 426.179 39.9601Z" fill="#3F3D56"/>
<path d="M421.33 167.897C425.726 167.897 429.29 164.083 429.29 159.378C429.29 154.673 425.726 150.859 421.33 150.859C416.935 150.859 413.371 154.673 413.371 159.378C413.371 164.083 416.935 167.897 421.33 167.897Z" fill="white"/>
<defs>
<clipPath id="clip0_1608_1833">
<rect width="296" height="224" fill="white" transform="translate(0 417)"/>
</clipPath>
</defs>
</svg>
