<svg width="31" height="36" viewBox="0 0 31 36" fill="none" xmlns="http://www.w3.org/2000/svg">
<mask id="mask0_941_5091" style="mask-type:luminance" maskUnits="userSpaceOnUse" x="0" y="5" width="29" height="26">
<path d="M28.8061 5.02344H0V30.1331H28.8061V5.02344Z" fill="white"/>
</mask>
<g mask="url(#mask0_941_5091)">
<path d="M23.966 9.04498C23.9344 9.01225 23.9185 8.99593 23.9185 8.99593C22.0835 8.14589 20.1852 7.54102 18.2237 7.18137C18.1921 7.18137 18.1605 7.19768 18.1289 7.23041C17.8758 7.7208 17.6384 8.2276 17.4169 8.75072C15.2972 8.39107 13.1775 8.39107 11.0577 8.75072C10.8363 8.2276 10.5991 7.7208 10.346 7.23041C10.3143 7.19768 10.2826 7.18137 10.251 7.18137C8.28948 7.54102 6.39127 8.14589 4.55628 8.99593L4.50881 9.04498C2.7371 11.824 1.53486 14.5868 0.902108 17.3331C0.300992 20.0468 0.126961 22.7441 0.380063 25.4251C0.411701 25.4578 0.427535 25.4905 0.427535 25.5232C2.54726 27.1253 4.8727 28.335 7.40372 29.1523C7.43536 29.1523 7.46688 29.136 7.49851 29.1033C8.03635 28.3513 8.51095 27.5503 8.92223 26.7002V26.6512C8.92223 26.6185 8.90639 26.6021 8.87476 26.6021C8.11545 26.3079 7.38781 25.9482 6.69178 25.5232C6.66015 25.4905 6.64431 25.4578 6.64431 25.4251C6.64431 25.3924 6.66015 25.3761 6.69178 25.3761C6.84997 25.2453 6.99233 25.1309 7.11889 25.0328C7.15052 25.0001 7.18219 24.9837 7.21383 24.9837C9.52338 26.0627 11.8646 26.6021 14.2375 26.6021C16.6419 26.6021 18.9831 26.0627 21.261 24.9837C21.2926 24.9837 21.3083 25.0001 21.3083 25.0328C21.4665 25.1309 21.6247 25.2453 21.7829 25.3761V25.4251C21.7829 25.4578 21.7672 25.4905 21.7356 25.5232C21.0395 25.9482 20.3277 26.3079 19.6001 26.6021C19.5684 26.6021 19.5367 26.6185 19.5051 26.6512C19.5051 26.6839 19.5208 26.7002 19.5524 26.7002C19.9638 27.5503 20.4384 28.3513 20.9762 29.1033C20.9762 29.136 21.0078 29.1523 21.0711 29.1523C23.5705 28.335 25.8959 27.1253 28.0473 25.5232C28.0473 25.4905 28.0473 25.4578 28.0473 25.4251C28.5535 19.2458 27.1931 13.7857 23.966 9.04498ZM9.5867 22.1883C8.89067 22.1556 8.30539 21.8614 7.83082 21.3056C7.35626 20.7498 7.11889 20.0632 7.11889 19.2458C7.11889 18.4284 7.35626 17.7418 7.83082 17.186C8.30539 16.6629 8.89067 16.385 9.5867 16.3523C10.3144 16.385 10.9155 16.6793 11.39 17.2351C11.8646 17.7582 12.1018 18.4284 12.1018 19.2458C12.1018 20.0632 11.8646 20.7498 11.39 21.3056C10.9155 21.8614 10.3144 22.1556 9.5867 22.1883ZM18.8881 22.1883C18.1921 22.1556 17.6068 21.8614 17.1322 21.3056C16.6576 20.7498 16.4046 20.0632 16.373 19.2458C16.4046 18.4284 16.6418 17.7418 17.0848 17.186C17.5594 16.6629 18.1605 16.385 18.8881 16.3523C19.6158 16.385 20.2169 16.6793 20.6915 17.2351C21.1344 17.7582 21.3717 18.4284 21.4033 19.2458C21.3717 20.0632 21.1187 20.7498 20.6442 21.3056C20.2012 21.8614 19.6158 22.1556 18.8881 22.1883Z" fill="#9CA3AF"/>
</g>
</svg>
