<svg width="933" height="620" viewBox="0 0 933 620" fill="none" xmlns="http://www.w3.org/2000/svg">
<g clip-path="url(#clip0_941_4900)">
<path d="M472.651 174.258C464.332 160.489 454.474 145.787 439.036 141.291C421.157 136.084 402.792 146.428 387.214 156.634C340.626 187.16 295.761 220.241 252.824 255.725L252.871 256.26C286.299 253.953 319.727 251.646 353.154 249.339C377.306 247.672 402.287 245.775 423.631 234.342C431.73 230.003 439.625 224.207 448.802 223.803C460.204 223.302 470.147 231.271 477.96 239.597C524.177 288.849 537.551 364.167 589.402 407.438C556.706 326.744 517.667 248.773 472.651 174.258Z" fill="#F2F2F2"/>
<path d="M756.738 592.002C751.627 585.544 749.539 584.031 744.497 577.513C703.448 524.382 664.866 469.457 628.749 412.737C604.218 374.215 580.902 334.954 558.804 294.952C548.283 275.935 538.051 256.769 528.107 237.453C520.39 222.476 512.846 207.41 505.474 192.254C503.366 187.925 501.318 183.576 499.279 179.217C494.476 168.967 489.763 158.668 484.701 148.557C478.934 137.033 471.914 124.952 461.323 117.21C456.503 113.542 450.74 111.322 444.706 110.811C436.085 110.254 428.13 113.816 420.652 117.707C365.941 146.258 314.719 182.053 268.391 222.785C221.943 263.607 180.427 309.727 144.688 360.204C143.594 361.766 141.009 360.273 142.112 358.701C146.458 352.551 150.89 346.467 155.407 340.45C211.584 265.681 280.464 201.384 358.9 150.497C372.096 141.939 385.541 133.782 399.233 126.027C406.134 122.116 413.065 118.255 420.115 114.632C427.026 111.08 434.365 107.885 442.26 107.766C469.129 107.348 483.041 137.799 492.597 158.289C495.6 164.738 498.639 171.166 501.715 177.575C513.34 201.906 525.412 226.015 537.931 249.902C545.658 264.65 553.553 279.312 561.618 293.887C586.716 339.276 613.392 383.745 641.647 427.296C679.076 484.985 716.207 535.946 758.846 589.892C760.02 591.385 757.922 593.515 756.738 592.002Z" fill="#E4E4E4"/>
<path d="M265.735 207.748C264.174 206.007 262.623 204.265 261.052 202.524C248.662 188.811 235.367 175.257 218.353 167.395C210.24 163.528 201.384 161.474 192.399 161.374C183.111 161.404 174.033 163.842 165.451 167.256C161.394 168.878 157.426 170.719 153.518 172.679C149.053 174.928 144.668 177.327 140.303 179.745C132.109 184.283 124.021 189.02 116.04 193.955C100.159 203.777 84.7756 214.349 69.8896 225.671C62.1728 231.542 54.6153 237.606 47.2171 243.862C40.3359 249.673 33.594 255.641 26.9912 261.764C25.5793 263.068 23.471 260.958 24.883 259.655C26.6232 258.033 28.3833 256.42 30.1434 254.828C35.1154 250.33 40.167 245.918 45.2982 241.593C54.6551 233.691 64.2543 226.095 74.0959 218.804C89.3997 207.459 105.23 196.884 121.588 187.079C129.762 182.183 138.049 177.492 146.448 173.008C148.984 171.654 151.549 170.331 154.145 169.077C160.034 166.104 166.152 163.612 172.441 161.623C181.35 158.739 190.776 157.812 200.076 158.907C209.055 160.214 217.706 163.208 225.572 167.733C242.278 177.078 255.235 191.527 267.844 205.628C269.117 207.061 267.018 209.181 265.735 207.748Z" fill="#E4E4E4"/>
<path d="M608.03 349.852L648.061 335.2L667.937 327.925C674.41 325.555 680.868 322.858 687.559 321.161C693.375 319.499 699.549 319.578 705.32 321.388C710.467 323.294 715.178 326.217 719.173 329.982C723.255 333.743 727.052 337.802 730.535 342.125C734.863 347.329 739.126 352.588 743.408 357.829C761.083 379.461 778.642 401.187 796.086 423.006C813.529 444.825 830.855 466.737 848.065 488.742C865.317 510.8 882.45 532.951 899.465 555.194C901.549 557.918 903.632 560.645 905.713 563.372C906.862 564.879 909.454 563.393 908.288 561.865C891.148 539.399 873.889 517.024 856.509 494.742C839.088 472.406 821.545 450.165 803.883 428.019C786.221 405.873 768.439 383.823 750.538 361.869C746.078 356.4 741.611 350.936 737.137 345.479C733.363 340.875 729.631 336.222 725.491 331.938C717.892 324.073 708.398 317.122 697.034 316.934C690.353 316.823 683.886 318.945 677.678 321.192C670.986 323.615 664.31 326.083 657.626 328.53L617.315 343.285L607.237 346.974C605.449 347.628 606.221 350.514 608.03 349.852Z" fill="#E4E4E4"/>
<path d="M213.085 184.648C192.742 174.185 166.69 176.234 147.996 189.306C183.653 195.462 218.92 203.7 253.616 213.976C239.208 205.526 227.937 192.287 213.085 184.648Z" fill="#F2F2F2"/>
<path d="M147.797 189.27L143.881 192.455C145.206 191.34 146.583 190.295 147.997 189.306C147.931 189.294 147.864 189.281 147.797 189.27Z" fill="#F2F2F2"/>
<path d="M717.666 349.999C713.726 345.199 709.465 340.172 703.571 338.223L698.068 338.44C739.958 412.515 796.533 477.242 864.32 528.648C815.436 469.098 766.551 409.548 717.666 349.999Z" fill="#F2F2F2"/>
<path d="M375.474 310.398C378.02 319.657 383.758 327.716 391.67 333.15C394.729 335.234 398.348 337.234 399.395 340.786C399.945 343.051 399.606 345.44 398.447 347.462C397.29 349.458 395.883 351.297 394.259 352.935L394.111 353.49C386.519 348.988 379.297 343.294 375.104 335.524C370.911 327.754 370.325 317.57 375.474 310.398Z" fill="#F2F2F2"/>
<path d="M628.214 530.762C630.761 540.021 636.498 548.08 644.41 553.513C647.469 555.597 651.089 557.597 652.135 561.149C652.686 563.414 652.346 565.804 651.187 567.825C650.031 569.821 648.623 571.66 646.999 573.298L646.851 573.854C639.26 569.352 632.037 563.657 627.844 555.887C623.651 548.117 623.065 537.933 628.214 530.762Z" fill="#F2F2F2"/>
<path d="M123.82 515.562C126.366 524.821 132.103 532.881 140.016 538.314C143.075 540.398 146.694 542.398 147.741 545.95C148.291 548.215 147.952 550.604 146.793 552.626C145.636 554.622 144.229 556.461 142.605 558.099L142.456 558.654C134.865 554.152 127.643 548.458 123.45 540.688C119.256 532.918 118.671 522.734 123.82 515.562Z" fill="#F2F2F2"/>
<path d="M704.252 110.724C734.805 110.724 759.573 85.9379 759.573 55.3622C759.573 24.7865 734.805 0 704.252 0C673.7 0 648.932 24.7865 648.932 55.3622C648.932 85.9379 673.7 110.724 704.252 110.724Z" fill="#8ACADE"/>
<path d="M804.084 12.8867C777.273 9.26003 746.664 23.7623 739.715 49.9289C737.964 45.2765 734.78 41.3017 730.624 38.5786C726.468 35.8556 721.554 34.5254 716.593 34.7802C711.631 35.035 706.879 36.8615 703.023 39.996C699.167 43.1305 696.407 47.4106 695.141 52.218L698.21 54.418C755.665 66.852 815.139 66.5829 872.48 53.6295C853.83 34.0151 830.895 16.5134 804.084 12.8867Z" fill="#F0F0F0"/>
<path d="M689.104 86.7031C662.293 83.0764 631.684 97.5787 624.735 123.745C622.984 119.093 619.8 115.118 615.644 112.395C611.487 109.672 606.573 108.342 601.612 108.597C596.651 108.851 591.899 110.678 588.043 113.812C584.187 116.947 581.426 121.227 580.16 126.034L583.23 128.234C640.684 140.668 700.159 140.399 757.499 127.446C738.85 107.832 715.914 90.3298 689.104 86.7031Z" fill="#F0F0F0"/>
<path d="M923.107 100.661C922.996 100.662 922.886 100.644 922.78 100.61C635.973 9.84017 383.193 21.71 221.64 47.6515C199.654 51.1805 177.61 55.2566 156.119 59.7672C150.632 60.9174 144.94 62.1503 139.201 63.4341C132.347 64.9617 125.584 66.5349 119.099 68.1081C116.298 68.7717 113.552 69.4406 110.861 70.1148C106.784 71.1219 102.647 72.1714 98.2131 73.3247C93.2583 74.6032 88.2239 75.9442 83.2468 77.3107C83.2286 77.3171 83.2101 77.3224 83.1912 77.3266L83.1918 77.3277C77.5701 78.8637 71.9781 80.4443 66.5704 82.0228C63.6435 82.8688 60.8173 83.7031 58.1103 84.5267C57.8079 84.6105 57.5399 84.6911 57.2682 84.7737L56.6866 84.9508C56.3498 85.0536 56.0172 85.1543 55.6845 85.2497L55.6633 85.2561L55.6639 85.2572L54.7836 85.5307C53.7338 85.8488 52.7095 86.1593 51.7021 86.4689C25.0778 94.6825 10.4415 100.526 10.2969 100.583C10.1647 100.636 10.0233 100.662 9.88089 100.661C9.73845 100.659 9.59772 100.629 9.46675 100.573C9.33578 100.517 9.21711 100.436 9.11755 100.334C9.01798 100.232 8.93946 100.112 8.88646 99.9792C8.83346 99.8469 8.80703 99.7054 8.80867 99.5629C8.8103 99.4203 8.83997 99.2795 8.89599 99.1484C8.95201 99.0174 9.03327 98.8986 9.13514 98.799C9.23702 98.6993 9.3575 98.6208 9.48973 98.5677C9.63538 98.5105 24.3432 92.6376 51.0644 84.3932C52.0755 84.0826 53.1025 83.772 54.1554 83.4529L54.9732 83.1985C55.0013 83.1879 55.0293 83.1794 55.0579 83.171C55.389 83.0766 55.7195 82.9759 56.0553 82.8741L56.6379 82.6971C56.9281 82.6091 57.2141 82.5222 57.507 82.4416C60.1955 81.6232 63.0313 80.7868 65.9655 79.9377C71.3753 78.3581 76.9726 76.7776 82.5986 75.2394C82.6161 75.233 82.634 75.2288 82.6515 75.2235C87.6461 73.8528 92.699 72.5054 97.6697 71.2227C102.111 70.0682 106.255 69.0166 110.339 68.0074C113.042 67.3342 115.793 66.6639 118.593 65.9964C125.085 64.4211 131.862 62.8458 138.728 61.315C144.477 60.0302 150.178 58.7942 155.674 57.6429C177.198 53.1248 199.277 49.0424 221.296 45.508C383.081 19.5294 636.223 7.64046 923.433 98.5411C923.68 98.6191 923.891 98.783 924.028 99.0031C924.165 99.2233 924.218 99.4851 924.179 99.7412C924.14 99.9974 924.01 100.231 923.813 100.4C923.617 100.569 923.366 100.661 923.107 100.661Z" fill="#CCCCCC"/>
<path d="M285.269 455.751C284.893 454.652 284.261 453.658 283.425 452.852C283.116 452.566 282.782 452.308 282.427 452.082C279.596 450.193 275.365 449.769 272.675 452.082C272.404 452.317 272.154 452.575 271.927 452.852C271.124 453.84 270.3 454.806 269.454 455.751C268.065 457.336 266.644 458.866 265.158 460.353C264.735 460.766 264.312 461.189 263.878 461.602C263.629 461.851 263.379 462.09 263.13 462.329C262.175 463.241 261.199 464.12 260.212 464.989C259.691 465.455 259.171 465.911 258.639 466.356C257.847 467.019 257.055 467.681 256.253 468.321C256.177 468.376 256.101 468.43 256.025 468.495C256.003 468.506 255.992 468.527 255.971 468.538C255.96 468.538 255.949 468.538 255.938 468.56C255.909 468.572 255.883 468.59 255.862 468.614C255.624 468.777 255.461 468.886 255.342 468.983C255.385 468.962 255.428 468.929 255.472 468.907C255.276 469.059 255.07 469.211 254.875 469.363C252.977 470.764 251.035 472.11 249.05 473.369C244.139 476.515 238.98 479.256 233.625 481.565C233.268 481.706 232.899 481.858 232.53 481.999C218.51 487.747 203.301 489.99 188.219 488.534C186.679 488.414 185.139 488.252 183.598 488.045C181.819 487.785 180.051 487.47 178.294 487.112C171.604 485.776 165.058 483.798 158.747 481.206C150.853 477.589 143.345 473.181 136.337 468.05C135.252 467.279 134.157 466.508 133.061 465.759C134.309 462.698 135.534 459.637 136.728 456.554C137.324 455.067 137.899 453.58 138.463 452.082C142.9 440.542 147.065 428.895 151.057 417.203C155.092 405.36 158.899 393.448 162.479 381.468C162.848 380.252 163.206 379.036 163.553 377.82C165.429 371.492 167.23 365.149 168.955 358.791C169.117 358.172 169.291 357.564 169.443 356.946C169.942 355.122 170.43 353.298 170.907 351.474C171.992 347.36 169.54 342.443 165.223 341.455C163.145 340.922 160.94 341.217 159.075 342.278C157.209 343.339 155.828 345.083 155.222 347.143C154.756 348.902 154.289 350.649 153.812 352.408C151.523 360.908 149.115 369.378 146.588 377.82C146.219 379.036 145.85 380.252 145.481 381.468C139.906 399.857 133.784 418.061 127.117 436.081C126.314 438.263 125.501 440.438 124.676 442.605C124.275 443.669 123.874 444.733 123.462 445.796C122.67 447.892 121.856 449.987 121.043 452.082C120.576 453.308 120.099 454.535 119.622 455.751C119.307 456.521 119.003 457.292 118.7 458.052C115.607 456.941 112.403 456.169 109.143 455.751L108.623 455.686C106.096 455.381 103.54 455.403 101.019 455.751C97.245 456.191 93.6142 457.456 90.3827 459.456C87.1513 461.455 84.3983 464.141 82.3182 467.323C77.1441 475.475 77.2091 487.134 84.4659 494.059C91.9396 501.191 103.253 501.137 112.05 496.675C116.712 494.151 120.643 490.464 123.462 485.972C124.541 484.344 125.533 482.659 126.434 480.924C126.661 481.076 126.889 481.228 127.117 481.391C127.985 481.999 128.853 482.618 129.71 483.226C134.702 486.846 139.964 490.079 145.449 492.898C157.242 498.765 169.936 502.607 183.002 504.263C183.295 504.296 183.577 504.339 183.869 504.372C185.312 504.556 186.766 504.697 188.219 504.817C209.07 506.389 229.946 502.119 248.508 492.485C250.081 491.671 251.639 490.817 253.183 489.923C255.58 488.534 257.923 487.058 260.212 485.494C261.459 484.648 262.674 483.79 263.878 482.889C269.14 479.011 274.044 474.67 278.533 469.917C280.236 468.126 281.866 466.277 283.425 464.37C284.899 462.81 285.748 460.762 285.811 458.617C285.803 457.637 285.619 456.666 285.269 455.751ZM105.65 481.608C105.878 481.445 106.106 481.272 106.323 481.098C106.258 481.261 105.943 481.445 105.65 481.608ZM109.132 478.102C108.883 478.384 108.655 478.666 108.406 478.949C107.647 479.799 106.831 480.596 105.965 481.337C105.846 481.445 105.716 481.554 105.585 481.652C105.584 481.652 105.583 481.652 105.581 481.652C105.58 481.653 105.579 481.654 105.578 481.655C105.577 481.656 105.576 481.657 105.575 481.658C105.575 481.66 105.574 481.661 105.575 481.662C105.418 481.732 105.266 481.812 105.119 481.901C104.652 482.183 104.175 482.444 103.687 482.683C102.731 483.035 101.748 483.307 100.748 483.497C99.9786 483.553 99.2069 483.56 98.4371 483.519H98.4154C97.8841 483.401 97.3592 483.256 96.8426 483.084C96.5822 482.954 96.3327 482.802 96.0832 482.65C95.9856 482.563 95.8988 482.477 95.8446 482.422C95.7386 482.325 95.6407 482.22 95.5518 482.108C95.5518 482.106 95.5515 482.105 95.551 482.103C95.5505 482.102 95.5497 482.101 95.5487 482.1C95.5477 482.099 95.5465 482.098 95.5451 482.097C95.5438 482.097 95.5424 482.097 95.541 482.097C95.4216 481.88 95.2914 481.662 95.1722 481.445C95.166 481.44 95.1621 481.432 95.1613 481.424C95.0745 481.152 94.9986 480.87 94.9335 480.588C94.91 480.092 94.9136 479.596 94.9443 479.101C95.0899 478.407 95.2857 477.725 95.5301 477.06C95.7497 476.588 95.9997 476.131 96.2786 475.692C96.3002 475.649 96.4087 475.475 96.528 475.279C96.5389 475.269 96.5389 475.269 96.5389 475.258C96.7016 475.073 96.8643 474.878 97.0379 474.704C97.3307 474.379 97.6453 474.096 97.9599 473.803C98.5717 473.402 99.2054 473.036 99.8581 472.707C100.894 472.339 101.956 472.052 103.036 471.849C104.629 471.723 106.23 471.737 107.82 471.893C109.326 472.154 110.812 472.521 112.267 472.989C111.385 474.702 110.381 476.349 109.263 477.917C109.219 477.982 109.176 478.048 109.132 478.102ZM97.0703 474.53C96.9748 474.684 96.862 474.826 96.7341 474.954C96.8202 474.794 96.934 474.65 97.0703 474.53Z" fill="#3F3D56"/>
<path d="M252.662 344.884C252.564 348.292 252.466 351.701 252.369 355.109C252.163 362.676 251.949 370.245 251.729 377.819C251.501 386.34 251.262 394.858 251.013 403.372C250.893 407.769 250.771 412.165 250.644 416.561C250.308 428.405 249.975 440.244 249.646 452.08C249.614 453.307 249.57 454.523 249.538 455.749C249.375 461.622 249.212 467.495 249.049 473.367C248.865 479.739 248.684 486.112 248.507 492.484C248.377 497.26 248.243 502.04 248.106 506.823C247.13 541.485 246.153 576.146 245.177 610.807C245.136 612.953 244.265 615 242.749 616.518C241.232 618.036 239.186 618.907 237.042 618.948C234.889 618.931 232.83 618.068 231.308 616.544C229.786 615.021 228.924 612.961 228.906 610.807C229.449 591.311 229.998 571.814 230.555 552.318C231.043 534.689 231.538 517.06 232.041 499.431C232.204 493.623 232.366 487.812 232.529 481.997C232.779 473.248 233.025 464.499 233.267 455.749C233.299 454.523 233.343 453.307 233.375 452.08C233.397 451.005 233.43 449.942 233.462 448.867C233.939 431.878 234.417 414.886 234.894 397.89C235.089 391.203 235.277 384.513 235.458 377.819C235.675 370.187 235.892 362.56 236.109 354.936C236.206 351.581 236.293 348.238 236.391 344.884C236.432 342.737 237.302 340.69 238.819 339.172C240.336 337.654 242.381 336.783 244.526 336.742C246.678 336.76 248.738 337.623 250.26 339.146C251.782 340.669 252.644 342.73 252.662 344.884Z" fill="#3F3D56"/>
<path d="M698.946 347.143C690.415 379.47 680.22 411.334 668.399 442.606C665.138 451.232 661.801 459.841 658.234 468.346L659.054 466.401C657.462 470.453 655.429 474.316 652.991 477.921C652.825 478.153 652.656 478.384 652.485 478.612C653.327 477.533 653.488 477.32 652.965 477.972C652.689 478.299 652.417 478.626 652.132 478.944C651.373 479.795 650.558 480.594 649.693 481.336C649.475 481.523 649.254 481.705 649.029 481.884L650.046 481.092C649.928 481.371 649.1 481.741 648.842 481.899C648.006 482.403 647.134 482.845 646.233 483.221L648.177 482.401C646.7 482.996 645.16 483.419 643.587 483.661L645.75 483.37C644.204 483.583 642.637 483.6 641.088 483.42L643.25 483.711C641.982 483.536 640.741 483.201 639.557 482.715L641.5 483.536C640.868 483.26 640.26 482.935 639.679 482.563C639.385 482.371 638.48 481.685 639.663 482.59C640.892 483.53 639.821 482.67 639.568 482.421C639.357 482.212 639.167 481.986 638.961 481.775C638.004 480.793 640.042 483.464 639.391 482.316C639.044 481.74 638.726 481.147 638.439 480.539L639.259 482.484C638.886 481.558 638.621 480.593 638.469 479.606L638.76 481.77C638.605 480.543 638.603 479.301 638.756 478.074L638.466 480.238C638.665 478.868 639.027 477.527 639.545 476.243L638.725 478.188C639.086 477.325 639.513 476.491 640.003 475.693C640.228 475.281 640.493 474.892 640.793 474.53C640.846 474.548 639.417 476.172 640.175 475.352C640.374 475.137 640.559 474.911 640.76 474.698C641.081 474.358 641.425 474.046 641.764 473.724C642.897 472.644 640.178 474.772 641.486 473.918C642.433 473.295 643.431 472.75 644.468 472.291L642.524 473.111C644.261 472.398 646.082 471.909 647.943 471.657L645.78 471.948C648.11 471.679 650.465 471.707 652.788 472.031L650.625 471.74C653.567 472.186 656.443 472.996 659.186 474.15L657.242 473.329C663.089 475.841 668.266 479.57 673.435 483.227C678.427 486.845 683.687 490.077 689.17 492.895C700.964 498.763 713.659 502.607 726.725 504.265C745.465 506.562 764.48 504.113 782.027 497.142C799.574 490.172 815.092 478.903 827.155 464.369C828.626 462.807 829.474 460.759 829.537 458.612C829.522 456.456 828.667 454.391 827.155 452.856C824.17 450.114 818.532 449.339 815.649 452.856C812.918 456.193 809.981 459.357 806.856 462.329C805.397 463.714 803.899 465.056 802.363 466.356C801.485 467.098 800.595 467.826 799.694 468.539C799.267 468.877 797.938 469.775 799.979 468.325C799.511 468.657 799.062 469.02 798.601 469.361C791.769 474.401 784.366 478.615 776.546 481.915L778.489 481.095C770.098 484.617 761.284 487.034 752.27 488.284L754.433 487.993C745.16 489.213 735.767 489.199 726.498 487.951L728.66 488.242C719.393 486.968 710.33 484.498 701.698 480.893L703.641 481.714C695.311 478.025 687.405 473.442 680.063 468.045C676.242 465.214 672.212 462.676 668.009 460.453C663.111 457.95 657.809 456.337 652.348 455.689C642.109 454.484 631.676 458.474 626.047 467.327C620.867 475.473 620.934 487.131 628.188 494.058C635.659 501.193 646.974 501.132 655.779 496.669C664.258 492.371 669.352 483.442 672.933 475.022C680.994 456.074 688.131 436.688 694.78 417.203C701.358 397.926 707.323 378.454 712.676 358.787C713.339 356.351 713.992 353.913 714.636 351.472C715.722 347.359 713.268 342.44 708.954 341.457C706.874 340.921 704.668 341.215 702.801 342.276C700.934 343.337 699.552 345.082 698.946 347.143Z" fill="#3F3D56"/>
<path d="M780.117 344.884L777.189 448.87L774.276 552.315L772.629 610.808C772.647 612.961 773.51 615.021 775.032 616.544C776.554 618.067 778.612 618.931 780.764 618.949C782.909 618.908 784.954 618.037 786.471 616.519C787.988 615.001 788.858 612.954 788.9 610.808L791.828 506.821L794.741 403.376L796.388 344.884C796.37 342.73 795.507 340.67 793.985 339.147C792.463 337.624 790.405 336.761 788.253 336.742C786.108 336.784 784.063 337.655 782.546 339.173C781.029 340.691 780.159 342.737 780.117 344.884Z" fill="#3F3D56"/>
<path opacity="0.2" d="M498.528 581.777H501.054V466.665H559.985V464.144H501.054V415.572H546.564C545.897 414.723 545.21 413.885 544.504 413.057H501.054V380.976C500.219 380.62 499.376 380.276 498.528 379.952V413.057H449.008V371.953C448.16 371.992 447.324 372.05 446.482 372.122V413.057H406.977V382.39C406.128 382.766 405.293 383.161 404.463 383.576V413.057H371.254V415.572H404.463V464.144H371.254V466.665H404.463V581.777H406.977V466.665C412.165 466.664 417.303 467.686 422.096 469.673C426.89 471.659 431.245 474.571 434.914 478.243C438.582 481.914 441.492 486.273 443.477 491.07C445.462 495.867 446.483 501.008 446.482 506.2V581.777H449.008V466.665H498.528V581.777ZM406.977 464.144V415.572H446.482V464.144H406.977ZM449.008 464.144V415.572H449.999C456.373 415.573 462.684 416.829 468.572 419.27C474.46 421.712 479.809 425.289 484.316 429.8C488.822 434.31 492.396 439.664 494.835 445.557C497.274 451.45 498.528 457.766 498.528 464.144H449.008Z" fill="black"/>
<path d="M483.1 547.259C479.92 561.456 472.302 574.27 461.351 583.842C460.549 584.536 459.746 585.209 458.911 585.871C456.882 586.056 454.868 586.244 452.869 586.436C451.209 586.588 449.571 586.751 447.944 586.903L447.651 586.935L447.445 585.155L446.621 577.947C443.423 572.722 441.441 566.844 440.821 560.748C440.201 554.652 440.96 548.495 443.041 542.732C445.905 535.003 451.09 528.175 456.188 521.402C463.228 512.044 470.072 502.796 470.322 491.387C473.786 495.823 476.666 500.686 478.891 505.857C476.791 506.846 474.905 508.236 473.337 509.949C472.893 510.438 472.448 511.122 472.752 511.708C473.012 512.207 473.663 512.327 474.227 512.392C475.583 512.533 476.95 512.674 478.305 512.815C479.39 512.934 480.475 513.043 481.56 513.162C482.872 517.473 483.762 521.901 484.217 526.384C484.948 533.358 484.571 540.403 483.1 547.259Z" fill="#3F3D56"/>
<path d="M519.112 518.807C512.712 523.464 508.97 530.162 506.063 537.544C503.083 538.498 500.403 540.211 498.285 542.515C497.841 543.004 497.396 543.688 497.7 544.274C497.96 544.773 498.611 544.893 499.175 544.958C500.531 545.099 501.898 545.24 503.253 545.381C500.346 554.109 497.678 563.141 492.536 570.511C489.117 575.378 484.66 579.423 479.487 582.354C478.077 583.159 476.621 583.88 475.127 584.515C469.616 584.938 464.211 585.39 458.91 585.872C456.882 586.056 454.868 586.244 452.868 586.436C451.209 586.588 449.571 586.751 447.944 586.903C447.933 586.306 447.933 585.709 447.944 585.112C448.287 569.207 454.133 553.915 464.486 541.842C464.974 541.278 465.473 540.724 465.983 540.171C471.227 534.565 477.395 529.901 484.217 526.384C494.966 520.791 507.013 518.175 519.112 518.807Z" fill="#8ACADE"/>
<path d="M454.745 580.869L453.498 584.56L452.868 586.438C451.209 586.59 449.571 586.753 447.944 586.905L447.651 586.938C445.85 587.122 444.061 587.307 442.271 587.491C441.804 586.948 441.338 586.395 440.882 585.83C429.56 572.109 424.125 554.461 425.766 536.743C427.406 519.024 435.988 502.675 449.636 491.27C448.204 498.771 449.875 505.957 452.619 513.089C452.326 513.208 452.044 513.328 451.773 513.458C449.673 514.447 447.786 515.837 446.219 517.55C445.774 518.039 445.33 518.723 445.633 519.309C445.894 519.808 446.545 519.928 447.109 519.993C448.464 520.134 449.831 520.275 451.187 520.416C452.272 520.535 453.357 520.644 454.441 520.763C454.951 520.818 455.461 520.872 455.971 520.926C456.047 521.089 456.112 521.241 456.188 521.404C459.279 528.112 462.609 534.854 464.486 541.844C464.956 543.598 465.326 545.378 465.592 547.174C466.427 553.245 465.886 559.427 464.008 565.26C462.131 571.093 458.964 576.428 454.745 580.869Z" fill="#8ACADE"/>
<path d="M563.932 423.422C554.593 405.194 540.126 389.856 523.111 378.586C506.041 367.33 486.454 360.476 466.096 358.634C463.427 358.391 460.752 358.249 458.07 358.207C454.901 358.16 407.233 371.919 391.265 383.155C375.306 394.254 362.177 408.952 352.939 426.063C343.717 443.268 339.181 462.598 339.786 482.113C340.577 501.745 346.044 520.903 355.734 537.991C365.292 555.024 378.862 569.463 395.266 580.051C411.903 590.675 428.616 618.843 448.259 619.838C468.051 620.84 490.622 594.268 508.673 586.2C526.724 578.065 542.329 565.338 553.933 549.287C565.21 533.557 572.505 515.324 575.193 496.152C577.984 476.522 576.683 456.278 569.985 437.516C568.266 432.695 566.244 427.988 563.932 423.422C562.001 419.617 556.343 418.216 552.801 420.501C550.976 421.626 549.654 423.411 549.111 425.485C548.567 427.56 548.844 429.764 549.882 431.64C551.016 433.875 552.07 436.146 553.045 438.455L552.224 436.51C555.912 445.384 558.42 454.705 559.683 464.233L559.393 462.068C560.737 472.405 560.712 482.874 559.321 493.204L559.612 491.04C558.206 501.369 555.45 511.469 551.417 521.081L552.237 519.136C550.162 524.04 547.744 528.792 545 533.355C543.61 535.66 542.134 537.911 540.574 540.109C539.889 541.073 539.183 542.02 538.471 542.965C537.542 544.197 539.737 541.355 538.777 542.564C538.614 542.77 538.451 542.976 538.287 543.182C537.794 543.798 537.295 544.409 536.788 545.014C533.406 549.052 529.715 552.82 525.75 556.285C524.762 557.148 523.757 557.992 522.736 558.816C522.228 559.227 521.725 559.655 521.195 560.037C521.215 560.022 522.909 558.735 521.906 559.482C521.591 559.717 521.279 559.956 520.963 560.19C518.859 561.75 516.699 563.231 514.483 564.632C509.381 567.848 504.028 570.648 498.477 573.005L500.42 572.184C490.844 576.218 480.78 578.974 470.486 580.381L472.648 580.091C462.359 581.482 451.931 581.501 441.637 580.145L443.8 580.436C434.444 579.179 425.293 576.703 416.579 573.071L418.522 573.892C413.475 571.759 408.608 569.222 403.969 566.303C401.674 564.856 399.438 563.319 397.262 561.693C396.951 561.461 396.644 561.225 396.334 560.992C395.341 560.242 397.048 561.545 397.061 561.554C396.484 561.14 395.928 560.696 395.396 560.225C394.345 559.368 393.311 558.492 392.293 557.596C388.219 554.005 384.414 550.12 380.911 545.97C380.033 544.933 379.175 543.879 378.335 542.811C377.972 542.348 377.309 541.41 378.774 543.385C378.581 543.125 378.381 542.87 378.186 542.612C377.719 541.991 377.258 541.366 376.803 540.736C375.209 538.53 373.695 536.27 372.26 533.956C369.016 528.717 366.186 523.234 363.793 517.555L364.613 519.5C360.699 510.179 358.022 500.385 356.651 490.368L356.942 492.532C355.705 483.298 355.687 473.942 356.889 464.704L356.599 466.868C357.831 457.921 360.236 449.177 363.752 440.859L362.932 442.804C365.144 437.597 367.753 432.569 370.737 427.763C372.23 425.358 373.813 423.011 375.485 420.723C375.865 420.204 376.249 419.687 376.637 419.173C376.989 418.709 377.955 417.552 376.306 419.595C376.468 419.395 376.624 419.189 376.783 418.987C377.7 417.823 378.64 416.678 379.603 415.551C383.245 411.284 387.19 407.286 391.408 403.588C392.474 402.653 393.557 401.738 394.656 400.842C395.156 400.435 395.659 400.033 396.165 399.634C396.368 399.475 396.573 399.319 396.774 399.158C394.608 400.884 396.172 399.628 396.664 399.259C398.93 397.56 401.257 395.945 403.645 394.416C408.952 391.019 414.535 388.075 420.335 385.615L418.391 386.435C426.809 382.898 464.102 374.55 470.885 375.461L468.723 375.17C478.692 376.563 488.436 379.257 497.706 383.184L495.763 382.363C500.46 384.359 505.025 386.654 509.43 389.234C511.631 390.525 513.789 391.886 515.903 393.318C516.904 393.996 517.894 394.689 518.873 395.397C519.363 395.751 519.85 396.109 520.334 396.47C520.602 396.671 520.869 396.875 521.138 397.076C522.265 397.922 519.585 395.851 520.767 396.787C524.722 399.896 528.478 403.251 532.013 406.831C533.749 408.601 535.426 410.426 537.043 412.308C537.872 413.274 538.684 414.253 539.479 415.247C539.875 415.741 541.22 417.528 539.571 415.339C539.974 415.874 540.382 416.405 540.78 416.944C544.207 421.588 547.252 426.503 549.882 431.64C551.827 435.437 557.461 436.853 561.013 434.561C562.838 433.437 564.161 431.652 564.704 429.577C565.248 427.502 564.971 425.298 563.932 423.422Z" fill="#3F3D56"/>
<path d="M469.136 556.289C468.296 556.327 467.465 556.107 466.755 555.657C466.044 555.207 465.49 554.549 465.165 553.773C464.841 552.997 464.763 552.14 464.942 551.317C465.12 550.495 465.547 549.748 466.165 549.177C466.268 548.766 466.342 548.471 466.446 548.059C466.409 547.97 466.371 547.88 466.334 547.791C462.559 538.784 438.473 563.893 437.432 572.359C436.973 576.101 437.167 579.894 438.004 583.569C430.202 566.538 426.15 548.026 426.124 529.29C426.122 524.588 426.383 519.89 426.906 515.218C427.338 511.387 427.937 507.584 428.703 503.808C432.885 483.321 441.863 464.118 454.901 447.777C462.357 448.193 468.891 447.057 469.522 432.595C469.635 430.023 471.541 427.796 471.961 425.261C471.249 425.355 470.526 425.413 469.814 425.46C469.592 425.472 469.359 425.483 469.137 425.495L469.054 425.499C468.271 425.534 467.496 425.342 466.82 424.946C466.144 424.55 465.597 423.967 465.244 423.267C464.892 422.568 464.749 421.781 464.833 421.002C464.917 420.222 465.224 419.484 465.717 418.876C466.025 418.497 466.332 418.119 466.64 417.741C467.107 417.157 467.585 416.585 468.052 416.001C468.106 415.945 468.156 415.887 468.204 415.825C468.741 415.16 469.277 414.506 469.814 413.84C468.834 412.318 467.516 411.043 465.963 410.115C460.584 406.962 453.162 409.146 449.276 414.015C445.378 418.885 444.643 425.717 445.997 431.801C447.328 436.978 449.53 441.891 452.508 446.329C452.217 446.702 451.913 447.064 451.622 447.438C446.289 454.301 441.641 461.67 437.744 469.44C438.847 460.822 425.366 429.701 420.152 423.109C413.89 415.191 401.049 418.646 399.946 428.684C399.935 428.781 399.925 428.878 399.915 428.975C400.689 429.412 401.447 429.876 402.189 430.367C403.121 430.99 403.842 431.88 404.26 432.921C404.678 433.961 404.771 435.104 404.529 436.199C404.287 437.293 403.719 438.289 402.902 439.056C402.084 439.823 401.054 440.325 399.947 440.495L399.833 440.513C389.468 455.324 422.696 493.872 431.014 485.217C427.099 496.319 424.643 507.884 423.709 519.62C423.18 526.544 423.211 533.5 423.802 540.419L423.767 540.174C421.919 525.104 390.215 502.698 380.957 504.565C375.624 505.64 370.371 505.395 371.181 510.779C371.194 510.865 371.207 510.951 371.22 511.037C372.657 511.623 374.056 512.297 375.409 513.057C376.184 513.495 376.942 513.958 377.683 514.449C378.615 515.072 379.337 515.962 379.754 517.003C380.172 518.044 380.266 519.186 380.023 520.281C379.781 521.376 379.214 522.372 378.396 523.138C377.578 523.905 376.548 524.407 375.441 524.578L375.327 524.595C375.246 524.607 375.176 524.619 375.094 524.63C370.376 540.877 405.366 567.096 426.638 558.754H426.649C428.757 567.921 431.812 576.844 435.763 585.38H468.32C468.437 585.018 468.542 584.644 468.647 584.282C465.634 584.471 462.608 584.291 459.638 583.745C462.054 580.778 464.469 577.789 466.885 574.823C466.939 574.767 466.99 574.709 467.037 574.647C468.262 573.129 469.499 571.623 470.724 570.105L470.725 570.103C470.79 565.449 470.257 560.807 469.137 556.29L469.136 556.289ZM431.854 482.893L431.871 482.87L431.854 482.916V482.893ZM424.642 547.951L424.362 547.321C424.374 546.865 424.374 546.41 424.362 545.943C424.362 545.814 424.339 545.686 424.339 545.557C424.444 546.363 424.537 547.169 424.654 547.975L424.642 547.951Z" fill="#3F3D56"/>
<path d="M103.319 488.491C109.908 488.491 115.251 483.145 115.251 476.55C115.251 469.955 109.908 464.609 103.319 464.609C96.7288 464.609 91.3867 469.955 91.3867 476.55C91.3867 483.145 96.7288 488.491 103.319 488.491Z" fill="#3F3D56"/>
<path d="M246.5 618.753C253.09 618.753 258.432 613.407 258.432 606.812C258.432 600.217 253.09 594.871 246.5 594.871C239.91 594.871 234.568 600.217 234.568 606.812C234.568 613.407 239.91 618.753 246.5 618.753Z" fill="#3F3D56"/>
<path d="M789.944 618.753C796.533 618.753 801.876 613.407 801.876 606.812C801.876 600.217 796.533 594.871 789.944 594.871C783.354 594.871 778.012 600.217 778.012 606.812C778.012 613.407 783.354 618.753 789.944 618.753Z" fill="#3F3D56"/>
<path d="M819.233 466.78C825.822 466.78 831.165 461.434 831.165 454.839C831.165 448.245 825.822 442.898 819.233 442.898C812.643 442.898 807.301 448.245 807.301 454.839C807.301 461.434 812.643 466.78 819.233 466.78Z" fill="#3F3D56"/>
<path d="M784.522 356.054C791.112 356.054 796.454 350.707 796.454 344.113C796.454 337.518 791.112 332.172 784.522 332.172C777.932 332.172 772.59 337.518 772.59 344.113C772.59 350.707 777.932 356.054 784.522 356.054Z" fill="#3F3D56"/>
<path d="M286.636 454.839C286.629 457.889 285.45 460.82 283.344 463.025C281.238 465.229 278.365 466.539 275.321 466.684C272.276 466.828 269.293 465.795 266.988 463.799C264.683 461.803 263.234 458.997 262.939 455.961C262.644 452.926 263.526 449.892 265.404 447.49C267.281 445.087 270.01 443.499 273.025 443.053C276.04 442.608 279.111 443.339 281.602 445.097C284.093 446.854 285.814 449.503 286.408 452.494C286.561 453.267 286.638 454.052 286.636 454.839Z" fill="#3F3D56"/>
<path d="M525.274 390.792C531.864 390.792 537.206 385.446 537.206 378.851C537.206 372.256 531.864 366.91 525.274 366.91C518.684 366.91 513.342 372.256 513.342 378.851C513.342 385.446 518.684 390.792 525.274 390.792Z" fill="#3F3D56"/>
<path d="M407.038 378.851C407.031 381.901 405.853 384.832 403.746 387.036C401.64 389.241 398.768 390.551 395.723 390.695C392.679 390.839 389.695 389.807 387.391 387.811C385.086 385.815 383.636 383.009 383.341 379.973C383.046 376.937 383.929 373.904 385.806 371.501C387.684 369.099 390.412 367.51 393.427 367.065C396.443 366.62 399.514 367.351 402.005 369.109C404.496 370.866 406.216 373.515 406.811 376.506C406.964 377.278 407.04 378.064 407.038 378.851Z" fill="#3F3D56"/>
<path d="M253.009 344.113C253.002 347.163 251.823 350.093 249.717 352.298C247.611 354.503 244.738 355.813 241.694 355.957C238.649 356.101 235.666 355.068 233.361 353.073C231.056 351.077 229.607 348.271 229.312 345.235C229.017 342.199 229.899 339.166 231.777 336.763C233.654 334.36 236.383 332.772 239.398 332.327C242.413 331.881 245.484 332.613 247.975 334.37C250.466 336.128 252.187 338.776 252.781 341.768C252.934 342.54 253.011 343.325 253.009 344.113Z" fill="#3F3D56"/>
<path d="M650.016 492.831C656.606 492.831 661.948 487.485 661.948 480.89C661.948 474.295 656.606 468.949 650.016 468.949C643.426 468.949 638.084 474.295 638.084 480.89C638.084 487.485 643.426 492.831 650.016 492.831Z" fill="#3F3D56"/>
<path d="M462.359 384.28C471.945 384.28 479.715 376.504 479.715 366.911C479.715 357.319 471.945 349.543 462.359 349.543C452.774 349.543 445.004 357.319 445.004 366.911C445.004 376.504 452.774 384.28 462.359 384.28Z" fill="#3F3D56"/>
<path d="M931.708 619.667L1.29155 620.001C1.12194 620.001 0.953983 619.967 0.797285 619.902C0.640587 619.837 0.498216 619.742 0.378284 619.622C0.258352 619.502 0.163206 619.36 0.0982993 619.203C0.0333927 619.046 0 618.878 0 618.708C0 618.538 0.0333927 618.37 0.0982993 618.214C0.163206 618.057 0.258352 617.914 0.378284 617.794C0.498216 617.674 0.640587 617.579 0.797285 617.514C0.953983 617.449 1.12194 617.416 1.29155 617.416L931.708 617.082C932.05 617.083 932.378 617.22 932.619 617.462C932.861 617.704 932.996 618.032 932.996 618.375C932.996 618.717 932.861 619.045 932.619 619.287C932.378 619.529 932.05 619.666 931.708 619.667Z" fill="#CACACA"/>
</g>
<defs>
<clipPath id="clip0_941_4900">
<rect width="933" height="620" fill="white"/>
</clipPath>
</defs>
</svg>
