<svg width="1435" height="903" viewBox="0 0 1435 903" fill="none" xmlns="http://www.w3.org/2000/svg">
<g filter="url(#filter0_g_1395_523)">
<rect x="61.1992" y="237" width="1308" height="442" rx="50" fill="#A1D0FC"/>
</g>
<mask id="path-2-outside-1_1395_523" maskUnits="userSpaceOnUse" x="1132.33" y="91.5859" width="551" height="720" fill="black">
<rect fill="white" x="1132.33" y="91.5859" width="551" height="720"/>
<path d="M1397.46 99.7815C1388.38 106.12 1385.53 114.571 1385.53 135.397V153.506L1377.49 147.772C1358.3 134.19 1350 130.266 1342.48 132.077C1331.85 134.491 1324.33 144.15 1324.33 155.619C1324.33 171.918 1327.7 175.841 1357.52 196.064L1385.27 214.475L1385.53 224.134V233.792L1377.49 228.057C1358.3 214.475 1350 210.551 1342.48 212.362C1331.85 214.777 1324.33 224.435 1324.33 235.905C1324.33 252.203 1327.7 256.127 1357.52 276.349L1385.27 294.761L1385.53 317.398C1385.53 330.074 1385.01 340.336 1384.23 340.336C1383.19 340.336 1375.93 335.507 1367.38 329.772C1347.41 315.888 1345.59 314.983 1341.44 319.51C1338.33 322.83 1337.81 326.754 1337.81 347.58C1337.81 360.86 1337.3 371.726 1336.52 371.726C1335.48 371.726 1328.22 366.897 1319.66 361.162L1304.36 350.598L1303.33 311.059L1302.29 271.52L1295.29 263.975C1286.47 254.92 1276.1 253.712 1268.06 260.956C1259.76 268.804 1257.43 276.651 1257.43 298.684C1257.43 309.55 1256.91 318.605 1256.39 318.605C1255.87 318.605 1252.76 316.794 1249.91 314.681L1244.46 310.757L1243.42 270.615L1242.91 230.774L1235.9 223.228C1225.79 212.664 1216.2 212.664 1206.08 223.228L1199.08 230.774L1198.3 254.316C1198.04 267.295 1197.27 277.858 1196.49 277.858C1196.23 277.858 1190.52 274.237 1184.3 270.011C1169.26 259.749 1164.85 258.542 1155.26 263.069C1141.77 268.804 1137.11 283.291 1143.33 298.684C1145.4 303.815 1150.59 308.947 1160.44 315.888L1174.71 325.547L1158.37 336.413C1140.74 348.184 1136.59 354.522 1136.59 368.406C1136.59 378.366 1140.48 385.61 1148 390.138C1157.85 395.872 1163.3 394.061 1191.56 375.65C1206.6 365.992 1219.57 357.842 1220.86 357.842C1221.9 357.842 1225.53 359.351 1228.9 361.464L1234.87 365.086L1218.79 375.952C1200.9 388.025 1195.97 394.967 1195.97 408.247C1195.97 419.716 1201.16 427.866 1210.49 431.488C1220.35 435.411 1225.27 433.6 1252.76 414.887C1266.5 405.531 1278.95 397.985 1280.25 397.985C1281.8 397.985 1290.1 402.814 1298.92 408.851L1314.99 419.716L1299.95 429.677C1269.36 449.899 1269.36 451.408 1295.81 470.121L1314.74 483.402L1298.66 493.965C1290.1 500.002 1281.54 504.831 1280.25 504.831C1278.95 504.831 1266.5 497.286 1252.5 487.929C1225.01 469.518 1216.97 466.801 1207.64 472.234C1199.6 477.063 1195.71 484.005 1195.71 494.267C1195.71 507.548 1200.38 514.188 1218.01 526.261C1232.27 535.919 1233.83 537.428 1230.72 540.145C1222.68 546.785 1219.31 545.578 1191.56 527.468C1163.04 508.755 1157.59 506.944 1147.74 512.679C1140.22 517.508 1136.33 524.45 1136.33 534.41C1136.33 548.596 1140.48 554.632 1158.37 566.404L1174.71 577.269L1160.44 586.626C1145.4 596.586 1140.22 604.735 1140.22 617.714C1140.22 630.994 1156.55 645.18 1167.96 641.86C1170.56 641.256 1177.56 637.031 1183.78 632.805C1190.01 628.58 1195.45 624.958 1196.23 624.958C1196.75 624.958 1197.79 635.522 1198.04 648.5L1198.56 672.042L1205.56 679.588C1215.68 690.152 1225.27 690.152 1235.39 679.588L1242.39 672.042L1242.91 632.202L1243.42 592.361L1248.87 588.437C1251.72 586.324 1254.83 584.513 1255.35 584.513C1255.87 584.513 1256.39 593.568 1256.39 604.434C1256.39 626.467 1258.72 634.314 1267.02 642.162C1275.06 649.406 1285.43 648.5 1294.25 639.144L1301.25 631.598L1302.29 592.059L1303.33 552.52L1318.63 541.956C1326.92 536.221 1334.44 531.392 1335.22 531.392C1336 531.392 1337.04 542.559 1337.04 556.142C1337.56 578.477 1338.07 581.193 1341.7 583.909C1345.08 586.626 1347.15 586.022 1362.45 575.76C1371.78 569.422 1380.6 563.989 1381.9 563.385C1383.71 562.48 1384.49 567.309 1384.49 585.117L1384.23 608.357L1357.26 626.165C1327.7 645.784 1323.29 651.217 1323.29 666.911C1323.29 678.984 1330.55 688.643 1341.44 691.058C1349.22 692.567 1353.63 690.756 1374.64 676.268L1384.49 669.628V678.984L1384.23 688.643L1356.48 707.054C1326.66 727.277 1323.29 731.2 1323.29 747.499C1323.29 758.968 1330.81 768.627 1341.44 771.041C1349.22 772.55 1353.63 770.739 1374.64 756.252L1384.49 749.612V768.023C1384.49 788.849 1387.86 798.206 1397.72 804.242C1404.98 808.468 1409.9 808.468 1417.16 804.242C1427.02 798.206 1430.39 788.849 1430.39 768.023V749.612L1440.5 756.554C1465.92 774.06 1475.51 775.569 1486.14 762.892C1490.29 757.761 1491.59 754.743 1491.59 746.895C1491.59 731.2 1487.18 725.767 1457.62 706.149L1430.65 688.341L1430.39 678.683V669.326L1440.5 676.268C1465.92 693.774 1475.51 695.283 1486.14 682.606C1490.29 677.475 1491.59 674.457 1491.59 666.61C1491.59 650.915 1487.18 645.482 1457.62 625.863L1430.65 608.056L1430.39 585.117C1430.39 572.742 1430.91 562.48 1431.95 562.48C1432.72 562.48 1438.17 566.102 1444.65 570.327C1450.87 574.855 1459.17 580.288 1463.32 582.702C1470.84 587.23 1470.84 587.23 1474.73 582.702C1478.1 578.778 1478.62 575.458 1478.62 554.934C1478.62 541.956 1479.14 531.694 1480.18 531.694C1480.96 531.694 1488.48 536.523 1496.77 542.258L1512.07 552.821L1513.11 592.361L1514.15 631.9L1521.15 639.445C1529.45 648.5 1537.49 649.104 1547.08 642.464C1556.67 635.823 1559.01 627.674 1559.01 604.735C1559.01 593.87 1559.53 584.815 1560.05 584.815C1560.56 584.815 1563.68 586.626 1566.53 588.739L1571.97 592.662L1572.49 632.503L1573.01 672.344L1580.01 679.89C1590.13 690.454 1599.72 690.454 1609.83 679.89L1616.84 672.344L1617.35 648.802C1617.61 635.823 1618.39 625.26 1619.17 625.26C1619.43 625.26 1625.13 628.881 1631.36 633.107C1637.58 637.333 1644.84 641.558 1647.43 642.162C1658.84 645.482 1675.18 631.598 1675.18 618.016C1675.18 605.339 1670.25 597.492 1655.21 586.928L1640.95 577.269L1657.29 566.404C1674.92 554.632 1679.07 548.294 1679.07 534.41C1679.07 524.45 1675.18 517.206 1667.66 512.679C1657.81 506.944 1652.36 508.755 1624.1 527.166C1609.06 536.825 1596.09 544.974 1594.79 544.974C1593.76 544.974 1590.13 543.465 1586.75 541.352L1580.79 537.73L1597.39 526.563C1615.28 514.49 1619.69 508.453 1619.69 494.267C1619.69 484.005 1615.8 477.063 1607.76 472.234C1598.42 466.801 1590.13 469.216 1562.9 487.929C1549.15 497.286 1536.71 504.831 1535.15 504.831C1533.6 504.831 1525.3 500.002 1516.48 493.965L1500.4 483.402L1519.33 470.121C1535.15 458.954 1538 456.237 1538 451.408C1538 446.881 1534.89 443.862 1519.33 432.695L1500.4 419.415L1516.48 408.851C1525.04 402.814 1533.6 397.985 1535.15 397.985C1536.71 397.985 1549.41 405.531 1562.9 414.887C1590.39 433.6 1594.79 435.11 1604.91 431.488C1613.98 427.866 1619.43 419.716 1619.43 408.851C1619.43 394.665 1615.28 388.327 1597.13 376.254L1580.53 365.086L1586.5 361.464C1589.87 359.351 1593.5 357.842 1594.53 357.842C1595.83 357.842 1608.8 365.992 1623.84 375.65C1651.84 394.061 1657.55 395.872 1667.4 390.138C1675.18 385.308 1678.81 378.366 1678.81 368.406C1678.81 354.522 1674.66 348.184 1656.77 336.413L1640.43 325.547L1651.84 318.001C1667.66 307.739 1673.11 300.495 1674.14 288.724C1674.92 280.575 1674.4 277.858 1669.99 272.124C1664.29 263.975 1653.66 259.145 1646.92 261.258C1644.32 261.862 1637.06 266.087 1630.84 270.313C1624.61 274.538 1618.91 278.16 1618.65 278.16C1618.13 278.16 1617.35 267.596 1616.84 254.618L1616.32 231.076L1609.32 223.53C1599.2 212.966 1589.61 212.966 1579.49 223.53L1572.49 231.076L1571.97 271.218L1571.46 311.059L1566.27 314.078C1563.42 315.587 1560.56 317.398 1559.79 318.001C1558.75 318.303 1558.23 309.248 1558.23 297.779C1558.23 279.669 1557.71 275.746 1553.82 269.407C1545.01 254.014 1531.52 251.902 1520.37 263.975L1513.37 271.52L1512.33 311.059L1511.29 350.598L1496 361.162C1487.7 366.897 1480.18 371.726 1479.4 371.726C1478.36 371.726 1477.84 361.162 1477.84 348.486C1477.84 329.471 1477.32 324.34 1474.47 320.416L1471.1 315.587L1463.32 320.114C1459.17 322.83 1450.62 328.263 1444.39 332.791C1438.17 337.016 1432.46 340.638 1431.69 340.638C1430.65 340.638 1430.13 330.376 1430.13 317.699L1430.39 295.063L1457.36 277.255C1486.92 257.636 1491.33 252.203 1491.33 236.508C1491.33 228.661 1490.29 225.643 1485.88 220.512C1475.25 208.137 1465.66 209.344 1440.24 226.85L1430.13 233.792V224.435L1430.39 214.777L1457.36 196.969C1486.92 177.351 1491.33 171.918 1491.33 156.223C1491.33 144.15 1484.07 134.491 1473.18 132.077C1465.4 130.568 1460.99 132.379 1440.24 146.866L1430.13 153.506V135.095C1430.13 114.269 1426.76 104.913 1416.9 98.876C1410.42 94.3486 1404.98 94.3486 1397.46 99.7815ZM1413.79 115.778C1415.35 117.589 1416.13 127.248 1416.13 145.357C1416.13 172.22 1417.16 177.652 1423.13 177.652C1424.68 177.652 1435.58 171.314 1447.5 163.165C1459.43 155.016 1470.58 148.677 1472.4 148.677C1476.29 148.677 1480.7 158.939 1478.1 161.958C1477.07 163.165 1462.8 173.125 1446.73 183.689L1417.16 203.609L1416.65 227.454C1416.13 251.6 1417.42 257.636 1423.39 257.636C1424.68 257.636 1435.83 251.298 1447.76 243.149C1459.69 234.999 1470.84 228.661 1472.66 228.661C1476.55 228.661 1480.96 238.923 1478.36 241.941C1477.32 243.149 1463.06 253.109 1446.99 263.673L1417.42 283.593L1416.9 322.227C1416.65 360.559 1417.16 366.897 1423.13 366.897C1424.42 366.897 1433.76 361.464 1443.35 354.522C1453.21 347.882 1462.03 342.147 1462.8 342.147C1463.58 342.147 1464.1 353.617 1463.84 367.199C1463.58 380.781 1463.84 393.458 1464.88 394.967C1467.47 400.098 1473.18 397.683 1497.81 381.083C1511.29 372.028 1523.74 363.577 1525.3 362.37C1527.63 360.86 1528.41 352.711 1529.19 317.398L1530.22 274.237L1535.15 273.633C1537.74 273.331 1541.12 274.237 1542.15 276.048C1543.45 277.858 1544.75 290.837 1544.75 309.852C1545.52 349.391 1545.26 349.089 1569.38 332.791L1587.27 320.718L1588.31 277.255L1589.35 234.094H1596.09H1602.83L1603.87 267.295C1604.65 295.666 1605.43 300.797 1608.02 302.91C1610.61 304.721 1612.69 304.419 1615.8 302.306C1632.91 289.932 1652.88 277.557 1655.21 278.16C1659.88 279.368 1662.73 286.008 1660.14 290.535C1659.1 292.648 1649.51 299.892 1639.14 306.834C1611.91 324.641 1612.17 325.849 1643.03 346.675C1656.51 355.729 1667.14 363.879 1667.14 365.086C1667.14 369.915 1662.99 375.952 1659.62 375.952C1657.81 375.952 1642.77 366.897 1626.43 356.031L1596.35 335.809L1578.72 347.882C1564.19 357.54 1560.82 360.86 1560.31 365.388C1559.79 370.821 1561.86 372.632 1582.61 386.214C1595.31 394.665 1606.2 402.814 1606.72 404.323C1608.28 408.851 1604.13 415.793 1599.98 415.793C1598.16 415.793 1582.87 406.738 1566.79 395.872L1536.97 375.65L1508.44 394.967C1492.88 405.531 1479.4 415.491 1478.88 417.302C1477.07 423.036 1479.66 426.055 1497.81 438.128C1507.66 444.466 1515.96 450.804 1515.96 451.71C1515.96 452.615 1507.66 458.954 1497.81 465.292C1479.66 477.365 1477.07 480.082 1478.88 486.118C1479.4 487.929 1492.88 497.889 1508.44 508.453L1536.97 527.468L1566.79 507.548C1583.12 496.682 1598.42 487.627 1600.24 487.627C1604.39 487.627 1608.54 494.871 1606.98 499.097C1606.46 500.606 1595.57 508.755 1582.87 517.508C1562.12 531.392 1559.79 533.203 1560.56 538.334C1560.82 542.861 1564.45 546.483 1578.98 555.84L1596.61 567.913L1626.43 547.69C1642.77 536.825 1657.81 527.77 1659.88 527.77C1663.25 527.77 1667.4 533.806 1667.4 538.636C1667.4 539.843 1656.77 547.992 1643.29 557.047C1612.43 577.873 1612.17 579.08 1639.4 596.888C1650.03 603.83 1659.36 611.074 1660.4 613.187C1662.99 617.714 1660.14 624.354 1655.47 625.561C1653.14 625.863 1633.17 613.79 1616.06 601.415C1612.95 599.303 1611.13 599.001 1608.28 600.812C1605.68 602.924 1604.91 608.055 1604.13 636.427L1603.09 669.628H1596.35H1589.61L1588.57 626.467L1587.53 583.004L1569.64 570.629C1545.52 554.331 1545.78 554.029 1545.01 593.87C1544.75 612.885 1543.71 625.863 1542.41 627.674C1541.38 629.485 1538 630.692 1535.41 630.089L1530.48 629.485L1529.97 586.626C1529.71 548.898 1529.19 543.767 1526.08 541.654C1493.14 519.017 1472.66 506.039 1470.06 506.039C1464.62 506.039 1463.84 510.264 1464.36 536.523C1464.62 550.407 1464.1 561.574 1463.32 561.574C1462.54 561.574 1453.73 556.142 1443.87 549.2C1434.02 542.559 1424.94 536.825 1423.65 536.825C1417.68 536.825 1416.9 543.163 1417.42 581.495L1417.94 620.129L1447.5 640.049C1463.58 650.613 1477.84 660.573 1478.88 661.78C1481.47 664.799 1477.07 675.061 1473.18 675.061C1471.36 675.061 1460.21 668.722 1448.28 660.573C1436.35 652.424 1425.2 646.086 1423.91 646.086C1417.94 646.086 1416.65 652.122 1417.16 676.268L1417.68 700.112L1447.24 720.033C1463.32 730.597 1477.58 740.557 1478.62 741.764C1481.21 744.782 1476.81 755.044 1472.92 755.044C1471.1 755.044 1459.95 748.706 1448.02 740.557C1436.09 732.408 1424.94 726.069 1423.65 726.069C1418.2 726.069 1416.65 732.408 1416.13 759.572C1415.61 782.812 1415.09 787.34 1412.24 789.453C1409.64 791.263 1407.83 791.263 1405.5 789.453C1402.64 787.34 1402.12 782.812 1401.61 759.572C1401.09 732.408 1399.79 726.069 1394.09 726.069C1392.79 726.069 1381.9 732.408 1369.97 740.557C1358.04 748.706 1346.89 755.044 1345.08 755.044C1340.93 755.044 1336.52 744.782 1339.11 741.764C1340.41 740.255 1368.15 720.938 1397.2 701.621C1400.83 699.207 1402.38 653.631 1399.01 648.802C1395.38 643.671 1392.53 644.878 1369.97 660.271C1358.04 668.421 1346.89 674.759 1345.08 674.759C1340.93 674.759 1336.52 664.497 1339.11 661.479C1340.15 660.271 1354.15 650.613 1370.49 639.747L1400.05 619.827L1400.57 581.193C1400.83 542.861 1400.31 536.523 1394.34 536.523C1393.05 536.523 1383.71 541.956 1374.12 548.898C1364.26 555.538 1355.45 561.273 1354.67 561.273C1353.89 561.273 1353.37 549.803 1353.63 536.221C1354.15 509.962 1353.37 505.737 1347.93 505.737C1345.33 505.737 1324.85 518.715 1291.92 541.352C1288.8 543.465 1288.54 548.596 1288.03 586.324L1287.51 629.183L1281.28 629.787C1273.5 630.692 1273.25 629.485 1272.47 591.455C1271.95 554.029 1271.95 554.029 1248.09 570.327L1230.2 582.702L1229.16 626.165L1228.12 669.326H1221.38H1214.64L1213.6 636.125C1212.83 607.754 1212.05 602.623 1209.45 600.51C1206.86 598.699 1204.79 599.001 1201.68 601.114C1184.56 613.488 1164.59 625.863 1162.26 625.26C1157.59 624.052 1154.74 617.412 1157.33 612.885C1158.37 610.772 1167.96 603.528 1178.34 596.586C1205.56 578.778 1205.31 577.571 1174.45 556.745C1160.96 547.992 1150.33 539.541 1150.33 538.636C1150.33 533.806 1154.48 527.77 1157.85 527.77C1159.67 527.77 1174.71 536.825 1191.04 547.69L1221.12 567.913L1238.76 555.84C1253.28 546.181 1256.65 542.861 1257.17 538.334C1257.69 532.901 1255.61 531.09 1234.87 517.508C1222.16 509.057 1211.27 500.908 1210.75 499.097C1209.2 494.569 1213.34 487.627 1217.49 487.627C1219.31 487.627 1234.61 496.682 1250.94 507.548L1280.77 527.468L1309.29 508.453C1324.85 497.889 1338.07 487.929 1338.85 486.118C1340.67 480.383 1338.07 477.365 1319.92 465.292C1310.07 458.954 1301.77 452.615 1301.77 451.71C1301.77 450.804 1310.07 444.466 1319.92 438.128C1338.07 426.055 1340.67 423.338 1338.85 417.302C1338.33 415.491 1324.85 405.531 1309.29 394.967L1280.77 375.952L1250.94 395.872C1234.61 406.738 1219.31 415.793 1217.49 415.793C1213.34 415.793 1209.2 408.549 1210.75 404.323C1211.27 402.814 1222.16 394.665 1234.87 386.214C1255.61 372.33 1257.95 370.519 1257.17 365.388C1256.91 360.559 1253.28 357.239 1239.02 347.882L1221.12 336.111L1190.52 356.031C1174.19 366.897 1158.89 375.952 1157.33 375.952C1153.96 375.952 1150.07 369.613 1150.07 365.086C1150.07 363.879 1160.7 355.729 1174.19 346.675C1205.05 325.849 1205.31 324.641 1178.08 306.834C1167.45 299.892 1158.11 292.648 1157.07 290.535C1154.48 286.008 1157.33 279.368 1162 278.16C1163.56 277.858 1173.93 283.593 1185.08 291.139C1213.08 309.852 1213.08 310.154 1213.6 266.993L1214.12 234.396H1220.86H1227.61L1228.64 277.557L1229.42 321.321L1247.31 333.696C1271.17 349.995 1271.17 349.995 1271.69 312.568C1272.47 274.84 1272.73 273.331 1280.51 274.237L1286.73 274.84L1287.25 317.699C1287.51 355.428 1288.03 360.559 1291.14 362.671C1324.07 385.308 1344.56 398.287 1347.15 398.287C1352.6 398.287 1353.37 394.061 1352.85 367.802C1352.6 353.918 1353.11 342.751 1353.89 342.751C1354.67 342.751 1363.75 348.184 1373.34 355.126C1383.19 361.766 1392.27 367.501 1393.57 367.501C1399.53 367.501 1400.31 361.162 1399.79 322.83L1399.27 284.197L1369.19 264.276C1352.85 253.109 1338.59 242.545 1338.07 241.036C1336.78 236.508 1340.67 229.265 1344.3 229.265C1346.11 229.265 1357 235.603 1368.93 243.752C1380.86 251.902 1391.75 258.24 1393.05 258.24C1399.01 258.24 1400.31 252.203 1399.79 228.057L1399.27 204.213L1369.71 184.293C1353.37 173.427 1339.37 163.467 1338.33 162.561C1335.74 159.543 1340.15 149.281 1344.3 149.281C1346.11 149.281 1357.26 155.619 1369.19 163.768C1381.12 171.918 1391.75 178.256 1393.31 178.256C1399.27 178.256 1400.31 172.823 1400.31 145.961C1400.31 118.495 1401.35 113.665 1408.09 113.665C1410.16 113.062 1412.24 114.269 1413.79 115.778Z"/>
</mask>
<path d="M1397.46 99.7815C1388.38 106.12 1385.53 114.571 1385.53 135.397V153.506L1377.49 147.772C1358.3 134.19 1350 130.266 1342.48 132.077C1331.85 134.491 1324.33 144.15 1324.33 155.619C1324.33 171.918 1327.7 175.841 1357.52 196.064L1385.27 214.475L1385.53 224.134V233.792L1377.49 228.057C1358.3 214.475 1350 210.551 1342.48 212.362C1331.85 214.777 1324.33 224.435 1324.33 235.905C1324.33 252.203 1327.7 256.127 1357.52 276.349L1385.27 294.761L1385.53 317.398C1385.53 330.074 1385.01 340.336 1384.23 340.336C1383.19 340.336 1375.93 335.507 1367.38 329.772C1347.41 315.888 1345.59 314.983 1341.44 319.51C1338.33 322.83 1337.81 326.754 1337.81 347.58C1337.81 360.86 1337.3 371.726 1336.52 371.726C1335.48 371.726 1328.22 366.897 1319.66 361.162L1304.36 350.598L1303.33 311.059L1302.29 271.52L1295.29 263.975C1286.47 254.92 1276.1 253.712 1268.06 260.956C1259.76 268.804 1257.43 276.651 1257.43 298.684C1257.43 309.55 1256.91 318.605 1256.39 318.605C1255.87 318.605 1252.76 316.794 1249.91 314.681L1244.46 310.757L1243.42 270.615L1242.91 230.774L1235.9 223.228C1225.79 212.664 1216.2 212.664 1206.08 223.228L1199.08 230.774L1198.3 254.316C1198.04 267.295 1197.27 277.858 1196.49 277.858C1196.23 277.858 1190.52 274.237 1184.3 270.011C1169.26 259.749 1164.85 258.542 1155.26 263.069C1141.77 268.804 1137.11 283.291 1143.33 298.684C1145.4 303.815 1150.59 308.947 1160.44 315.888L1174.71 325.547L1158.37 336.413C1140.74 348.184 1136.59 354.522 1136.59 368.406C1136.59 378.366 1140.48 385.61 1148 390.138C1157.85 395.872 1163.3 394.061 1191.56 375.65C1206.6 365.992 1219.57 357.842 1220.86 357.842C1221.9 357.842 1225.53 359.351 1228.9 361.464L1234.87 365.086L1218.79 375.952C1200.9 388.025 1195.97 394.967 1195.97 408.247C1195.97 419.716 1201.16 427.866 1210.49 431.488C1220.35 435.411 1225.27 433.6 1252.76 414.887C1266.5 405.531 1278.95 397.985 1280.25 397.985C1281.8 397.985 1290.1 402.814 1298.92 408.851L1314.99 419.716L1299.95 429.677C1269.36 449.899 1269.36 451.408 1295.81 470.121L1314.74 483.402L1298.66 493.965C1290.1 500.002 1281.54 504.831 1280.25 504.831C1278.95 504.831 1266.5 497.286 1252.5 487.929C1225.01 469.518 1216.97 466.801 1207.64 472.234C1199.6 477.063 1195.71 484.005 1195.71 494.267C1195.71 507.548 1200.38 514.188 1218.01 526.261C1232.27 535.919 1233.83 537.428 1230.72 540.145C1222.68 546.785 1219.31 545.578 1191.56 527.468C1163.04 508.755 1157.59 506.944 1147.74 512.679C1140.22 517.508 1136.33 524.45 1136.33 534.41C1136.33 548.596 1140.48 554.632 1158.37 566.404L1174.71 577.269L1160.44 586.626C1145.4 596.586 1140.22 604.735 1140.22 617.714C1140.22 630.994 1156.55 645.18 1167.96 641.86C1170.56 641.256 1177.56 637.031 1183.78 632.805C1190.01 628.58 1195.45 624.958 1196.23 624.958C1196.75 624.958 1197.79 635.522 1198.04 648.5L1198.56 672.042L1205.56 679.588C1215.68 690.152 1225.27 690.152 1235.39 679.588L1242.39 672.042L1242.91 632.202L1243.42 592.361L1248.87 588.437C1251.72 586.324 1254.83 584.513 1255.35 584.513C1255.87 584.513 1256.39 593.568 1256.39 604.434C1256.39 626.467 1258.72 634.314 1267.02 642.162C1275.06 649.406 1285.43 648.5 1294.25 639.144L1301.25 631.598L1302.29 592.059L1303.33 552.52L1318.63 541.956C1326.92 536.221 1334.44 531.392 1335.22 531.392C1336 531.392 1337.04 542.559 1337.04 556.142C1337.56 578.477 1338.07 581.193 1341.7 583.909C1345.08 586.626 1347.15 586.022 1362.45 575.76C1371.78 569.422 1380.6 563.989 1381.9 563.385C1383.71 562.48 1384.49 567.309 1384.49 585.117L1384.23 608.357L1357.26 626.165C1327.7 645.784 1323.29 651.217 1323.29 666.911C1323.29 678.984 1330.55 688.643 1341.44 691.058C1349.22 692.567 1353.63 690.756 1374.64 676.268L1384.49 669.628V678.984L1384.23 688.643L1356.48 707.054C1326.66 727.277 1323.29 731.2 1323.29 747.499C1323.29 758.968 1330.81 768.627 1341.44 771.041C1349.22 772.55 1353.63 770.739 1374.64 756.252L1384.49 749.612V768.023C1384.49 788.849 1387.86 798.206 1397.72 804.242C1404.98 808.468 1409.9 808.468 1417.16 804.242C1427.02 798.206 1430.39 788.849 1430.39 768.023V749.612L1440.5 756.554C1465.92 774.06 1475.51 775.569 1486.14 762.892C1490.29 757.761 1491.59 754.743 1491.59 746.895C1491.59 731.2 1487.18 725.767 1457.62 706.149L1430.65 688.341L1430.39 678.683V669.326L1440.5 676.268C1465.92 693.774 1475.51 695.283 1486.14 682.606C1490.29 677.475 1491.59 674.457 1491.59 666.61C1491.59 650.915 1487.18 645.482 1457.62 625.863L1430.65 608.056L1430.39 585.117C1430.39 572.742 1430.91 562.48 1431.95 562.48C1432.72 562.48 1438.17 566.102 1444.65 570.327C1450.87 574.855 1459.17 580.288 1463.32 582.702C1470.84 587.23 1470.84 587.23 1474.73 582.702C1478.1 578.778 1478.62 575.458 1478.62 554.934C1478.62 541.956 1479.14 531.694 1480.18 531.694C1480.96 531.694 1488.48 536.523 1496.77 542.258L1512.07 552.821L1513.11 592.361L1514.15 631.9L1521.15 639.445C1529.45 648.5 1537.49 649.104 1547.08 642.464C1556.67 635.823 1559.01 627.674 1559.01 604.735C1559.01 593.87 1559.53 584.815 1560.05 584.815C1560.56 584.815 1563.68 586.626 1566.53 588.739L1571.97 592.662L1572.49 632.503L1573.01 672.344L1580.01 679.89C1590.13 690.454 1599.72 690.454 1609.83 679.89L1616.84 672.344L1617.35 648.802C1617.61 635.823 1618.39 625.26 1619.17 625.26C1619.43 625.26 1625.13 628.881 1631.36 633.107C1637.58 637.333 1644.84 641.558 1647.43 642.162C1658.84 645.482 1675.18 631.598 1675.18 618.016C1675.18 605.339 1670.25 597.492 1655.21 586.928L1640.95 577.269L1657.29 566.404C1674.92 554.632 1679.07 548.294 1679.07 534.41C1679.07 524.45 1675.18 517.206 1667.66 512.679C1657.81 506.944 1652.36 508.755 1624.1 527.166C1609.06 536.825 1596.09 544.974 1594.79 544.974C1593.76 544.974 1590.13 543.465 1586.75 541.352L1580.79 537.73L1597.39 526.563C1615.28 514.49 1619.69 508.453 1619.69 494.267C1619.69 484.005 1615.8 477.063 1607.76 472.234C1598.42 466.801 1590.13 469.216 1562.9 487.929C1549.15 497.286 1536.71 504.831 1535.15 504.831C1533.6 504.831 1525.3 500.002 1516.48 493.965L1500.4 483.402L1519.33 470.121C1535.15 458.954 1538 456.237 1538 451.408C1538 446.881 1534.89 443.862 1519.33 432.695L1500.4 419.415L1516.48 408.851C1525.04 402.814 1533.6 397.985 1535.15 397.985C1536.71 397.985 1549.41 405.531 1562.9 414.887C1590.39 433.6 1594.79 435.11 1604.91 431.488C1613.98 427.866 1619.43 419.716 1619.43 408.851C1619.43 394.665 1615.28 388.327 1597.13 376.254L1580.53 365.086L1586.5 361.464C1589.87 359.351 1593.5 357.842 1594.53 357.842C1595.83 357.842 1608.8 365.992 1623.84 375.65C1651.84 394.061 1657.55 395.872 1667.4 390.138C1675.18 385.308 1678.81 378.366 1678.81 368.406C1678.81 354.522 1674.66 348.184 1656.77 336.413L1640.43 325.547L1651.84 318.001C1667.66 307.739 1673.11 300.495 1674.14 288.724C1674.92 280.575 1674.4 277.858 1669.99 272.124C1664.29 263.975 1653.66 259.145 1646.92 261.258C1644.32 261.862 1637.06 266.087 1630.84 270.313C1624.61 274.538 1618.91 278.16 1618.65 278.16C1618.13 278.16 1617.35 267.596 1616.84 254.618L1616.32 231.076L1609.32 223.53C1599.2 212.966 1589.61 212.966 1579.49 223.53L1572.49 231.076L1571.97 271.218L1571.46 311.059L1566.27 314.078C1563.42 315.587 1560.56 317.398 1559.79 318.001C1558.75 318.303 1558.23 309.248 1558.23 297.779C1558.23 279.669 1557.71 275.746 1553.82 269.407C1545.01 254.014 1531.52 251.902 1520.37 263.975L1513.37 271.52L1512.33 311.059L1511.29 350.598L1496 361.162C1487.7 366.897 1480.18 371.726 1479.4 371.726C1478.36 371.726 1477.84 361.162 1477.84 348.486C1477.84 329.471 1477.32 324.34 1474.47 320.416L1471.1 315.587L1463.32 320.114C1459.17 322.83 1450.62 328.263 1444.39 332.791C1438.17 337.016 1432.46 340.638 1431.69 340.638C1430.65 340.638 1430.13 330.376 1430.13 317.699L1430.39 295.063L1457.36 277.255C1486.92 257.636 1491.33 252.203 1491.33 236.508C1491.33 228.661 1490.29 225.643 1485.88 220.512C1475.25 208.137 1465.66 209.344 1440.24 226.85L1430.13 233.792V224.435L1430.39 214.777L1457.36 196.969C1486.92 177.351 1491.33 171.918 1491.33 156.223C1491.33 144.15 1484.07 134.491 1473.18 132.077C1465.4 130.568 1460.99 132.379 1440.24 146.866L1430.13 153.506V135.095C1430.13 114.269 1426.76 104.913 1416.9 98.876C1410.42 94.3486 1404.98 94.3486 1397.46 99.7815ZM1413.79 115.778C1415.35 117.589 1416.13 127.248 1416.13 145.357C1416.13 172.22 1417.16 177.652 1423.13 177.652C1424.68 177.652 1435.58 171.314 1447.5 163.165C1459.43 155.016 1470.58 148.677 1472.4 148.677C1476.29 148.677 1480.7 158.939 1478.1 161.958C1477.07 163.165 1462.8 173.125 1446.73 183.689L1417.16 203.609L1416.65 227.454C1416.13 251.6 1417.42 257.636 1423.39 257.636C1424.68 257.636 1435.83 251.298 1447.76 243.149C1459.69 234.999 1470.84 228.661 1472.66 228.661C1476.55 228.661 1480.96 238.923 1478.36 241.941C1477.32 243.149 1463.06 253.109 1446.99 263.673L1417.42 283.593L1416.9 322.227C1416.65 360.559 1417.16 366.897 1423.13 366.897C1424.42 366.897 1433.76 361.464 1443.35 354.522C1453.21 347.882 1462.03 342.147 1462.8 342.147C1463.58 342.147 1464.1 353.617 1463.84 367.199C1463.58 380.781 1463.84 393.458 1464.88 394.967C1467.47 400.098 1473.18 397.683 1497.81 381.083C1511.29 372.028 1523.74 363.577 1525.3 362.37C1527.63 360.86 1528.41 352.711 1529.19 317.398L1530.22 274.237L1535.15 273.633C1537.74 273.331 1541.12 274.237 1542.15 276.048C1543.45 277.858 1544.75 290.837 1544.75 309.852C1545.52 349.391 1545.26 349.089 1569.38 332.791L1587.27 320.718L1588.31 277.255L1589.35 234.094H1596.09H1602.83L1603.87 267.295C1604.65 295.666 1605.43 300.797 1608.02 302.91C1610.61 304.721 1612.69 304.419 1615.8 302.306C1632.91 289.932 1652.88 277.557 1655.21 278.16C1659.88 279.368 1662.73 286.008 1660.14 290.535C1659.1 292.648 1649.51 299.892 1639.14 306.834C1611.91 324.641 1612.17 325.849 1643.03 346.675C1656.51 355.729 1667.14 363.879 1667.14 365.086C1667.14 369.915 1662.99 375.952 1659.62 375.952C1657.81 375.952 1642.77 366.897 1626.43 356.031L1596.35 335.809L1578.72 347.882C1564.19 357.54 1560.82 360.86 1560.31 365.388C1559.79 370.821 1561.86 372.632 1582.61 386.214C1595.31 394.665 1606.2 402.814 1606.72 404.323C1608.28 408.851 1604.13 415.793 1599.98 415.793C1598.16 415.793 1582.87 406.738 1566.79 395.872L1536.97 375.65L1508.44 394.967C1492.88 405.531 1479.4 415.491 1478.88 417.302C1477.07 423.036 1479.66 426.055 1497.81 438.128C1507.66 444.466 1515.96 450.804 1515.96 451.71C1515.96 452.615 1507.66 458.954 1497.81 465.292C1479.66 477.365 1477.07 480.082 1478.88 486.118C1479.4 487.929 1492.88 497.889 1508.44 508.453L1536.97 527.468L1566.79 507.548C1583.12 496.682 1598.42 487.627 1600.24 487.627C1604.39 487.627 1608.54 494.871 1606.98 499.097C1606.46 500.606 1595.57 508.755 1582.87 517.508C1562.12 531.392 1559.79 533.203 1560.56 538.334C1560.82 542.861 1564.45 546.483 1578.98 555.84L1596.61 567.913L1626.43 547.69C1642.77 536.825 1657.81 527.77 1659.88 527.77C1663.25 527.77 1667.4 533.806 1667.4 538.636C1667.4 539.843 1656.77 547.992 1643.29 557.047C1612.43 577.873 1612.17 579.08 1639.4 596.888C1650.03 603.83 1659.36 611.074 1660.4 613.187C1662.99 617.714 1660.14 624.354 1655.47 625.561C1653.14 625.863 1633.17 613.79 1616.06 601.415C1612.95 599.303 1611.13 599.001 1608.28 600.812C1605.68 602.924 1604.91 608.055 1604.13 636.427L1603.09 669.628H1596.35H1589.61L1588.57 626.467L1587.53 583.004L1569.64 570.629C1545.52 554.331 1545.78 554.029 1545.01 593.87C1544.75 612.885 1543.71 625.863 1542.41 627.674C1541.38 629.485 1538 630.692 1535.41 630.089L1530.48 629.485L1529.97 586.626C1529.71 548.898 1529.19 543.767 1526.08 541.654C1493.14 519.017 1472.66 506.039 1470.06 506.039C1464.62 506.039 1463.84 510.264 1464.36 536.523C1464.62 550.407 1464.1 561.574 1463.32 561.574C1462.54 561.574 1453.73 556.142 1443.87 549.2C1434.02 542.559 1424.94 536.825 1423.65 536.825C1417.68 536.825 1416.9 543.163 1417.42 581.495L1417.94 620.129L1447.5 640.049C1463.58 650.613 1477.84 660.573 1478.88 661.78C1481.47 664.799 1477.07 675.061 1473.18 675.061C1471.36 675.061 1460.21 668.722 1448.28 660.573C1436.35 652.424 1425.2 646.086 1423.91 646.086C1417.94 646.086 1416.65 652.122 1417.16 676.268L1417.68 700.112L1447.24 720.033C1463.32 730.597 1477.58 740.557 1478.62 741.764C1481.21 744.782 1476.81 755.044 1472.92 755.044C1471.1 755.044 1459.95 748.706 1448.02 740.557C1436.09 732.408 1424.94 726.069 1423.65 726.069C1418.2 726.069 1416.65 732.408 1416.13 759.572C1415.61 782.812 1415.09 787.34 1412.24 789.453C1409.64 791.263 1407.83 791.263 1405.5 789.453C1402.64 787.34 1402.12 782.812 1401.61 759.572C1401.09 732.408 1399.79 726.069 1394.09 726.069C1392.79 726.069 1381.9 732.408 1369.97 740.557C1358.04 748.706 1346.89 755.044 1345.08 755.044C1340.93 755.044 1336.52 744.782 1339.11 741.764C1340.41 740.255 1368.15 720.938 1397.2 701.621C1400.83 699.207 1402.38 653.631 1399.01 648.802C1395.38 643.671 1392.53 644.878 1369.97 660.271C1358.04 668.421 1346.89 674.759 1345.08 674.759C1340.93 674.759 1336.52 664.497 1339.11 661.479C1340.15 660.271 1354.15 650.613 1370.49 639.747L1400.05 619.827L1400.57 581.193C1400.83 542.861 1400.31 536.523 1394.34 536.523C1393.05 536.523 1383.71 541.956 1374.12 548.898C1364.26 555.538 1355.45 561.273 1354.67 561.273C1353.89 561.273 1353.37 549.803 1353.63 536.221C1354.15 509.962 1353.37 505.737 1347.93 505.737C1345.33 505.737 1324.85 518.715 1291.92 541.352C1288.8 543.465 1288.54 548.596 1288.03 586.324L1287.51 629.183L1281.28 629.787C1273.5 630.692 1273.25 629.485 1272.47 591.455C1271.95 554.029 1271.95 554.029 1248.09 570.327L1230.2 582.702L1229.16 626.165L1228.12 669.326H1221.38H1214.64L1213.6 636.125C1212.83 607.754 1212.05 602.623 1209.45 600.51C1206.86 598.699 1204.79 599.001 1201.68 601.114C1184.56 613.488 1164.59 625.863 1162.26 625.26C1157.59 624.052 1154.74 617.412 1157.33 612.885C1158.37 610.772 1167.96 603.528 1178.34 596.586C1205.56 578.778 1205.31 577.571 1174.45 556.745C1160.96 547.992 1150.33 539.541 1150.33 538.636C1150.33 533.806 1154.48 527.77 1157.85 527.77C1159.67 527.77 1174.71 536.825 1191.04 547.69L1221.12 567.913L1238.76 555.84C1253.28 546.181 1256.65 542.861 1257.17 538.334C1257.69 532.901 1255.61 531.09 1234.87 517.508C1222.16 509.057 1211.27 500.908 1210.75 499.097C1209.2 494.569 1213.34 487.627 1217.49 487.627C1219.31 487.627 1234.61 496.682 1250.94 507.548L1280.77 527.468L1309.29 508.453C1324.85 497.889 1338.07 487.929 1338.85 486.118C1340.67 480.383 1338.07 477.365 1319.92 465.292C1310.07 458.954 1301.77 452.615 1301.77 451.71C1301.77 450.804 1310.07 444.466 1319.92 438.128C1338.07 426.055 1340.67 423.338 1338.85 417.302C1338.33 415.491 1324.85 405.531 1309.29 394.967L1280.77 375.952L1250.94 395.872C1234.61 406.738 1219.31 415.793 1217.49 415.793C1213.34 415.793 1209.2 408.549 1210.75 404.323C1211.27 402.814 1222.16 394.665 1234.87 386.214C1255.61 372.33 1257.95 370.519 1257.17 365.388C1256.91 360.559 1253.28 357.239 1239.02 347.882L1221.12 336.111L1190.52 356.031C1174.19 366.897 1158.89 375.952 1157.33 375.952C1153.96 375.952 1150.07 369.613 1150.07 365.086C1150.07 363.879 1160.7 355.729 1174.19 346.675C1205.05 325.849 1205.31 324.641 1178.08 306.834C1167.45 299.892 1158.11 292.648 1157.07 290.535C1154.48 286.008 1157.33 279.368 1162 278.16C1163.56 277.858 1173.93 283.593 1185.08 291.139C1213.08 309.852 1213.08 310.154 1213.6 266.993L1214.12 234.396H1220.86H1227.61L1228.64 277.557L1229.42 321.321L1247.31 333.696C1271.17 349.995 1271.17 349.995 1271.69 312.568C1272.47 274.84 1272.73 273.331 1280.51 274.237L1286.73 274.84L1287.25 317.699C1287.51 355.428 1288.03 360.559 1291.14 362.671C1324.07 385.308 1344.56 398.287 1347.15 398.287C1352.6 398.287 1353.37 394.061 1352.85 367.802C1352.6 353.918 1353.11 342.751 1353.89 342.751C1354.67 342.751 1363.75 348.184 1373.34 355.126C1383.19 361.766 1392.27 367.501 1393.57 367.501C1399.53 367.501 1400.31 361.162 1399.79 322.83L1399.27 284.197L1369.19 264.276C1352.85 253.109 1338.59 242.545 1338.07 241.036C1336.78 236.508 1340.67 229.265 1344.3 229.265C1346.11 229.265 1357 235.603 1368.93 243.752C1380.86 251.902 1391.75 258.24 1393.05 258.24C1399.01 258.24 1400.31 252.203 1399.79 228.057L1399.27 204.213L1369.71 184.293C1353.37 173.427 1339.37 163.467 1338.33 162.561C1335.74 159.543 1340.15 149.281 1344.3 149.281C1346.11 149.281 1357.26 155.619 1369.19 163.768C1381.12 171.918 1391.75 178.256 1393.31 178.256C1399.27 178.256 1400.31 172.823 1400.31 145.961C1400.31 118.495 1401.35 113.665 1408.09 113.665C1410.16 113.062 1412.24 114.269 1413.79 115.778Z" stroke="#0A0F1F" stroke-width="8" mask="url(#path-2-outside-1_1395_523)"/>
<defs>
<filter id="filter0_g_1395_523" x="-0.000782013" y="175.8" width="1430.4" height="564.4" filterUnits="userSpaceOnUse" color-interpolation-filters="sRGB">
<feFlood flood-opacity="0" result="BackgroundImageFix"/>
<feBlend mode="normal" in="SourceGraphic" in2="BackgroundImageFix" result="shape"/>
<feTurbulence type="fractalNoise" baseFrequency="0.66666668653488159 0.66666668653488159" numOctaves="3" seed="5332" />
<feDisplacementMap in="shape" scale="122.40000152587891" xChannelSelector="R" yChannelSelector="G" result="displacedImage" width="100%" height="100%" />
<feMerge result="effect1_texture_1395_523">
<feMergeNode in="displacedImage"/>
</feMerge>
</filter>
</defs>
</svg>
