<svg width="391" height="231" viewBox="0 0 391 231" fill="none" xmlns="http://www.w3.org/2000/svg">
<g clip-path="url(#clip0_941_4941)">
<path d="M342.631 213.28C355.205 201.717 355.205 182.97 342.631 171.407C330.057 159.844 309.671 159.844 297.097 171.407C284.523 182.97 284.523 201.717 297.097 213.28C309.671 224.843 330.057 224.843 342.631 213.28Z" fill="#2F2E41"/>
<path d="M319.686 195.07C325.62 193.862 329.366 188.459 328.052 183.002C326.739 177.546 320.864 174.101 314.93 175.309C308.996 176.517 305.25 181.92 306.564 187.376C307.877 192.833 313.752 196.278 319.686 195.07Z" fill="white"/>
<path d="M313.642 185.87C315.619 185.467 316.868 183.666 316.43 181.847C315.992 180.028 314.034 178.88 312.056 179.283C310.078 179.685 308.83 181.486 309.267 183.305C309.705 185.124 311.664 186.272 313.642 185.87Z" fill="#3F3D56"/>
<path d="M318.593 172.327C305.425 172.305 296.181 170.142 296.203 159.171C296.225 148.201 306.918 139.325 320.086 139.348C333.253 139.37 343.91 148.282 343.888 159.252C343.866 170.223 331.761 172.35 318.593 172.327Z" fill="#8ACADE"/>
<path d="M370.33 197.295C366.553 209.345 355.525 217.779 344.021 224.945C342.415 225.945 340.808 226.923 339.201 227.877C339.19 227.882 339.178 227.891 339.167 227.896C339.09 227.941 339.013 227.987 338.941 228.033C338.609 228.23 338.277 228.426 337.948 228.621L338.129 228.696C338.129 228.696 338.306 228.782 338.112 228.709C338.054 228.687 337.994 228.667 337.936 228.645C331.253 226.166 324.451 223.505 319.33 218.861C314.017 214.04 310.912 206.477 313.789 200.142C314.167 199.312 314.644 198.524 315.213 197.792C315.446 197.485 315.697 197.191 315.959 196.902C317.546 195.121 319.62 193.761 321.968 192.961C324.316 192.162 326.854 191.952 329.319 192.353C331.785 192.754 334.09 193.752 335.997 195.244C337.904 196.736 339.345 198.668 340.171 200.842C341.016 193.605 334.527 187.543 328.283 183.071C322.036 178.601 314.937 173.732 313.729 166.536C313.055 162.532 314.569 158.652 317.327 155.537C317.412 155.442 317.498 155.348 317.586 155.256C320.943 151.628 325.665 149.298 330.809 148.732C340.388 147.817 349.693 152.48 356.652 158.604C367.853 168.459 374.624 183.595 370.33 197.295Z" fill="#E6E6E6"/>
<path d="M352.325 181.536C354.163 184.166 355.575 187.029 356.515 190.034C357.31 192.72 357.663 195.5 357.564 198.282C357.308 204.007 355.56 209.591 352.468 214.565C350.139 218.339 347.301 221.827 344.021 224.946C342.415 225.946 340.808 226.924 339.201 227.879C339.19 227.883 339.179 227.892 339.168 227.897C339.09 227.943 339.013 227.988 338.941 228.034C338.609 228.231 338.277 228.428 337.948 228.622C337.948 228.622 338.306 228.784 338.112 228.711C338.054 228.688 337.994 228.669 337.936 228.646C338.535 224.13 337.948 219.548 336.225 215.283C334.502 211.019 331.692 207.196 328.031 204.136C324.362 201.123 319.969 198.949 315.213 197.793C315.446 197.486 315.698 197.192 315.959 196.904C317.796 197.377 319.584 198 321.302 198.763C327.443 201.475 332.471 205.933 335.643 211.477C338.488 216.512 339.713 222.188 339.173 227.841C339.448 227.612 339.723 227.378 339.989 227.146C345.068 222.792 349.578 217.795 352.631 212.027C355.28 207.142 356.581 201.734 356.421 196.278C356.172 190.329 353.595 184.818 349.863 180.021C345.772 174.903 340.94 170.324 335.501 166.41C330.019 162.372 324.02 158.967 317.639 156.269C317.495 156.207 317.382 156.097 317.324 155.961C317.266 155.825 317.267 155.674 317.327 155.538C317.37 155.417 317.463 155.316 317.586 155.257C317.649 155.232 317.718 155.22 317.787 155.223C317.856 155.226 317.923 155.243 317.984 155.273C318.772 155.606 319.554 155.944 320.33 156.297C326.795 159.235 332.838 162.901 338.32 167.21C343.615 171.361 348.6 176.104 352.325 181.536Z" fill="white"/>
<path d="M55.1103 230.688C59.6121 230.688 63.2616 229.43 63.2616 227.877C63.2616 226.325 59.6121 225.066 55.1103 225.066C50.6084 225.066 46.959 226.325 46.959 227.877C46.959 229.43 50.6084 230.688 55.1103 230.688Z" fill="#2F2E41"/>
<path d="M74.6728 230.313C79.1746 230.313 82.8241 229.055 82.8241 227.502C82.8241 225.95 79.1746 224.691 74.6728 224.691C70.1709 224.691 66.5215 225.95 66.5215 227.502C66.5215 229.055 70.1709 230.313 74.6728 230.313Z" fill="#2F2E41"/>
<path d="M100.644 183.069C108.347 178.986 113.461 173.873 112.067 171.649C110.673 169.425 103.299 170.933 95.5957 175.016C87.8928 179.1 82.7785 184.213 84.1725 186.437C85.5665 188.66 92.941 187.153 100.644 183.069Z" fill="#2F2E41"/>
<path d="M93.4125 193.079C96.2609 176.938 84.3408 161.73 66.7882 159.11C49.2356 156.491 32.6973 167.452 29.8489 183.594C27.0005 199.735 38.9206 214.944 56.4733 217.563C74.0259 220.183 90.5641 209.221 93.4125 193.079Z" fill="#2F2E41"/>
<path d="M56.7405 211.574H46.959V227.69H56.7405V211.574Z" fill="#2F2E41"/>
<path d="M76.303 211.574H66.5215V227.69H76.303V211.574Z" fill="#2F2E41"/>
<path d="M62.4456 190.962C68.5231 190.962 73.4499 186.431 73.4499 180.842C73.4499 175.253 68.5231 170.723 62.4456 170.723C56.3682 170.723 51.4414 175.253 51.4414 180.842C51.4414 186.431 56.3682 190.962 62.4456 190.962Z" fill="white"/>
<path d="M62.4454 184.215C64.4713 184.215 66.1135 182.705 66.1135 180.842C66.1135 178.979 64.4713 177.469 62.4454 177.469C60.4196 177.469 58.7773 178.979 58.7773 180.842C58.7773 182.705 60.4196 184.215 62.4454 184.215Z" fill="#3F3D56"/>
<path d="M30.3979 160.804C27.7981 150.097 36.1086 139.278 48.96 136.639C61.8114 134.001 74.337 140.541 76.9368 151.248C79.5366 161.955 71.0195 165.904 58.1682 168.543C45.3168 171.182 32.9977 171.511 30.3979 160.804Z" fill="#E6E6E6"/>
<path d="M39.9114 180.942C41.1075 178.623 35.5648 173.903 27.5315 170.399C19.4981 166.895 12.0161 165.935 10.82 168.254C9.62393 170.573 15.1666 175.293 23.2 178.797C31.2333 182.301 38.7153 183.261 39.9114 180.942Z" fill="#2F2E41"/>
<path d="M45.8145 199.019C45.8145 201.917 53.9284 207.639 62.9321 207.639C71.9358 207.639 80.3777 199.48 80.3777 196.583C80.3777 193.685 71.9357 197.145 62.9321 197.145C53.9285 197.145 45.8145 196.121 45.8145 199.019Z" fill="white"/>
<path d="M173.901 230.688C178.403 230.688 182.053 229.43 182.053 227.877C182.053 226.325 178.403 225.066 173.901 225.066C169.399 225.066 165.75 226.325 165.75 227.877C165.75 229.43 169.399 230.688 173.901 230.688Z" fill="#2F2E41"/>
<path d="M154.337 230.313C158.839 230.313 162.488 229.055 162.488 227.502C162.488 225.95 158.839 224.691 154.337 224.691C149.835 224.691 146.186 225.95 146.186 227.502C146.186 229.055 149.835 230.313 154.337 230.313Z" fill="#2F2E41"/>
<path d="M144.838 186.437C146.232 184.213 141.118 179.1 133.415 175.017C125.712 170.933 118.338 169.426 116.944 171.649C115.55 173.873 120.664 178.986 128.367 183.07C136.07 187.153 143.444 188.661 144.838 186.437Z" fill="#2F2E41"/>
<path d="M167.379 217.948C185.161 217.948 199.577 204.692 199.577 188.339C199.577 171.987 185.161 158.73 167.379 158.73C149.597 158.73 135.182 171.987 135.182 188.339C135.182 204.692 149.597 217.948 167.379 217.948Z" fill="#2F2E41"/>
<path d="M182.051 211.574H172.27V227.69H182.051V211.574Z" fill="#2F2E41"/>
<path d="M162.489 211.574H152.707V227.69H162.489V211.574Z" fill="#2F2E41"/>
<path d="M159.836 190.962C165.914 190.962 170.841 186.431 170.841 180.842C170.841 175.253 165.914 170.723 159.836 170.723C153.759 170.723 148.832 175.253 148.832 180.842C148.832 186.431 153.759 190.962 159.836 190.962Z" fill="white"/>
<path d="M157.184 181.842C158.621 180.522 158.63 178.387 157.204 177.075C155.779 175.762 153.458 175.769 152.02 177.089C150.583 178.41 150.574 180.544 152 181.857C153.426 183.169 155.747 183.163 157.184 181.842Z" fill="#3F3D56"/>
<path d="M170.842 168.543C157.99 165.904 149.473 161.955 152.073 151.248C154.673 140.541 167.198 134.001 180.05 136.639C192.901 139.278 201.212 150.097 198.612 160.804C196.012 171.511 183.693 171.182 170.842 168.543Z" fill="#8ACADE"/>
<path d="M201.048 210.908C203.746 210.249 204.083 203.309 201.8 195.407C199.518 187.504 195.481 181.632 192.783 182.291C190.085 182.95 189.749 189.89 192.031 197.793C194.313 205.695 198.351 211.567 201.048 210.908Z" fill="#2F2E41"/>
<path d="M160.084 197.145C154.173 197.145 148.631 193.685 148.631 196.583C148.631 199.48 154.173 207.639 160.084 207.639C165.995 207.639 171.322 201.917 171.322 199.019C171.322 196.121 165.995 197.145 160.084 197.145Z" fill="white"/>
<path d="M118.475 139.244H115.616C113.055 139.241 110.599 138.304 108.788 136.639C106.977 134.973 105.958 132.715 105.955 130.359V128.152C105.955 122.684 107.081 118.106 109.303 114.544C111.996 110.402 115.138 106.52 118.68 102.959C121.032 100.784 123.165 98.4191 125.055 95.8923C126.411 93.9292 127.112 91.6434 127.069 89.3181C127.069 83.8332 123.183 81.1668 115.189 81.1668C110.755 81.2129 106.348 81.8211 102.094 82.9741C100.454 83.4048 98.7273 83.4794 97.0501 83.1921C95.373 82.9048 93.7912 82.2636 92.4294 81.3187C91.0675 80.3738 89.9627 79.1512 89.2019 77.747C88.4411 76.3428 88.0451 74.7954 88.045 73.2266V68.7579C88.0356 66.8341 88.6333 64.9492 89.7655 63.3315C90.8977 61.7139 92.5158 60.433 94.4238 59.6441C101.936 56.6958 110.038 55.2302 118.205 55.3419C126.761 55.3419 134.485 56.6635 141.162 59.2695C147.852 61.8815 153.137 65.5647 156.87 70.2171C160.593 74.8365 162.571 80.4483 162.504 86.1975C162.504 92.3712 160.672 97.7483 157.057 102.179C153.482 106.566 148.356 111.367 141.824 116.452C138.382 119.085 135.12 121.91 132.057 124.913C130.079 126.872 128.681 129.266 127.997 131.865C127.616 133.932 126.45 135.807 124.706 137.159C122.963 138.51 120.755 139.248 118.475 139.244Z" fill="#8ACADE"/>
<path d="M116.885 181.027H116.508C111.761 181.024 107.209 179.288 103.854 176.2C100.498 173.112 98.6133 168.926 98.6133 164.56C98.6133 160.195 100.498 156.008 103.854 152.92C107.209 149.833 111.761 148.097 116.508 148.094H116.885C119.237 148.092 121.567 148.517 123.741 149.344C125.915 150.171 127.89 151.384 129.554 152.913C131.218 154.442 132.538 156.258 133.438 158.256C134.339 160.255 134.803 162.397 134.803 164.56C134.803 166.723 134.339 168.866 133.438 170.864C132.538 172.863 131.218 174.678 129.554 176.207C127.89 177.737 125.915 178.949 123.741 179.776C121.567 180.603 119.237 181.028 116.885 181.027Z" fill="#8ACADE"/>
<path d="M233.254 231H0.74761C0.549331 231 0.359185 230.928 0.218981 230.799C0.0787767 230.67 0 230.495 0 230.312C0 230.13 0.0787767 229.955 0.218981 229.826C0.359185 229.697 0.549331 229.625 0.74761 229.625H233.254C233.453 229.625 233.643 229.697 233.783 229.826C233.923 229.955 234.002 230.13 234.002 230.312C234.002 230.495 233.923 230.67 233.783 230.799C233.643 230.928 233.453 231 233.254 231Z" fill="#CCCCCC"/>
<path d="M390.253 231H266.15C265.952 231 265.762 230.928 265.621 230.799C265.481 230.67 265.402 230.495 265.402 230.312C265.402 230.13 265.481 229.955 265.621 229.826C265.762 229.697 265.952 229.625 266.15 229.625H390.253C390.451 229.625 390.642 229.697 390.782 229.826C390.922 229.955 391.001 230.13 391.001 230.312C391.001 230.495 390.922 230.67 390.782 230.799C390.642 230.928 390.451 231 390.253 231Z" fill="#CCCCCC"/>
<path d="M313.227 210.918C322.116 210.758 329.278 208.548 329.224 205.982C329.169 203.415 321.919 201.465 313.029 201.625C304.14 201.784 296.978 203.994 297.032 206.561C297.087 209.127 304.338 211.078 313.227 210.918Z" fill="#2F2E41"/>
<path d="M305.145 102.438H285.707C284.716 102.436 283.766 102.074 283.065 101.43C282.364 100.785 281.97 99.9114 281.969 99V81.125C281.97 80.2136 282.364 79.3399 283.065 78.6955C283.766 78.0511 284.716 77.6885 285.707 77.6875H305.145C306.136 77.6885 307.086 78.0511 307.787 78.6955C308.487 79.3399 308.882 80.2136 308.883 81.125V99C308.882 99.9114 308.487 100.785 307.787 101.43C307.086 102.074 306.136 102.436 305.145 102.438ZM285.707 79.0625C285.112 79.0631 284.542 79.2806 284.122 79.6673C283.701 80.0539 283.465 80.5782 283.464 81.125V99C283.465 99.5468 283.701 100.071 284.122 100.458C284.542 100.844 285.112 101.062 285.707 101.062H305.145C305.739 101.062 306.309 100.844 306.73 100.458C307.15 100.071 307.387 99.5468 307.387 99V81.125C307.387 80.5782 307.15 80.0539 306.73 79.6673C306.309 79.2806 305.739 79.0631 305.145 79.0625H285.707Z" fill="#F2F2F2"/>
<path d="M314.117 90.75H294.679C293.688 90.749 292.738 90.3864 292.037 89.742C291.337 89.0976 290.943 88.2239 290.941 87.3125V69.4375C290.943 68.5261 291.337 67.6524 292.037 67.008C292.738 66.3636 293.688 66.001 294.679 66H314.117C315.108 66.001 316.058 66.3636 316.759 67.008C317.46 67.6524 317.854 68.5261 317.855 69.4375V87.3125C317.854 88.2239 317.46 89.0976 316.759 89.742C316.058 90.3864 315.108 90.749 314.117 90.75ZM294.679 67.375C294.085 67.3756 293.515 67.5931 293.094 67.9798C292.674 68.3664 292.437 68.8907 292.437 69.4375V87.3125C292.437 87.8593 292.674 88.3836 293.094 88.7702C293.515 89.1569 294.085 89.3744 294.679 89.375H314.117C314.712 89.3744 315.282 89.1569 315.703 88.7702C316.123 88.3836 316.359 87.8593 316.36 87.3125V69.4375C316.359 68.8907 316.123 68.3664 315.703 67.9798C315.282 67.5931 314.712 67.3756 314.117 67.375H294.679Z" fill="#F2F2F2"/>
<path d="M160.858 33.6875H141.42C140.429 33.6865 139.479 33.3239 138.778 32.6795C138.077 32.0351 137.683 31.1614 137.682 30.25V12.375C137.683 11.4636 138.077 10.5899 138.778 9.94548C139.479 9.30105 140.429 8.93854 141.42 8.9375H160.858C161.849 8.93854 162.799 9.30105 163.499 9.94548C164.2 10.5899 164.594 11.4636 164.596 12.375V30.25C164.594 31.1614 164.2 32.0351 163.499 32.6795C162.799 33.3239 161.849 33.6865 160.858 33.6875ZM141.42 10.3125C140.825 10.3131 140.255 10.5306 139.834 10.9173C139.414 11.3039 139.178 11.8282 139.177 12.375V30.25C139.178 30.7968 139.414 31.3211 139.834 31.7077C140.255 32.0944 140.825 32.3119 141.42 32.3125H160.858C161.452 32.3119 162.022 32.0944 162.443 31.7077C162.863 31.3211 163.1 30.7968 163.1 30.25V12.375C163.1 11.8282 162.863 11.3039 162.443 10.9173C162.022 10.5306 161.452 10.3131 160.858 10.3125H141.42Z" fill="#F2F2F2"/>
<path d="M148.895 24.75H129.457C128.466 24.749 127.516 24.3864 126.815 23.742C126.114 23.0976 125.72 22.2239 125.719 21.3125V3.4375C125.72 2.52614 126.114 1.65241 126.815 1.00798C127.516 0.363552 128.466 0.00104263 129.457 0H148.895C149.886 0.00104263 150.836 0.363552 151.537 1.00798C152.237 1.65241 152.632 2.52614 152.633 3.4375V21.3125C152.632 22.2239 152.237 23.0976 151.537 23.742C150.836 24.3864 149.886 24.749 148.895 24.75ZM129.457 1.375C128.862 1.3756 128.292 1.59309 127.872 1.97975C127.451 2.36642 127.215 2.89067 127.214 3.4375V21.3125C127.215 21.8593 127.451 22.3836 127.872 22.7702C128.292 23.1569 128.862 23.3744 129.457 23.375H148.895C149.489 23.3744 150.059 23.1569 150.48 22.7702C150.9 22.3836 151.137 21.8593 151.138 21.3125V3.4375C151.137 2.89067 150.9 2.36642 150.48 1.97975C150.059 1.59309 149.489 1.3756 148.895 1.375H129.457Z" fill="#F2F2F2"/>
<path d="M240.147 130.376C242.817 130.376 244.982 128.386 244.982 125.93C244.982 123.475 242.817 121.484 240.147 121.484C237.477 121.484 235.312 123.475 235.312 125.93C235.312 128.386 237.477 130.376 240.147 130.376Z" fill="#F2F2F2"/>
<path d="M45.7683 114.564C48.4384 114.564 50.603 112.573 50.603 110.118C50.603 107.662 48.4384 105.672 45.7683 105.672C43.0982 105.672 40.9336 107.662 40.9336 110.118C40.9336 112.573 43.0982 114.564 45.7683 114.564Z" fill="#F2F2F2"/>
<path d="M371.727 153.064C374.397 153.064 376.562 151.073 376.562 148.618C376.562 146.162 374.397 144.172 371.727 144.172C369.057 144.172 366.893 146.162 366.893 148.618C366.893 151.073 369.057 153.064 371.727 153.064Z" fill="#F2F2F2"/>
</g>
<defs>
<clipPath id="clip0_941_4941">
<rect width="391" height="231" fill="white"/>
</clipPath>
</defs>
</svg>
