<svg width="24" height="36" viewBox="0 0 24 36" fill="none" xmlns="http://www.w3.org/2000/svg">
<mask id="mask0_941_5069" style="mask-type:luminance" maskUnits="userSpaceOnUse" x="0" y="5" width="24" height="26">
<path d="M23.5462 5.02344H0V30.1331H23.5462V5.02344Z" fill="white"/>
</mask>
<g mask="url(#mask0_941_5069)">
<path d="M7.88038 25.0818C7.84873 25.2126 7.76961 25.278 7.64302 25.278C7.45314 25.278 7.35819 25.2126 7.35819 25.0818C7.38983 24.9837 7.46896 24.9347 7.59555 24.9347C7.75379 24.9347 7.84873 24.9837 7.88038 25.0818ZM6.40874 24.8857C6.3771 24.9837 6.44039 25.0655 6.59863 25.1309C6.75687 25.1636 6.85182 25.1309 6.88346 25.0328C6.91511 24.902 6.85181 24.8203 6.69358 24.7876C6.53534 24.7549 6.44039 24.7876 6.40874 24.8857ZM8.49752 24.7876C8.33928 24.8203 8.26016 24.902 8.26016 25.0328C8.2918 25.1309 8.38675 25.1799 8.54499 25.1799C8.70323 25.1145 8.78235 25.0328 8.78235 24.9347C8.75071 24.8366 8.65576 24.7876 8.49752 24.7876ZM11.6307 6.00435C8.24433 6.06972 5.47512 7.21402 3.32305 9.43731C1.17098 11.6605 0.0632962 14.505 0 17.9707C0.0316481 20.7498 0.775377 23.1855 2.23119 25.278C3.687 27.3705 5.63337 28.8417 8.07027 29.6918C8.63994 29.7245 8.90894 29.5283 8.8773 29.1033C8.8773 28.9725 8.8773 28.7273 8.8773 28.3677C8.8773 27.6157 8.8773 26.8637 8.8773 26.1117C8.814 26.1117 8.51334 26.1444 7.97532 26.2098C7.40566 26.2425 6.80435 26.1771 6.17138 26.0136C5.53843 25.8175 5.09535 25.3597 4.84216 24.6404C4.84216 24.5751 4.71557 24.3135 4.46238 23.8558C4.2092 23.4307 3.89273 23.0874 3.51294 22.8259C3.44965 22.7932 3.32306 22.6624 3.13316 22.4335C2.91163 22.2374 3.06987 22.1229 3.60788 22.0902C3.63953 22.0575 3.86107 22.1229 4.2725 22.2864C4.68393 22.4172 5.0637 22.7768 5.41183 23.3653C5.9815 24.2481 6.59863 24.6895 7.26324 24.6895C7.9595 24.6895 8.49752 24.5914 8.8773 24.3952C9.00389 23.6106 9.25707 23.0547 9.63685 22.7278C8.24433 22.6624 7.02588 22.3028 5.98149 21.6489C4.9371 21.0277 4.38326 19.5727 4.31997 17.2841C4.31997 16.6302 4.41492 16.0907 4.6048 15.6657C4.76305 15.2407 5.03206 14.8319 5.41183 14.4396C5.34854 14.2434 5.28523 13.8511 5.22194 13.2626C5.15864 12.674 5.26941 11.9548 5.55424 11.1048C6.12391 11.0067 6.78852 11.1865 7.54808 11.6442C8.33928 12.0692 8.76653 12.3308 8.82982 12.4289C9.77927 12.1346 10.7762 11.9875 11.8206 11.9875C12.8333 11.9875 13.8303 12.1346 14.8113 12.4289C14.8113 12.3962 15.017 12.2491 15.4285 11.9875C15.8083 11.726 16.2513 11.497 16.7577 11.3009C17.264 11.072 17.7072 11.0067 18.0869 11.1048C18.3718 11.9548 18.4826 12.674 18.4192 13.2626C18.3559 13.8511 18.2768 14.2434 18.1818 14.4396C18.5617 14.8319 18.8623 15.2407 19.0838 15.6657C19.3054 16.0907 19.4161 16.6302 19.4161 17.2841C19.3844 18.8534 19.1155 20.0141 18.6091 20.7661C18.071 21.4854 17.3906 21.9758 16.5678 22.2374C15.745 22.4989 14.8746 22.6624 13.9568 22.7278C14.4632 23.0874 14.7322 23.8394 14.7638 24.9837C14.7638 26.1935 14.7638 27.2724 14.7638 28.2205C14.7638 28.6456 14.7638 28.9398 14.7638 29.1033C14.7322 29.5283 15.0012 29.7245 15.5709 29.6918C17.9761 28.8417 19.9066 27.3705 21.3625 25.278C22.7866 23.1855 23.5145 20.7498 23.5462 17.9707C23.5145 15.682 22.9765 13.6386 21.9321 11.8404C20.8561 10.0421 19.432 8.61994 17.6596 7.5737C15.8558 6.56019 13.8461 6.03707 11.6307 6.00435ZM4.6048 22.924C4.54151 22.9893 4.55733 23.0711 4.65227 23.1692C4.74722 23.2673 4.82633 23.2836 4.88963 23.2182C4.95293 23.1528 4.9371 23.0711 4.84216 22.973C4.77886 22.8749 4.69975 22.8586 4.6048 22.924ZM4.08261 22.5316C4.08261 22.597 4.13008 22.6624 4.22502 22.7278C4.31997 22.7605 4.38327 22.7441 4.41491 22.6788C4.44657 22.6134 4.41491 22.548 4.31997 22.4826C4.22502 22.4499 4.1459 22.4662 4.08261 22.5316ZM5.64919 24.2481C5.58589 24.3462 5.60171 24.4606 5.69666 24.5914C5.82325 24.6895 5.93402 24.7058 6.02897 24.6404C6.06061 24.5424 6.02897 24.4279 5.93402 24.2971C5.80743 24.1991 5.71248 24.1827 5.64919 24.2481ZM5.07952 23.5615C5.01622 23.6269 5.01622 23.725 5.07952 23.8558C5.17447 23.9539 5.26942 23.9865 5.36436 23.9539C5.42766 23.8885 5.42766 23.7904 5.36436 23.6596C5.26942 23.5288 5.17447 23.4961 5.07952 23.5615Z" fill="#9CA3AF"/>
</g>
</svg>
