<svg width="441" height="256" viewBox="0 0 441 256" fill="none" xmlns="http://www.w3.org/2000/svg">
<g clip-path="url(#clip0_941_5124)">
<path d="M171.221 229.368C168.849 230.177 166.301 230.379 163.824 229.956C161.347 229.534 159.024 228.5 157.079 226.955C152.125 222.927 150.572 216.291 149.308 210.147L145.57 191.973L153.396 197.193C159.023 200.947 164.778 204.821 168.674 210.258C172.571 215.696 174.272 223.118 171.141 229.002" fill="#E6E6E6"/>
<path d="M170.553 251.372C171.345 245.783 172.159 240.122 171.603 234.473C171.11 229.456 169.53 224.556 166.314 220.539C164.606 218.41 162.529 216.586 160.174 215.149C159.561 214.774 158.996 215.716 159.607 216.09C163.68 218.584 166.831 222.267 168.605 226.608C170.564 231.435 170.878 236.697 170.541 241.824C170.337 244.925 169.904 248.006 169.468 251.083C169.434 251.222 169.455 251.368 169.528 251.493C169.601 251.617 169.72 251.71 169.861 251.753C170.005 251.79 170.158 251.771 170.287 251.7C170.417 251.629 170.512 251.511 170.553 251.372Z" fill="#F2F2F2"/>
<path d="M162.924 241.484C161.906 242.982 160.507 244.202 158.862 245.024C157.216 245.847 155.38 246.245 153.53 246.181C148.774 245.962 144.81 242.747 141.241 239.694L130.686 230.666L137.672 230.342C142.696 230.109 147.849 229.892 152.634 231.393C157.419 232.893 161.833 236.506 162.708 241.304" fill="#E6E6E6"/>
<path d="M172.791 254.587C168.979 248.053 164.557 240.79 156.656 238.469C154.459 237.825 152.155 237.595 149.869 237.79C149.149 237.85 149.328 238.926 150.048 238.866C153.88 238.558 157.705 239.538 160.878 241.642C163.932 243.655 166.31 246.455 168.322 249.424C169.555 251.242 170.659 253.138 171.763 255.031C172.116 255.636 173.148 255.199 172.791 254.587Z" fill="#F2F2F2"/>
<path d="M274.969 123.676L191.856 190.409C190.81 191.247 189.464 191.648 188.113 191.526C186.762 191.403 185.516 190.767 184.649 189.755L149.613 148.803C148.748 147.789 148.333 146.485 148.46 145.177C148.586 143.868 149.244 142.661 150.287 141.821L233.4 75.0877C234.446 74.25 235.792 73.8483 237.143 73.9708C238.494 74.0934 239.74 74.7301 240.607 75.7413L275.643 116.694C276.508 117.707 276.923 119.011 276.796 120.32C276.67 121.629 276.012 122.836 274.969 123.676Z" fill="#CCCCCC"/>
<path d="M271.639 121.669L190.437 186.868C189.898 187.299 189.204 187.506 188.508 187.443C187.812 187.38 187.171 187.052 186.724 186.531L153.271 147.429C152.826 146.907 152.612 146.235 152.678 145.561C152.743 144.887 153.081 144.265 153.619 143.832L234.821 78.6334C235.36 78.2018 236.054 77.9949 236.75 78.058C237.446 78.1211 238.087 78.4491 238.534 78.9701L271.986 118.072C272.432 118.594 272.646 119.266 272.58 119.94C272.515 120.614 272.177 121.236 271.639 121.669Z" fill="white"/>
<path d="M275.381 135.316L258.68 133.802L270.633 124.688L277.073 132.214C277.324 132.502 277.479 132.856 277.519 133.23C277.559 133.604 277.482 133.982 277.297 134.313C277.175 134.537 277.009 134.737 276.808 134.899C276.61 135.057 276.383 135.175 276.138 135.246C275.893 135.318 275.636 135.342 275.381 135.316Z" fill="#CCCCCC"/>
<path d="M241.843 106.333L200.764 139.316C200.513 139.518 200.224 139.669 199.913 139.762C199.601 139.856 199.274 139.888 198.95 139.859C198.625 139.829 198.31 139.738 198.022 139.591C197.733 139.443 197.478 139.242 197.27 138.999C197.062 138.756 196.906 138.476 196.81 138.174C196.713 137.873 196.68 137.556 196.71 137.241C196.74 136.927 196.834 136.621 196.987 136.342C197.139 136.063 197.346 135.816 197.597 135.614L238.676 102.631C238.927 102.43 239.216 102.278 239.528 102.185C239.839 102.092 240.166 102.059 240.491 102.089C240.815 102.118 241.131 102.209 241.419 102.357C241.707 102.504 241.962 102.705 242.17 102.948C242.378 103.191 242.535 103.472 242.631 103.773C242.727 104.075 242.761 104.392 242.73 104.706C242.7 105.021 242.606 105.326 242.454 105.605C242.302 105.884 242.094 106.132 241.843 106.333Z" fill="#CCCCCC"/>
<path d="M221.738 109.208L194.034 131.453C193.527 131.859 192.874 132.055 192.219 131.995C191.564 131.936 190.96 131.627 190.54 131.136C190.12 130.645 189.918 130.012 189.98 129.378C190.041 128.743 190.36 128.157 190.867 127.751L218.571 105.506C219.078 105.099 219.731 104.904 220.386 104.964C221.041 105.023 221.645 105.332 222.065 105.823C222.485 106.314 222.687 106.946 222.625 107.581C222.564 108.216 222.245 108.801 221.738 109.208Z" fill="#CCCCCC"/>
<path d="M178.81 154.701C183.093 154.701 186.564 151.338 186.564 147.189C186.564 143.039 183.093 139.676 178.81 139.676C174.527 139.676 171.055 143.039 171.055 147.189C171.055 151.338 174.527 154.701 178.81 154.701Z" fill="#8ACADE"/>
<path d="M240.497 132.128C241.868 132.128 242.979 131.052 242.979 129.724C242.979 128.397 241.868 127.32 240.497 127.32C239.127 127.32 238.016 128.397 238.016 129.724C238.016 131.052 239.127 132.128 240.497 132.128Z" fill="#E6E6E6"/>
<path d="M247.185 126.757C248.555 126.757 249.666 125.681 249.666 124.353C249.666 123.026 248.555 121.949 247.185 121.949C245.814 121.949 244.703 123.026 244.703 124.353C244.703 125.681 245.814 126.757 247.185 126.757Z" fill="#E6E6E6"/>
<path d="M253.872 121.39C255.243 121.39 256.354 120.314 256.354 118.986C256.354 117.658 255.243 116.582 253.872 116.582C252.502 116.582 251.391 117.658 251.391 118.986C251.391 120.314 252.502 121.39 253.872 121.39Z" fill="#E6E6E6"/>
<path d="M214.319 250.398L220.017 250.398L222.727 229.109L214.318 229.11L214.319 250.398Z" fill="#FFB8B8"/>
<path d="M212.865 248.598L224.085 248.598H224.085C225.024 248.598 225.954 248.777 226.822 249.125C227.689 249.473 228.477 249.983 229.141 250.626C229.805 251.27 230.332 252.033 230.691 252.874C231.05 253.714 231.235 254.615 231.235 255.524V255.749L212.866 255.75L212.865 248.598Z" fill="#2F2E41"/>
<path d="M193.872 250.398L199.569 250.398L202.279 229.109L193.871 229.11L193.872 250.398Z" fill="#FFB8B8"/>
<path d="M192.418 248.598L203.638 248.598H203.638C204.577 248.598 205.507 248.777 206.374 249.125C207.242 249.473 208.03 249.983 208.694 250.626C209.358 251.27 209.885 252.033 210.244 252.874C210.603 253.714 210.788 254.615 210.788 255.524V255.749L192.418 255.75L192.418 248.598Z" fill="#2F2E41"/>
<path d="M199.588 243.886H199.587L194.742 243.885C194.2 243.887 193.679 243.684 193.289 243.319C192.899 242.954 192.671 242.457 192.654 241.932L192.501 237.826C191.276 204.989 190.01 171.034 197.853 155.773L197.915 155.653L223.882 154.742L229.095 201.071C229.318 203.048 229.236 205.045 228.854 206.998L221.962 242.179C221.869 242.656 221.602 243.085 221.21 243.387C220.818 243.689 220.326 243.845 219.826 243.826L214.384 243.655C214.099 243.644 213.819 243.577 213.562 243.457C213.305 243.338 213.076 243.169 212.888 242.96C212.701 242.752 212.56 242.509 212.473 242.245C212.387 241.982 212.357 241.704 212.385 241.43L216.66 208.89C216.805 207.486 216.674 206.067 216.272 204.711L210.955 186.706C210.911 186.557 210.816 186.427 210.685 186.338C210.554 186.25 210.396 186.207 210.236 186.218C210.077 186.229 209.926 186.292 209.809 186.398C209.692 186.504 209.617 186.645 209.595 186.799L201.659 242.139C201.588 242.623 201.339 243.065 200.959 243.386C200.579 243.707 200.092 243.884 199.588 243.886Z" fill="#2F2E41"/>
<path d="M202.695 108.423C208.998 108.423 214.108 103.472 214.108 97.3656C214.108 91.259 208.998 86.3086 202.695 86.3086C196.391 86.3086 191.281 91.259 191.281 97.3656C191.281 103.472 196.391 108.423 202.695 108.423Z" fill="#FFB8B8"/>
<path d="M222.665 158.164H199.048C198.748 158.164 198.451 158.101 198.178 157.98C197.905 157.86 197.662 157.683 197.466 157.463C197.27 157.243 197.124 156.985 197.04 156.706C196.956 156.427 196.935 156.133 196.978 155.845L198.145 148.104L191.294 129.847C190.586 127.962 190.324 125.948 190.524 123.952C190.725 121.956 191.385 120.029 192.455 118.312C193.525 116.596 194.978 115.133 196.708 114.031C198.437 112.929 200.4 112.216 202.451 111.945C205.373 111.55 208.349 112.072 210.943 113.434C213.537 114.796 215.612 116.927 216.866 119.515L218.371 122.617L224.721 155.769C224.777 156.061 224.766 156.362 224.689 156.65C224.611 156.937 224.469 157.205 224.273 157.434C224.077 157.662 223.831 157.846 223.553 157.972C223.275 158.099 222.972 158.164 222.665 158.164Z" fill="#8ACADE"/>
<path d="M172.809 177.58C173.52 177.42 174.186 177.111 174.761 176.675C175.335 176.239 175.803 175.686 176.133 175.055C176.463 174.424 176.646 173.731 176.67 173.025C176.693 172.318 176.556 171.615 176.269 170.965L194.672 130.686L184.144 128.117L169.365 168.518C168.27 169.058 167.418 169.969 166.969 171.077C166.521 172.185 166.508 173.414 166.932 174.531C167.357 175.648 168.189 176.576 169.273 177.138C170.356 177.7 171.614 177.857 172.809 177.58Z" fill="#FFB8B8"/>
<path d="M192.181 137.89L181.942 133.247C181.65 133.115 181.392 132.924 181.184 132.686C180.976 132.448 180.823 132.17 180.736 131.87C180.649 131.57 180.63 131.255 180.679 130.948C180.729 130.64 180.847 130.346 181.024 130.086L187.247 120.982C187.954 119.543 189.22 118.434 190.77 117.898C192.319 117.362 194.024 117.442 195.512 118.122C197 118.802 198.149 120.026 198.708 121.525C199.266 123.024 199.189 124.676 198.492 126.12L195.274 136.548C195.182 136.846 195.024 137.122 194.812 137.356C194.6 137.591 194.338 137.778 194.045 137.905C193.751 138.033 193.433 138.097 193.111 138.095C192.789 138.092 192.472 138.022 192.181 137.89Z" fill="#8ACADE"/>
<path d="M249.579 73.9312C249.801 74.6047 249.868 75.3171 249.776 76.0184C249.683 76.7197 249.433 77.3928 249.042 77.9902C248.652 78.5877 248.131 79.0949 247.517 79.4763C246.902 79.8577 246.209 80.1039 245.486 80.1976L219.198 116.138L211.529 108.694L239.78 75.7061C239.699 74.5184 240.069 73.3429 240.822 72.4022C241.575 71.4615 242.658 70.8212 243.866 70.6024C245.074 70.3836 246.322 70.6016 247.375 71.2152C248.428 71.8287 249.212 72.7951 249.579 73.9312Z" fill="#FFB8B8"/>
<path d="M225.276 111.918C225.313 112.227 225.281 112.541 225.182 112.838C225.083 113.134 224.919 113.406 224.702 113.636L217.104 121.653C216.182 122.974 214.756 123.885 213.141 124.189C211.525 124.493 209.851 124.163 208.486 123.273C207.12 122.383 206.175 121.004 205.857 119.44C205.539 117.876 205.875 116.253 206.79 114.928L211.675 105.088C211.815 104.807 212.015 104.559 212.262 104.36C212.51 104.16 212.799 104.015 213.109 103.934C213.42 103.853 213.745 103.838 214.062 103.889C214.379 103.941 214.681 104.058 214.948 104.232L224.308 110.375C224.574 110.549 224.799 110.777 224.966 111.044C225.133 111.31 225.238 111.608 225.276 111.918Z" fill="#8ACADE"/>
<path d="M217.691 92.739C217.684 91.7383 217.54 90.7429 217.264 89.7786C215.425 83.1958 208.637 79.2448 201.824 80.2363C200.499 79.8683 199.128 79.6823 197.749 79.6836C194.243 79.6836 190.853 80.8982 188.19 83.108C185.527 85.3179 183.768 88.3773 183.229 91.7338L177.727 126.053H207.467L212.27 96.1039C212.448 94.991 212.49 93.8615 212.395 92.739H217.691Z" fill="#2F2E41"/>
<path d="M254.655 256.002H156.603C156.48 256.002 156.362 255.954 156.275 255.87C156.188 255.786 156.139 255.671 156.139 255.552C156.139 255.432 156.188 255.318 156.275 255.233C156.362 255.149 156.48 255.102 156.603 255.102H254.655C254.778 255.102 254.896 255.149 254.984 255.233C255.071 255.318 255.12 255.432 255.12 255.552C255.12 255.671 255.071 255.786 254.984 255.87C254.896 255.954 254.778 256.002 254.655 256.002Z" fill="#CCCCCC"/>
<path d="M353.437 34.9661C354.117 34.9027 354.803 34.9846 355.447 35.2058C356.09 35.4271 356.676 35.7824 357.163 36.2468C357.65 36.7112 358.026 37.2733 358.264 37.8936C358.502 38.5138 358.597 39.1772 358.542 39.8368L373.741 46.3173L366.491 50.851L353.169 44.002C352.031 43.839 350.995 43.2774 350.256 42.4235C349.517 41.5696 349.127 40.4828 349.16 39.369C349.193 38.2552 349.647 37.1918 350.435 36.3803C351.223 35.5689 352.291 35.0657 353.437 34.9661Z" fill="#A0616A"/>
<path d="M414.746 26.8797C421.049 26.8797 426.159 21.9293 426.159 15.8227C426.159 9.71604 421.049 4.76562 414.746 4.76562C408.442 4.76562 403.332 9.71604 403.332 15.8227C403.332 21.9293 408.442 26.8797 414.746 26.8797Z" fill="#A0616A"/>
<path d="M394.089 173.484L388.392 173.484L385.682 152.195L394.09 152.196L394.089 173.484Z" fill="#A0616A"/>
<path d="M395.542 178.836L377.172 178.835V178.61C377.172 177.701 377.357 176.8 377.716 175.96C378.075 175.119 378.602 174.356 379.266 173.712C379.93 173.069 380.718 172.559 381.586 172.211C382.453 171.863 383.383 171.684 384.322 171.684L395.542 171.684L395.542 178.836Z" fill="#2F2E41"/>
<path d="M417.788 173.484L412.091 173.484L409.381 152.195L417.789 152.196L417.788 173.484Z" fill="#A0616A"/>
<path d="M419.241 178.836L400.871 178.835V178.61C400.871 177.701 401.056 176.8 401.415 175.96C401.775 175.119 402.301 174.356 402.965 173.712C403.629 173.069 404.417 172.559 405.285 172.211C406.152 171.863 407.082 171.684 408.021 171.684L419.241 171.684L419.241 178.836Z" fill="#2F2E41"/>
<path d="M417.519 168.951C417.434 168.951 417.348 168.946 417.264 168.935L408.924 167.941C408.436 167.883 407.984 167.66 407.649 167.312C407.313 166.963 407.116 166.51 407.091 166.034L404.661 113.019C404.653 112.868 404.593 112.725 404.491 112.611C404.389 112.498 404.251 112.42 404.098 112.392C403.945 112.363 403.787 112.385 403.649 112.453C403.51 112.521 403.399 112.633 403.333 112.769L397.091 132.931L395.805 165.315C395.794 165.595 395.723 165.869 395.598 166.12C395.472 166.372 395.294 166.595 395.075 166.777C394.855 166.959 394.6 167.094 394.324 167.176C394.048 167.257 393.757 167.282 393.471 167.249L386.249 166.426C385.733 166.368 385.257 166.126 384.916 165.747C384.574 165.367 384.391 164.878 384.403 164.374L385.016 133.89L389.909 86.0391L390.127 86.047L419.878 87.1579L419.61 166.932C419.608 167.468 419.387 167.981 418.995 168.36C418.603 168.738 418.072 168.951 417.519 168.951Z" fill="#2F2E41"/>
<path d="M418.75 91.5294C418.731 91.5294 418.713 91.5294 418.695 91.529L388.732 90.7684C388.438 90.761 388.149 90.6937 387.884 90.5709C387.619 90.4481 387.384 90.2725 387.193 90.0557C387.003 89.8389 386.862 89.5857 386.78 89.3125C386.697 89.0394 386.675 88.7524 386.714 88.4704L392.472 47.4173C392.832 44.6453 393.791 41.9779 395.286 39.5893C396.782 37.2007 398.781 35.1446 401.153 33.5551C403.239 32.1638 405.608 31.2212 408.102 30.7904C410.595 30.3597 413.155 30.451 415.609 31.058C426.067 33.6254 432.341 44.5051 429.595 55.3105L420.78 89.9881C420.667 90.427 420.405 90.8167 420.038 91.0958C419.67 91.3749 419.217 91.5274 418.75 91.5294Z" fill="#3F3D56"/>
<path d="M379.441 58.933C377.466 58.9353 375.534 58.3792 373.881 57.3327L356.407 46.2267C356.151 46.0641 355.935 45.8492 355.775 45.5971C355.614 45.3449 355.512 45.0617 355.477 44.7673C355.442 44.473 355.473 44.1747 355.57 43.8935C355.666 43.6123 355.825 43.3551 356.036 43.14L358.668 40.4476C358.955 40.1525 359.327 39.948 359.736 39.8607C360.145 39.7734 360.571 39.8074 360.96 39.9583L380.478 47.488L398.559 34.979C399.404 34.3942 400.366 33.9857 401.383 33.7794C402.4 33.5731 403.45 33.5735 404.466 33.7807C405.483 33.9878 406.444 34.3971 407.289 34.9826C408.134 35.5682 408.844 36.3173 409.375 37.1825C409.906 38.0478 410.245 39.0103 410.372 40.0092C410.499 41.0081 410.411 42.0217 410.112 42.9857C409.814 43.9498 409.312 44.8434 408.639 45.61C407.966 46.3765 407.136 46.9994 406.201 47.4392L383.855 57.9544C382.479 58.6 380.969 58.9346 379.441 58.933Z" fill="#3F3D56"/>
<path d="M418.7 26.3979C420.647 26.8434 422.996 27.1852 424.388 25.7925C424.634 25.5296 424.855 25.2447 425.046 24.9416L426.865 22.2507C428.259 20.1893 429.677 18.0742 430.267 15.6771C430.606 14.2998 430.659 12.8709 430.423 11.4735C430.187 10.0761 429.667 8.73801 428.893 7.53701C428.119 6.33601 427.106 5.29602 425.913 4.47744C424.721 3.65886 423.372 3.07801 421.946 2.76865C419.229 2.17943 416.571 1.16563 413.794 1.35056C411.017 1.53549 407.76 1.47478 405.429 0C405.575 0.65748 406.36 3.56251 406.36 3.56251C406.36 3.56251 402.855 6.6772 402.152 7.45385C403.072 7.05873 404.074 6.87322 405.079 6.91155C406.085 6.94989 407.068 7.21106 407.953 7.67499C408.838 8.13893 409.602 8.79328 410.185 9.58775C410.768 10.3822 411.156 11.2957 411.318 12.2579C411.517 13.44 411.4 14.751 412.125 15.7213C412.814 16.6441 414.051 16.9674 415.09 17.5002C416.589 18.3271 417.733 19.6455 418.316 21.2176C418.899 22.7897 418.884 24.512 418.272 26.0739L418.7 26.3979Z" fill="#2F2E41"/>
<path d="M404.996 95.4916H310.388C309.199 95.4903 308.059 95.0321 307.218 94.2174C306.377 93.4027 305.904 92.2981 305.902 91.146V44.5292C305.904 43.3771 306.377 42.2725 307.218 41.4578C308.059 40.6432 309.199 40.1849 310.388 40.1836H404.996C406.185 40.1849 407.326 40.6432 408.166 41.4578C409.007 42.2725 409.48 43.3771 409.482 44.5292V91.146C409.48 92.2981 409.007 93.4027 408.166 94.2174C407.326 95.0321 406.185 95.4903 404.996 95.4916Z" fill="#CCCCCC"/>
<path d="M403.91 92.3309H311.477C310.864 92.3302 310.277 92.0941 309.844 91.6744C309.41 91.2548 309.167 90.6857 309.166 90.0922V45.5824C309.167 44.9889 309.41 44.4199 309.844 44.0002C310.277 43.5805 310.864 43.3444 311.477 43.3438H403.91C404.523 43.3444 405.11 43.5805 405.543 44.0002C405.976 44.4199 406.22 44.9889 406.221 45.5824V90.0922C406.22 90.6857 405.976 91.2548 405.543 91.6744C405.11 92.0941 404.523 92.3302 403.91 92.3309Z" fill="white"/>
<path d="M398.556 103.567L388.16 93.4961L401.488 93.8225V102.39C401.491 102.72 401.392 103.043 401.203 103.318C401.014 103.592 400.743 103.805 400.427 103.928C400.216 104.013 399.989 104.058 399.759 104.058C399.535 104.058 399.313 104.014 399.107 103.93C398.9 103.845 398.713 103.722 398.556 103.567Z" fill="#CCCCCC"/>
<path d="M392.654 65.8429H345.894C345.317 65.8429 344.764 65.6209 344.356 65.2257C343.948 64.8306 343.719 64.2947 343.719 63.7359C343.719 63.1771 343.948 62.6412 344.356 62.246C344.764 61.8509 345.317 61.6289 345.894 61.6289H392.654C393.231 61.6289 393.784 61.8509 394.192 62.246C394.6 62.6412 394.829 63.1771 394.829 63.7359C394.829 64.2947 394.6 64.8306 394.192 65.2257C393.784 65.6209 393.231 65.8429 392.654 65.8429Z" fill="#CCCCCC"/>
<path d="M377.431 56.8858H345.895C345.609 56.8862 345.326 56.832 345.062 56.7263C344.797 56.6206 344.557 56.4655 344.355 56.2698C344.153 56.0741 343.992 55.8417 343.883 55.5859C343.773 55.33 343.717 55.0558 343.717 54.7788C343.717 54.5019 343.773 54.2277 343.883 53.9718C343.992 53.716 344.153 53.4836 344.355 53.2879C344.557 53.0922 344.797 52.9371 345.062 52.8314C345.326 52.7257 345.609 52.6715 345.895 52.6719H377.431C378.008 52.6719 378.561 52.8939 378.969 53.289C379.377 53.6841 379.606 54.22 379.606 54.7788C379.606 55.3376 379.377 55.8736 378.969 56.2687C378.561 56.6638 378.008 56.8858 377.431 56.8858Z" fill="#CCCCCC"/>
<path d="M326.539 65.8405C330.292 65.8405 333.335 62.8926 333.335 59.2562C333.335 55.6198 330.292 52.6719 326.539 52.6719C322.785 52.6719 319.742 55.6198 319.742 59.2562C319.742 62.8926 322.785 65.8405 326.539 65.8405Z" fill="#8ACADE"/>
<path d="M378.245 83.003C379.446 83.003 380.42 82.0597 380.42 80.896C380.42 79.7324 379.446 78.7891 378.245 78.7891C377.044 78.7891 376.07 79.7324 376.07 80.896C376.07 82.0597 377.044 83.003 378.245 83.003Z" fill="#E6E6E6"/>
<path d="M385.857 83.003C387.058 83.003 388.031 82.0597 388.031 80.896C388.031 79.7324 387.058 78.7891 385.857 78.7891C384.655 78.7891 383.682 79.7324 383.682 80.896C383.682 82.0597 384.655 83.003 385.857 83.003Z" fill="#E6E6E6"/>
<path d="M393.47 83.003C394.671 83.003 395.645 82.0597 395.645 80.896C395.645 79.7324 394.671 78.7891 393.47 78.7891C392.269 78.7891 391.295 79.7324 391.295 80.896C391.295 82.0597 392.269 83.003 393.47 83.003Z" fill="#E6E6E6"/>
<path d="M403.532 89.9468C403.607 89.289 403.83 88.6551 404.185 88.0899C404.541 87.5246 405.02 87.0417 405.589 86.6752C406.157 86.3087 406.802 86.0674 407.478 85.9684C408.153 85.8694 408.843 85.9151 409.498 86.1023L419.156 73.0156L422.253 80.8184L412.607 92.0495C412.209 93.0951 411.43 93.9631 410.416 94.489C409.402 95.0149 408.224 95.1623 407.105 94.9031C405.987 94.6439 405.005 93.9962 404.347 93.0827C403.688 92.1693 403.398 91.0535 403.532 89.9468Z" fill="#A0616A"/>
<path d="M414.596 89.2429C414.444 89.2552 414.291 89.2514 414.14 89.2318C413.837 89.1925 413.546 89.089 413.289 88.9288C413.031 88.7685 412.813 88.5553 412.65 88.3044L410.609 85.1673C410.385 84.8249 410.272 84.4248 410.286 84.0193C410.3 83.6139 410.44 83.2219 410.688 82.8947L423.049 66.4388L415.015 46.3713C414.297 44.6057 414.324 42.6375 415.09 40.891C415.856 39.1445 417.3 37.7596 419.11 37.0347C420.133 36.6191 421.238 36.4283 422.346 36.4759C423.454 36.5235 424.538 36.8085 425.519 37.3102C426.5 37.812 427.353 38.5181 428.019 39.3777C428.684 40.2374 429.145 41.2292 429.368 42.2819L434.353 65.8597C434.7 67.5225 434.597 69.2439 434.056 70.8571C433.514 72.4704 432.552 73.9208 431.262 75.0681L415.83 88.7201C415.489 89.0218 415.055 89.2057 414.596 89.2429Z" fill="#3F3D56"/>
<path d="M440.536 179.92H342.484C342.361 179.92 342.243 179.872 342.156 179.788C342.068 179.704 342.02 179.589 342.02 179.47C342.02 179.35 342.068 179.236 342.156 179.151C342.243 179.067 342.361 179.02 342.484 179.02H440.536C440.659 179.02 440.777 179.067 440.864 179.151C440.952 179.236 441.001 179.35 441.001 179.47C441.001 179.589 440.952 179.704 440.864 179.788C440.777 179.872 440.659 179.92 440.536 179.92Z" fill="#CCCCCC"/>
<path d="M119.25 67.8784H24.642C23.4527 67.8771 22.3125 67.4188 21.4716 66.6041C20.6306 65.7894 20.1576 64.6848 20.1562 63.5327V16.916C20.1576 15.7638 20.6306 14.6592 21.4716 13.8446C22.3125 13.0299 23.4527 12.5716 24.642 12.5703H119.25C120.439 12.5716 121.579 13.0299 122.42 13.8446C123.261 14.6592 123.734 15.7638 123.736 16.916V63.5327C123.734 64.6849 123.261 65.7894 122.42 66.6041C121.579 67.4188 120.439 67.8771 119.25 67.8784Z" fill="#CCCCCC"/>
<path d="M118.162 64.7176H25.7288C25.1161 64.7169 24.5288 64.4808 24.0955 64.0612C23.6623 63.6415 23.4187 63.0724 23.418 62.4789V17.9691C23.4187 17.3756 23.6623 16.8066 24.0955 16.3869C24.5288 15.9672 25.1161 15.7311 25.7288 15.7305H118.162C118.775 15.7311 119.362 15.9672 119.795 16.3869C120.228 16.8066 120.472 17.3756 120.473 17.9691V62.4789C120.472 63.0724 120.228 63.6415 119.795 64.0612C119.362 64.4808 118.775 64.7169 118.162 64.7176Z" fill="white"/>
<path d="M112.81 75.9536L102.414 65.8828L115.742 66.2092V74.777C115.745 75.1069 115.646 75.4301 115.457 75.7044C115.268 75.9787 114.997 76.1913 114.681 76.3143C114.47 76.4001 114.243 76.4446 114.013 76.4452C113.789 76.4445 113.567 76.4007 113.361 76.3163C113.154 76.2319 112.967 76.1086 112.81 75.9536Z" fill="#CCCCCC"/>
<path d="M106.908 38.2257H60.1476C59.5707 38.2257 59.0175 38.0037 58.6097 37.6085C58.2018 37.2134 57.9727 36.6775 57.9727 36.1187C57.9727 35.5599 58.2018 35.024 58.6097 34.6288C59.0175 34.2337 59.5707 34.0117 60.1476 34.0117H106.908C107.485 34.0117 108.038 34.2337 108.446 34.6288C108.854 35.024 109.083 35.5599 109.083 36.1187C109.083 36.6775 108.854 37.2134 108.446 37.6085C108.038 38.0037 107.485 38.2257 106.908 38.2257Z" fill="#CCCCCC"/>
<path d="M91.6835 29.2725H60.1476C59.5707 29.2725 59.0175 29.0506 58.6097 28.6554C58.2018 28.2603 57.9727 27.7244 57.9727 27.1656C57.9727 26.6068 58.2018 26.0708 58.6097 25.6757C59.0175 25.2806 59.5707 25.0586 60.1476 25.0586H91.6835C92.2604 25.0586 92.8135 25.2806 93.2214 25.6757C93.6293 26.0708 93.8584 26.6068 93.8584 27.1656C93.8584 27.7244 93.6293 28.2603 93.2214 28.6554C92.8135 29.0506 92.2604 29.2725 91.6835 29.2725Z" fill="#CCCCCC"/>
<path d="M40.7907 38.2272C44.5443 38.2272 47.5872 35.2793 47.5872 31.6429C47.5872 28.0065 44.5443 25.0586 40.7907 25.0586C37.0371 25.0586 33.9941 28.0065 33.9941 31.6429C33.9941 35.2793 37.0371 38.2272 40.7907 38.2272Z" fill="#8ACADE"/>
<path d="M92.4991 55.3897C93.7003 55.3897 94.674 54.4464 94.674 53.2828C94.674 52.1191 93.7003 51.1758 92.4991 51.1758C91.2979 51.1758 90.3242 52.1191 90.3242 53.2828C90.3242 54.4464 91.2979 55.3897 92.4991 55.3897Z" fill="#E6E6E6"/>
<path d="M100.11 55.3897C101.312 55.3897 102.285 54.4464 102.285 53.2828C102.285 52.1191 101.312 51.1758 100.11 51.1758C98.9093 51.1758 97.9355 52.1191 97.9355 53.2828C97.9355 54.4464 98.9093 55.3897 100.11 55.3897Z" fill="#E6E6E6"/>
<path d="M107.722 55.3897C108.923 55.3897 109.897 54.4464 109.897 53.2828C109.897 52.1191 108.923 51.1758 107.722 51.1758C106.521 51.1758 105.547 52.1191 105.547 53.2828C105.547 54.4464 106.521 55.3897 107.722 55.3897Z" fill="#E6E6E6"/>
<path d="M115.328 8.0916C114.685 8.31577 114.101 8.67374 113.616 9.1403C113.132 9.60687 112.758 10.1707 112.523 10.792C112.288 11.4133 112.196 12.0771 112.254 12.7365C112.313 13.3959 112.519 14.0349 112.86 14.6086L101.977 26.7592L110.531 27.8571L119.555 16.1504C120.511 15.532 121.201 14.5951 121.492 13.5173C121.784 12.4394 121.657 11.2954 121.136 10.3021C120.615 9.30872 119.736 8.53505 118.665 8.12765C117.595 7.72025 116.407 7.70742 115.328 8.0916Z" fill="#FFB8B8"/>
<path d="M42.6582 12.9545C42.8903 13.5769 42.9787 14.2411 42.9173 14.9002C42.8558 15.5594 42.6459 16.1974 42.3023 16.7694C41.9587 17.3415 41.4899 17.8336 40.9288 18.2111C40.3677 18.5886 39.7279 18.8423 39.0547 18.9544L36.3464 34.8264L30.0137 29.1475L33.5564 14.9458C33.437 13.8376 33.7414 12.7254 34.4119 11.8201C35.0824 10.9148 36.0724 10.2792 37.1943 10.0337C38.3162 9.78824 39.4921 9.94999 40.4991 10.4883C41.5061 11.0266 42.2743 11.9041 42.6582 12.9545Z" fill="#FFB8B8"/>
<path d="M59.6669 173.484L65.3642 173.484L68.0743 152.195L59.666 152.196L59.6669 173.484Z" fill="#FFB8B8"/>
<path d="M58.2129 171.684L69.4325 171.684H69.433C70.3719 171.684 71.3017 171.863 72.1692 172.211C73.0367 172.559 73.8249 173.069 74.4889 173.712C75.1528 174.355 75.6795 175.119 76.0388 175.96C76.3981 176.8 76.5831 177.701 76.5831 178.61V178.835L58.2132 178.836L58.2129 171.684Z" fill="#2F2E41"/>
<path d="M30.3916 173.484L36.0888 173.484L38.7989 152.195L30.3906 152.196L30.3916 173.484Z" fill="#FFB8B8"/>
<path d="M28.9375 171.684L40.1571 171.684H40.1576C41.0965 171.684 42.0263 171.863 42.8938 172.211C43.7613 172.559 44.5495 173.069 45.2135 173.712C45.8774 174.355 46.4041 175.119 46.7634 175.96C47.1227 176.8 47.3077 177.701 47.3077 178.61V178.835L28.9378 178.836L28.9375 171.684Z" fill="#2F2E41"/>
<path d="M58.478 28.1415C64.7815 28.1415 69.8915 23.191 69.8915 17.0844C69.8915 10.9778 64.7815 6.02734 58.478 6.02734C52.1745 6.02734 47.0645 10.9778 47.0645 17.0844C47.0645 23.191 52.1745 28.1415 58.478 28.1415Z" fill="#FFB8B8"/>
<path d="M57.1096 166.415L56.166 108.158C56.1635 107.993 56.0991 107.835 55.9847 107.713C55.8704 107.591 55.7139 107.514 55.5449 107.496C55.376 107.478 55.206 107.521 55.0671 107.616C54.9282 107.711 54.83 107.851 54.7908 108.012L39.3205 164.995C39.2041 165.451 38.9296 165.854 38.543 166.138C38.1563 166.421 37.6809 166.567 37.1963 166.552L28.697 166.2C28.408 166.188 28.1248 166.118 27.8652 165.994C27.6056 165.871 27.3752 165.696 27.1887 165.482C27.0021 165.268 26.8634 165.019 26.7813 164.75C26.6992 164.482 26.6756 164.199 26.7118 163.922L39.839 90.6949L39.8659 90.4883L76.4294 92.1642L76.6679 92.1747L68.8273 166.536C68.7862 167.046 68.5489 167.521 68.1626 167.868C67.7763 168.216 67.2692 168.41 66.7421 168.412H59.2006C58.6517 168.41 58.1256 168.2 57.7348 167.826C57.344 167.453 57.1196 166.946 57.1096 166.415Z" fill="#2F2E41"/>
<path d="M85.9882 97.0969L32.9298 92.8786C32.6096 92.8531 32.2997 92.7566 32.0242 92.5963C31.7487 92.4361 31.5151 92.2164 31.3414 91.9545C31.1678 91.6926 31.0588 91.3955 31.0229 91.0861C30.987 90.7768 31.0251 90.4636 31.1344 90.1709L39.4901 67.7912L39.9709 41.2289C39.9883 40.2646 40.2032 39.3133 40.6031 38.4302C41.003 37.547 41.5799 36.7496 42.3004 36.0841C43.0209 35.4186 43.8706 34.8984 44.8003 34.5535C45.7299 34.2086 46.721 34.046 47.716 34.0751L51.2445 30.9766H64.1723L65.2979 32.4063L74.2932 33.7454C75.8954 33.9904 77.3738 34.7281 78.5102 35.8494C79.6465 36.9708 80.3805 38.4164 80.6039 39.9728L88.2316 94.8077C88.2713 95.0938 88.2475 95.3847 88.1617 95.6611C88.0759 95.9376 87.9302 96.193 87.7342 96.4105C87.5382 96.6279 87.2966 96.8022 87.0254 96.9218C86.7542 97.0414 86.4598 97.1035 86.1619 97.1039C86.1042 97.1039 86.0463 97.1017 85.9882 97.0969Z" fill="#2F2E41"/>
<path d="M75.6504 36.32L98.2736 29.8987L108.512 16.8397C108.794 16.48 109.192 16.2219 109.643 16.1064C110.093 15.9909 110.571 16.0247 110.999 16.2022L117.392 18.8493C117.665 18.9621 117.909 19.1298 118.11 19.3412C118.31 19.5526 118.462 19.8029 118.555 20.0755C118.648 20.3481 118.681 20.6368 118.65 20.9224C118.619 21.2079 118.526 21.4839 118.377 21.732L110.725 34.4524C109.479 36.5332 107.583 38.1764 105.31 39.1446L78.7005 50.54L75.6504 36.32Z" fill="#2F2E41"/>
<path d="M32.2471 45.9285C30.8952 44.985 29.817 43.7198 29.1167 42.255C28.4164 40.7903 28.1175 39.1754 28.249 37.5662L29.2418 24.8225C29.2827 24.3135 29.5201 23.8381 29.9065 23.491C30.2929 23.1438 30.8001 22.9504 31.3272 22.9492H31.3456L38.8421 23.0138C39.1492 23.0166 39.4519 23.0848 39.7287 23.2136C40.0056 23.3424 40.2497 23.5288 40.4438 23.7593C40.6379 23.9899 40.7773 24.259 40.8519 24.5476C40.9265 24.8362 40.9346 25.1372 40.8756 25.4292L39.4847 32.3042L49.4107 36.3673L41.0522 52.1208L32.2471 45.9285Z" fill="#2F2E41"/>
<path d="M65.1183 3.82574C65.1183 3.82574 53.1825 -2.40044 46.6767 4.94779C40.1709 12.296 49.1553 23.787 49.1553 23.787L61.9569 25.3511C61.9569 25.3511 62.4216 16.9207 65.4696 17.0844C68.5175 17.2481 77.9835 6.61014 65.1183 3.82574Z" fill="#2F2E41"/>
<path d="M98.5163 179.467H0.4647C0.341454 179.467 0.223255 179.419 0.136107 179.335C0.0489589 179.25 0 179.136 0 179.017C0 178.897 0.0489589 178.783 0.136107 178.698C0.223255 178.614 0.341454 178.566 0.4647 178.566H98.5163C98.6396 178.566 98.7578 178.614 98.8449 178.698C98.9321 178.783 98.981 178.897 98.981 179.017C98.981 179.136 98.9321 179.25 98.8449 179.335C98.7578 179.419 98.6396 179.467 98.5163 179.467Z" fill="#CCCCCC"/>
</g>
<defs>
<clipPath id="clip0_941_5124">
<rect width="441" height="256" fill="white"/>
</clipPath>
</defs>
</svg>
