<svg width="22" height="36" viewBox="0 0 22 36" fill="none" xmlns="http://www.w3.org/2000/svg">
<mask id="mask0_941_5080" style="mask-type:luminance" maskUnits="userSpaceOnUse" x="0" y="5" width="22" height="26">
<path d="M21.2675 5.02344H0V30.1331H21.2675V5.02344Z" fill="white"/>
</mask>
<g mask="url(#mask0_941_5080)">
<path d="M19.7484 7.18137H1.51911C1.07604 7.18137 0.712083 7.32846 0.42725 7.62275C0.142417 7.94967 0 8.3257 0 8.75072V27.583C0 28.008 0.142417 28.384 0.42725 28.711C0.712083 29.0052 1.07604 29.1523 1.51911 29.1523H19.7484C20.1915 29.1523 20.5555 29.0052 20.8403 28.711C21.1251 28.384 21.2675 28.008 21.2675 27.583V8.75072C21.2675 8.3257 21.1251 7.94967 20.8403 7.62275C20.5555 7.32846 20.1915 7.18137 19.7484 7.18137ZM6.40874 26.0136H3.27558V15.5186H6.45622V26.0136H6.40874ZM4.84216 14.0963C4.33579 14.0963 3.90854 13.9165 3.56041 13.5569C3.21228 13.1972 3.03822 12.7558 3.03822 12.2327C3.03822 11.677 3.21228 11.2192 3.56041 10.8595C3.90854 10.4999 4.33579 10.3201 4.84216 10.3201C5.38018 10.3201 5.80743 10.4999 6.12391 10.8595C6.47204 11.2192 6.66193 11.677 6.69358 12.2327C6.66193 12.7558 6.47204 13.1972 6.12391 13.5569C5.80743 13.9165 5.38018 14.0963 4.84216 14.0963ZM18.2293 26.0136H15.0962V20.9132C15.1277 20.2593 15.0486 19.6381 14.8588 19.0496C14.7005 18.4938 14.2258 18.1832 13.4346 18.1178C12.6434 18.1505 12.1212 18.4284 11.868 18.9515C11.6465 19.4747 11.5516 20.0958 11.5832 20.8151V26.0136H8.40257V15.5186H11.4408V16.9408H11.4883C11.6782 16.5157 12.0263 16.1397 12.5327 15.8128C13.039 15.4532 13.6878 15.2734 14.479 15.2734C16.0297 15.3061 17.0583 15.7802 17.5647 16.6956C18.0711 17.6437 18.2926 18.8371 18.2293 20.2757V26.0136Z" fill="#9CA3AF"/>
</g>
</svg>
