<svg width="662" height="432" viewBox="0 0 662 432" fill="none" xmlns="http://www.w3.org/2000/svg">
<g opacity="0.14">
<path d="M0.160156 245.412L630.16 245L630.282 431.053L0.281992 431.466L0.160156 245.412Z" fill="#8BBEFA"/>
<path d="M195.34 165.244L419.95 165.097L420.119 422.849L195.509 422.996L195.34 165.244Z" fill="#8BBEFA"/>
<path d="M63.8638 388.236C62.8481 388.237 61.9354 388.081 61.1255 387.769C60.3157 387.457 59.6247 387.007 59.0526 386.418C58.484 385.832 58.0467 385.126 57.7408 384.299C57.4384 383.471 57.2869 382.546 57.2862 381.524C57.2856 380.522 57.4377 379.613 57.7425 378.796C58.0509 377.979 58.489 377.277 59.0568 376.691C59.6282 376.105 60.3097 375.653 61.1014 375.337C61.8967 375.017 62.7808 374.856 63.7538 374.856C64.7055 374.855 65.5579 375.021 66.3109 375.355C67.064 375.685 67.7053 376.135 68.2348 376.706C68.7643 377.278 69.1677 377.929 69.4452 378.661C69.7262 379.388 69.867 380.15 69.8675 380.945C69.8678 381.45 69.8291 381.947 69.7513 382.437C69.6771 382.927 69.5477 383.371 69.3633 383.769C69.1789 384.167 68.9235 384.485 68.5969 384.723C68.2704 384.958 67.8567 385.075 67.356 385.075C67.0932 385.075 66.834 385.033 66.5782 384.948C66.326 384.859 66.1093 384.716 65.9281 384.517C65.7504 384.315 65.6472 384.045 65.6186 383.707L65.5654 383.708C65.4519 383.963 65.2922 384.198 65.0864 384.411C64.8806 384.621 64.6268 384.788 64.325 384.912C64.0268 385.037 63.6806 385.094 63.2864 385.083C62.839 385.073 62.4359 384.974 62.0771 384.786C61.7218 384.598 61.418 384.341 61.1657 384.014C60.9169 383.687 60.7267 383.309 60.595 382.88C60.4633 382.447 60.3973 381.98 60.397 381.479C60.3967 380.996 60.4692 380.55 60.6145 380.142C60.7634 379.733 60.9673 379.376 61.2264 379.071C61.489 378.765 61.796 378.522 62.1474 378.34C62.4989 378.159 62.877 378.054 63.2818 378.025C63.644 378 63.9778 378.036 64.2833 378.131C64.5887 378.223 64.8481 378.358 65.0613 378.536C65.2744 378.713 65.4273 378.914 65.5197 379.137L65.573 379.137L65.5724 378.173L66.4406 378.173L66.4439 383.11C66.4441 383.483 66.5171 383.774 66.6628 383.984C66.8121 384.19 67.0466 384.292 67.3662 384.292C67.7532 384.292 68.0674 384.166 68.3087 383.913C68.5536 383.658 68.7327 383.281 68.846 382.784C68.9593 382.283 69.0157 381.667 69.0152 380.935C69.0149 380.381 68.9364 379.845 68.7798 379.327C68.6268 378.805 68.4027 378.322 68.1077 377.878C67.8127 377.431 67.4502 377.041 67.0203 376.707C66.5904 376.37 66.0984 376.108 65.5443 375.92C64.9937 375.732 64.3829 375.638 63.7117 375.639C62.8807 375.639 62.1262 375.78 61.4481 376.061C60.77 376.342 60.1861 376.744 59.6964 377.266C59.2103 377.788 58.836 378.412 58.5737 379.136C58.3114 379.858 58.1805 380.662 58.1811 381.55C58.1817 382.448 58.3136 383.26 58.5769 383.984C58.8402 384.708 59.2188 385.327 59.7127 385.842C60.2102 386.357 60.8106 386.752 61.5139 387.029C62.2172 387.305 63.0092 387.443 63.8899 387.443C64.2805 387.442 64.664 387.403 65.0404 387.325C65.4203 387.25 65.7647 387.157 66.0736 387.047C66.386 386.937 66.6381 386.828 66.8298 386.722L67.1019 387.467C66.8392 387.609 66.5268 387.739 66.1647 387.857C65.8061 387.974 65.4262 388.067 65.0249 388.134C64.6272 388.202 64.2402 388.236 63.8638 388.236ZM63.3977 384.247C63.8807 384.247 64.2872 384.134 64.6173 383.911C64.9474 383.687 65.1958 383.365 65.3624 382.946C65.5326 382.527 65.6175 382.022 65.6171 381.433C65.6167 380.84 65.5259 380.352 65.3445 379.968C65.1667 379.585 64.9126 379.301 64.5822 379.117C64.2554 378.929 63.8683 378.835 63.4208 378.835C62.9876 378.835 62.6077 378.954 62.2811 379.193C61.9581 379.427 61.7044 379.742 61.52 380.136C61.3392 380.53 61.2489 380.964 61.2492 381.436C61.2496 381.937 61.3298 382.4 61.4898 382.826C61.6535 383.252 61.8934 383.596 62.2096 383.859C62.5294 384.118 62.9254 384.247 63.3977 384.247ZM77.0554 382.219L77.0521 377.164L78.0003 377.164L78.0056 385.345L77.0575 385.346L77.0566 383.988L76.982 383.988C76.7905 384.407 76.4871 384.757 76.0718 385.038C75.6565 385.315 75.1488 385.454 74.5487 385.454C74.0266 385.454 73.5631 385.341 73.1582 385.114C72.7532 384.884 72.4351 384.546 72.204 384.103C71.9729 383.659 71.8571 383.114 71.8567 382.468L71.8532 377.168L72.8014 377.167L72.8048 382.408C72.8052 383.048 72.9938 383.562 73.3705 383.953C73.7471 384.34 74.2302 384.533 74.8197 384.532C75.189 384.532 75.5441 384.443 75.8849 384.265C76.2257 384.088 76.506 383.828 76.726 383.487C76.9459 383.143 77.0557 382.72 77.0554 382.219ZM86.0088 378.953L85.1407 379.199C85.0553 378.954 84.9344 378.732 84.7781 378.533C84.6217 378.335 84.4174 378.177 84.1652 378.06C83.9165 377.943 83.6075 377.884 83.2382 377.885C82.6842 377.885 82.2298 378.017 81.8748 378.28C81.5199 378.543 81.3426 378.882 81.3428 379.297C81.3431 379.649 81.464 379.935 81.7056 380.155C81.9508 380.371 82.3273 380.543 82.8352 380.671L84.0712 380.973C84.7567 381.14 85.27 381.404 85.6111 381.766C85.9558 382.128 86.1284 382.583 86.1287 383.129C86.129 383.591 86.0014 384.001 85.746 384.36C85.4906 384.719 85.1339 385.002 84.6759 385.208C84.2215 385.411 83.6942 385.512 83.0941 385.512C82.2951 385.513 81.6362 385.334 81.1175 384.976C80.5988 384.614 80.2664 384.092 80.1204 383.41L81.0311 383.186C81.1486 383.672 81.3779 384.04 81.719 384.288C82.0636 384.537 82.5164 384.661 83.0775 384.66C83.7061 384.66 84.2085 384.519 84.5847 384.238C84.9609 383.954 85.1489 383.599 85.1486 383.173C85.1484 382.842 85.0382 382.566 84.8178 382.342C84.5975 382.115 84.2636 381.948 83.8161 381.842L82.4789 381.523C81.7685 381.353 81.2428 381.084 80.9016 380.715C80.5605 380.345 80.3897 379.887 80.3894 379.341C80.3891 378.89 80.5113 378.494 80.7561 378.152C81.0009 377.808 81.3381 377.538 81.7677 377.342C82.1972 377.147 82.6872 377.049 83.2377 377.048C83.987 377.048 84.5854 377.218 85.0331 377.558C85.4843 377.895 85.8095 378.36 86.0088 378.953ZM91.5142 385.507C90.7507 385.507 90.0901 385.33 89.5324 384.976C88.9746 384.617 88.5428 384.122 88.237 383.49C87.9347 382.855 87.7833 382.123 87.7828 381.296C87.7823 380.472 87.9327 379.74 88.2341 379.101C88.5391 378.458 88.9596 377.955 89.4956 377.593C90.0351 377.227 90.6582 377.043 91.3649 377.043C91.8088 377.043 92.2367 377.124 92.6488 377.287C93.0608 377.447 93.4303 377.693 93.7572 378.027C94.0877 378.357 94.349 378.774 94.5411 379.278C94.7331 379.779 94.8294 380.372 94.8299 381.057L94.8302 381.526L88.4381 381.53L88.4376 380.694L93.8602 380.69C93.8598 380.164 93.753 379.692 93.5396 379.273C93.3298 378.851 93.0367 378.517 92.6601 378.273C92.287 378.028 91.8555 377.906 91.3654 377.906C90.847 377.906 90.3907 378.045 89.9968 378.322C89.6028 378.599 89.294 378.965 89.0706 379.42C88.8508 379.875 88.7392 380.372 88.736 380.912L88.7363 381.413C88.7368 382.062 88.849 382.63 89.073 383.117C89.3006 383.6 89.6223 383.974 90.0379 384.24C90.4536 384.506 90.9455 384.639 91.5137 384.639C91.9007 384.638 92.2398 384.578 92.531 384.457C92.8256 384.336 93.0723 384.174 93.2711 383.972C93.4733 383.766 93.6259 383.54 93.7287 383.295L94.6291 383.587C94.505 383.932 94.3011 384.25 94.0172 384.541C93.7368 384.833 93.3854 385.067 92.9629 385.245C92.544 385.419 92.0611 385.507 91.5142 385.507ZM96.9221 385.333L96.9167 377.151L97.8382 377.151L97.8391 378.408L97.9083 378.408C98.0714 377.996 98.3553 377.663 98.7599 377.411C99.1681 377.155 99.6297 377.027 100.145 377.026C100.223 377.026 100.31 377.028 100.406 377.032C100.502 377.035 100.581 377.039 100.645 377.042L100.646 378.006C100.603 377.999 100.529 377.989 100.422 377.974C100.316 377.96 100.2 377.953 100.076 377.953C99.6498 377.954 99.2699 378.044 98.9362 378.226C98.6061 378.404 98.3452 378.651 98.1537 378.967C97.9621 379.283 97.8665 379.643 97.8668 380.048L97.8702 385.332L96.9221 385.333ZM103.214 380.215L103.217 385.329L102.269 385.329L102.263 377.148L103.185 377.147L103.186 378.431L103.271 378.431C103.462 378.012 103.761 377.676 104.165 377.423C104.573 377.167 105.078 377.039 105.678 377.039C106.228 377.038 106.711 377.154 107.127 377.384C107.546 377.611 107.871 377.947 108.102 378.39C108.337 378.834 108.454 379.379 108.455 380.025L108.458 385.325L107.51 385.326L107.507 380.085C107.506 379.413 107.318 378.883 106.941 378.492C106.568 378.102 106.067 377.907 105.439 377.907C105.009 377.908 104.627 378 104.294 378.185C103.96 378.37 103.695 378.636 103.5 378.985C103.309 379.329 103.213 379.739 103.214 380.215ZM113.241 385.509C112.747 385.509 112.296 385.413 111.887 385.222C111.479 385.027 111.154 384.747 110.912 384.381C110.67 384.012 110.549 383.564 110.549 383.039C110.549 382.634 110.625 382.293 110.777 382.016C110.93 381.739 111.146 381.511 111.427 381.334C111.707 381.156 112.039 381.016 112.423 380.912C112.806 380.809 113.229 380.729 113.69 380.672C114.148 380.615 114.535 380.565 114.851 380.522C115.171 380.479 115.414 380.411 115.581 380.319C115.748 380.227 115.831 380.077 115.831 379.871L115.831 379.68C115.83 379.122 115.663 378.684 115.329 378.364C114.999 378.041 114.523 377.88 113.901 377.88C113.312 377.881 112.831 378.011 112.458 378.27C112.089 378.53 111.83 378.835 111.681 379.187L110.781 378.863C110.965 378.415 111.22 378.058 111.547 377.791C111.873 377.521 112.239 377.328 112.644 377.21C113.049 377.089 113.459 377.028 113.874 377.028C114.187 377.028 114.512 377.069 114.849 377.15C115.19 377.231 115.506 377.373 115.797 377.576C116.089 377.774 116.325 378.053 116.506 378.411C116.688 378.766 116.779 379.217 116.779 379.764L116.783 385.32L115.835 385.321L115.834 384.026L115.775 384.026C115.662 384.268 115.493 384.502 115.27 384.73C115.046 384.957 114.766 385.144 114.428 385.29C114.091 385.435 113.695 385.508 113.241 385.509ZM113.368 384.64C113.872 384.64 114.309 384.528 114.678 384.304C115.047 384.08 115.331 383.783 115.53 383.414C115.732 383.041 115.833 382.631 115.832 382.183L115.832 381.001C115.761 381.068 115.642 381.129 115.475 381.182C115.312 381.235 115.122 381.283 114.905 381.326C114.692 381.365 114.479 381.399 114.266 381.428C114.053 381.456 113.861 381.481 113.691 381.503C113.229 381.56 112.835 381.649 112.508 381.77C112.182 381.891 111.931 382.058 111.758 382.271C111.584 382.481 111.497 382.751 111.497 383.081C111.497 383.578 111.675 383.963 112.031 384.236C112.386 384.506 112.832 384.641 113.368 384.64ZM119.305 385.318L119.3 377.136L120.221 377.136L120.222 378.393L120.307 378.393C120.47 377.97 120.742 377.638 121.121 377.396C121.505 377.151 121.965 377.028 122.501 377.028C123.065 377.027 123.529 377.16 123.891 377.426C124.257 377.689 124.531 378.051 124.712 378.513L124.782 378.512C124.966 378.058 125.266 377.697 125.681 377.431C126.1 377.16 126.608 377.025 127.204 377.025C127.964 377.024 128.565 377.264 129.005 377.743C129.446 378.218 129.666 378.914 129.667 379.83L129.671 385.311L128.722 385.312L128.719 379.831C128.718 379.185 128.553 378.7 128.223 378.377C127.892 378.054 127.457 377.893 126.917 377.893C126.292 377.894 125.811 378.086 125.474 378.469C125.137 378.853 124.969 379.34 124.969 379.929L124.972 385.315L124.003 385.315L123.999 379.749C123.999 379.195 123.844 378.747 123.535 378.407C123.226 378.066 122.791 377.896 122.23 377.896C121.853 377.897 121.514 377.989 121.212 378.174C120.914 378.359 120.678 378.616 120.505 378.947C120.334 379.274 120.249 379.65 120.25 380.076L120.253 385.318L119.305 385.318ZM135.489 385.478C134.725 385.479 134.065 385.302 133.507 384.947C132.949 384.588 132.517 384.093 132.212 383.461C131.909 382.826 131.758 382.095 131.757 381.267C131.757 380.443 131.907 379.712 132.209 379.072C132.514 378.429 132.934 377.927 133.47 377.564C134.01 377.198 134.633 377.015 135.339 377.014C135.783 377.014 136.211 377.095 136.623 377.258C137.035 377.418 137.405 377.664 137.732 377.998C138.062 378.328 138.324 378.745 138.516 379.249C138.708 379.75 138.804 380.343 138.804 381.028L138.805 381.497L132.413 381.501L132.412 380.665L137.835 380.661C137.834 380.136 137.728 379.663 137.514 379.245C137.304 378.822 137.011 378.489 136.635 378.244C136.262 377.999 135.83 377.877 135.34 377.877C134.822 377.877 134.365 378.016 133.971 378.293C133.577 378.571 133.269 378.937 133.045 379.391C132.825 379.846 132.714 380.343 132.711 380.883L132.711 381.384C132.711 382.034 132.824 382.602 133.048 383.088C133.275 383.571 133.597 383.945 134.013 384.211C134.428 384.477 134.92 384.61 135.488 384.61C135.875 384.61 136.214 384.549 136.506 384.428C136.8 384.307 137.047 384.145 137.246 383.943C137.448 383.737 137.6 383.511 137.703 383.266L138.604 383.558C138.48 383.903 138.276 384.221 137.992 384.512C137.711 384.804 137.36 385.038 136.938 385.216C136.519 385.39 136.036 385.478 135.489 385.478Z" fill="#8BBEFA"/>
<path d="M484.536 387.961C483.52 387.962 482.607 387.806 481.797 387.494C480.988 387.182 480.297 386.731 479.724 386.142C479.156 385.557 478.719 384.85 478.413 384.023C478.11 383.196 477.959 382.271 477.958 381.248C477.957 380.247 478.11 379.338 478.414 378.521C478.723 377.704 479.161 377.002 479.729 376.416C480.3 375.829 480.982 375.378 481.773 375.061C482.569 374.741 483.453 374.581 484.426 374.58C485.377 374.58 486.23 374.746 486.983 375.079C487.736 375.409 488.377 375.86 488.907 376.431C489.436 377.002 489.84 377.654 490.117 378.385C490.398 379.113 490.539 379.875 490.539 380.67C490.54 381.174 490.501 381.672 490.423 382.162C490.349 382.652 490.22 383.096 490.035 383.494C489.851 383.891 489.595 384.209 489.269 384.448C488.942 384.682 488.529 384.8 488.028 384.8C487.765 384.8 487.506 384.758 487.25 384.673C486.998 384.584 486.781 384.44 486.6 384.242C486.422 384.039 486.319 383.769 486.29 383.432L486.237 383.432C486.124 383.688 485.964 383.922 485.758 384.136C485.552 384.345 485.299 384.512 484.997 384.637C484.699 384.761 484.352 384.818 483.958 384.808C483.511 384.798 483.108 384.698 482.749 384.51C482.394 384.322 482.09 384.065 481.838 383.739C481.589 383.412 481.399 383.034 481.267 382.604C481.135 382.171 481.069 381.704 481.069 381.204C481.069 380.721 481.141 380.275 481.286 379.866C481.435 379.458 481.639 379.101 481.898 378.795C482.161 378.49 482.468 378.246 482.819 378.065C483.171 377.884 483.549 377.779 483.954 377.75C484.316 377.725 484.65 377.76 484.955 377.856C485.261 377.948 485.52 378.083 485.733 378.26C485.946 378.438 486.099 378.638 486.192 378.862L486.245 378.862L486.244 377.898L487.113 377.897L487.116 382.835C487.116 383.208 487.189 383.499 487.335 383.708C487.484 383.914 487.718 384.017 488.038 384.017C488.425 384.017 488.739 383.89 488.981 383.638C489.225 383.382 489.405 383.006 489.518 382.508C489.631 382.008 489.688 381.392 489.687 380.66C489.687 380.106 489.608 379.57 489.452 379.051C489.299 378.53 489.075 378.047 488.78 377.603C488.485 377.156 488.122 376.765 487.692 376.432C487.262 376.095 486.77 375.832 486.216 375.645C485.666 375.457 485.055 375.363 484.384 375.363C483.553 375.364 482.798 375.505 482.12 375.786C481.442 376.067 480.858 376.468 480.368 376.991C479.882 377.513 479.508 378.136 479.246 378.861C478.983 379.582 478.852 380.387 478.853 381.274C478.854 382.173 478.986 382.984 479.249 383.708C479.512 384.433 479.891 385.052 480.385 385.567C480.882 386.081 481.482 386.477 482.186 386.753C482.889 387.03 483.681 387.168 484.562 387.167C484.952 387.167 485.336 387.128 485.712 387.049C486.092 386.974 486.437 386.882 486.745 386.772C487.058 386.661 487.31 386.553 487.502 386.446L487.774 387.192C487.511 387.334 487.199 387.464 486.837 387.581C486.478 387.699 486.098 387.791 485.697 387.859C485.299 387.927 484.912 387.961 484.536 387.961ZM484.07 383.972C484.553 383.971 484.959 383.859 485.289 383.635C485.619 383.411 485.868 383.09 486.034 382.671C486.204 382.251 486.289 381.747 486.289 381.158C486.289 380.565 486.198 380.076 486.016 379.693C485.839 379.31 485.584 379.026 485.254 378.841C484.927 378.653 484.54 378.559 484.093 378.56C483.659 378.56 483.28 378.679 482.953 378.917C482.63 379.152 482.376 379.466 482.192 379.861C482.011 380.255 481.921 380.688 481.921 381.16C481.921 381.661 482.002 382.125 482.162 382.551C482.325 382.977 482.565 383.321 482.881 383.583C483.201 383.843 483.597 383.972 484.07 383.972ZM497.727 381.944L497.724 376.889L498.672 376.888L498.677 385.07L497.729 385.071L497.728 383.712L497.654 383.712C497.462 384.131 497.159 384.481 496.744 384.762C496.328 385.04 495.821 385.178 495.221 385.179C494.699 385.179 494.235 385.066 493.83 384.839C493.425 384.608 493.107 384.271 492.876 383.827C492.645 383.384 492.529 382.839 492.529 382.192L492.525 376.892L493.473 376.892L493.477 382.133C493.477 382.772 493.666 383.287 494.042 383.677C494.419 384.064 494.902 384.257 495.492 384.257C495.861 384.257 496.216 384.168 496.557 383.99C496.898 383.812 497.178 383.553 497.398 383.212C497.618 382.867 497.728 382.444 497.727 381.944ZM506.681 378.678L505.813 378.924C505.727 378.679 505.606 378.457 505.45 378.258C505.294 378.059 505.089 377.901 504.837 377.784C504.588 377.667 504.279 377.609 503.91 377.609C503.356 377.609 502.902 377.741 502.547 378.004C502.192 378.267 502.014 378.606 502.015 379.022C502.015 379.374 502.136 379.659 502.377 379.879C502.623 380.096 502.999 380.268 503.507 380.395L504.743 380.698C505.429 380.865 505.942 381.129 506.283 381.491C506.628 381.853 506.8 382.307 506.801 382.854C506.801 383.316 506.673 383.726 506.418 384.085C506.162 384.444 505.806 384.726 505.348 384.932C504.893 385.135 504.366 385.237 503.766 385.237C502.967 385.238 502.308 385.059 501.789 384.7C501.271 384.338 500.938 383.817 500.792 383.135L501.703 382.911C501.82 383.397 502.05 383.764 502.391 384.013C502.735 384.261 503.188 384.385 503.749 384.385C504.378 384.384 504.88 384.244 505.257 383.963C505.633 383.679 505.821 383.323 505.821 382.897C505.82 382.567 505.71 382.29 505.49 382.067C505.269 381.839 504.935 381.673 504.488 381.566L503.151 381.248C502.44 381.078 501.915 380.808 501.574 380.439C501.232 380.07 501.062 379.612 501.061 379.065C501.061 378.614 501.183 378.218 501.428 377.877C501.673 377.532 502.01 377.262 502.44 377.067C502.869 376.871 503.359 376.773 503.91 376.773C504.659 376.772 505.257 376.942 505.705 377.283C506.156 377.62 506.481 378.085 506.681 378.678ZM512.186 385.232C511.423 385.232 510.762 385.055 510.204 384.7C509.646 384.342 509.215 383.847 508.909 383.215C508.607 382.579 508.455 381.848 508.455 381.021C508.454 380.197 508.605 379.465 508.906 378.826C509.211 378.183 509.631 377.68 510.167 377.317C510.707 376.951 511.33 376.768 512.037 376.768C512.481 376.767 512.909 376.849 513.321 377.012C513.733 377.171 514.102 377.418 514.429 377.751C514.76 378.081 515.021 378.499 515.213 379.003C515.405 379.503 515.501 380.096 515.502 380.782L515.502 381.25L509.11 381.255L509.109 380.418L514.532 380.415C514.532 379.889 514.425 379.417 514.212 378.998C514.002 378.576 513.709 378.242 513.332 377.997C512.959 377.752 512.527 377.63 512.037 377.63C511.519 377.631 511.063 377.77 510.669 378.047C510.275 378.324 509.966 378.69 509.743 379.145C509.523 379.599 509.411 380.097 509.408 380.636L509.408 381.137C509.409 381.787 509.521 382.355 509.745 382.841C509.973 383.324 510.294 383.699 510.71 383.965C511.125 384.231 511.617 384.364 512.186 384.363C512.573 384.363 512.912 384.302 513.203 384.182C513.497 384.061 513.744 383.899 513.943 383.696C514.145 383.49 514.298 383.265 514.401 383.02L515.301 383.312C515.177 383.656 514.973 383.974 514.689 384.266C514.409 384.557 514.057 384.792 513.635 384.97C513.216 385.144 512.733 385.231 512.186 385.232ZM517.594 385.058L517.589 376.876L518.51 376.875L518.511 378.132L518.58 378.132C518.743 377.72 519.027 377.388 519.432 377.136C519.84 376.88 520.302 376.751 520.816 376.751C520.895 376.751 520.982 376.753 521.077 376.756C521.173 376.76 521.253 376.763 521.317 376.767L521.318 377.731C521.275 377.724 521.201 377.713 521.094 377.699C520.988 377.685 520.872 377.678 520.748 377.678C520.322 377.678 519.942 377.769 519.608 377.95C519.278 378.128 519.017 378.375 518.826 378.691C518.634 379.008 518.538 379.368 518.539 379.773L518.542 385.057L517.594 385.058ZM523.885 379.94L523.889 385.053L522.941 385.054L522.935 376.872L523.857 376.872L523.858 378.155L523.943 378.155C524.134 377.736 524.432 377.4 524.837 377.148C525.245 376.892 525.749 376.764 526.35 376.763C526.9 376.763 527.383 376.878 527.799 377.109C528.218 377.336 528.543 377.671 528.774 378.115C529.009 378.559 529.126 379.104 529.127 379.75L529.13 385.05L528.182 385.051L528.179 379.809C528.178 379.138 527.99 378.607 527.613 378.217C527.24 377.826 526.739 377.631 526.11 377.632C525.681 377.632 525.299 377.725 524.965 377.91C524.632 378.094 524.367 378.361 524.172 378.709C523.981 379.054 523.885 379.464 523.885 379.94ZM533.912 385.233C533.419 385.234 532.968 385.138 532.559 384.947C532.151 384.751 531.826 384.471 531.584 384.106C531.342 383.736 531.221 383.289 531.221 382.763C531.221 382.359 531.297 382.018 531.449 381.741C531.602 381.464 531.818 381.236 532.099 381.058C532.379 380.881 532.711 380.74 533.094 380.637C533.478 380.534 533.9 380.453 534.362 380.396C534.82 380.339 535.207 380.289 535.523 380.246C535.843 380.204 536.086 380.136 536.253 380.044C536.42 379.951 536.503 379.802 536.503 379.596L536.503 379.404C536.502 378.847 536.335 378.408 536.001 378.089C535.671 377.766 535.195 377.605 534.573 377.605C533.984 377.605 533.503 377.735 533.13 377.995C532.761 378.254 532.502 378.56 532.353 378.912L531.452 378.587C531.637 378.14 531.892 377.783 532.219 377.516C532.545 377.246 532.911 377.052 533.316 376.935C533.72 376.814 534.131 376.753 534.546 376.753C534.859 376.753 535.184 376.793 535.521 376.875C535.862 376.956 536.178 377.098 536.469 377.3C536.761 377.499 536.997 377.777 537.178 378.136C537.36 378.491 537.451 378.942 537.451 379.489L537.455 385.045L536.506 385.045L536.506 383.751L536.447 383.751C536.333 383.992 536.165 384.227 535.941 384.454C535.718 384.682 535.437 384.868 535.1 385.014C534.763 385.16 534.367 385.233 533.912 385.233ZM534.04 384.365C534.544 384.365 534.981 384.252 535.35 384.029C535.719 383.805 536.003 383.508 536.202 383.138C536.404 382.765 536.505 382.355 536.504 381.908L536.504 380.725C536.433 380.793 536.314 380.853 536.147 380.907C535.983 380.96 535.794 381.008 535.577 381.051C535.364 381.09 535.151 381.124 534.938 381.152C534.725 381.181 534.533 381.206 534.363 381.227C533.901 381.284 533.507 381.373 533.18 381.494C532.854 381.615 532.603 381.782 532.429 381.996C532.256 382.205 532.169 382.475 532.169 382.805C532.169 383.303 532.347 383.688 532.702 383.961C533.058 384.231 533.503 384.365 534.04 384.365ZM539.977 385.043L539.971 376.861L540.893 376.86L540.894 378.118L540.979 378.118C541.142 377.695 541.413 377.363 541.793 377.121C542.177 376.876 542.636 376.753 543.173 376.752C543.737 376.752 544.201 376.885 544.563 377.151C544.929 377.414 545.203 377.776 545.384 378.237L545.453 378.237C545.638 377.782 545.938 377.422 546.353 377.155C546.772 376.885 547.28 376.75 547.876 376.749C548.636 376.749 549.236 376.988 549.677 377.467C550.118 377.943 550.338 378.639 550.339 379.555L550.343 385.036L549.394 385.037L549.391 379.556C549.39 378.909 549.225 378.425 548.894 378.102C548.564 377.779 548.129 377.617 547.589 377.618C546.964 377.618 546.483 377.81 546.146 378.194C545.809 378.578 545.64 379.064 545.641 379.654L545.644 385.039L544.675 385.04L544.671 379.473C544.671 378.919 544.516 378.472 544.207 378.131C543.898 377.791 543.463 377.621 542.902 377.621C542.525 377.621 542.186 377.714 541.884 377.899C541.586 378.083 541.35 378.341 541.176 378.671C541.006 378.998 540.921 379.375 540.921 379.801L540.925 385.042L539.977 385.043ZM556.161 385.203C555.397 385.203 554.737 385.026 554.179 384.671C553.621 384.313 553.189 383.818 552.883 383.186C552.581 382.551 552.43 381.819 552.429 380.992C552.429 380.168 552.579 379.436 552.881 378.797C553.186 378.154 553.606 377.651 554.142 377.289C554.682 376.922 555.305 376.739 556.011 376.739C556.455 376.738 556.883 376.82 557.295 376.983C557.707 377.142 558.077 377.389 558.404 377.723C558.734 378.053 558.995 378.47 559.188 378.974C559.38 379.474 559.476 380.067 559.476 380.753L559.477 381.222L553.085 381.226L553.084 380.389L558.507 380.386C558.506 379.86 558.399 379.388 558.186 378.969C557.976 378.547 557.683 378.213 557.307 377.968C556.934 377.724 556.502 377.601 556.012 377.602C555.493 377.602 555.037 377.741 554.643 378.018C554.249 378.295 553.941 378.661 553.717 379.116C553.497 379.571 553.386 380.068 553.382 380.608L553.383 381.108C553.383 381.758 553.495 382.326 553.72 382.813C553.947 383.295 554.269 383.67 554.684 383.936C555.1 384.202 555.592 384.335 556.16 384.334C556.547 384.334 556.886 384.274 557.177 384.153C557.472 384.032 557.719 383.87 557.918 383.668C558.12 383.461 558.272 383.236 558.375 382.991L559.276 383.283C559.152 383.628 558.948 383.946 558.664 384.237C558.383 384.528 558.032 384.763 557.609 384.941C557.19 385.115 556.708 385.202 556.161 385.203Z" fill="#8BBEFA"/>
<ellipse cx="97.8209" cy="226.168" rx="62.2372" ry="62.2376" transform="rotate(-0.0375195 97.8209 226.168)" fill="#8BBEFA"/>
<ellipse cx="523.278" cy="262.275" rx="62.2369" ry="62.2373" transform="rotate(-0.0375195 523.278 262.275)" fill="#8BBEFA"/>
<path d="M329.693 111.918C329.187 111.516 328.573 111.258 327.921 111.173C327.268 111.088 326.603 111.179 326.003 111.436L314.824 116.183L308.32 105.024C308.01 104.503 307.559 104.07 307.016 103.769C306.472 103.467 305.854 103.309 305.226 103.309C304.597 103.31 303.979 103.469 303.436 103.771C302.893 104.073 302.443 104.506 302.133 105.028L295.644 116.195L284.459 111.464C283.857 111.207 283.191 111.117 282.538 111.202C281.884 111.287 281.269 111.545 280.761 111.947C280.253 112.348 279.873 112.877 279.664 113.473C279.455 114.069 279.425 114.71 279.578 115.321L285.206 138.128C285.313 138.57 285.514 138.986 285.795 139.352C286.077 139.717 286.433 140.024 286.842 140.255C287.397 140.571 288.031 140.738 288.677 140.738C288.991 140.737 289.303 140.694 289.605 140.611C299.834 137.908 310.64 137.901 320.873 140.59C321.807 140.824 322.801 140.695 323.635 140.231C324.047 140.003 324.405 139.696 324.686 139.329C324.967 138.963 325.166 138.545 325.269 138.102L330.889 115.288C331.039 114.676 331.007 114.036 330.795 113.44C330.584 112.845 330.202 112.318 329.693 111.918Z" fill="#8BBEFA"/>
<ellipse cx="305.161" cy="7.5693" rx="7.35712" ry="7.35732" transform="rotate(-0.0375195 305.161 7.5693)" fill="#8BBEFA"/>
<ellipse cx="305.179" cy="33.3191" rx="5.51784" ry="5.51799" transform="rotate(-0.0375195 305.179 33.3191)" fill="#8BBEFA"/>
<ellipse cx="331.838" cy="19.5055" rx="4.5982" ry="4.59832" transform="rotate(-0.0375195 331.838 19.5055)" fill="#8BBEFA"/>
<ellipse cx="278.498" cy="19.5406" rx="4.5982" ry="4.59832" transform="rotate(-0.0375195 278.498 19.5406)" fill="#8BBEFA"/>
<ellipse cx="291.387" cy="36.0912" rx="2.75892" ry="2.75899" transform="rotate(-0.0375195 291.387 36.0912)" fill="#8BBEFA"/>
<ellipse cx="318.975" cy="36.0716" rx="2.75892" ry="2.75899" transform="rotate(-0.0375195 318.975 36.0716)" fill="#8BBEFA"/>
<path d="M306.384 202.061L306.388 207.879L305.334 207.88L305.331 203.087L305.297 203.087L303.936 203.957L303.936 202.991L305.381 202.061L306.384 202.061Z" fill="#8BBEFA"/>
<path d="M93.5687 219.015L93.5669 216.731L99.6217 210.787C100.201 210.202 100.683 209.681 101.069 209.227C101.455 208.772 101.745 208.331 101.938 207.905C102.13 207.479 102.227 207.024 102.226 206.541C102.226 205.99 102.1 205.519 101.85 205.127C101.6 204.729 101.256 204.423 100.818 204.207C100.38 203.991 99.8832 203.884 99.3264 203.884C98.7525 203.884 98.2498 204.004 97.8182 204.243C97.3865 204.476 97.0516 204.808 96.8133 205.24C96.5807 205.672 96.4646 206.187 96.4651 206.783L93.4566 206.785C93.4557 205.677 93.7078 204.714 94.2128 203.895C94.7178 203.077 95.4133 202.443 96.2993 201.993C97.191 201.544 98.2135 201.319 99.3669 201.319C100.537 201.318 101.566 201.536 102.453 201.973C103.339 202.41 104.027 203.009 104.517 203.77C105.012 204.531 105.259 205.401 105.26 206.378C105.261 207.031 105.136 207.673 104.887 208.304C104.637 208.935 104.198 209.634 103.567 210.402C102.943 211.169 102.066 212.098 100.936 213.19L97.9301 216.251L97.9302 216.37L105.533 216.366L105.535 219.008L93.5687 219.015Z" fill="#B4C6E7"/>
</g>
<path d="M136.041 84.2051V61.5551H124.141V54.7551H157.791V61.5551H145.741V84.2051H136.041ZM172.435 84.2051C168.902 84.2051 166.318 83.4217 164.685 81.8551C163.085 80.2551 162.285 77.7217 162.285 74.2551V64.7051C162.285 61.3051 163.085 58.8051 164.685 57.2051C166.285 55.6051 168.868 54.8051 172.435 54.8051H187.035C190.535 54.8051 193.085 55.6051 194.685 57.2051C196.318 58.8051 197.135 61.3051 197.135 64.7051V74.2551C197.135 77.7217 196.318 80.2551 194.685 81.8551C193.052 83.4217 190.502 84.2051 187.035 84.2051H172.435ZM175.885 77.4051H183.635C186.235 77.4051 187.535 76.2217 187.535 73.8551V65.1051C187.535 62.7717 186.235 61.6051 183.635 61.6051H175.885C174.552 61.6051 173.552 61.8717 172.885 62.4051C172.218 62.9384 171.885 63.8384 171.885 65.1051V73.8551C171.885 75.0884 172.218 75.9884 172.885 76.5551C173.552 77.1217 174.552 77.4051 175.885 77.4051ZM205.131 84.2051V58.8051L204.631 54.7551H227.781C230.014 54.7551 231.798 55.0051 233.131 55.5051C234.498 55.9717 235.514 56.6217 236.181 57.4551C236.881 58.2551 237.331 59.2051 237.531 60.3051C237.764 61.3717 237.881 62.5051 237.881 63.7051V67.6551C237.881 69.2551 237.614 70.7384 237.081 72.1051C236.581 73.4384 235.631 74.5217 234.231 75.3551C232.864 76.1551 230.881 76.5551 228.281 76.5551H224.831C222.731 76.5551 220.764 76.5051 218.931 76.4051C217.131 76.3051 215.781 76.2217 214.881 76.1551V84.2051H205.131ZM214.881 69.7551H225.231C226.331 69.7551 227.098 69.5384 227.531 69.1051C227.964 68.6717 228.181 67.9717 228.181 67.0051V64.4551C228.181 63.4884 227.981 62.7884 227.581 62.3551C227.181 61.8884 226.414 61.6551 225.281 61.6551H214.881V69.7551ZM265.002 84.2051C262.202 84.2051 260.018 84.0717 258.452 83.8051C256.885 83.5051 255.768 83.2051 255.102 82.9051C254.435 82.5717 254.018 82.3384 253.852 82.2051L256.352 76.8051C257.018 76.8717 258.002 76.9551 259.302 77.0551C260.602 77.1217 262.385 77.1884 264.652 77.2551C266.918 77.3217 269.818 77.3551 273.352 77.3551C274.818 77.3551 275.752 77.1051 276.152 76.6051C276.552 76.0717 276.752 75.4884 276.752 74.8551V74.6551C276.752 73.8884 276.552 73.2717 276.152 72.8051C275.752 72.3384 274.968 72.1051 273.802 72.1051H260.202V66.1551H272.302C273.202 66.1551 273.902 66.0051 274.402 65.7051C274.935 65.4051 275.202 64.8217 275.202 63.9551V63.4051C275.202 62.7051 275.052 62.1717 274.752 61.8051C274.452 61.4051 273.818 61.2051 272.852 61.2051H270.902C268.768 61.2051 266.718 61.2551 264.752 61.3551C262.785 61.4551 261.052 61.5884 259.552 61.7551C258.085 61.8884 256.952 62.0384 256.152 62.2051L255.652 55.8051C255.885 55.7384 256.718 55.5884 258.152 55.3551C259.618 55.0884 261.568 54.8551 264.002 54.6551C266.435 54.4217 269.235 54.3051 272.402 54.3051H273.752C276.552 54.3051 278.752 54.6384 280.352 55.3051C281.985 55.9384 283.152 56.8384 283.852 58.0051C284.552 59.1717 284.902 60.5551 284.902 62.1551V63.0051C284.902 64.0051 284.718 64.8551 284.352 65.5551C283.985 66.2217 283.568 66.7384 283.102 67.1051C282.635 67.4717 282.235 67.7217 281.902 67.8551C284.935 68.7551 286.452 70.9884 286.452 74.5551V75.2551C286.452 78.0217 285.602 80.2051 283.902 81.8051C282.235 83.4051 279.368 84.2051 275.302 84.2051H265.002ZM304.447 84.2051V58.8051L303.947 54.7551H327.097C329.331 54.7551 331.114 55.0051 332.447 55.5051C333.814 55.9717 334.831 56.6217 335.497 57.4551C336.197 58.2551 336.647 59.2051 336.847 60.3051C337.081 61.3717 337.197 62.5051 337.197 63.7051V67.6551C337.197 69.2551 336.931 70.7384 336.397 72.1051C335.897 73.4384 334.947 74.5217 333.547 75.3551C332.181 76.1551 330.197 76.5551 327.597 76.5551H324.147C322.047 76.5551 320.081 76.5051 318.247 76.4051C316.447 76.3051 315.097 76.2217 314.197 76.1551V84.2051H304.447ZM314.197 69.7551H324.547C325.647 69.7551 326.414 69.5384 326.847 69.1051C327.281 68.6717 327.497 67.9717 327.497 67.0051V64.4551C327.497 63.4884 327.297 62.7884 326.897 62.3551C326.497 61.8884 325.731 61.6551 324.597 61.6551H314.197V69.7551ZM376.632 84.7051C375.298 84.7051 373.815 84.5051 372.182 84.1051C370.548 83.6717 368.932 82.6384 367.332 81.0051L365.232 78.9051C364.232 77.9051 363.265 77.0884 362.332 76.4551C361.432 75.8217 360.398 75.3551 359.232 75.0551C358.065 74.7217 356.598 74.5551 354.832 74.5551H354.432V84.2051H344.682V58.8051L344.182 54.7551H367.332C369.465 54.7551 371.182 55.0217 372.482 55.5551C373.815 56.0551 374.832 56.7384 375.532 57.6051C376.265 58.4384 376.765 59.3884 377.032 60.4551C377.298 61.5217 377.432 62.6051 377.432 63.7051V64.6551C377.432 66.6551 376.915 68.4551 375.882 70.0551C374.882 71.6217 373.282 72.7384 371.082 73.4051C371.915 73.9051 372.698 74.4217 373.432 74.9551C374.198 75.4551 375.065 75.9884 376.032 76.5551C377.132 77.1884 378.148 77.6551 379.082 77.9551C380.048 78.2217 380.848 78.3884 381.482 78.4551C382.115 78.5217 382.482 78.5551 382.582 78.5551L381.082 84.2051C380.682 84.3051 380.065 84.4051 379.232 84.5051C378.432 84.6384 377.565 84.7051 376.632 84.7051ZM360.232 67.9051C361.065 67.9051 361.865 67.8884 362.632 67.8551C363.432 67.8217 364.148 67.7717 364.782 67.7051C365.915 67.5717 366.682 67.2217 367.082 66.6551C367.515 66.0551 367.732 65.3384 367.732 64.5051V63.9551C367.732 63.2217 367.515 62.6551 367.082 62.2551C366.682 61.8551 365.932 61.6551 364.832 61.6551H354.432V67.7051C355.265 67.7384 356.182 67.7884 357.182 67.8551C358.182 67.8884 359.198 67.9051 360.232 67.9051ZM387.102 84.2051V54.8051H396.702V84.2051H387.102ZM403.18 84.2051V78.3551L422.38 61.6051H403.18V54.8051H436.23V60.6051L416.58 77.3551H434.98L437.98 83.6551C437.98 83.7884 437.53 83.9217 436.63 84.0551C435.73 84.1551 434.18 84.2051 431.98 84.2051H403.18ZM443.498 84.2051V54.8051H475.598V61.6051H453.248V65.7551H469.798V72.7051H453.248V77.3551H474.798L477.798 83.6551C477.798 83.7884 477.348 83.9217 476.448 84.0551C475.548 84.1551 473.998 84.2051 471.798 84.2051H443.498ZM488.455 84.2051C486.188 84.2051 484.521 84.1051 483.455 83.9051C482.388 83.7051 481.855 83.4717 481.855 83.2051L484.855 76.7551C485.621 76.8884 487.205 77.0217 489.605 77.1551C492.005 77.2551 495.121 77.3051 498.955 77.3051H502.905C504.071 77.3051 504.855 77.1384 505.255 76.8051C505.655 76.4717 505.855 75.9884 505.855 75.3551V74.8551C505.855 74.0551 505.655 73.5051 505.255 73.2051C504.855 72.9051 504.071 72.7551 502.905 72.7551H491.455C488.088 72.7551 485.638 72.1384 484.105 70.9051C482.571 69.6384 481.805 67.5884 481.805 64.7551V62.9551C481.805 61.4884 482.071 60.1384 482.605 58.9051C483.171 57.6717 484.121 56.6884 485.455 55.9551C486.788 55.1884 488.621 54.8051 490.955 54.8051H507.555C509.588 54.8051 511.271 54.9217 512.605 55.1551C513.971 55.3884 514.655 55.6384 514.655 55.9051L513.155 62.1051C512.221 62.0051 510.455 61.9051 507.855 61.8051C505.288 61.6717 502.021 61.6051 498.055 61.6051L494.455 61.5551C493.421 61.5551 492.688 61.7051 492.255 62.0051C491.821 62.2717 491.588 62.7884 491.555 63.5551V63.9051C491.555 64.6717 491.788 65.2051 492.255 65.5051C492.721 65.8051 493.471 65.9551 494.505 65.9551H505.505C507.638 65.9551 509.455 66.1717 510.955 66.6051C512.455 67.0384 513.605 67.8384 514.405 69.0051C515.205 70.1384 515.605 71.8217 515.605 74.0551V75.8551C515.605 78.3551 514.955 80.3717 513.655 81.9051C512.388 83.4384 510.171 84.2051 507.005 84.2051H488.455Z" fill="#236485"/>
<path d="M484.6 319.823L484.599 318.167L493.302 318.161L493.304 319.818L489.932 319.82L489.938 329.072L487.978 329.074L487.972 319.821L484.6 319.823ZM494.988 329.069L494.98 318.16L499.071 318.157C499.909 318.157 500.613 318.302 501.181 318.593C501.753 318.883 502.185 319.292 502.476 319.817C502.771 320.339 502.919 320.948 502.919 321.644C502.92 322.343 502.771 322.951 502.473 323.466C502.179 323.977 501.744 324.374 501.169 324.654C500.594 324.932 499.887 325.071 499.049 325.071L496.135 325.073L496.134 323.433L498.782 323.431C499.272 323.431 499.673 323.363 499.985 323.228C500.298 323.089 500.529 322.888 500.678 322.625C500.83 322.359 500.906 322.032 500.906 321.645C500.906 321.258 500.829 320.928 500.676 320.654C500.523 320.377 500.291 320.168 499.978 320.026C499.665 319.881 499.262 319.808 498.769 319.809L496.958 319.81L496.964 329.068L494.988 329.069ZM500.62 324.122L503.324 329.064L501.119 329.065L498.463 324.124L500.62 324.122ZM514.488 323.602C514.488 324.777 514.269 325.784 513.829 326.622C513.393 327.457 512.797 328.097 512.041 328.541C511.288 328.986 510.434 329.208 509.479 329.209C508.524 329.209 507.668 328.988 506.911 328.544C506.158 328.098 505.561 327.457 505.12 326.623C504.683 325.785 504.464 324.78 504.463 323.608C504.462 322.433 504.68 321.428 505.116 320.593C505.556 319.755 506.152 319.113 506.905 318.669C507.661 318.224 508.516 318.002 509.472 318.001C510.427 318.001 511.281 318.222 512.034 318.665C512.791 319.109 513.388 319.749 513.825 320.587C514.266 321.421 514.487 322.426 514.488 323.602ZM512.501 323.603C512.5 322.776 512.37 322.078 512.111 321.51C511.855 320.938 511.499 320.507 511.044 320.216C510.59 319.922 510.066 319.775 509.473 319.775C508.88 319.775 508.356 319.923 507.902 320.218C507.447 320.51 507.091 320.941 506.832 321.513C506.577 322.082 506.449 322.78 506.45 323.607C506.45 324.434 506.579 325.134 506.835 325.705C507.094 326.273 507.451 326.705 507.906 326.999C508.361 327.29 508.885 327.435 509.478 327.435C510.071 327.434 510.594 327.289 511.049 326.997C511.503 326.702 511.858 326.27 512.113 325.702C512.372 325.13 512.501 324.43 512.501 323.603ZM516.36 329.055L516.352 318.146L520.443 318.143C521.281 318.143 521.985 318.298 522.553 318.611C523.125 318.923 523.557 319.352 523.848 319.899C524.143 320.442 524.291 321.06 524.292 321.752C524.292 322.452 524.145 323.073 523.851 323.617C523.556 324.16 523.122 324.589 522.546 324.901C521.971 325.211 521.263 325.366 520.421 325.366L517.71 325.368L517.709 323.743L520.154 323.742C520.644 323.741 521.045 323.656 521.358 323.485C521.67 323.315 521.901 323.08 522.05 322.782C522.202 322.483 522.278 322.141 522.278 321.754C522.278 321.366 522.201 321.026 522.048 320.731C521.899 320.436 521.666 320.207 521.35 320.044C521.038 319.878 520.634 319.794 520.141 319.795L518.33 319.796L518.336 329.054L516.36 329.055ZM526.013 329.049L526.006 318.14L527.982 318.138L527.985 322.757L533.04 322.753L533.037 318.135L535.019 318.134L535.026 329.043L533.044 329.044L533.041 324.41L527.986 324.413L527.989 329.047L526.013 329.049ZM536.422 318.133L538.654 318.131L541.326 322.956L541.432 322.955L544.098 318.128L546.33 318.126L542.366 324.968L542.369 329.038L540.398 329.039L540.395 324.97L536.422 318.133ZM486.498 347.075L484.388 347.076L488.222 336.164L490.662 336.163L494.515 347.069L492.405 347.071L489.486 338.401L489.401 338.401L486.498 347.075ZM486.564 342.797L492.317 342.793L492.318 344.381L486.565 344.385L486.564 342.797ZM504.909 336.153L504.916 347.062L503.158 347.064L498.013 339.636L497.923 339.636L497.928 347.067L495.951 347.068L495.944 336.159L497.713 336.158L502.853 343.591L502.948 343.591L502.944 336.155L504.909 336.153ZM510.766 347.059L507.07 347.061L507.062 336.152L510.834 336.15C511.917 336.149 512.847 336.367 513.625 336.803C514.407 337.236 515.007 337.858 515.427 338.671C515.847 339.484 516.057 340.457 516.057 341.59C516.058 342.726 515.848 343.703 515.426 344.52C515.007 345.337 514.402 345.964 513.61 346.402C512.822 346.839 511.874 347.058 510.766 347.059ZM509.045 345.35L510.669 345.349C511.429 345.348 512.063 345.209 512.571 344.932C513.078 344.651 513.46 344.234 513.715 343.68C513.97 343.122 514.098 342.426 514.097 341.591C514.097 340.757 513.968 340.064 513.712 339.514C513.456 338.96 513.078 338.547 512.577 338.274C512.08 337.997 511.462 337.859 510.723 337.859L509.04 337.861L509.045 345.35ZM495.695 356.823L495.318 358.219L488.25 358.223L488.632 356.827L495.695 356.823ZM492.148 365.071L488.416 360.588L488.41 359.406L490.253 359.404C490.694 359.404 491.061 359.331 491.356 359.185C491.654 359.036 491.879 358.828 492.032 358.562C492.188 358.292 492.266 357.976 492.266 357.613C492.265 357.07 492.105 356.633 491.785 356.303C491.466 355.973 490.954 355.808 490.251 355.809L488.248 355.81L488.662 354.164L490.25 354.163C491.145 354.162 491.885 354.3 492.471 354.577C493.061 354.85 493.502 355.237 493.793 355.737C494.088 356.238 494.236 356.824 494.236 357.495C494.237 358.088 494.129 358.617 493.913 359.082C493.696 359.548 493.356 359.93 492.891 360.228C492.426 360.527 491.817 360.726 491.064 360.826L491 360.848L494.369 364.974L494.369 365.069L492.148 365.071ZM495.704 354.159L495.316 355.577L489.585 355.559L489.973 354.163L495.704 354.159ZM497.16 365.068L497.159 363.64L500.944 359.925C501.306 359.559 501.608 359.234 501.849 358.949C502.091 358.665 502.271 358.39 502.392 358.123C502.513 357.857 502.573 357.573 502.573 357.271C502.572 356.927 502.494 356.632 502.338 356.387C502.181 356.138 501.966 355.947 501.693 355.812C501.419 355.677 501.108 355.61 500.76 355.61C500.402 355.611 500.087 355.685 499.818 355.835C499.548 355.98 499.339 356.188 499.19 356.458C499.044 356.728 498.972 357.05 498.972 357.423L497.091 357.424C497.091 356.731 497.249 356.129 497.564 355.618C497.88 355.106 498.315 354.71 498.869 354.429C499.426 354.148 500.065 354.007 500.786 354.007C501.518 354.006 502.16 354.143 502.715 354.416C503.269 354.689 503.699 355.063 504.004 355.539C504.314 356.015 504.468 356.558 504.469 357.169C504.469 357.577 504.391 357.978 504.235 358.373C504.079 358.767 503.804 359.204 503.41 359.683C503.02 360.163 502.472 360.744 501.766 361.426L499.887 363.34L499.887 363.414L504.638 363.411L504.639 365.063L497.16 365.068ZM508.761 363.568L508.692 364.154C508.643 364.602 508.554 365.057 508.427 365.518C508.303 365.984 508.172 366.412 508.033 366.802C507.895 367.193 507.783 367.5 507.698 367.724L506.399 367.725C506.448 367.508 506.516 367.213 506.6 366.841C506.689 366.468 506.774 366.048 506.855 365.583C506.937 365.118 506.991 364.646 507.02 364.166L507.056 363.57L508.761 363.568ZM514.508 365.264C513.631 365.265 512.878 365.043 512.249 364.6C511.624 364.153 511.142 363.508 510.805 362.667C510.47 361.822 510.303 360.805 510.302 359.615C510.305 358.425 510.473 357.413 510.806 356.579C511.143 355.74 511.623 355.101 512.248 354.66C512.876 354.219 513.627 353.999 514.501 353.998C515.374 353.997 516.126 354.217 516.755 354.657C517.383 355.097 517.865 355.736 518.199 356.574C518.537 357.412 518.707 358.423 518.707 359.61C518.708 360.803 518.54 361.822 518.203 362.667C517.87 363.509 517.389 364.152 516.761 364.597C516.136 365.041 515.385 365.263 514.508 365.264ZM514.507 363.597C515.189 363.596 515.727 363.26 516.121 362.589C516.518 361.914 516.716 360.921 516.715 359.611C516.715 358.744 516.624 358.016 516.442 357.427C516.261 356.838 516.005 356.394 515.674 356.096C515.344 355.794 514.953 355.644 514.502 355.644C513.824 355.644 513.288 355.982 512.894 356.657C512.5 357.328 512.302 358.314 512.299 359.614C512.296 360.484 512.384 361.215 512.562 361.808C512.743 362.401 512.999 362.848 513.33 363.15C513.66 363.448 514.053 363.597 514.507 363.597ZM524.513 365.257C523.636 365.258 522.883 365.037 522.254 364.593C521.629 364.146 521.147 363.502 520.809 362.66C520.475 361.815 520.307 360.798 520.307 359.609C520.309 358.419 520.477 357.407 520.811 356.572C521.148 355.734 521.628 355.094 522.253 354.653C522.881 354.213 523.632 353.992 524.506 353.991C525.379 353.991 526.131 354.211 526.759 354.65C527.388 355.09 527.87 355.729 528.204 356.567C528.542 357.405 528.711 358.417 528.712 359.603C528.713 360.796 528.545 361.815 528.208 362.661C527.875 363.503 527.394 364.146 526.766 364.59C526.141 365.034 525.39 365.257 524.513 365.257ZM524.512 363.59C525.194 363.59 525.732 363.254 526.125 362.582C526.523 361.907 526.721 360.915 526.72 359.604C526.719 358.738 526.628 358.01 526.447 357.421C526.265 356.831 526.009 356.387 525.679 356.089C525.349 355.788 524.958 355.637 524.507 355.637C523.829 355.638 523.293 355.976 522.899 356.65C522.505 357.322 522.307 358.307 522.304 359.607C522.301 360.477 522.389 361.209 522.567 361.802C522.748 362.395 523.004 362.842 523.335 363.143C523.665 363.442 524.058 363.59 524.512 363.59ZM534.518 365.251C533.641 365.251 532.888 365.03 532.259 364.586C531.634 364.139 531.152 363.495 530.814 362.654C530.48 361.809 530.312 360.792 530.312 359.602C530.314 358.412 530.482 357.4 530.816 356.565C531.152 355.727 531.633 355.088 532.258 354.647C532.886 354.206 533.637 353.985 534.511 353.985C535.384 353.984 536.135 354.204 536.764 354.644C537.393 355.084 537.875 355.723 538.209 356.561C538.547 357.398 538.716 358.41 538.717 359.596C538.718 360.79 538.55 361.809 538.213 362.654C537.88 363.496 537.399 364.139 536.771 364.584C536.146 365.028 535.395 365.25 534.518 365.251ZM534.517 363.584C535.199 363.583 535.737 363.247 536.13 362.576C536.528 361.901 536.726 360.908 536.725 359.598C536.724 358.731 536.633 358.003 536.452 357.414C536.27 356.825 536.014 356.381 535.684 356.083C535.353 355.781 534.963 355.631 534.512 355.631C533.833 355.631 533.297 355.969 532.904 356.644C532.51 357.315 532.312 358.301 532.309 359.601C532.306 360.471 532.394 361.202 532.572 361.795C532.753 362.388 533.009 362.835 533.339 363.137C533.67 363.435 534.062 363.584 534.517 363.584ZM553.651 357.802L551.658 357.804C551.601 357.477 551.497 357.188 551.344 356.935C551.191 356.68 551.001 356.463 550.773 356.286C550.546 356.109 550.287 355.976 549.995 355.887C549.708 355.795 549.397 355.749 549.063 355.749C548.47 355.75 547.945 355.899 547.487 356.198C547.029 356.493 546.67 356.926 546.411 357.498C546.153 358.066 546.023 358.761 546.024 359.581C546.025 360.416 546.155 361.119 546.414 361.69C546.677 362.258 547.036 362.688 547.491 362.978C547.949 363.266 548.473 363.409 549.063 363.409C549.389 363.409 549.695 363.366 549.979 363.28C550.266 363.192 550.524 363.062 550.751 362.891C550.982 362.721 551.175 362.511 551.331 362.262C551.491 362.014 551.601 361.729 551.661 361.41L553.653 361.419C553.579 361.938 553.418 362.424 553.169 362.879C552.925 363.334 552.603 363.735 552.206 364.083C551.808 364.428 551.343 364.698 550.811 364.894C550.278 365.086 549.687 365.182 549.037 365.183C548.078 365.183 547.222 364.962 546.469 364.519C545.716 364.075 545.123 363.435 544.689 362.597C544.255 361.759 544.038 360.754 544.037 359.582C544.036 358.407 544.254 357.402 544.69 356.567C545.127 355.729 545.721 355.087 546.474 354.643C547.226 354.198 548.078 353.976 549.03 353.975C549.637 353.975 550.202 354.06 550.724 354.23C551.246 354.4 551.711 354.65 552.12 354.98C552.529 355.307 552.865 355.708 553.128 356.183C553.394 356.655 553.569 357.195 553.651 357.802ZM556.734 365.029L554.625 365.03L558.458 354.118L560.898 354.117L564.751 365.023L562.642 365.025L559.722 356.355L559.637 356.355L556.734 365.029ZM556.801 360.751L562.554 360.747L562.555 362.335L556.802 362.339L556.801 360.751ZM571.935 357.108C571.885 356.643 571.676 356.281 571.306 356.022C570.94 355.763 570.464 355.634 569.878 355.634C569.466 355.635 569.113 355.697 568.819 355.821C568.524 355.946 568.298 356.115 568.142 356.328C567.986 356.541 567.907 356.784 567.903 357.058C567.903 357.285 567.955 357.482 568.058 357.649C568.165 357.816 568.309 357.958 568.49 358.075C568.671 358.188 568.872 358.284 569.092 358.362C569.312 358.44 569.534 358.506 569.758 358.559L570.781 358.814C571.193 358.909 571.589 359.039 571.969 359.202C572.352 359.365 572.695 359.571 572.997 359.819C573.303 360.067 573.545 360.367 573.722 360.719C573.9 361.07 573.989 361.482 573.989 361.954C573.99 362.594 573.827 363.157 573.5 363.643C573.174 364.126 572.702 364.505 572.084 364.779C571.47 365.049 570.726 365.185 569.853 365.185C569.004 365.186 568.267 365.055 567.642 364.792C567.02 364.53 566.533 364.147 566.182 363.643C565.833 363.139 565.645 362.524 565.616 361.8L567.56 361.799C567.589 362.179 567.706 362.495 567.912 362.747C568.118 362.999 568.387 363.187 568.717 363.311C569.051 363.435 569.424 363.497 569.836 363.497C570.265 363.496 570.642 363.432 570.965 363.304C571.291 363.172 571.547 362.991 571.731 362.76C571.916 362.526 572.01 362.252 572.013 361.94C572.009 361.656 571.926 361.421 571.762 361.237C571.599 361.049 571.37 360.893 571.075 360.768C570.784 360.641 570.443 360.527 570.052 360.428L568.811 360.109C567.912 359.879 567.202 359.53 566.679 359.061C566.161 358.589 565.901 357.963 565.9 357.182C565.9 356.539 566.074 355.976 566.421 355.493C566.773 355.01 567.25 354.635 567.853 354.368C568.457 354.098 569.14 353.962 569.904 353.962C570.678 353.961 571.356 354.096 571.939 354.365C572.525 354.631 572.985 355.002 573.319 355.478C573.653 355.95 573.826 356.493 573.837 357.107L571.935 357.108ZM575.753 365.016L575.746 354.107L577.722 354.106L577.725 358.724L582.78 358.721L582.777 354.102L584.759 354.101L584.766 365.01L582.784 365.011L582.781 360.377L577.726 360.381L577.729 365.015L575.753 365.016ZM485.121 383.075L485.113 372.166L489.204 372.164C490.042 372.163 490.746 372.319 491.314 372.631C491.886 372.943 492.318 373.373 492.609 373.919C492.904 374.462 493.052 375.08 493.053 375.773C493.053 376.472 492.906 377.094 492.612 377.637C492.317 378.181 491.883 378.609 491.307 378.922C490.732 379.231 490.024 379.386 489.182 379.387L486.471 379.388L486.47 377.764L488.915 377.762C489.405 377.762 489.806 377.676 490.119 377.506C490.431 377.335 490.662 377.101 490.811 376.802C490.963 376.504 491.039 376.161 491.039 375.774C491.039 375.387 490.962 375.046 490.809 374.751C490.66 374.457 490.427 374.228 490.111 374.065C489.798 373.898 489.395 373.815 488.902 373.815L487.091 373.816L487.097 383.074L485.121 383.075ZM494.774 383.069L494.767 372.16L498.858 372.157C499.696 372.157 500.399 372.302 500.967 372.593C501.539 372.884 501.971 373.292 502.262 373.817C502.558 374.339 502.705 374.948 502.706 375.644C502.706 376.343 502.557 376.951 502.26 377.466C501.965 377.977 501.53 378.374 500.955 378.655C500.38 378.932 499.674 379.071 498.835 379.071L495.922 379.073L495.921 377.433L498.568 377.431C499.058 377.431 499.459 377.363 499.772 377.228C500.084 377.089 500.315 376.888 500.464 376.625C500.616 376.359 500.693 376.032 500.692 375.645C500.692 375.258 500.615 374.928 500.463 374.655C500.31 374.378 500.077 374.168 499.764 374.026C499.452 373.881 499.049 373.809 498.555 373.809L496.744 373.81L496.75 383.068L494.774 383.069ZM500.406 378.122L503.11 383.064L500.905 383.065L498.249 378.124L500.406 378.122ZM506.499 372.152L506.506 383.061L504.53 383.063L504.523 372.154L506.499 372.152ZM508.443 383.06L508.443 381.83L514.03 373.804L508.405 373.808L508.404 372.151L516.48 372.146L516.48 373.376L510.898 381.402L516.518 381.398L516.519 383.055L508.443 383.06ZM518.431 383.054L518.424 372.145L525.519 372.14L525.52 373.797L520.401 373.8L520.403 376.762L525.155 376.758L525.156 378.415L520.404 378.418L520.406 381.396L525.568 381.392L525.569 383.049L518.431 383.054Z" fill="#B4C6E7"/>
<path d="M275.64 258.195L275.639 256.428L284.923 256.422L284.924 258.189L281.327 258.191L281.334 268.06L279.243 268.062L279.236 258.192L275.64 258.195ZM286.72 268.057L286.712 256.42L291.076 256.418C291.97 256.417 292.72 256.572 293.326 256.882C293.936 257.192 294.397 257.628 294.708 258.188C295.023 258.745 295.18 259.394 295.181 260.136C295.181 260.883 295.023 261.531 294.705 262.08C294.391 262.626 293.927 263.048 293.314 263.348C292.7 263.644 291.946 263.792 291.052 263.793L287.945 263.795L287.943 262.045L290.767 262.043C291.29 262.042 291.718 261.97 292.051 261.826C292.384 261.678 292.631 261.464 292.789 261.183C292.952 260.899 293.033 260.551 293.033 260.138C293.033 259.725 292.951 259.373 292.788 259.081C292.625 258.786 292.377 258.563 292.043 258.411C291.71 258.256 291.28 258.179 290.753 258.179L288.822 258.18L288.828 268.055L286.72 268.057ZM292.728 262.78L295.612 268.051L293.26 268.052L290.427 262.782L292.728 262.78ZM307.52 262.225C307.521 263.479 307.287 264.553 306.818 265.447C306.352 266.337 305.717 267.02 304.91 267.494C304.107 267.968 303.196 268.205 302.178 268.206C301.159 268.206 300.246 267.97 299.438 267.497C298.635 267.021 297.998 266.337 297.528 265.447C297.062 264.554 296.828 263.482 296.827 262.232C296.826 260.978 297.058 259.906 297.524 259.016C297.993 258.121 298.629 257.437 299.432 256.963C300.238 256.489 301.151 256.252 302.17 256.251C303.189 256.251 304.1 256.487 304.903 256.96C305.71 257.433 306.347 258.116 306.814 259.01C307.284 259.899 307.519 260.971 307.52 262.225ZM305.401 262.226C305.4 261.344 305.262 260.6 304.985 259.994C304.712 259.384 304.332 258.924 303.847 258.614C303.362 258.3 302.804 258.143 302.171 258.143C301.538 258.144 300.98 258.301 300.495 258.616C300.01 258.927 299.63 259.387 299.354 259.997C299.082 260.604 298.946 261.348 298.946 262.231C298.947 263.113 299.084 263.859 299.357 264.469C299.634 265.075 300.015 265.535 300.5 265.849C300.985 266.159 301.544 266.314 302.176 266.314C302.809 266.313 303.367 266.158 303.852 265.847C304.337 265.532 304.715 265.072 304.988 264.465C305.264 263.855 305.401 263.109 305.401 262.226ZM309.517 268.042L309.509 256.405L313.873 256.403C314.767 256.402 315.517 256.568 316.123 256.901C316.733 257.234 317.194 257.692 317.505 258.275C317.82 258.855 317.977 259.514 317.978 260.252C317.978 260.998 317.821 261.661 317.507 262.241C317.193 262.821 316.73 263.278 316.116 263.611C315.503 263.941 314.747 264.107 313.85 264.107L310.958 264.109L310.956 262.376L313.564 262.374C314.087 262.374 314.515 262.283 314.848 262.101C315.181 261.919 315.428 261.669 315.586 261.35C315.749 261.032 315.83 260.667 315.83 260.254C315.83 259.841 315.748 259.477 315.585 259.163C315.426 258.849 315.177 258.604 314.84 258.43C314.507 258.253 314.077 258.164 313.55 258.164L311.618 258.165L311.625 268.04L309.517 268.042ZM319.814 268.035L319.806 256.399L321.914 256.397L321.917 261.324L327.309 261.32L327.306 256.394L329.42 256.392L329.427 268.029L327.314 268.03L327.311 263.087L321.919 263.091L321.922 268.034L319.814 268.035ZM330.917 256.391L333.298 256.39L336.148 261.536L336.261 261.536L339.104 256.386L341.485 256.385L337.257 263.683L337.26 268.024L335.158 268.025L335.155 263.684L330.917 256.391ZM277.664 287.063L275.414 287.064L279.503 275.425L282.106 275.423L286.215 287.057L283.965 287.059L280.851 277.811L280.761 277.811L277.664 287.063ZM277.735 282.5L283.872 282.496L283.873 284.189L277.736 284.193L277.735 282.5ZM297.303 275.413L297.311 287.05L295.436 287.051L289.947 279.129L289.851 279.129L289.856 287.055L287.748 287.056L287.74 275.42L289.627 275.419L295.109 283.347L295.212 283.347L295.206 275.415L297.303 275.413ZM303.551 287.046L299.607 287.048L299.6 275.412L303.623 275.409C304.778 275.409 305.77 275.641 306.6 276.106C307.434 276.568 308.075 277.232 308.522 278.099C308.97 278.966 309.194 280.004 309.195 281.213C309.195 282.425 308.971 283.466 308.52 284.338C308.074 285.209 307.429 285.878 306.584 286.345C305.744 286.811 304.732 287.045 303.551 287.046ZM301.714 285.223L303.447 285.222C304.258 285.221 304.934 285.073 305.475 284.777C306.017 284.478 306.424 284.033 306.696 283.441C306.968 282.847 307.104 282.104 307.104 281.214C307.103 280.324 306.966 279.585 306.693 278.998C306.42 278.408 306.016 277.966 305.482 277.675C304.952 277.38 304.292 277.233 303.504 277.233L301.709 277.234L301.714 285.223ZM287.475 297.261L287.073 298.75L279.533 298.755L279.941 297.266L287.475 297.261ZM283.691 306.059L279.711 301.277L279.704 300.016L281.67 300.015C282.14 300.014 282.532 299.936 282.846 299.781C283.164 299.622 283.404 299.4 283.567 299.116C283.734 298.828 283.817 298.491 283.816 298.104C283.816 297.525 283.645 297.059 283.304 296.707C282.963 296.355 282.417 296.179 281.667 296.179L279.531 296.181L279.973 294.425L281.666 294.424C282.621 294.423 283.411 294.57 284.036 294.865C284.665 295.157 285.135 295.569 285.446 296.103C285.761 296.637 285.918 297.262 285.919 297.978C285.919 298.61 285.804 299.175 285.573 299.671C285.342 300.168 284.979 300.575 284.483 300.893C283.987 301.212 283.338 301.425 282.535 301.531L282.466 301.554L286.06 305.955L286.06 306.057L283.691 306.059ZM287.484 294.42L287.071 295.932L280.957 295.913L281.371 294.424L287.484 294.42ZM293.083 306.212C292.326 306.212 291.647 306.071 291.049 305.787C290.45 305.499 289.974 305.106 289.622 304.606C289.273 304.106 289.087 303.534 289.064 302.89L291.109 302.889C291.148 303.366 291.354 303.756 291.729 304.059C292.105 304.358 292.555 304.508 293.082 304.507C293.495 304.507 293.862 304.412 294.184 304.222C294.506 304.033 294.76 303.769 294.945 303.432C295.13 303.095 295.221 302.71 295.217 302.278C295.22 301.839 295.127 301.449 294.938 301.108C294.748 300.767 294.488 300.501 294.159 300.308C293.829 300.111 293.45 300.013 293.022 300.013C292.674 300.009 292.331 300.074 291.994 300.207C291.657 300.34 291.39 300.514 291.193 300.73L289.29 300.419L289.894 294.418L296.644 294.414L296.645 296.175L291.639 296.179L291.306 299.264L291.374 299.264C291.59 299.01 291.895 298.8 292.288 298.633C292.682 298.462 293.114 298.376 293.584 298.376C294.288 298.376 294.917 298.542 295.47 298.875C296.024 299.204 296.459 299.658 296.778 300.238C297.097 300.817 297.256 301.48 297.257 302.226C297.257 302.995 297.08 303.681 296.724 304.283C296.372 304.882 295.882 305.354 295.253 305.699C294.628 306.04 293.905 306.211 293.083 306.212ZM301.208 304.456L301.135 305.081C301.082 305.559 300.988 306.044 300.852 306.536C300.72 307.032 300.58 307.489 300.432 307.906C300.285 308.323 300.166 308.65 300.075 308.889L298.689 308.89C298.741 308.659 298.813 308.344 298.904 307.947C298.998 307.549 299.089 307.102 299.176 306.605C299.262 306.109 299.321 305.605 299.351 305.094L299.39 304.458L301.208 304.456ZM307.339 306.265C306.403 306.265 305.6 306.029 304.929 305.556C304.262 305.079 303.749 304.392 303.388 303.495C303.031 302.593 302.853 301.508 302.852 300.239C302.855 298.97 303.034 297.891 303.39 297C303.749 296.106 304.262 295.424 304.928 294.954C305.598 294.484 306.399 294.248 307.331 294.248C308.263 294.247 309.064 294.482 309.735 294.951C310.406 295.42 310.919 296.102 311.276 296.995C311.636 297.889 311.817 298.968 311.818 300.234C311.819 301.506 311.639 302.593 311.28 303.495C310.925 304.393 310.412 305.079 309.742 305.553C309.075 306.027 308.274 306.264 307.339 306.265ZM307.338 304.486C308.065 304.486 308.639 304.128 309.059 303.411C309.482 302.692 309.694 301.633 309.693 300.235C309.692 299.311 309.595 298.534 309.402 297.906C309.208 297.277 308.935 296.804 308.582 296.486C308.23 296.164 307.813 296.003 307.332 296.004C306.609 296.004 306.037 296.364 305.617 297.084C305.197 297.8 304.985 298.852 304.983 300.238C304.979 301.166 305.073 301.946 305.263 302.579C305.456 303.211 305.729 303.688 306.082 304.01C306.434 304.328 306.853 304.487 307.338 304.486ZM318.011 306.258C317.075 306.259 316.272 306.022 315.601 305.549C314.934 305.072 314.42 304.385 314.06 303.488C313.703 302.586 313.525 301.501 313.524 300.232C313.527 298.963 313.706 297.884 314.061 296.993C314.421 296.099 314.934 295.417 315.6 294.947C316.27 294.477 317.071 294.241 318.003 294.241C318.935 294.24 319.736 294.475 320.407 294.944C321.077 295.413 321.591 296.095 321.948 296.988C322.308 297.882 322.489 298.961 322.49 300.227C322.491 301.499 322.311 302.587 321.952 303.488C321.597 304.386 321.084 305.072 320.414 305.546C319.747 306.02 318.946 306.257 318.011 306.258ZM318.01 304.479C318.737 304.479 319.31 304.121 319.73 303.404C320.154 302.685 320.366 301.626 320.365 300.228C320.364 299.304 320.267 298.527 320.073 297.899C319.88 297.27 319.607 296.797 319.254 296.479C318.902 296.157 318.485 295.996 318.004 295.997C317.28 295.997 316.709 296.357 316.289 297.077C315.869 297.793 315.657 298.845 315.654 300.231C315.651 301.159 315.745 301.939 315.934 302.572C316.128 303.204 316.401 303.681 316.754 304.003C317.106 304.321 317.525 304.48 318.01 304.479ZM328.683 306.251C327.747 306.252 326.944 306.015 326.273 305.542C325.606 305.065 325.092 304.378 324.732 303.481C324.375 302.579 324.196 301.494 324.196 300.225C324.199 298.956 324.378 297.877 324.733 296.986C325.093 296.092 325.605 295.41 326.272 294.94C326.942 294.47 327.743 294.234 328.675 294.234C329.607 294.233 330.408 294.468 331.079 294.937C331.749 295.406 332.263 296.088 332.62 296.981C332.98 297.875 333.161 298.954 333.162 300.22C333.162 301.492 332.983 302.58 332.624 303.481C332.268 304.379 331.756 305.065 331.086 305.539C330.419 306.013 329.618 306.25 328.683 306.251ZM328.681 304.472C329.409 304.472 329.982 304.114 330.402 303.398C330.826 302.678 331.037 301.619 331.037 300.221C331.036 299.297 330.939 298.52 330.745 297.892C330.552 297.263 330.279 296.79 329.926 296.472C329.574 296.15 329.157 295.989 328.676 295.99C327.952 295.99 327.381 296.35 326.961 297.07C326.541 297.786 326.329 298.838 326.326 300.224C326.323 301.152 326.416 301.932 326.606 302.565C326.8 303.197 327.073 303.674 327.425 303.996C327.778 304.314 328.197 304.473 328.681 304.472ZM286.15 317.347L284.025 317.348C283.964 317 283.852 316.691 283.689 316.422C283.526 316.15 283.323 315.919 283.081 315.73C282.838 315.54 282.562 315.399 282.251 315.304C281.944 315.206 281.613 315.157 281.257 315.157C280.624 315.157 280.063 315.317 279.575 315.635C279.087 315.95 278.704 316.412 278.428 317.022C278.152 317.629 278.014 318.369 278.015 319.244C278.016 320.134 278.154 320.884 278.431 321.494C278.712 322.1 279.095 322.558 279.58 322.868C280.069 323.175 280.627 323.328 281.256 323.327C281.605 323.327 281.93 323.282 282.233 323.19C282.54 323.096 282.815 322.957 283.057 322.775C283.303 322.593 283.509 322.37 283.676 322.104C283.846 321.839 283.963 321.536 284.028 321.195L286.153 321.205C286.073 321.758 285.901 322.277 285.637 322.762C285.376 323.247 285.033 323.675 284.609 324.047C284.185 324.415 283.689 324.703 283.121 324.911C282.553 325.116 281.922 325.219 281.229 325.219C280.206 325.22 279.293 324.984 278.49 324.511C277.687 324.038 277.054 323.355 276.591 322.461C276.128 321.568 275.896 320.496 275.896 319.246C275.895 317.992 276.127 316.92 276.592 316.029C277.058 315.135 277.692 314.451 278.494 313.977C279.297 313.503 280.206 313.266 281.221 313.265C281.869 313.265 282.471 313.355 283.028 313.536C283.585 313.718 284.082 313.985 284.517 314.337C284.953 314.685 285.311 315.113 285.592 315.62C285.877 316.124 286.063 316.699 286.15 317.347ZM289.439 325.055L287.189 325.056L291.278 313.417L293.88 313.416L297.99 325.049L295.74 325.051L292.626 315.803L292.535 315.803L289.439 325.055ZM289.51 320.492L295.646 320.488L295.648 322.182L289.511 322.186L289.51 320.492ZM305.654 316.607C305.6 316.111 305.377 315.724 304.983 315.448C304.592 315.172 304.085 315.034 303.46 315.034C303.02 315.035 302.643 315.101 302.329 315.234C302.015 315.367 301.774 315.547 301.608 315.774C301.441 316.002 301.356 316.261 301.353 316.553C301.353 316.795 301.408 317.006 301.518 317.183C301.632 317.361 301.785 317.513 301.978 317.638C302.172 317.759 302.386 317.861 302.621 317.944C302.856 318.027 303.092 318.097 303.331 318.154L304.422 318.426C304.862 318.528 305.284 318.666 305.689 318.84C306.099 319.014 306.464 319.233 306.786 319.498C307.112 319.763 307.37 320.083 307.56 320.458C307.749 320.833 307.844 321.272 307.845 321.776C307.845 322.458 307.671 323.058 307.323 323.577C306.975 324.093 306.471 324.497 305.813 324.789C305.157 325.077 304.364 325.221 303.432 325.222C302.527 325.223 301.741 325.083 301.074 324.803C300.411 324.523 299.892 324.114 299.516 323.577C299.145 323.039 298.944 322.384 298.913 321.611L300.987 321.61C301.017 322.015 301.142 322.352 301.362 322.621C301.582 322.89 301.868 323.09 302.221 323.223C302.577 323.355 302.975 323.421 303.414 323.421C303.872 323.421 304.274 323.352 304.618 323.216C304.967 323.075 305.239 322.882 305.436 322.635C305.633 322.385 305.733 322.094 305.737 321.76C305.733 321.457 305.644 321.207 305.469 321.01C305.295 320.81 305.05 320.643 304.736 320.511C304.425 320.375 304.062 320.254 303.645 320.148L302.321 319.808C301.362 319.562 300.604 319.19 300.047 318.69C299.494 318.187 299.217 317.518 299.216 316.685C299.216 315.999 299.401 315.399 299.772 314.883C300.147 314.368 300.656 313.968 301.3 313.684C301.943 313.395 302.672 313.251 303.487 313.25C304.313 313.25 305.036 313.393 305.658 313.681C306.283 313.964 306.774 314.36 307.13 314.867C307.486 315.371 307.67 315.95 307.682 316.606L305.654 316.607ZM309.726 325.042L309.718 313.405L311.826 313.404L311.83 318.33L317.222 318.327L317.218 313.4L319.332 313.399L319.34 325.035L317.226 325.037L317.223 320.094L311.831 320.097L311.834 325.04L309.726 325.042ZM325.601 325.031L325.593 313.395L329.957 313.392C330.851 313.392 331.601 313.558 332.207 313.891C332.818 314.224 333.278 314.682 333.589 315.265C333.904 315.844 334.061 316.503 334.062 317.242C334.062 317.988 333.906 318.651 333.592 319.231C333.278 319.81 332.814 320.267 332.2 320.601C331.587 320.931 330.831 321.096 329.934 321.097L327.042 321.099L327.041 319.366L329.649 319.364C330.171 319.364 330.599 319.272 330.932 319.09C331.266 318.908 331.512 318.658 331.671 318.34C331.833 318.022 331.914 317.656 331.914 317.243C331.914 316.83 331.832 316.467 331.669 316.152C331.51 315.838 331.262 315.594 330.924 315.42C330.591 315.242 330.161 315.153 329.634 315.154L327.703 315.155L327.709 325.03L325.601 325.031ZM335.898 325.025L335.89 313.388L340.254 313.385C341.148 313.385 341.898 313.54 342.504 313.85C343.114 314.16 343.575 314.595 343.886 315.156C344.201 315.712 344.358 316.362 344.359 317.104C344.359 317.85 344.201 318.498 343.883 319.048C343.569 319.593 343.105 320.016 342.491 320.316C341.878 320.612 341.124 320.76 340.23 320.76L337.122 320.762L337.121 319.012L339.945 319.011C340.468 319.01 340.896 318.938 341.229 318.794C341.562 318.646 341.808 318.432 341.967 318.151C342.13 317.867 342.211 317.519 342.211 317.106C342.211 316.693 342.129 316.341 341.966 316.049C341.803 315.754 341.555 315.53 341.221 315.379C340.888 315.224 340.458 315.147 339.931 315.147L337.999 315.148L338.006 325.023L335.898 325.025ZM341.906 319.748L344.79 325.019L342.438 325.02L339.605 319.749L341.906 319.748ZM348.405 313.38L348.412 325.016L346.304 325.018L346.297 313.381L348.405 313.38ZM350.479 325.015L350.478 323.703L356.438 315.142L350.438 315.146L350.437 313.379L359.051 313.373L359.052 314.686L353.097 323.246L359.091 323.242L359.093 325.009L350.479 325.015ZM361.132 325.008L361.125 313.372L368.693 313.367L368.694 315.134L363.234 315.137L363.236 318.296L368.304 318.293L368.305 320.06L363.237 320.064L363.239 323.24L368.745 323.236L368.746 325.003L361.132 325.008Z" fill="#B4C6E7"/>
<path d="M255.655 196.605L255.669 214.06L252.507 214.062L252.496 199.684L252.393 199.684L248.313 202.294L248.311 199.396L252.647 196.607L255.655 196.605ZM269.747 201.396C269.667 200.652 269.331 200.072 268.74 199.658C268.154 199.244 267.393 199.037 266.455 199.037C265.796 199.037 265.231 199.137 264.76 199.336C264.288 199.535 263.928 199.805 263.678 200.147C263.428 200.488 263.301 200.877 263.295 201.314C263.296 201.678 263.378 201.993 263.543 202.26C263.714 202.527 263.944 202.754 264.234 202.942C264.524 203.123 264.845 203.277 265.197 203.401C265.55 203.526 265.905 203.631 266.263 203.716L267.9 204.124C268.559 204.277 269.193 204.484 269.801 204.746C270.415 205.007 270.963 205.336 271.447 205.733C271.935 206.131 272.322 206.611 272.607 207.173C272.891 207.735 273.034 208.394 273.034 209.15C273.035 210.173 272.775 211.073 272.253 211.852C271.73 212.625 270.975 213.231 269.987 213.669C269.004 214.101 267.814 214.318 266.417 214.318C265.059 214.319 263.879 214.109 262.879 213.69C261.884 213.27 261.106 212.656 260.542 211.85C259.985 211.043 259.683 210.061 259.637 208.901L262.747 208.9C262.793 209.508 262.981 210.013 263.311 210.417C263.641 210.82 264.07 211.121 264.599 211.319C265.133 211.518 265.73 211.617 266.389 211.617C267.076 211.616 267.678 211.514 268.195 211.309C268.718 211.098 269.127 210.808 269.422 210.439C269.717 210.064 269.867 209.626 269.873 209.126C269.866 208.672 269.733 208.297 269.471 208.001C269.209 207.7 268.843 207.451 268.371 207.252C267.905 207.048 267.359 206.866 266.734 206.707L264.748 206.197C263.31 205.829 262.173 205.269 261.338 204.52C260.507 203.765 260.092 202.762 260.091 201.512C260.09 200.484 260.368 199.583 260.924 198.81C261.486 198.037 262.249 197.437 263.215 197.01C264.181 196.578 265.274 196.362 266.496 196.361C267.734 196.36 268.82 196.576 269.752 197.007C270.69 197.433 271.426 198.026 271.961 198.787C272.495 199.542 272.772 200.412 272.79 201.395L269.747 201.396ZM275.078 199.246L275.076 196.595L289.002 196.588L289.004 199.238L283.61 199.241L283.622 214.045L280.485 214.047L280.473 199.243L275.078 199.246ZM297.654 214.038L297.64 196.583L304.186 196.58C305.526 196.579 306.652 196.828 307.561 197.328C308.476 197.827 309.167 198.514 309.634 199.389C310.106 200.258 310.343 201.247 310.344 202.355C310.345 203.474 310.11 204.468 309.639 205.338C309.168 206.208 308.472 206.893 307.552 207.393C306.632 207.888 305.499 208.136 304.152 208.136L299.814 208.139L299.812 205.539L303.724 205.537C304.508 205.537 305.15 205.4 305.65 205.127C306.15 204.854 306.519 204.479 306.757 204.001C307.001 203.524 307.123 202.976 307.122 202.356C307.122 201.737 306.999 201.192 306.754 200.72C306.515 200.249 306.143 199.882 305.637 199.621C305.137 199.355 304.492 199.221 303.702 199.222L300.804 199.223L300.816 214.036L297.654 214.038ZM313.1 214.029L313.085 196.575L316.247 196.573L316.259 211.377L323.947 211.373L323.949 214.024L313.1 214.029ZM329.591 214.021L326.216 214.022L332.347 196.565L336.25 196.563L342.418 214.014L339.043 214.016L334.37 200.143L334.233 200.143L329.591 214.021ZM329.696 207.177L338.901 207.172L338.903 209.712L329.698 209.717L329.696 207.177ZM358.827 202.44L355.64 202.441C355.549 201.919 355.381 201.456 355.136 201.052C354.891 200.644 354.587 200.297 354.223 200.013C353.859 199.729 353.444 199.516 352.978 199.375C352.518 199.227 352.021 199.154 351.487 199.154C350.538 199.154 349.697 199.393 348.965 199.871C348.232 200.343 347.659 201.037 347.245 201.952C346.831 202.861 346.624 203.972 346.625 205.284C346.626 206.62 346.835 207.744 347.25 208.659C347.671 209.568 348.246 210.255 348.973 210.721C349.707 211.18 350.545 211.41 351.488 211.41C352.011 211.409 352.499 211.341 352.954 211.204C353.414 211.062 353.826 210.854 354.189 210.581C354.558 210.308 354.868 209.973 355.117 209.575C355.373 209.177 355.548 208.723 355.645 208.211L358.832 208.227C358.713 209.056 358.456 209.835 358.058 210.562C357.667 211.29 357.153 211.932 356.517 212.489C355.881 213.041 355.137 213.473 354.285 213.786C353.433 214.093 352.487 214.247 351.448 214.248C349.914 214.248 348.544 213.894 347.339 213.184C346.134 212.475 345.184 211.45 344.49 210.109C343.796 208.769 343.448 207.161 343.446 205.286C343.445 203.405 343.793 201.797 344.491 200.462C345.188 199.12 346.139 198.094 347.343 197.383C348.547 196.672 349.911 196.317 351.433 196.316C352.405 196.315 353.308 196.451 354.144 196.723C354.979 196.996 355.724 197.396 356.378 197.924C357.032 198.446 357.569 199.088 357.99 199.849C358.417 200.605 358.696 201.468 358.827 202.44ZM361.732 214.004L361.718 196.549L373.071 196.543L373.073 199.194L364.882 199.198L364.886 203.937L372.488 203.932L372.491 206.583L364.888 206.587L364.892 211.351L373.151 211.347L373.153 213.997L361.732 214.004Z" fill="#B4C6E7"/>
<path d="M32.5662 276.087L32.5647 273.803L38.6205 267.858C39.1996 267.273 39.6822 266.753 40.0683 266.298C40.4544 265.843 40.7439 265.403 40.9368 264.976C41.1297 264.55 41.226 264.095 41.2256 263.612C41.2253 263.061 41.1 262.59 40.8497 262.198C40.5995 261.8 40.2555 261.494 39.8179 261.278C39.3802 261.063 38.883 260.955 38.3262 260.955C37.7523 260.956 37.2496 261.075 36.8179 261.314C36.3862 261.547 36.0512 261.88 35.8129 262.312C35.5802 262.744 35.464 263.258 35.4644 263.855L32.4559 263.857C32.4552 262.749 32.7074 261.786 33.2125 260.967C33.7177 260.149 34.4133 259.515 35.2994 259.065C36.1911 258.616 37.2137 258.391 38.3671 258.39C39.5376 258.389 40.5661 258.607 41.4528 259.044C42.3394 259.481 43.0273 260.08 43.5164 260.841C44.0113 261.602 44.259 262.471 44.2596 263.449C44.2601 264.102 44.1355 264.744 43.8859 265.375C43.6363 266.006 43.1964 266.705 42.5662 267.472C41.9417 268.24 41.0645 269.169 39.9345 270.261L36.928 273.323L36.9281 273.442L44.5304 273.437L44.5321 276.079L32.5662 276.087ZM61.9752 258.613L61.9866 276.068L59.1741 276.069L50.9419 264.186L50.797 264.186L50.8048 276.075L47.6429 276.077L47.6315 258.622L50.461 258.621L58.6847 270.513L58.8381 270.513L58.8303 258.615L61.9752 258.613ZM71.3467 276.061L65.432 276.065L65.4205 258.611L71.4546 258.607C73.1876 258.606 74.6764 258.954 75.9212 259.652C77.1717 260.345 78.1325 261.341 78.8039 262.642C79.4752 263.943 79.8114 265.499 79.8126 267.312C79.8138 269.13 79.4767 270.693 78.8015 272C78.1319 273.307 77.1638 274.311 75.8972 275.01C74.6363 275.71 73.1195 276.06 71.3467 276.061ZM68.5921 273.327L71.1915 273.326C72.4074 273.325 73.4215 273.103 74.2337 272.659C75.0459 272.21 75.6563 271.542 76.0648 270.655C76.4733 269.763 76.6771 268.649 76.6762 267.314C76.6754 265.978 76.4701 264.871 76.0604 263.99C75.6507 263.104 75.0452 262.443 74.2438 262.006C73.448 261.563 72.4592 261.342 71.2774 261.343L68.5842 261.345L68.5921 273.327ZM88.7757 276.05L88.7643 258.596L95.3097 258.591C96.6506 258.59 97.7758 258.84 98.6852 259.339C99.6003 259.838 100.291 260.525 100.758 261.4C101.23 262.269 101.466 263.258 101.467 264.366C101.468 265.485 101.233 266.479 100.761 267.349C100.29 268.219 99.5949 268.904 98.6748 269.404C97.7546 269.899 96.6213 270.147 95.2747 270.148L90.9366 270.151L90.9349 267.551L94.8468 267.549C95.6309 267.548 96.2729 267.412 96.7727 267.139C97.2725 266.866 97.6416 266.49 97.8799 266.013C98.1239 265.535 98.2457 264.987 98.2453 264.368C98.2449 263.748 98.1224 263.203 97.8778 262.732C97.6388 262.26 97.2664 261.894 96.7606 261.633C96.2604 261.366 95.6154 261.233 94.8257 261.234L91.9279 261.235L91.9376 276.048L88.7757 276.05ZM104.221 276.04L104.21 258.585L107.372 258.583L107.381 273.387L115.069 273.382L115.07 276.033L104.221 276.04ZM120.712 276.029L117.337 276.031L123.471 258.573L127.374 258.57L133.539 276.021L130.164 276.023L125.493 262.151L125.357 262.151L120.712 276.029ZM120.819 269.185L130.023 269.179L130.025 271.719L120.82 271.725L120.819 269.185ZM149.951 264.445L146.763 264.447C146.672 263.924 146.504 263.461 146.259 263.058C146.015 262.649 145.711 262.303 145.347 262.019C144.983 261.735 144.568 261.522 144.102 261.38C143.642 261.233 143.145 261.159 142.61 261.16C141.662 261.16 140.821 261.399 140.088 261.877C139.356 262.349 138.782 263.043 138.368 263.958C137.954 264.867 137.747 265.978 137.748 267.291C137.749 268.626 137.957 269.751 138.372 270.665C138.793 271.574 139.368 272.261 140.095 272.727C140.829 273.186 141.667 273.416 142.61 273.415C143.133 273.415 143.621 273.347 144.076 273.21C144.536 273.068 144.948 272.86 145.311 272.587C145.68 272.314 145.99 271.979 146.239 271.581C146.495 271.183 146.671 270.728 146.767 270.217L149.954 270.232C149.836 271.061 149.578 271.84 149.18 272.567C148.789 273.295 148.275 273.937 147.639 274.494C147.003 275.046 146.259 275.478 145.407 275.791C144.555 276.099 143.609 276.253 142.569 276.253C141.035 276.254 139.666 275.9 138.461 275.191C137.256 274.481 136.306 273.456 135.612 272.116C134.918 270.776 134.57 269.168 134.569 267.293C134.568 265.412 134.916 263.804 135.614 262.468C136.312 261.127 137.263 260.101 138.467 259.39C139.671 258.679 141.035 258.323 142.557 258.322C143.529 258.321 144.433 258.457 145.268 258.729C146.103 259.001 146.848 259.401 147.502 259.929C148.155 260.452 148.693 261.093 149.114 261.854C149.54 262.61 149.819 263.473 149.951 264.445ZM152.854 276.008L152.842 258.554L164.195 258.546L164.196 261.197L156.006 261.202L156.009 265.941L163.611 265.936L163.613 268.586L156.011 268.591L156.014 273.355L164.273 273.35L164.274 276.001L152.854 276.008Z" fill="#B4C6E7"/>
<path d="M92.5662 218.089L92.5647 215.805L98.6205 209.86C99.1996 209.275 99.6822 208.755 100.068 208.3C100.454 207.845 100.744 207.404 100.937 206.978C101.13 206.552 101.226 206.097 101.226 205.614C101.225 205.063 101.1 204.592 100.85 204.2C100.599 203.802 100.256 203.496 99.8179 203.28C99.3802 203.064 98.883 202.957 98.3262 202.957C97.7523 202.958 97.2496 203.077 96.8179 203.316C96.3862 203.549 96.0512 203.882 95.8129 204.314C95.5802 204.746 95.464 205.26 95.4644 205.857L92.4559 205.859C92.4552 204.751 92.7074 203.788 93.2125 202.969C93.7177 202.151 94.4133 201.517 95.2994 201.067C96.1911 200.618 97.2137 200.393 98.3671 200.392C99.5376 200.391 100.566 200.609 101.453 201.046C102.339 201.483 103.027 202.082 103.516 202.843C104.011 203.604 104.259 204.473 104.26 205.45C104.26 206.104 104.135 206.746 103.886 207.377C103.636 208.008 103.196 208.707 102.566 209.474C101.942 210.242 101.065 211.171 99.9345 212.263L96.928 215.325L96.9281 215.444L104.53 215.439L104.532 218.081L92.5662 218.089Z" fill="#B4C6E7"/>
<path d="M526.831 244.323C525.603 244.324 524.512 244.115 523.557 243.695C522.608 243.275 521.858 242.69 521.306 241.941C520.755 241.191 520.461 240.325 520.427 239.342L523.631 239.34C523.66 239.811 523.817 240.223 524.101 240.575C524.385 240.922 524.763 241.191 525.235 241.384C525.707 241.577 526.235 241.673 526.82 241.673C527.445 241.672 527.999 241.564 528.482 241.348C528.965 241.126 529.342 240.819 529.615 240.427C529.887 240.034 530.021 239.583 530.015 239.071C530.02 238.543 529.883 238.077 529.605 237.674C529.326 237.271 528.922 236.956 528.394 236.729C527.871 236.502 527.24 236.388 526.501 236.389L524.959 236.39L524.957 233.952L526.5 233.951C527.108 233.951 527.639 233.846 528.093 233.635C528.554 233.424 528.914 233.129 529.175 232.748C529.436 232.361 529.564 231.915 529.558 231.41C529.563 230.915 529.452 230.486 529.225 230.123C529.003 229.754 528.687 229.467 528.278 229.263C527.875 229.058 527.4 228.957 526.855 228.957C526.32 228.957 525.826 229.054 525.372 229.248C524.917 229.441 524.551 229.717 524.273 230.075C523.995 230.427 523.847 230.848 523.831 231.337L520.788 231.339C520.81 230.361 521.091 229.503 521.63 228.764C522.175 228.02 522.902 227.44 523.811 227.024C524.72 226.603 525.739 226.392 526.87 226.392C528.035 226.391 529.046 226.609 529.904 227.046C530.768 227.477 531.436 228.059 531.908 228.792C532.381 229.524 532.617 230.334 532.617 231.22C532.624 232.203 532.335 233.027 531.75 233.692C531.171 234.357 530.41 234.793 529.466 234.998L529.467 235.134C530.694 235.304 531.635 235.758 532.289 236.496C532.948 237.228 533.275 238.14 533.27 239.231C533.271 240.208 532.993 241.084 532.437 241.857C531.886 242.624 531.125 243.227 530.154 243.665C529.188 244.103 528.081 244.323 526.831 244.323Z" fill="#B4C6E7"/>
<path d="M468.834 293.318C467.607 293.319 466.516 293.109 465.561 292.69C464.612 292.27 463.861 291.685 463.309 290.935C462.758 290.185 462.464 289.319 462.43 288.336L465.634 288.334C465.663 288.806 465.819 289.218 466.104 289.57C466.388 289.916 466.766 290.186 467.238 290.379C467.71 290.572 468.238 290.668 468.823 290.668C469.448 290.668 470.002 290.559 470.485 290.343C470.968 290.121 471.345 289.814 471.618 289.422C471.89 289.03 472.023 288.578 472.017 288.067C472.023 287.538 471.886 287.073 471.607 286.669C471.328 286.266 470.925 285.951 470.396 285.724C469.873 285.497 469.242 285.384 468.504 285.384L466.961 285.385L466.959 282.947L468.502 282.946C469.11 282.946 469.641 282.841 470.095 282.63C470.555 282.42 470.916 282.124 471.177 281.743C471.438 281.357 471.566 280.911 471.559 280.405C471.565 279.911 471.454 279.482 471.226 279.118C471.004 278.749 470.689 278.462 470.279 278.258C469.876 278.054 469.401 277.952 468.856 277.952C468.322 277.952 467.827 278.049 467.373 278.243C466.919 278.436 466.552 278.712 466.274 279.07C465.996 279.422 465.849 279.843 465.832 280.331L462.79 280.333C462.811 279.356 463.092 278.498 463.631 277.759C464.176 277.014 464.903 276.434 465.812 276.019C466.72 275.598 467.74 275.387 468.871 275.387C470.036 275.386 471.047 275.604 471.905 276.041C472.769 276.473 473.437 277.055 473.91 277.787C474.382 278.52 474.618 279.33 474.619 280.216C474.625 281.199 474.336 282.023 473.752 282.688C473.173 283.353 472.412 283.788 471.469 283.993L471.469 284.13C472.696 284.299 473.637 284.753 474.291 285.492C474.951 286.224 475.278 287.136 475.273 288.227C475.274 289.204 474.996 290.079 474.44 290.852C473.89 291.62 473.129 292.222 472.157 292.66C471.192 293.098 470.084 293.318 468.834 293.318ZM478.373 293.075L478.359 275.62L484.904 275.617C486.245 275.616 487.37 275.848 488.28 276.314C489.195 276.779 489.886 277.432 490.353 278.273C490.825 279.108 491.061 280.082 491.062 281.196C491.063 282.315 490.825 283.287 490.349 284.111C489.878 284.929 489.182 285.563 488.262 286.013C487.342 286.456 486.212 286.679 484.871 286.679L480.209 286.682L480.207 284.057L484.442 284.054C485.226 284.054 485.868 283.946 486.368 283.73C486.868 283.508 487.237 283.187 487.475 282.766C487.719 282.34 487.841 281.817 487.841 281.198C487.84 280.578 487.718 280.05 487.473 279.613C487.228 279.169 486.856 278.834 486.356 278.607C485.855 278.375 485.21 278.259 484.421 278.259L481.523 278.261L481.535 293.073L478.373 293.075ZM487.384 285.161L491.711 293.068L488.183 293.07L483.932 285.163L487.384 285.161ZM499.897 293.063L493.982 293.066L493.968 275.612L500.002 275.609C501.735 275.608 503.224 275.956 504.469 276.655C505.72 277.347 506.681 278.344 507.352 279.645C508.024 280.945 508.36 282.502 508.362 284.315C508.363 286.133 508.026 287.695 507.351 289.003C506.682 290.31 505.714 291.313 504.447 292.013C503.187 292.712 501.67 293.062 499.897 293.063ZM497.142 290.329L499.741 290.328C500.957 290.327 501.971 290.105 502.784 289.661C503.596 289.212 504.206 288.544 504.614 287.657C505.023 286.765 505.226 285.651 505.225 284.316C505.224 282.981 505.019 281.873 504.609 280.993C504.199 280.106 503.594 279.445 502.792 279.008C501.996 278.565 501.007 278.344 499.826 278.345L497.132 278.346L497.142 290.329ZM517.326 293.054L517.312 275.6L523.857 275.596C525.198 275.595 526.324 275.845 527.233 276.344C528.148 276.844 528.839 277.531 529.306 278.406C529.778 279.275 530.015 280.263 530.016 281.371C530.016 282.491 529.781 283.485 529.311 284.355C528.84 285.224 528.144 285.909 527.224 286.41C526.304 286.904 525.171 287.152 523.824 287.153L519.486 287.155L519.484 284.556L523.396 284.554C524.18 284.553 524.822 284.417 525.322 284.144C525.822 283.871 526.191 283.495 526.429 283.018C526.673 282.541 526.794 281.992 526.794 281.373C526.793 280.754 526.671 280.208 526.426 279.737C526.187 279.265 525.815 278.899 525.309 278.638C524.809 278.371 524.164 278.238 523.374 278.238L520.476 278.24L520.488 293.052L517.326 293.054ZM532.771 293.046L532.757 275.591L535.919 275.59L535.931 290.394L543.619 290.39L543.621 293.04L532.771 293.046ZM549.263 293.037L545.888 293.039L552.019 275.581L555.922 275.579L562.09 293.03L558.715 293.032L554.041 279.16L553.905 279.16L549.263 293.037ZM549.368 286.193L558.573 286.188L558.575 288.728L549.37 288.733L549.368 286.193ZM578.499 281.456L575.312 281.458C575.22 280.935 575.052 280.472 574.808 280.069C574.563 279.66 574.259 279.314 573.895 279.03C573.531 278.746 573.116 278.533 572.65 278.391C572.19 278.244 571.693 278.17 571.159 278.17C570.21 278.171 569.369 278.41 568.636 278.888C567.904 279.36 567.331 280.053 566.916 280.968C566.502 281.877 566.296 282.988 566.297 284.301C566.298 285.636 566.506 286.761 566.922 287.675C567.343 288.584 567.918 289.272 568.645 289.737C569.378 290.197 570.217 290.427 571.16 290.426C571.683 290.426 572.171 290.357 572.626 290.221C573.086 290.078 573.498 289.871 573.861 289.598C574.23 289.325 574.539 288.99 574.789 288.592C575.044 288.194 575.22 287.739 575.316 287.228L578.504 287.243C578.385 288.073 578.127 288.851 577.73 289.579C577.339 290.306 576.825 290.949 576.189 291.506C575.553 292.057 574.809 292.489 573.957 292.802C573.105 293.11 572.159 293.264 571.12 293.264C569.586 293.265 568.216 292.911 567.011 292.201C565.806 291.491 564.856 290.466 564.162 289.126C563.467 287.785 563.12 286.177 563.118 284.302C563.117 282.422 563.465 280.814 564.162 279.478C564.86 278.137 565.811 277.111 567.015 276.4C568.219 275.689 569.582 275.333 571.105 275.332C572.077 275.332 572.98 275.468 573.816 275.74C574.651 276.012 575.396 276.412 576.05 276.941C576.703 277.463 577.241 278.105 577.662 278.866C578.089 279.621 578.368 280.485 578.499 281.456ZM581.404 293.02L581.39 275.566L592.742 275.559L592.745 278.21L584.554 278.214L584.558 282.953L592.16 282.949L592.162 285.6L584.56 285.604L584.564 290.368L592.823 290.363L592.825 293.014L581.404 293.02Z" fill="#B4C6E7"/>
</svg>
