<svg width="32" height="34" viewBox="0 0 32 34" fill="none" xmlns="http://www.w3.org/2000/svg">
<path d="M31.5 18C31.5 27.3888 24.8366 34 16 34C7.16344 34 1 27.3888 1 18C1 8.61116 7.16344 1.5 16 1.5C24.8366 1.5 31.5 8.61116 31.5 18Z" fill="#ffffff"/>
<mask id="mask0_1555_1827" style="mask-type:luminance" maskUnits="userSpaceOnUse" x="0" y="0" width="32" height="34">
<path d="M31.6907 0H0V34H31.6907V0Z" fill="white"/>
</mask>
<g mask="url(#mask0_1555_1827)">
<path d="M10.6062 27.1593C10.5636 27.3364 10.4571 27.4249 10.2867 27.4249C10.0311 27.4249 9.90335 27.3364 9.90335 27.1593C9.94595 27.0265 10.0524 26.9601 10.2228 26.9601C10.4358 26.9601 10.5636 27.0265 10.6062 27.1593ZM8.6255 26.8937C8.58291 27.0265 8.6681 27.1372 8.88107 27.2257C9.09404 27.27 9.22184 27.2257 9.26443 27.0929C9.30702 26.9158 9.22183 26.8051 9.00886 26.7609C8.79588 26.7166 8.66809 26.7609 8.6255 26.8937ZM11.4368 26.7609C11.2238 26.8051 11.1173 26.9158 11.1173 27.0929C11.1599 27.2257 11.2877 27.2921 11.5007 27.2921C11.7136 27.2036 11.8201 27.0929 11.8201 26.9601C11.7775 26.8273 11.6497 26.7609 11.4368 26.7609ZM15.6537 1.32729C11.096 1.4158 7.36894 2.96525 4.47248 5.97572C1.57601 8.98608 0.0851901 12.8377 0 17.5304C0.0425951 21.2934 1.04358 24.5916 3.00295 27.4249C4.96232 30.2583 7.58192 32.2505 10.8617 33.4015C11.6285 33.4458 11.9905 33.1802 11.9479 32.6046C11.9479 32.4275 11.9479 32.0955 11.9479 31.6085C11.9479 30.5903 11.9479 29.5721 11.9479 28.5539C11.8627 28.5539 11.4581 28.5981 10.734 28.6867C9.96725 28.7309 9.15795 28.6424 8.30604 28.421C7.45415 28.1554 6.85781 27.5356 6.51705 26.5617C6.51705 26.4731 6.34667 26.119 6.0059 25.4992C5.66514 24.9236 5.2392 24.4588 4.72805 24.1046C4.64287 24.0604 4.47249 23.8833 4.21691 23.5734C3.91875 23.3078 4.13172 23.1528 4.85584 23.1085C4.89843 23.0643 5.1966 23.1528 5.75033 23.3742C6.30408 23.5512 6.81522 24.0382 7.28376 24.8351C8.05047 26.0304 8.88107 26.6281 9.77557 26.6281C10.7127 26.6281 11.4368 26.4953 11.9479 26.2296C12.1183 25.1671 12.4591 24.4145 12.9702 23.9718C11.096 23.8833 9.4561 23.3963 8.05047 22.5109C6.64482 21.6697 5.89941 19.6997 5.81423 16.6007C5.81423 15.7153 5.94202 14.9848 6.19758 14.4093C6.41057 13.8338 6.77263 13.2804 7.28376 12.7492C7.19857 12.4835 7.11337 11.9523 7.02819 11.1554C6.94299 10.3585 7.09208 9.38455 7.47543 8.23354C8.24215 8.10071 9.13664 8.34418 10.1589 8.96401C11.2238 9.53951 11.7988 9.89368 11.884 10.0265C13.1619 9.62803 14.5036 9.42885 15.9093 9.42885C17.2723 9.42885 18.6141 9.62803 19.9345 10.0265C19.9345 9.98219 20.2114 9.78302 20.7651 9.42885C21.2763 9.07468 21.8726 8.7647 22.5541 8.49916C23.2356 8.1892 23.832 8.10071 24.3431 8.23354C24.7265 9.38455 24.8756 10.3585 24.7903 11.1554C24.7052 11.9523 24.5987 12.4835 24.4709 12.7492C24.9821 13.2804 25.3867 13.8338 25.6848 14.4093C25.9831 14.9848 26.1321 15.7153 26.1321 16.6007C26.0894 18.7257 25.7274 20.2973 25.0459 21.3156C24.3217 22.2895 23.406 22.9536 22.2985 23.3078C21.1911 23.6619 20.0197 23.8833 18.7844 23.9718C19.4659 24.4588 19.8281 25.477 19.8706 27.0265C19.8706 28.6645 19.8706 30.1255 19.8706 31.4093C19.8706 31.9848 19.8706 32.3833 19.8706 32.6046C19.8281 33.1802 20.1901 33.4458 20.9568 33.4015C24.1939 32.2505 26.7923 30.2583 28.7517 27.4249C30.6684 24.5916 31.6481 21.2934 31.6907 17.5304C31.6481 14.4315 30.924 11.6645 29.5184 9.22963C28.0702 6.79466 26.1535 4.86895 23.768 3.45229C21.3402 2.07993 18.6354 1.3716 15.6537 1.32729ZM6.19758 24.2374C6.1124 24.326 6.1337 24.4367 6.26148 24.5695C6.38926 24.7023 6.49574 24.7244 6.58094 24.6359C6.66612 24.5473 6.64482 24.4367 6.51705 24.3039C6.43185 24.171 6.32537 24.1489 6.19758 24.2374ZM5.49476 23.7062C5.49476 23.7947 5.55866 23.8833 5.68644 23.9718C5.81423 24.0161 5.89942 23.994 5.94201 23.9054C5.98462 23.8169 5.94201 23.7283 5.81423 23.6398C5.68644 23.5955 5.57995 23.6176 5.49476 23.7062ZM7.60322 26.0304C7.51802 26.1632 7.53932 26.3182 7.66711 26.4953C7.83749 26.6281 7.98657 26.6502 8.11436 26.5617C8.15695 26.4289 8.11436 26.2739 7.98658 26.0968C7.8162 25.964 7.6884 25.9419 7.60322 26.0304ZM6.83651 25.1007C6.75131 25.1893 6.75131 25.3221 6.83651 25.4992C6.9643 25.632 7.09209 25.6762 7.21986 25.632C7.30506 25.5434 7.30506 25.4106 7.21986 25.2335C7.09209 25.0565 6.9643 25.0122 6.83651 25.1007Z" fill="black"/>
</g>
</svg>
