<svg width="1170" height="1571" viewBox="0 0 1170 1571" fill="none" xmlns="http://www.w3.org/2000/svg">
<path d="M0 237.857C0 221.288 13.4315 207.857 30 207.857H640.947C644.342 207.857 647.713 207.281 650.916 206.152L720.245 181.726C727.22 179.269 733.041 174.323 736.592 167.836L769.269 108.141C771.687 103.725 772.954 98.7711 772.954 93.7363V30C772.954 13.4315 786.386 0 802.954 0H1139.56C1156.13 0 1169.56 13.4315 1169.56 30V362.619C1169.56 379.187 1156.13 392.619 1139.56 392.619H982.812C956.304 392.619 942.822 424.481 961.279 443.508L1161.1 649.486C1166.53 655.083 1169.56 662.576 1169.56 670.374V1540.48C1169.56 1557.04 1156.13 1570.48 1139.56 1570.48H30C13.4315 1570.48 0 1557.04 0 1540.48V237.857Z" fill="#8ACADE"/>
</svg>
