<svg width="25" height="36" viewBox="0 0 25 36" fill="none" xmlns="http://www.w3.org/2000/svg">
<mask id="mask0_941_5058" style="mask-type:luminance" maskUnits="userSpaceOnUse" x="0" y="5" width="25" height="26">
<path d="M24.3057 5.02344H0V30.1331H24.3057V5.02344Z" fill="white"/>
</mask>
<g mask="url(#mask0_941_5058)">
<path d="M21.7897 13.0699C21.8214 13.2987 21.8372 13.5112 21.8372 13.7074C21.8372 16.0288 21.2834 18.3011 20.1757 20.5243C19.0996 22.7476 17.5014 24.5948 15.381 26.0661C13.2922 27.5374 10.7129 28.3057 7.64302 28.3711C4.79469 28.3384 2.24702 27.5701 0 26.0661C0.379777 26.0988 0.775379 26.1151 1.1868 26.1151C3.56041 26.0825 5.63336 25.3468 7.40566 23.9082C6.26633 23.8755 5.28523 23.5322 4.46238 22.8783C3.63953 22.2245 3.06987 21.3907 2.75339 20.3772C3.03822 20.4099 3.33888 20.4262 3.65536 20.4262C4.13008 20.4262 4.57315 20.3772 4.98458 20.2791C3.8136 20.0175 2.86416 19.429 2.13625 18.5136C1.40834 17.5981 1.02856 16.5029 0.996915 15.2277V15.1297C1.66152 15.522 2.40525 15.7509 3.22811 15.8162C1.83559 14.8027 1.09186 13.3642 0.996915 11.5005C1.02856 10.5524 1.26592 9.68596 1.709 8.90128C2.94328 10.4706 4.44656 11.7294 6.21885 12.6775C7.95949 13.6257 9.87421 14.1651 11.963 14.2959C11.8997 13.9036 11.868 13.5112 11.868 13.1189C11.8997 11.6803 12.3744 10.4707 13.2922 9.48979C14.2417 8.509 15.4127 8.0022 16.8051 7.96947C18.2927 8.0022 19.5111 8.54163 20.4605 9.58787C21.5999 9.35895 22.6601 8.9503 23.6411 8.36181C23.2297 9.57151 22.5018 10.5197 21.4574 11.2063C22.4386 11.0755 23.388 10.7976 24.3057 10.3725C23.6095 11.4188 22.7708 12.3179 21.7897 13.0699Z" fill="#9CA3AF"/>
</g>
</svg>
