<svg width="333" height="113" viewBox="0 0 333 113" fill="none" xmlns="http://www.w3.org/2000/svg">
<path d="M115.246 0.543674C122.439 0.627593 129.633 0.609967 136.827 0.606361C148.877 0.615151 160.924 0.696456 172.973 0.826073C186.887 0.975202 200.799 1.02431 214.714 1.01741C229.587 1.01103 244.46 1.07649 259.333 1.16326C263.601 1.18334 267.869 1.19008 272.138 1.19384C278.837 1.20333 285.534 1.26104 292.232 1.35592C295.854 1.39656 299.476 1.39137 303.098 1.38479C320.789 1.71428 320.789 1.71428 326.611 7.45801C327.703 9.0266 328.794 10.5952 329.918 12.2113C330.541 12.8345 331.165 13.4576 331.807 14.0997C332.021 18.6128 332.117 23.0692 332.124 27.584C332.13 28.9421 332.137 30.3003 332.143 31.6995C332.153 34.5824 332.157 37.4653 332.157 40.3482C332.161 44.7416 332.195 49.1341 332.231 53.5273C332.236 56.3279 332.24 59.1285 332.242 61.9292C332.256 63.2376 332.269 64.5461 332.283 65.8942C332.248 73.3796 331.492 79.184 328.03 85.8587C324.341 89.3404 324.341 89.3404 320.004 92.468C314.69 96.3784 309.516 100.289 304.542 104.625C299.703 108.519 299.703 108.519 295.926 108.519C295.926 109.766 295.926 111.012 295.926 112.296C258.352 112.428 220.777 112.528 183.203 112.59C165.757 112.619 148.311 112.659 130.866 112.724C115.663 112.78 100.461 112.817 85.2581 112.829C77.2055 112.837 69.1532 112.854 61.1007 112.895C53.5257 112.934 45.9512 112.945 38.3761 112.937C35.5921 112.939 32.808 112.95 30.0241 112.971C26.2304 113 22.4365 112.99 18.6427 112.977C15.4545 112.985 15.4545 112.985 12.2019 112.993C6.99238 112.296 6.99238 112.296 3.48111 109.771C-1.56544 102.414 0.352504 91.4276 0.380939 82.8292C0.382763 78.9395 0.304456 75.057 0.220494 71.1683C0.192152 56.7211 0.593854 45.7431 10.7693 34.872C14.8901 31.0484 18.9982 28.4467 23.7899 25.5175C29.7771 21.7417 29.7771 21.7417 35.2161 16.9304C58.8594 -2.12414 86.4348 0.135959 115.246 0.543674Z" fill="#3FD7FA"/>
<path d="M271.376 17.8869C276.138 17.7326 280.895 17.6209 285.658 17.5328C287.653 17.4616 287.653 17.4616 289.689 17.389C299.554 17.2526 305.905 19.3816 314.811 23.5521C319.923 23.2872 319.923 23.2872 324.253 21.6637C326.123 21.0405 327.992 20.4173 329.918 19.7753C334.2 28.3381 332.156 40.2346 332.161 49.6355C332.184 52.0613 332.207 54.487 332.231 56.9862C332.235 59.3243 332.238 61.6624 332.242 64.0714C332.25 66.2131 332.258 68.3548 332.266 70.5614C331.647 78.467 330.159 83.8595 324.341 89.3508C322.194 90.899 322.194 90.899 320.004 92.4785C314.69 96.3888 309.516 100.3 304.542 104.635C299.703 108.53 299.703 108.53 295.926 108.53C295.926 109.776 295.926 111.022 295.926 112.307C258.352 112.439 220.777 112.539 183.203 112.6C165.757 112.629 148.311 112.669 130.866 112.734C115.663 112.79 100.461 112.827 85.2582 112.84C77.2056 112.847 69.1533 112.864 61.1008 112.906C53.5258 112.944 45.9513 112.956 38.3762 112.947C35.5922 112.949 32.8081 112.96 30.0242 112.982C26.2305 113.01 22.4366 113 18.6428 112.988C15.4546 112.996 15.4546 112.996 12.202 113.004C6.99247 112.307 6.99247 112.307 3.47184 109.797C-0.0240867 104.654 0.696414 99.812 0.773839 93.6956C0.781855 92.4462 0.789872 91.1967 0.798131 89.9094C0.829798 85.926 0.90089 81.9443 0.973012 77.9614C1.00143 75.258 1.02728 72.5544 1.05047 69.8509C1.11287 63.2299 1.21063 56.6099 1.3271 49.9896C1.95029 49.9896 2.57348 49.9896 3.21555 49.9896C3.83874 67.4384 4.46193 84.8871 5.10401 102.865C6.35039 102.865 7.59677 102.865 8.88092 102.865C8.88092 101.618 8.88092 100.372 8.88092 99.0878C14.5463 95.3111 14.5463 95.3111 18.5593 95.9012C22.1001 97.1994 22.1001 97.1994 23.9886 99.0878C28.6537 99.2775 33.266 99.345 37.9321 99.3322C39.3944 99.3355 40.8567 99.3388 42.3634 99.3422C47.2422 99.3506 52.1208 99.345 56.9996 99.3386C60.4116 99.3399 63.8236 99.3417 67.2355 99.3441C74.4291 99.3469 81.6226 99.3428 88.8162 99.334C97.9142 99.3234 107.012 99.3295 116.11 99.3405C169.222 99.4342 169.222 99.4342 222.276 97.1994C222.9 95.3299 223.523 93.4604 224.165 91.5343C225.411 91.5343 226.658 91.5343 227.942 91.5343C228.448 89.8984 228.954 88.2626 229.476 86.5772C233.539 75.0307 239.331 63.5126 246.826 53.7664C248.073 53.7664 249.319 53.7664 250.603 53.7664C250.954 52.189 250.954 52.189 251.311 50.5797C254.442 38.9969 259.354 32.6917 268.271 24.7397C269.808 23.2171 269.808 23.2171 271.376 21.6637C271.376 20.4173 271.376 19.171 271.376 17.8869Z" fill="#36DBFB"/>
<path d="M115.82 0.166203C122.998 0.274328 130.176 0.258349 137.355 0.259201C149.372 0.278309 161.385 0.38302 173.4 0.546627C187.272 0.734992 201.142 0.810353 215.015 0.821396C229.858 0.833715 244.7 0.917967 259.543 1.02853C263.799 1.05602 268.054 1.07113 272.31 1.08387C280.225 1.11257 288.136 1.22301 296.05 1.34329C299.57 1.34578 299.57 1.34578 303.161 1.34831C320.782 1.7224 320.782 1.7224 326.605 7.46723C327.698 9.03458 328.791 10.6019 329.918 12.2168C330.541 12.8399 331.164 13.4631 331.806 14.1052C331.883 17.2516 331.887 20.4008 331.806 23.5471C331.183 22.3008 330.56 21.0545 329.918 19.7703C328.554 20.7441 327.191 21.7178 325.787 22.721C320.475 25.4355 320.475 25.4355 315.754 25.0815C311.033 23.5471 311.033 23.5471 306.895 21.6292C296.063 17.8329 284.499 18.1141 273.264 19.7703C267.815 23.3773 265.208 27.4483 261.933 32.9891C260.955 33.9482 259.976 34.9073 258.968 35.8955C254.991 39.959 254.091 44.6117 252.491 49.9847C251.868 51.231 251.245 52.4773 250.603 53.7614C249.356 53.7614 248.11 53.7614 246.826 53.7614C246.319 55.5141 245.813 57.2668 245.291 59.0726C243.049 65.0918 243.049 65.0918 240.378 67.6367C236.412 71.7685 234.759 76.1167 232.544 81.3792C228.355 91.3221 228.355 91.3221 224.164 93.4177C224.164 95.2872 224.164 97.1567 224.164 99.0829C209.831 99.0829 195.497 99.0829 180.73 99.0829C181.976 96.5902 183.222 94.0975 184.507 91.5293C185.753 91.5293 186.999 91.5293 188.283 91.5293C189.53 89.0366 190.776 86.544 192.06 83.9758C193.307 83.9758 194.553 83.9758 195.837 83.9758C195.837 82.1062 195.837 80.2367 195.837 78.3106C198.33 78.3106 200.823 78.3106 203.391 78.3106C203.936 77.22 204.482 76.1295 205.044 75.0059C206.095 72.9027 206.095 72.9027 207.168 70.757C207.674 69.5496 208.181 68.3422 208.702 67.0982C214.253 57.4584 223.945 50.5859 232.338 43.4712C235.69 40.706 235.69 40.706 237.383 36.7659C238.63 36.7659 239.876 36.7659 241.16 36.7659C242.037 34.5459 242.037 34.5459 242.931 32.281C244.937 27.3239 244.937 27.3239 246.826 23.5471C244.233 23.8173 244.233 23.8173 241.588 24.093C238.221 24.407 238.221 24.407 234.787 24.7274C232.552 24.9465 230.317 25.1656 228.015 25.3913C226.121 25.4059 224.227 25.4205 222.276 25.4355C220.406 23.566 220.406 23.566 218.499 21.6587C213.533 20.8552 213.533 20.8552 207.994 20.5965C197.909 19.9539 197.909 19.9539 195.837 17.882C192.111 17.595 188.374 17.4408 184.638 17.3379C182.232 17.271 179.827 17.2041 177.35 17.1352C167.649 16.9186 157.948 16.7637 148.246 16.6506C140.913 16.5643 133.586 16.4392 126.257 16.2112C91.1217 15.1439 62.66 15.6757 32.681 36.7699C29.6532 38.6543 29.6532 38.6543 25.8763 38.6543C25.8763 39.9006 25.8763 41.147 25.8763 42.4311C24.6299 42.4311 23.3835 42.4311 22.0994 42.4311C20.853 47.4164 19.6066 52.4018 18.3225 57.5382C17.0761 56.2919 15.8297 55.0456 14.5456 53.7614C10.7909 53.0105 7.01169 52.3683 3.21484 51.8731C4.47907 43.0237 6.4677 38.2863 13.4833 32.635C14.9873 31.625 16.4912 30.615 18.0407 29.5744C22.5053 26.4673 26.5719 23.3175 30.7469 19.8649C57.0973 -0.604334 83.8811 -0.41347 115.82 0.166203Z" fill="#5FEBFB"/>
<path d="M1.3271 49.9844C1.95029 49.9844 2.57348 49.9844 3.21555 49.9844C3.83874 67.4331 4.46193 84.8819 5.10401 102.859C6.35039 102.859 7.59677 102.859 8.88092 102.859C8.88092 101.613 8.88092 100.367 8.88092 99.0826C14.5463 95.3058 14.5463 95.3058 18.5593 95.896C22.1001 97.1942 22.1001 97.1942 23.9886 99.0826C27.2735 99.3057 30.5675 99.3967 33.8597 99.4368C37.0716 99.4816 37.0716 99.4816 40.3484 99.5273C43.9048 99.5617 43.9048 99.5617 47.5329 99.5967C51.2548 99.6426 51.2548 99.6426 55.0518 99.6894C78.0241 99.9636 100.998 100.105 123.972 100.216C140.938 100.3 157.901 100.445 174.866 100.672C186.808 100.827 198.749 100.908 210.692 100.936C217.815 100.955 224.934 101.006 232.056 101.137C271.108 102.719 271.108 102.719 304.702 85.3689C309.336 80.2137 309.336 80.2137 313.178 73.9582C314.34 72.2785 315.502 70.5989 316.699 68.8683C322.778 68.0173 326.31 68.0086 331.807 70.7567C330.919 83.4875 324.399 88.1165 315.143 96.1689C313.358 97.6367 311.574 99.1046 309.735 100.617C307.936 102.109 306.138 103.601 304.284 105.139C299.703 108.525 299.703 108.525 295.926 108.525C295.926 109.771 295.926 111.017 295.926 112.301C258.352 112.434 220.777 112.534 183.203 112.595C165.757 112.624 148.311 112.664 130.866 112.729C115.663 112.785 100.461 112.822 85.2582 112.834C77.2056 112.842 69.1533 112.859 61.1008 112.9C53.5258 112.939 45.9513 112.951 38.3762 112.942C35.5922 112.944 32.8081 112.955 30.0242 112.977C26.2305 113.005 22.4366 112.995 18.6428 112.983C15.4546 112.99 15.4546 112.99 12.202 112.998C6.99247 112.301 6.99247 112.301 3.47183 109.791C-0.0240907 104.648 0.696415 99.8067 0.77384 93.6904C0.781857 92.4409 0.789873 91.1915 0.798132 89.9042C0.829799 85.9208 0.900891 81.9391 0.973013 77.9562C1.00143 75.2527 1.02728 72.5492 1.05047 69.8457C1.11287 63.2247 1.21063 56.6047 1.3271 49.9844Z" fill="#1FB4E1"/>
<path d="M317.407 3.71875C324.633 5.09494 327.361 8.38908 331.807 14.1049C332.397 19.416 332.397 19.416 331.807 23.5469C330.872 21.6774 330.872 21.6774 329.918 19.7701C328.555 20.7438 327.192 21.7175 325.787 22.7207C320.476 25.4353 320.476 25.4353 315.755 25.0812C311.034 23.5469 311.034 23.5469 306.896 21.629C296.064 17.8327 284.5 18.1139 273.265 19.7701C267.816 23.3771 265.209 27.4481 261.934 32.9889C260.955 33.948 259.977 34.9071 258.969 35.8952C254.992 39.9587 254.092 44.6114 252.492 49.9844C251.869 51.2307 251.245 52.4771 250.603 53.7612C249.357 53.7612 248.111 53.7612 246.826 53.7612C246.32 55.5139 245.814 57.2665 245.292 59.0723C243.049 65.0916 243.049 65.0916 240.379 67.6365C236.413 71.7683 234.76 76.1165 232.545 81.379C228.356 91.3219 228.356 91.3219 224.165 93.4175C224.165 95.287 224.165 97.1565 224.165 99.0826C209.832 99.0826 195.498 99.0826 180.73 99.0826C181.977 96.59 183.223 94.0973 184.507 91.5291C185.754 91.5291 187 91.5291 188.284 91.5291C189.531 89.0364 190.777 86.5437 192.061 83.9755C193.308 83.9755 194.554 83.9755 195.838 83.9755C195.838 82.106 195.838 80.2365 195.838 78.3103C198.331 78.3103 200.824 78.3103 203.392 78.3103C203.937 77.2198 204.483 76.1292 205.044 75.0056C205.745 73.6035 206.447 72.2014 207.169 70.7567C207.675 69.5493 208.182 68.3419 208.703 67.098C214.254 57.4581 223.946 50.5856 232.338 43.4709C235.691 40.7058 235.691 40.7058 237.384 36.7656C238.631 36.7656 239.877 36.7656 241.161 36.7656C241.745 35.2856 242.33 33.8056 242.931 32.2807C244.938 27.3237 244.938 27.3237 246.826 23.5469C245.098 23.727 243.37 23.9072 241.589 24.0928C238.222 24.4068 238.222 24.4068 234.788 24.7271C232.553 24.9462 230.318 25.1653 228.016 25.391C226.122 25.4056 224.228 25.4202 222.276 25.4353C221.03 24.1889 219.784 22.9426 218.5 21.6585C213.105 20.936 207.756 20.7019 202.322 20.4192C200.806 20.205 199.289 19.9908 197.727 19.7701C197.103 18.5238 196.48 17.2774 195.838 15.9933C197.708 15.3701 199.577 14.747 201.503 14.1049C201.503 12.8586 201.503 11.6122 201.503 10.3281C206.579 10.2767 211.654 10.2395 216.729 10.2101C218.15 10.1943 219.57 10.1785 221.034 10.1622C227.665 10.1334 233.753 10.3514 240.327 11.3977C246.478 12.1726 251.486 11.7178 257.577 10.7984C268.741 9.59343 280.179 10.4272 291.386 10.7338C293.344 10.7606 295.303 10.7874 297.32 10.815C299.98 10.8775 299.98 10.8775 302.693 10.9413C309.459 10.0322 310.943 5.07967 317.407 3.71875Z" fill="#50DAFC"/>
<path d="M1.3271 49.9844C1.95029 49.9844 2.57348 49.9844 3.21555 49.9844C3.83874 67.4331 4.46193 84.8819 5.10401 102.859C6.35039 103.483 7.59677 104.106 8.88092 104.748C8.88092 105.994 8.88092 107.24 8.88092 108.525C45.4704 108.657 82.0598 108.757 118.65 108.818C135.638 108.847 152.626 108.887 169.615 108.952C184.419 109.008 199.223 109.045 214.027 109.058C221.869 109.065 229.71 109.082 237.551 109.124C244.928 109.162 252.304 109.174 259.681 109.165C262.392 109.167 265.103 109.178 267.814 109.2C271.508 109.228 275.203 109.218 278.897 109.206C282.002 109.214 282.002 109.214 285.169 109.222C290.946 108.431 292.269 107.186 295.926 102.859C297.173 102.859 298.419 102.859 299.703 102.859C299.469 100.561 299.236 98.2635 298.995 95.896C298.973 91.7061 298.973 91.7061 299.703 87.7523C305.014 82.6772 305.014 82.6772 311.034 78.3103C312.436 75.6813 312.436 75.6813 313.866 72.9992C315.269 70.9544 315.269 70.9544 316.699 68.8683C322.666 68.1376 326.404 68.0552 331.807 70.7567C330.919 83.4875 324.399 88.1165 315.143 96.1689C313.358 97.6367 311.574 99.1046 309.735 100.617C307.936 102.109 306.138 103.601 304.284 105.139C299.703 108.525 299.703 108.525 295.926 108.525C295.926 109.771 295.926 111.017 295.926 112.301C258.352 112.434 220.777 112.534 183.203 112.595C165.757 112.624 148.311 112.664 130.866 112.729C115.663 112.785 100.461 112.822 85.2582 112.834C77.2056 112.842 69.1533 112.859 61.1008 112.9C53.5258 112.939 45.9513 112.951 38.3762 112.942C35.5922 112.944 32.8081 112.955 30.0242 112.977C26.2305 113.005 22.4366 112.995 18.6428 112.983C15.4546 112.99 15.4546 112.99 12.202 112.998C6.99247 112.301 6.99247 112.301 3.47183 109.791C-0.0240907 104.648 0.696415 99.8067 0.77384 93.6904C0.781857 92.4409 0.789873 91.1915 0.798132 89.9042C0.829799 85.9208 0.900891 81.9391 0.973013 77.9562C1.00143 75.2527 1.02728 72.5492 1.05047 69.8457C1.11287 63.2247 1.21063 56.6047 1.3271 49.9844Z" fill="#3997D2"/>
<path d="M301.592 89.6406C300.66 101.99 300.66 101.99 295.808 106.4C293.997 107.452 293.997 107.452 292.149 108.525C292.149 109.148 292.149 109.771 292.149 110.413C258.497 110.413 224.845 110.413 190.173 110.413C190.173 109.167 190.173 107.92 190.173 106.636C188.926 106.636 187.68 106.636 186.396 106.636C186.396 105.39 186.396 104.143 186.396 102.859C184.526 102.236 182.657 101.613 180.73 100.971C182.603 100.967 182.603 100.967 184.513 100.963C197.534 100.926 210.553 100.823 223.573 100.683C228.429 100.639 233.285 100.612 238.141 100.602C245.131 100.584 252.119 100.507 259.109 100.418C262.352 100.429 262.352 100.429 265.661 100.44C279.891 100.182 289.869 89.6406 301.592 89.6406Z" fill="#1D9CDB"/>
<path d="M65.5644 3.4367C69.3118 6.55698 69.3118 6.55698 70.8461 11.514C70.963 12.994 71.0798 14.4741 71.2002 15.9989C32.0377 38.6597 32.0377 38.6597 25.8773 38.6597C25.8773 39.906 25.8773 41.1524 25.8773 42.4365C24.6309 42.4365 23.3845 42.4365 22.1004 42.4365C20.854 47.4218 19.6076 52.4072 18.3235 57.5436C17.0771 56.2973 15.8307 55.0509 14.5466 53.7668C10.7919 53.0159 7.01267 52.3737 3.21582 51.8784C4.48005 43.0291 6.46867 38.2917 13.4843 32.6404C16.9451 30.1823 20.4568 27.7956 23.9888 25.4409C26.0469 24.0287 26.0469 24.0287 28.1466 22.588C32.8688 19.3619 37.6279 16.1983 42.4013 13.0483C43.9652 11.9878 45.5291 10.9272 47.1404 9.83447C58.3736 2.60774 58.3736 2.60774 65.5644 3.4367Z" fill="#88E6FC"/>
<path d="M329.918 19.7656C332.431 24.7921 332.019 28.6173 331.991 34.2384C331.985 36.3562 331.979 38.474 331.973 40.656C331.957 42.876 331.941 45.0961 331.925 47.3834C331.916 49.618 331.908 51.8527 331.899 54.155C331.876 59.6875 331.845 65.2199 331.807 70.7523C327.999 70.5871 324.192 70.4219 320.384 70.2567C316.019 70.4028 316.019 70.4028 312.804 75.8273C311.597 77.8916 310.389 79.9558 309.145 82.0826C304.931 85.6357 300.553 88.4991 295.926 91.5246C294.68 90.9014 293.433 90.2783 292.149 89.6362C292.149 89.013 292.149 88.3899 292.149 87.7478C290.903 87.1246 289.656 86.5015 288.372 85.8594C288.372 83.9899 288.372 82.1204 288.372 80.1942C289.813 80.6227 291.254 81.0511 292.739 81.4925C297.75 82.6692 297.75 82.6692 300.765 79.8402C302.109 78.1459 302.109 78.1459 303.48 76.4174C305.923 73.8267 308.433 71.2964 311.034 68.8639C312.28 68.8639 313.526 68.8639 314.81 68.8639C314.975 62.6876 315.076 56.5118 315.165 50.334C315.212 48.5801 315.259 46.8262 315.308 45.0192C315.327 43.3335 315.345 41.6478 315.364 39.911C315.393 38.3584 315.423 36.8058 315.454 35.2061C314.67 30.199 313.006 28.5794 309.145 25.4308C309.768 24.1845 310.391 22.9381 311.034 21.654C312.475 22.0435 313.916 22.433 315.401 22.8343C322.034 23.7598 323.639 19.7656 329.918 19.7656Z" fill="#53E6FD"/>
<path d="M317.407 3.71875C324.632 5.09494 327.361 8.38908 331.806 14.1049C332.396 19.416 332.396 19.416 331.806 23.5469C330.872 21.6774 330.872 21.6774 329.918 19.7701C328.555 20.7438 327.191 21.7175 325.787 22.7207C320.476 25.4353 320.476 25.4353 315.4 25.1992C311.033 23.5469 311.033 23.5469 307.256 17.8817C302.688 16.9807 302.688 16.9807 297.293 17.0652C295.214 17.0278 293.135 16.9905 290.993 16.9519C288.74 16.9399 286.488 16.9278 284.167 16.9154C281.867 16.8815 279.567 16.8476 277.197 16.8127C269.828 16.7101 262.458 16.6463 255.088 16.5834C250.101 16.5208 245.114 16.4557 240.128 16.388C227.883 16.2271 215.637 16.0982 203.391 15.9933C202.768 14.1238 202.145 12.2543 201.503 10.3281C206.578 10.2767 211.653 10.2395 216.729 10.2101C218.149 10.1943 219.569 10.1785 221.033 10.1622C227.665 10.1334 233.753 10.3514 240.327 11.3977C246.477 12.1726 251.486 11.7178 257.577 10.7984C268.74 9.59343 280.178 10.4272 291.385 10.7338C293.344 10.7606 295.302 10.7874 297.32 10.815C299.979 10.8775 299.979 10.8775 302.693 10.9413C309.459 10.0322 310.942 5.07967 317.407 3.71875Z" fill="#96FBFE"/>
<path d="M220.388 2.77344C253.417 2.77344 286.446 2.77344 320.476 2.77344C316.737 4.64295 316.737 4.64295 312.922 6.55023C312.079 7.55284 311.236 8.55545 310.367 9.58844C305.566 13.6433 301.428 12.8209 295.255 12.7023C291.678 12.6621 291.678 12.6621 288.029 12.6211C285.507 12.5662 282.986 12.5096 280.464 12.4515C275.559 12.3689 270.653 12.2949 265.748 12.2302C263.436 12.1981 261.125 12.166 258.744 12.1329C253.577 12.2011 248.859 12.5899 243.779 13.4325C236.611 14.1849 233.921 13.3311 227.942 9.50084C226.5 8.60747 225.059 7.7141 223.574 6.79365C222.523 6.09015 221.471 5.38665 220.388 4.66183C220.388 4.03866 220.388 3.41549 220.388 2.77344Z" fill="#3BCAE7"/>
<path d="M195.838 15.9922C232.606 15.9922 269.374 15.9922 307.257 15.9922C308.192 18.7965 308.192 18.7965 309.145 21.6574C308.186 21.3653 307.227 21.0731 306.239 20.7722C295.348 18.4213 284.259 18.2703 273.265 19.769C267.897 23.3631 265.256 27.5515 261.934 32.9877C257.449 36.6465 257.449 36.6465 254.38 38.6529C253.134 36.1602 251.887 33.6676 250.603 31.0993C247.487 32.9688 244.371 34.8384 241.161 36.7645C244.702 27.7947 244.702 27.7947 246.826 23.5458C245.098 23.7259 243.369 23.906 241.589 24.0916C238.222 24.4056 238.222 24.4056 234.787 24.726C232.553 24.9451 230.318 25.1642 228.015 25.3899C226.121 25.4045 224.228 25.4191 222.276 25.4342C221.03 24.1878 219.784 22.9415 218.499 21.6574C213.105 20.9349 207.756 20.7007 202.322 20.4181C200.805 20.2039 199.289 19.9897 197.726 19.769C197.103 18.5226 196.48 17.2763 195.838 15.9922Z" fill="#46EDFC"/>
<path d="M316.699 68.8594C322.666 68.1287 326.404 68.0463 331.807 70.7478C330.919 83.4786 324.399 88.1076 315.143 96.16C313.358 97.6278 311.574 99.0957 309.735 100.608C307.936 102.1 306.137 103.592 304.284 105.13C299.703 108.516 299.703 108.516 295.926 108.516C295.926 109.762 295.926 111.008 295.926 112.292C294.68 112.292 293.433 112.292 292.149 112.292C291.526 110.423 290.903 108.553 290.261 106.627C293.377 105.381 296.493 104.135 299.703 102.851C299.469 100.553 299.236 98.2546 298.995 95.8871C298.973 91.6972 298.973 91.6972 299.703 87.7434C305.014 82.6683 305.014 82.6683 311.034 78.3014C311.969 76.5487 312.903 74.7961 313.866 72.9903C314.801 71.6271 315.736 70.2639 316.699 68.8594Z" fill="#1078B0"/>
<path d="M20.9201 89.1668C23.9888 91.5273 23.9888 91.5273 25.8773 93.4156C30.4576 93.6949 34.9909 93.8595 39.576 93.9468C40.9626 93.9815 42.3493 94.0163 43.7779 94.0521C48.2367 94.1634 52.6957 94.2628 57.1548 94.3598C61.5667 94.4574 65.9785 94.5578 70.3901 94.6676C73.1373 94.7358 75.8846 94.7973 78.6321 94.8506C87.5979 95.072 96.307 95.9637 105.192 97.1924C105.192 97.8156 105.192 98.4388 105.192 99.0808C93.4971 99.1275 81.8019 99.1618 70.1066 99.1846C66.1281 99.1941 62.1495 99.2069 58.171 99.2233C52.4521 99.2462 46.7333 99.2569 41.0144 99.2652C38.3466 99.2799 38.3466 99.2799 35.6249 99.2948C33.9619 99.2949 32.2989 99.2951 30.5855 99.2952C29.1262 99.2994 27.6668 99.3036 26.1632 99.3079C22.1004 99.0808 22.1004 99.0808 18.1472 98.0052C14.1593 96.7787 14.1593 96.7787 8.88119 99.0808C8.88119 100.327 8.88119 101.574 8.88119 102.858C7.01162 103.481 5.14204 104.104 3.21582 104.746C3.21582 101.007 3.21582 97.268 3.21582 93.4156C15.2776 87.385 15.2776 87.385 20.9201 89.1668Z" fill="#7DFCFE"/>
<path d="M5.10352 55.6484C9.77729 56.5832 9.77729 56.5832 14.5455 57.5368C17.3371 63.1201 16.5478 68.3806 16.4339 74.5324C19.5497 74.5324 22.6656 74.5324 25.8759 74.5324C24.6295 75.7787 23.3832 77.0251 22.0991 78.3092C22.7222 79.5555 23.3454 80.8018 23.9875 82.086C17.3495 89.4825 15.2628 91.3845 5.10352 93.4163C5.10352 80.9529 5.10352 68.4895 5.10352 55.6484Z" fill="#21C8F4"/>
<path d="M324.253 32.9844C326.746 32.9844 329.239 32.9844 331.807 32.9844C331.807 45.4478 331.807 57.9112 331.807 70.7523C327.445 70.1291 323.083 69.5059 318.588 68.8639C317.994 55.4633 317.747 44.9137 324.253 32.9844Z" fill="#28C7F3"/>
<path d="M37.208 27.3273C36.5848 29.1968 35.9616 31.0663 35.3196 32.9925C32.8268 32.9925 30.334 32.9925 27.7657 32.9925C27.1426 36.1083 26.5194 39.2242 25.8773 42.4344C24.6309 42.4344 23.3845 42.4344 22.1004 42.4344C20.854 47.4198 19.6076 52.4052 18.3235 57.5416C17.0771 56.2952 15.8307 55.0489 14.5466 53.7648C10.7919 53.0139 7.01267 52.3716 3.21582 51.8764C5.0616 41.6224 8.0515 35.9239 16.2727 29.3853C23.0777 25.83 29.7535 26.4145 37.208 27.3273Z" fill="#ABE5F5"/>
<path d="M135.407 2.77251C143.103 2.6791 150.798 2.61058 158.494 2.56505C161.112 2.54606 163.729 2.5203 166.347 2.48759C170.111 2.44174 173.875 2.42236 177.639 2.40368C181.036 2.37402 181.036 2.37402 184.502 2.34375C190.172 2.77251 190.172 2.77251 195.838 6.5493C195.838 7.79564 195.838 9.04198 195.838 10.3261C187.183 10.5452 178.528 10.6796 169.872 10.7982C167.413 10.8615 164.954 10.9248 162.421 10.99C160.06 11.0143 157.698 11.0387 155.266 11.0637C153.09 11.1033 150.914 11.1429 148.673 11.1836C141.828 10.1559 139.679 8.07026 135.407 2.77251Z" fill="#36C5EE"/>
<path d="M105.193 2.77079C137.402 1.01185 137.402 1.01185 150.516 12.2128C150.516 12.8359 150.516 13.4591 150.516 14.1012C130.573 14.1012 110.631 14.1012 90.085 14.1012C90.085 13.478 90.085 12.8548 90.085 12.2128C101.302 11.278 101.302 11.278 112.746 10.3244C110.254 7.83169 107.761 5.33901 105.193 2.77079Z" fill="#83DAFB"/>
<path d="M63.6465 2.77251C70.4527 2.66297 77.2586 2.59576 84.0654 2.53646C86.9665 2.48899 86.9665 2.48899 89.9263 2.44057C91.7824 2.4284 93.6386 2.41622 95.5511 2.40368C97.2619 2.38391 98.9728 2.36413 100.736 2.34375C105.193 2.77251 105.193 2.77251 110.858 6.5493C110.858 7.79564 110.858 9.04198 110.858 10.3261C105.113 10.4797 99.3719 10.5917 93.6257 10.6802C91.2011 10.7514 91.2011 10.7514 88.7275 10.824C78.8558 10.9379 72.2714 10.0478 63.6465 4.66091C63.6465 4.03774 63.6465 3.41457 63.6465 2.77251Z" fill="#39BFF0"/>
<path d="M69.3115 6.54688C71.1811 7.17005 73.0507 7.79322 74.9769 8.43527C77.912 8.58836 80.8531 8.6384 83.7921 8.61968C85.4779 8.6136 87.1637 8.60751 88.9006 8.60124C90.6545 8.58542 92.4084 8.5696 94.2155 8.55329C96.8793 8.54051 96.8793 8.54051 99.5969 8.52748C103.98 8.50523 108.363 8.47416 112.746 8.43527C113.369 9.68161 113.992 10.9279 114.634 12.2121C125.229 12.8352 135.823 13.4584 146.738 14.1005C146.738 14.7236 146.738 15.3468 146.738 15.9888C121.811 15.9888 96.883 15.9888 71.2 15.9888C70.5768 12.873 69.9536 9.75714 69.3115 6.54688Z" fill="#71E1F3"/>
<path d="M195.838 15.9922C232.606 15.9922 269.374 15.9922 307.257 15.9922C308.192 18.7965 308.192 18.7965 309.145 21.6574C308.113 21.3502 307.081 21.043 306.018 20.7266C300.956 19.6315 296.38 19.5427 291.199 19.5546C288.081 19.5548 288.081 19.5548 284.9 19.555C281.55 19.5696 281.55 19.5696 278.133 19.5846C274.691 19.5886 274.691 19.5886 271.18 19.5927C263.849 19.6032 256.518 19.6269 249.187 19.651C244.217 19.6604 239.248 19.669 234.278 19.6768C222.094 19.6976 209.91 19.7292 197.726 19.769C197.103 18.5226 196.48 17.2763 195.838 15.9922Z" fill="#55E9F0"/>
<path d="M316.699 4.66406C323.859 5.68685 327.389 8.42732 331.806 14.106C332.278 19.2991 332.278 19.2991 331.806 23.548C331.183 22.3017 330.56 21.0553 329.918 19.7712C326.179 21.6407 322.44 23.5102 318.587 25.4364C315.472 21.6974 312.356 17.9584 309.146 14.106C311.638 10.9902 314.131 7.87433 316.699 4.66406Z" fill="#86E3F1"/>
<path d="M301.59 89.6406C300.658 101.99 300.658 101.99 295.807 106.4C294.6 107.101 293.392 107.802 292.148 108.525C292.148 109.148 292.148 109.771 292.148 110.413C287.786 110.413 283.424 110.413 278.93 110.413C280.991 100.564 284.665 96.7666 292.613 91.3077C295.925 89.6406 295.925 89.6406 301.59 89.6406Z" fill="#1396D3"/>
<path d="M190.173 2.77159C195.014 2.56679 199.847 2.41752 204.69 2.29949C206.052 2.2362 207.414 2.17291 208.818 2.1077C210.15 2.08335 211.483 2.05901 212.856 2.03393C214.681 1.9746 214.681 1.9746 216.543 1.91406C220.388 2.77159 220.388 2.77159 229.83 10.3252C220.483 10.3252 211.135 10.3252 201.504 10.3252C202.127 12.1947 202.75 14.0642 203.392 15.9903C200.899 15.9903 198.407 15.9903 195.838 15.9903C195.838 14.744 195.838 13.4977 195.838 12.2136C197.085 12.2136 198.331 12.2136 199.615 12.2136C199.615 10.9672 199.615 9.72088 199.615 8.43677C194.941 6.56726 194.941 6.56726 190.173 4.65998C190.173 4.03681 190.173 3.41364 190.173 2.77159Z" fill="#84EDF9"/>
<path d="M1.32727 49.9844C1.95046 49.9844 2.57365 49.9844 3.21573 49.9844C3.83892 67.4331 4.46211 84.8819 5.10418 102.859C6.35056 103.483 7.59694 104.106 8.88109 104.748C8.88109 105.994 8.88109 107.24 8.88109 108.525C34.1203 109.459 34.1203 109.459 59.8694 110.413C59.8694 111.036 59.8694 111.659 59.8694 112.301C52.4428 112.442 45.0168 112.544 37.5892 112.613C33.8214 112.655 30.054 112.727 26.2866 112.799C23.9192 112.818 21.5518 112.836 19.1127 112.855C16.9271 112.884 14.7415 112.914 12.4897 112.945C6.99264 112.301 6.99264 112.301 3.43703 110.243C0.212538 104.73 0.693778 100.029 0.774013 93.6904C0.782029 92.4409 0.790045 91.1915 0.798305 89.9042C0.829971 85.9208 0.901064 81.9391 0.973186 77.9562C1.00161 75.2527 1.02746 72.5492 1.05064 69.8457C1.11304 63.2247 1.21081 56.6047 1.32727 49.9844Z" fill="#2E8FC1"/>
<path d="M312.921 83.9766C314.791 84.5997 316.66 85.2229 318.587 85.865C317.61 93.4762 313.995 96.5394 308.319 101.444C306.802 102.778 305.285 104.112 303.723 105.487C299.703 108.526 299.703 108.526 295.926 108.526C295.926 109.772 295.926 111.018 295.926 112.302C294.68 112.302 293.433 112.302 292.149 112.302C291.526 110.433 290.903 108.563 290.261 106.637C291.78 106.248 293.299 105.858 294.864 105.457C296.461 104.6 298.057 103.743 299.703 102.861C300.014 100.991 300.326 99.1215 300.647 97.1953C300.958 95.3258 301.27 93.4563 301.591 91.5301C306.312 89.1696 306.312 89.1696 311.033 87.7534C311.656 86.507 312.279 85.2607 312.921 83.9766Z" fill="#0E84C7"/>
<path d="M42.8719 38.6572C42.8719 44.3224 42.8719 44.3224 39.2869 48.1803C37.7436 49.5167 36.2003 50.8531 34.6102 52.2301C32.3098 54.2566 32.3098 54.2566 29.963 56.324C25.8764 59.4296 25.8764 59.4296 22.0996 59.4296C22.5493 51.6343 22.8486 47.4452 28.2369 41.6078C33.772 38.4629 36.6301 37.9439 42.8719 38.6572Z" fill="#31E1FA"/>
<path d="M61.7572 87.75C64.2499 87.75 66.7427 87.75 69.311 87.75C72.6158 91.5268 72.6158 91.5268 74.9764 95.3036C66.872 95.4674 58.768 95.5685 50.6625 95.6576C47.1972 95.7289 47.1972 95.7289 43.6619 95.8015C40.3573 95.8289 40.3573 95.8289 36.986 95.8568C33.9301 95.9013 33.9301 95.9013 30.8125 95.9467C29.1836 95.7345 27.5548 95.5222 25.8765 95.3036C24.6301 93.4341 23.3838 91.5646 22.0996 89.6384C24.4877 89.7747 26.8758 89.911 29.3362 90.0515C32.4714 90.2286 35.6065 90.4056 38.7416 90.5826C41.1023 90.7177 41.1023 90.7177 43.5107 90.8555C45.0261 90.9407 46.5415 91.0259 48.1028 91.1137C49.4972 91.1928 50.8916 91.2719 52.3283 91.3534C55.4684 91.4981 58.6137 91.5268 61.7572 91.5268C61.7572 90.2804 61.7572 89.0341 61.7572 87.75Z" fill="#4CE3F1"/>
<path d="M77.1944 15.7737C79.6326 15.7739 79.6326 15.7739 82.1201 15.7741C83.8768 15.7839 85.6336 15.7936 87.4435 15.8037C89.2406 15.8063 91.0377 15.809 92.8892 15.8117C98.6426 15.8223 104.396 15.846 110.149 15.87C114.044 15.8795 117.939 15.8881 121.834 15.8959C131.394 15.9167 140.955 15.9493 150.515 15.9881C150.515 16.6112 150.515 17.2344 150.515 17.8765C124.964 17.8765 99.4134 17.8765 73.0883 17.8765C73.0883 19.1228 73.0883 20.3691 73.0883 21.6532C68.726 22.2764 64.3637 22.8996 59.8691 23.5416C65.6251 17.5242 68.8604 15.7493 77.1944 15.7737Z" fill="#46D7E9"/>
<path d="M23.9882 40.5384C22.1186 46.1469 20.2491 51.7554 18.323 57.5339C17.0766 56.2876 15.8303 55.0412 14.5462 53.7571C10.7917 53.0062 7.01254 52.364 3.21582 51.8687C3.83899 49.9992 4.46216 48.1297 5.10421 46.2036C6.35055 46.2036 7.59689 46.2036 8.881 46.2036C8.881 44.334 8.881 42.4645 8.881 40.5384C15.0934 38.4676 17.7811 39.0285 23.9882 40.5384Z" fill="#D9FAFD"/>
<path d="M114.635 8.4375C119.909 8.65205 125.179 8.89139 130.451 9.14565C131.95 9.20407 133.45 9.26249 134.995 9.32268C146.311 9.89805 146.311 9.89805 150.516 14.1027C130.573 14.1027 110.631 14.1027 90.085 14.1027C90.085 13.4795 90.085 12.8563 90.085 12.2143C98.1864 12.2143 106.288 12.2143 114.635 12.2143C114.635 10.9679 114.635 9.72161 114.635 8.4375Z" fill="#9DF4FD"/>
<path d="M312.922 4.66406C314.168 5.28723 315.414 5.9104 316.698 6.55246C314.829 9.66831 312.959 12.7842 311.033 15.9944C313.526 19.1103 316.019 22.2261 318.587 25.4364C313.984 24.0201 313.984 24.0201 309.145 21.6596C308.521 19.1669 307.898 16.6742 307.256 14.106C294.169 14.106 281.082 14.106 267.599 14.106C267.599 13.4829 267.599 12.8597 267.599 12.2176C269.356 12.1763 269.356 12.1763 271.149 12.1342C276.458 11.9936 281.765 11.811 287.073 11.6275C288.917 11.5849 290.761 11.5423 292.661 11.4984C294.432 11.4315 296.203 11.3645 298.028 11.2956C300.475 11.2214 300.475 11.2214 302.973 11.1457C308.016 10.1845 309.73 8.58569 312.922 4.66406Z" fill="#8DF3FE"/>
<path d="M292.149 85.8594C293.396 86.4825 294.642 87.1057 295.926 87.7478C293.699 94.4279 292.609 95.7718 286.484 99.0781C281.132 99.4811 276.229 99.6157 270.904 99.4322C269.497 99.4066 268.09 99.3811 266.64 99.3548C263.182 99.2883 259.725 99.1867 256.269 99.0781C256.892 97.8318 257.515 96.5855 258.157 95.3013C266.882 95.3013 275.606 95.3013 284.595 95.3013C284.595 94.055 284.595 92.8087 284.595 91.5246C286.465 91.5246 288.335 91.5246 290.261 91.5246C290.884 89.655 291.507 87.7855 292.149 85.8594Z" fill="#41D2FB"/>
<path d="M311.033 68.8672C311.656 70.1135 312.279 71.3599 312.921 72.644C308.079 80.5352 303.443 86.0989 295.926 91.5279C294.679 90.9047 293.433 90.2816 292.149 89.6395C292.149 89.0164 292.149 88.3932 292.149 87.7511C290.903 87.128 289.656 86.5048 288.372 85.8627C288.372 83.9932 288.372 82.1237 288.372 80.1976C289.813 80.626 291.254 81.0544 292.739 81.4958C297.75 82.6725 297.75 82.6725 300.765 79.8435C301.66 78.714 302.556 77.5845 303.479 76.4208C307.256 72.644 307.256 72.644 311.033 68.8672Z" fill="#4CDFFB"/>
<path d="M271.376 17.8829C276.255 17.7808 281.132 17.7059 286.012 17.6468C288.078 17.5994 288.078 17.5994 290.187 17.5509C297.445 17.485 303 17.5524 309.145 21.6597C309.145 22.906 309.145 24.1524 309.145 25.4365C311.015 26.0596 312.884 26.6828 314.81 27.3249C312.941 28.5712 311.071 29.8175 309.145 31.1017C306.652 29.8553 304.16 28.609 301.591 27.3249C301.591 25.4554 301.591 23.5858 301.591 21.6597C291.62 21.0365 281.649 20.4133 271.376 19.7713C271.376 19.1481 271.376 18.5249 271.376 17.8829Z" fill="#38ECF7"/>
<path d="M3.21582 51.875C6.95484 51.875 10.6939 51.875 14.5462 51.875C15.1694 54.9909 15.7925 58.1067 16.4346 61.317C15.1882 60.0706 13.9419 58.8243 12.6578 57.5402C10.1651 56.917 7.67243 56.2938 5.10421 55.6518C5.10421 68.1152 5.10421 80.5786 5.10421 93.4197C4.48104 93.4197 3.85787 93.4197 3.21582 93.4197C3.21582 79.7099 3.21582 66.0002 3.21582 51.875Z" fill="#3ECDF5"/>
<path d="M10.7695 57.5391C12.0159 57.5391 13.2622 57.5391 14.5463 57.5391C18.1649 64.7763 16.7354 72.6596 14.5463 80.1998C13.9031 83.3443 13.2706 86.4911 12.6579 89.6418C12.0348 89.6418 11.4116 89.6418 10.7695 89.6418C10.7695 79.0479 10.7695 68.454 10.7695 57.5391Z" fill="#1AC8F5"/>
<path d="M44.7605 12.2188C46.63 14.7114 48.4995 17.2041 50.4257 19.7723C43.7939 24.3198 39.6116 26.1292 31.5417 25.4375C30.9185 24.1912 30.2954 22.9448 29.6533 21.6607C34.6387 18.5449 39.624 15.429 44.7605 12.2188Z" fill="#7ED6ED"/>
<path d="M329.918 19.7656C330.541 24.1278 331.164 28.49 331.806 32.9844C331.183 31.738 330.56 30.4917 329.918 29.2076C324.293 29.392 324.293 29.392 318.669 29.5764C314.811 29.2076 314.811 29.2076 309.146 25.4308C309.769 24.1845 310.392 22.9381 311.034 21.654C313.196 22.2382 313.196 22.2382 315.401 22.8343C322.034 23.7598 323.639 19.7656 329.918 19.7656Z" fill="#4ADAEE"/>
<path d="M56.0913 21.6562C56.0913 22.9026 56.0913 24.1489 56.0913 25.433C51.7724 27.6939 47.4446 29.933 43.1085 32.1604C41.8792 32.8067 40.6499 33.453 39.3834 34.1189C36.1965 35.7452 32.9286 37.2107 29.6537 38.6518C28.4074 38.0286 27.1611 37.4055 25.877 36.7634C26.5001 35.5171 27.1233 34.2707 27.7653 32.9866C30.258 32.9866 32.7507 32.9866 35.3189 32.9866C35.9421 31.1171 36.5653 29.2476 37.2073 27.3214C40.5636 25.5289 40.5636 25.5289 44.6429 24.1348C45.9841 23.6601 47.3254 23.1854 48.7073 22.6963C52.3145 21.6562 52.3145 21.6562 56.0913 21.6562Z" fill="#99F3FE"/>
<path d="M190.173 2.77344C200.144 2.77344 210.114 2.77344 220.387 2.77344C220.387 3.39661 220.387 4.01978 220.387 4.66183C215.402 5.285 210.416 5.90817 205.28 6.55023C205.28 7.79657 205.28 9.04291 205.28 10.327C204.034 10.327 202.787 10.327 201.503 10.327C202.126 12.1965 202.75 14.066 203.392 15.9922C200.899 15.9922 198.406 15.9922 195.838 15.9922C195.838 14.7459 195.838 13.4995 195.838 12.2154C197.084 12.2154 198.331 12.2154 199.615 12.2154C199.615 10.9691 199.615 9.72273 199.615 8.43862C194.941 6.56911 194.941 6.56911 190.173 4.66183C190.173 4.03866 190.173 3.41549 190.173 2.77344Z" fill="#75DDF2"/>
<path d="M192.061 19.7656C193.307 22.2583 194.553 24.751 195.837 27.3192C189.14 29.5517 184.554 29.0061 177.544 28.3814C175.316 28.1891 173.089 27.9968 170.794 27.7987C169.088 27.6404 167.381 27.4822 165.623 27.3192C166.246 26.0729 166.869 24.8265 167.511 23.5424C171.214 22.7605 171.214 22.7605 175.773 22.3622C178.015 22.1504 178.015 22.1504 180.302 21.9343C183.586 21.7154 186.881 21.654 190.172 21.654C190.795 21.0308 191.419 20.4077 192.061 19.7656Z" fill="#41E6F5"/>
<path d="M324.253 12.2188C328.502 12.6908 328.502 12.6908 331.806 14.1071C331.806 17.223 331.806 20.3388 331.806 23.5491C331.183 22.3028 330.56 21.0564 329.918 19.7723C326.179 21.6418 322.44 23.5113 318.588 25.4375C317.964 23.568 317.341 21.6985 316.699 19.7723C320.004 15.8775 320.004 15.8775 324.253 12.2188Z" fill="#7AE1F7"/>
<path d="M16.4346 87.75C17.0577 90.2427 17.6809 92.7354 18.323 95.3036C15.2071 96.5499 12.0913 97.7963 8.881 99.0804C8.881 100.327 8.881 101.573 8.881 102.857C7.01149 103.48 5.14198 104.103 3.21582 104.746C3.21582 101.007 3.21582 97.2675 3.21582 93.4152C7.57801 91.5457 11.9402 89.6762 16.4346 87.75Z" fill="#72E7FD"/>
<path d="M224.164 4.6548C227.507 4.50158 230.851 4.39183 234.196 4.30073C236.058 4.235 237.921 4.16928 239.839 4.10156C244.936 4.6548 244.936 4.6548 248.44 7.50952C249.153 8.43698 249.867 9.36443 250.602 10.32C247.259 10.4732 243.914 10.583 240.569 10.6741C238.707 10.7398 236.845 10.8055 234.926 10.8732C229.829 10.32 229.829 10.32 226.325 7.46526C225.612 6.53781 224.899 5.61036 224.164 4.6548Z" fill="#36DCF4"/>
<path d="M25.8759 74.5368C24.6295 75.7832 23.3832 77.0295 22.0991 78.3136C22.7222 79.56 23.3454 80.8063 23.9875 82.0904C17.9952 88.7675 14.2293 92.6386 5.10352 93.4208C5.10352 92.1744 5.10352 90.9281 5.10352 89.644C7.5962 89.0208 10.0889 88.3976 12.6571 87.7556C12.6571 84.0166 12.6571 80.2776 12.6571 76.4252C17.3078 74.0999 20.7385 74.4016 25.8759 74.5368Z" fill="#28C0DF"/>
<path d="M243.05 38.6562C250.603 38.6562 250.603 38.6562 254.38 40.5446C253.757 43.6605 253.134 46.7763 252.491 49.9866C249.999 50.6098 247.506 51.233 244.938 51.875C242.932 47.3901 242.932 47.3901 241.161 42.433C241.784 41.1867 242.407 39.9404 243.05 38.6562Z" fill="#5DE9FA"/>
<path d="M73.0878 17.8828C74.9573 18.8176 74.9573 18.8176 76.8646 19.7712C74.995 20.706 74.995 20.706 73.0878 21.6596C73.0878 20.4133 73.0878 19.1669 73.0878 17.8828ZM73.0878 21.6596C69.311 27.3248 69.311 27.3248 65.2244 28.7042C62.924 29.1314 62.924 29.1314 60.5772 29.5673C58.2622 30.0164 58.2622 30.0164 55.9004 30.4746C54.1259 30.7849 54.1259 30.7849 52.3154 31.1016C59.5309 23.6456 62.658 21.3851 73.0878 21.6596Z" fill="#32E1F6"/>
<path d="M244.938 4.66406C248.054 4.66406 251.169 4.66406 254.38 4.66406C254.38 5.9104 254.38 7.15674 254.38 8.44085C256.249 9.06402 258.119 9.68719 260.045 10.3292C250.29 13.7136 243.974 14.3332 233.607 12.2176C233.607 11.5945 233.607 10.9713 233.607 10.3292C238.593 9.70607 243.578 9.0829 248.715 8.44085C247.468 7.19451 246.222 5.94817 244.938 4.66406Z" fill="#60F0F6"/>
<path d="M61.757 87.75C64.2497 87.75 66.7423 87.75 69.3106 87.75C71.1801 90.2427 73.0496 92.7354 74.9757 95.3036C68.744 95.3036 62.5123 95.3036 56.0918 95.3036C56.0918 94.0572 56.0918 92.8109 56.0918 91.5268C57.9613 91.5268 59.8308 91.5268 61.757 91.5268C61.757 90.2804 61.757 89.0341 61.757 87.75Z" fill="#56E9FC"/>
<path d="M322.246 68.5156C328.029 68.8697 328.029 68.8697 331.806 72.6465C328.029 76.4233 328.029 76.4233 323.308 77.0134C321.75 76.8187 320.192 76.6239 318.587 76.4233C317.341 74.5538 316.095 72.6843 314.811 70.7581C316.699 68.8697 316.699 68.8697 322.246 68.5156Z" fill="#0E8BC6"/>
<path d="M17.4961 34.7578C19.6382 34.7968 21.7804 34.8357 23.9875 34.8758C24.6106 37.3685 25.2338 39.8612 25.8759 42.4294C20.2673 41.8062 14.6588 41.1831 8.8803 40.541C8.8803 42.4105 8.8803 44.28 8.8803 46.2062C7.63396 46.2062 6.38762 46.2062 5.10352 46.2062C9.45247 34.8989 9.45247 34.8989 17.4961 34.7578Z" fill="#C5E1EC"/>
<path d="M54.2026 17.8828C53.5794 19.7523 52.9562 21.6218 52.3142 23.548C48.3309 25.4069 48.3309 25.4069 43.3443 26.8527C40.9052 27.5976 40.9052 27.5976 38.4168 28.3575C33.0047 29.2862 29.2576 28.7274 23.9883 27.3248C28.3847 24.7195 30.9684 23.5333 36.1448 23.666C43.4254 23.4884 47.2487 17.8828 54.2026 17.8828Z" fill="#8CDBF2"/>
<path d="M18.323 53.7578C19.5693 53.7578 20.8156 53.7578 22.0998 53.7578C22.0998 55.6273 22.0998 57.4968 22.0998 59.423C23.3461 59.423 24.5924 59.423 25.8765 59.423C25.2534 61.9157 24.6302 64.4084 23.9881 66.9766C21.4955 66.9766 19.0028 66.9766 16.4346 66.9766C17.0577 62.6144 17.6809 58.2522 18.323 53.7578Z" fill="#49E0F9"/>
<path d="M254.38 44.3203C256.269 49.9855 256.269 49.9855 254.026 54.7065C250.714 59.2751 247.737 62.0218 243.05 65.0926C244.296 61.3536 245.542 57.6146 246.827 53.7623C248.073 53.7623 249.319 53.7623 250.603 53.7623C251.85 50.6464 253.096 47.5306 254.38 44.3203Z" fill="#3ED4F4"/>
<path d="M50.4265 8.4375C57.416 9.17324 61.037 10.5478 65.5336 15.9911C62.4178 17.2374 59.3019 18.4838 56.0917 19.7679C54.8453 17.8984 53.599 16.0288 52.3149 14.1027C51.0685 12.8563 49.8222 11.61 48.5381 10.3259C49.1613 9.70272 49.7844 9.07955 50.4265 8.4375Z" fill="#85D9F1"/>
<path d="M29.6533 78.3086C27.7838 79.2433 27.7838 79.2433 25.8765 80.197C26.4997 82.6896 27.1229 85.1823 27.7649 87.7505C25.2723 88.3737 22.7796 88.9969 20.2114 89.6389C20.2114 87.1463 20.2114 84.6536 20.2114 82.0854C18.965 80.839 17.7187 79.5927 16.4346 78.3086C22.3518 76.3361 23.9687 76.5444 29.6533 78.3086Z" fill="#49E8FB"/>
<path d="M326.141 46.2031C327.388 46.2031 328.634 46.2031 329.918 46.2031C330.471 57.4523 330.471 57.4523 329.918 61.3103C328.049 63.1798 326.179 65.0493 324.253 66.9755C324.876 60.1206 325.499 53.2657 326.141 46.2031Z" fill="#1CCCFC"/>
<path d="M312.922 83.9766C314.791 84.5997 316.661 85.2229 318.587 85.865C317.522 92.0391 315.755 94.9779 311.033 99.0837C309.164 98.4605 307.294 97.8374 305.368 97.1953C306.615 97.1953 307.861 97.1953 309.145 97.1953C310.391 92.8331 311.638 88.4709 312.922 83.9766Z" fill="#1B82C4"/>
<path d="M63.6458 2.77344C64.269 5.88929 64.8921 9.00514 65.5342 12.2154C61.172 11.5922 56.8098 10.9691 52.3154 10.327C59.3969 2.77344 59.3969 2.77344 63.6458 2.77344Z" fill="#ABE6FA"/>
<path d="M235.495 17.8773C232.379 20.37 229.263 22.8626 226.053 25.4309C223.56 24.1845 221.067 22.9382 218.499 21.6541C224.419 18.1459 228.649 17.4969 235.495 17.8773Z" fill="#48F4FD"/>
<path d="M311.033 68.8672C311.657 70.1135 312.28 71.3599 312.922 72.644C309.87 76.4986 306.717 80.2745 303.48 83.9743C302.234 83.9743 300.987 83.9743 299.703 83.9743C300.293 80.3156 300.293 80.3156 301.592 76.4208C303.461 75.7976 305.331 75.1744 307.257 74.5324C308.503 72.6629 309.749 70.7933 311.033 68.8672Z" fill="#46D2ED"/>
<path d="M8.88086 40.5391C11.9967 40.5391 15.1126 40.5391 18.3228 40.5391C17.6997 43.6549 17.0765 46.7708 16.4344 49.981C14.5649 49.3579 12.6954 48.7347 10.7693 48.0926C9.47098 44.1978 9.47098 44.1978 8.88086 40.5391Z" fill="#FAFBF6"/>
<path d="M33.4298 17.8828C33.4298 19.1292 33.4298 20.3755 33.4298 21.6596C23.2035 27.47 23.2035 27.47 17.6145 26.7347C16.6019 26.3062 15.5892 25.8778 14.5459 25.4364C14.5459 24.8132 14.5459 24.19 14.5459 23.548C16.3375 22.9638 18.1291 22.3796 19.975 21.7776C31.4304 17.8828 31.4304 17.8828 33.4298 17.8828Z" fill="#09335C"/>
<path d="M324.252 85.8594C324.875 87.1057 325.499 88.3521 326.141 89.6362C327.387 90.2593 328.633 90.8825 329.917 91.5246C321.505 94.3288 321.505 94.3288 312.922 97.1897C316.699 93.413 320.475 89.6362 324.252 85.8594Z" fill="#053B74"/>
<path d="M3.21582 51.875C6.95484 51.875 10.6939 51.875 14.5462 51.875C15.1694 54.9908 15.7925 58.1067 16.4346 61.317C15.1882 60.0706 13.9419 58.8243 12.6578 57.5402C7.80346 56.3171 7.80346 56.3171 3.21582 55.6518C3.21582 54.4054 3.21582 53.1591 3.21582 51.875Z" fill="#54B9DC"/>
<path d="M329.918 19.7656C330.541 24.1278 331.164 28.49 331.806 32.9844C331.339 31.777 330.871 30.5696 330.39 29.3256C328.377 25.0769 328.377 25.0769 324.016 24.0145C322.264 23.7808 322.264 23.7808 320.476 23.5424C326.141 19.7656 326.141 19.7656 329.918 19.7656Z" fill="#59D8F3"/>
</svg>
